<svg id="Gruppe_527" data-name="Gruppe 527" xmlns="http://www.w3.org/2000/svg" width="241.587" height="114.764" viewBox="0 0 241.587 114.764">
  <path id="Pfad_760" data-name="Pfad 760" d="M435.98,351.194l-1.184,1.214L434.682,350l-.142,3.554-1.091-1.119,1.081,1.364-.358,8.987h1.118l-.481-10.115Z" transform="translate(-315.526 -254.78)" fill="#9f7042"/>
  <path id="Pfad_761" data-name="Pfad 761" d="M444.078,362.194l-1.184,1.214L442.78,361l-.142,3.554-1.091-1.119,1.081,1.364-.358,8.987h1.118l-.481-10.115Z" transform="translate(-321.421 -262.787)" fill="#9f7042"/>
  <path id="Pfad_762" data-name="Pfad 762" d="M456.227,356.193l-1.184,1.214L454.928,355l-.142,3.554-1.091-1.119,1.081,1.364-.358,8.987h1.118l-.481-10.115Z" transform="translate(-330.264 -258.42)" fill="#9f7042"/>
  <path id="Pfad_763" data-name="Pfad 763" d="M426.531,361.194l-1.184,1.214L425.233,360l-.141,3.554L424,362.435l1.081,1.364-.358,8.987h1.118l-.481-10.115Z" transform="translate(-308.648 -262.059)" fill="#9f7042"/>
  <rect id="Rechteck_859" data-name="Rechteck 859" width="89.235" height="114.264" transform="translate(3.537)" fill="#646464"/>
  <rect id="Rechteck_860" data-name="Rechteck 860" width="77.203" height="48.878" transform="translate(9.46 6.89)" fill="#fff"/>
  <rect id="Rechteck_861" data-name="Rechteck 861" width="77.204" height="52.387" transform="translate(9.459 53.764)" fill="#fff"/>
  <rect id="Rechteck_862" data-name="Rechteck 862" width="4.011" height="49.129" transform="translate(46.056 6.639)"/>
  <rect id="Rechteck_863" data-name="Rechteck 863" width="4.011" height="49.129" transform="translate(82.652 6.639)"/>
  <rect id="Rechteck_864" data-name="Rechteck 864" width="77.203" height="4.011" transform="translate(9.46 51.758)"/>
  <path id="Pfad_764" data-name="Pfad 764" d="M56.414,122.067l-6.9,4.638v3.837l10.453-8.475Z" transform="translate(-36.043 -88.858)" fill="#fff"/>
  <path id="Pfad_765" data-name="Pfad 765" d="M67.782,122.067l-18.268,14.3v3.269l23.81-17.57Z" transform="translate(-36.043 -88.858)" fill="#e6e6e6"/>
  <rect id="Rechteck_865" data-name="Rechteck 865" width="4.011" height="49.129" transform="translate(9.46 6.639)"/>
  <path id="Pfad_766" data-name="Pfad 766" d="M236.3,37.134,220.884,56.685l4.763.5,13.285-20.8Z" transform="translate(-160.791 -26.484)" fill="#e6e6e6"/>
  <rect id="Rechteck_866" data-name="Rechteck 866" width="77.203" height="4.011" transform="translate(9.46 6.639)"/>
  <rect id="Rechteck_867" data-name="Rechteck 867" width="77.203" height="4.011" transform="translate(9.46 29.199)"/>
  <rect id="Rechteck_868" data-name="Rechteck 868" width="89.235" height="114.264" transform="translate(149.631)" fill="#646464"/>
  <rect id="Rechteck_869" data-name="Rechteck 869" width="77.203" height="48.878" transform="translate(155.548 6.746)" fill="#fff"/>
  <rect id="Rechteck_870" data-name="Rechteck 870" width="77.202" height="52.387" transform="translate(155.549 53.62)" fill="#fff"/>
  <rect id="Rechteck_871" data-name="Rechteck 871" width="4.011" height="49.129" transform="translate(192.144 6.496)"/>
  <rect id="Rechteck_872" data-name="Rechteck 872" width="4.011" height="49.129" transform="translate(228.741 6.496)"/>
  <rect id="Rechteck_873" data-name="Rechteck 873" width="77.203" height="4.011" transform="translate(155.548 51.614)"/>
  <path id="Pfad_767" data-name="Pfad 767" d="M593.39,121.539l-6.9,4.638v3.837l10.453-8.475Z" transform="translate(-426.931 -88.473)" fill="#e6e6e6"/>
  <path id="Pfad_768" data-name="Pfad 768" d="M604.759,121.539l-18.269,14.3v3.269l23.811-17.57Z" transform="translate(-426.931 -88.473)" fill="#e6e6e6"/>
  <rect id="Rechteck_874" data-name="Rechteck 874" width="4.011" height="49.129" transform="translate(155.548 6.496)"/>
  <path id="Pfad_769" data-name="Pfad 769" d="M773.276,36.606,757.861,56.157l4.762.5,13.285-20.8Z" transform="translate(-551.68 -26.1)" fill="#e6e6e6"/>
  <rect id="Rechteck_875" data-name="Rechteck 875" width="77.203" height="4.011" transform="translate(155.548 6.496)"/>
  <rect id="Rechteck_876" data-name="Rechteck 876" width="77.203" height="4.011" transform="translate(155.548 29.055)"/>
  <path id="Pfad_770" data-name="Pfad 770" d="M855.764,478.9s.294.979-1.371,1.86-2.154,4.21-.2,5.189,2.545,2.252,1.566,3.133-2.741,3.231-.392,3.818,2.643,1.762,1.958,2.252,1.566-.881,1.566-.881.392,2.349,2.447,1.762,7.832-11.748,4.895-13.314S855.764,478.9,855.764,478.9Z" transform="translate(-663.322 -413.408)"/>
  <path id="Pfad_771" data-name="Pfad 771" d="M792.729,519.758l-9.393-6.6s-3.622,8.768-3.554,8.945a28.421,28.421,0,0,1-3.883,0l3.883-16.053s4.062-.762,6.347,1.016,8.632,5.331,8.632,5.331Z" transform="translate(-591.469 -416.172)" fill="#ffb9b9"/>
  <circle id="Ellipse_227" data-name="Ellipse 227" cx="7.108" cy="7.108" r="7.108" transform="translate(191.929 62.563)" fill="#ffb9b9"/>
  <path id="Pfad_772" data-name="Pfad 772" d="M853.647,509.73s2.539,6.6,1.523,8.124-2.285,1.523-3.3,2.031c-.508.254-5.077,2.535-5.077,4.059.025.979-.476,1.686,0,2.542l.762,4.316,6.347,4.062,8.378-1.015,6.347-3.554s1.016-9.393-1.777-10.916-6.093-5.077-5.839-6.347.508-4.316.508-4.316Z" transform="translate(-658.292 -435.108)" fill="#ffb9b9"/>
  <path id="Pfad_773" data-name="Pfad 773" d="M858.808,567.051v.008l-.229,2.242-.291,2.876-.332,3.251-.375,3.714h-18.4a15.756,15.756,0,0,0-1.45-5.49,4.213,4.213,0,0,1-.609-2.6c.171-1.7,1.371-2.886,1.371-3.235a3.022,3.022,0,0,0-.545-2.815c-.359-.367,0-2.544,0-2.544l.91-1.324s-.02.256.653,1.219a3.37,3.37,0,0,1,.506,2.161l-.506,2.032s.786.136,1.88.31a53.89,53.89,0,0,0,5.988.7,15.6,15.6,0,0,1,3.85.963l.109.033a2.5,2.5,0,0,0,1.812.065.615.615,0,0,0,.071-.046,2.994,2.994,0,0,1,.686-.345h0a19.956,19.956,0,0,1,2.693-.745c1.028-.226,1.932-.384,2.152-.422h.005Z" transform="translate(-649.996 -473.134)" fill="#e0aa0b"/>
  <path id="Pfad_774" data-name="Pfad 774" d="M902.542,557.171c-.019.136-.035.275-.052.411-.079.6-.144,1.2-.2,1.8q-.237,2.383-.286,4.78a9.976,9.976,0,0,1-.188,1.777,27.666,27.666,0,0,1-1.017,3.714H893.61c.19-1.415.446-3.591.571-5.871v0c.019-.354.033-.71.046-1.067a33.986,33.986,0,0,0-.049-3.594c0-.03,0-.06-.005-.087-.014-.155-.027-.3-.041-.454-.506-5.077,2.538-10.662,2.538-10.662a4.671,4.671,0,0,1,2.935,1.352A9.028,9.028,0,0,1,902.542,557.171Z" transform="translate(-692.938 -463.641)" fill="#ffb9b9"/>
  <path id="Pfad_775" data-name="Pfad 775" d="M901.857,593.606a9.981,9.981,0,0,1-.188,1.776,27.667,27.667,0,0,1-1.018,3.714H893.41a51.591,51.591,0,0,0,.2-6.883c-.014-.337-.033-.68-.06-1.02v-.005q-.028-.441-.073-.882a2.782,2.782,0,0,1,.054-1.018v-.005a1.2,1.2,0,0,1,.395-.647.7.7,0,0,1,.1-.073.534.534,0,0,1,.1-.054.7.7,0,0,1,.1-.046,1.915,1.915,0,0,1,.881-.076,4.066,4.066,0,0,1,.827.188,11.838,11.838,0,0,1,3.316,1.866,12.052,12.052,0,0,1,1.82,1.692A2.7,2.7,0,0,1,901.857,593.606Z" transform="translate(-692.793 -493.089)" opacity="0.1" style="mix-blend-mode: normal;isolation: isolate"/>
  <path id="Pfad_776" data-name="Pfad 776" d="M892.732,586.172l.809,3.427,4.522,2.158h3.808l1.777-8.124s-3.138-.664-4.742.176-5.373,1.04-5.373,1.04Z" transform="translate(-692.299 -489.464)" fill="#e0aa0b"/>
  <path id="Pfad_777" data-name="Pfad 777" d="M879.4,468.026s.325,1.085-1.518,2.061-2.386,4.663-.217,5.748,2.82,2.494,1.735,3.47-3.037,3.579-.434,4.229,2.928,1.952,2.169,2.494,1.735-.976,1.735-.976.434,2.6,2.711,1.952,4.55-12.479,2.011-15.525C885.231,468.647,879.4,468.026,879.4,468.026Z" transform="translate(-680.304 -405.49)"/>
  <path id="Pfad_778" data-name="Pfad 778" d="M885.267,462.28c0-1.589,9.876.155,11.914,2.374,1.411,1.536,3.555,3.847,1.759,5.476s-2.043,3.162-.735,3.81,3.889,2.628,1.558,3.956-2.293,2.669-1.416,2.987-1.934-.472-1.934-.472.284,2.623-2.084,2.611-9.164-13.029-7.541-16.648C888.3,463.009,885.267,462.28,885.267,462.28Z" transform="translate(-686.865 -400.859)"/>
  <path id="Pfad_779" data-name="Pfad 779" d="M870.336,462.585c-6.357-.383-6.995,4.4-6.995,4.4.044,2.769,4.441,1.42,5.663,1.833,1.474-1.06,4.314-3.065,6.345-4.5A9.607,9.607,0,0,0,870.336,462.585Z" transform="translate(-670.904 -401.513)"/>
  <path id="Pfad_780" data-name="Pfad 780" d="M572.173,622.161l.5,3.129a6.937,6.937,0,0,0,13.875,0l0-.043.494-3.086Z" transform="translate(-458.95 -517.691)" fill="#d1ccc5"/>
  <rect id="Rechteck_877" data-name="Rechteck 877" width="241.587" height="0.544" transform="translate(0 114.22)" fill="#d1ccc5"/>
</svg>
