<svg xmlns="http://www.w3.org/2000/svg" width="244.079" height="218.308" viewBox="0 0 244.079 218.308">
  <g id="Gruppe_536" data-name="Gruppe 536" transform="translate(-760.938 -182.724)">
    <g id="Gruppe_485" data-name="Gruppe 485" transform="translate(808.462 182.724)">
      <g id="Gruppe_383" data-name="Gruppe 383" transform="translate(0 0)">
        <rect id="Rechteck_606" data-name="Rechteck 606" width="151.009" height="44.766" transform="translate(22.773 117.136)" fill="#d1ccc5"/>
        <rect id="Rechteck_607" data-name="Rechteck 607" width="17.608" height="35.514" transform="translate(89.473 126.388)" fill="#646464"/>
        <rect id="Rechteck_608" data-name="Rechteck 608" width="133.401" height="41.184" transform="translate(31.577 64.313)" fill="#d1ccc5"/>
        <path id="Pfad_311" data-name="Pfad 311" d="M629.521,290.35H469.071a1.343,1.343,0,0,1-.931-2.311l43.851-42.15v-18.36a1.344,1.344,0,0,1,1.343-1.343h8.655a1.344,1.344,0,0,1,1.343,1.343v7.459l3.312-3.184a29.759,29.759,0,0,1,40.521-.674l63.254,56.878a1.343,1.343,0,0,1-.9,2.342Z" transform="translate(-451.019 -223.5)" fill="#646464"/>
        <path id="Pfad_312" data-name="Pfad 312" d="M444.424,204.421h0a8.505,8.505,0,0,1,8.505,8.505v11.49H435.919v-11.49A8.505,8.505,0,0,1,444.424,204.421Z" transform="translate(-377.632 -129.662)" fill="#fff"/>
        <path id="Pfad_313" data-name="Pfad 313" d="M530.518,204.829h0a8.505,8.505,0,0,1,8.505,8.505v11.49H522.012v-11.49A8.505,8.505,0,0,1,530.518,204.829Z" transform="translate(-432.241 -129.921)" fill="#fff"/>
        <path id="Pfad_314" data-name="Pfad 314" d="M616.611,205.237h0a8.505,8.505,0,0,1,8.505,8.505v11.49H608.106v-11.49A8.505,8.505,0,0,1,616.611,205.237Z" transform="translate(-486.849 -130.18)" fill="#fff"/>
        <path id="Pfad_315" data-name="Pfad 315" d="M650.885,344.373h0a8.505,8.505,0,0,1,8.505,8.505v11.49H642.38v-11.49A8.505,8.505,0,0,1,650.885,344.373Z" transform="translate(-508.589 -218.433)" fill="#fff"/>
        <path id="Pfad_316" data-name="Pfad 316" d="M420.759,344.373h0a8.505,8.505,0,0,1,8.505,8.505v11.49H412.254v-11.49A8.505,8.505,0,0,1,420.759,344.373Z" transform="translate(-362.621 -218.433)" fill="#fff"/>
        <path id="Pfad_317" data-name="Pfad 317" d="M617.882,523.794,589.554,511.26a1.193,1.193,0,0,0-.483-.1h-135a1.193,1.193,0,0,0-.45.088L422.783,523.78a1.194,1.194,0,0,0,.449,2.3h8v41.184h-.9v4.178H610.294v-4.178H608.8V526.08h8.6a1.194,1.194,0,0,0,.483-2.286Zm-11.467,43.47H433.62V526.08H606.415Z" transform="translate(-422.039 -405.959)" fill="#646464"/>
        <rect id="Rechteck_609" data-name="Rechteck 609" width="21.786" height="3.581" transform="translate(55.601 93.112)" fill="#646464"/>
        <rect id="Rechteck_610" data-name="Rechteck 610" width="21.786" height="3.581" transform="translate(87.533 93.112)" fill="#cacaca"/>
        <rect id="Rechteck_611" data-name="Rechteck 611" width="21.786" height="3.581" transform="translate(119.466 93.112)" fill="#646464"/>
        <rect id="Rechteck_612" data-name="Rechteck 612" width="21.786" height="3.581" transform="translate(131.404 144.742)" fill="#646464"/>
        <rect id="Rechteck_613" data-name="Rechteck 613" width="21.786" height="3.581" transform="translate(46.946 144.742)" fill="#646464"/>
        <path id="Pfad_321" data-name="Pfad 321" d="M685.172,447.689H662.521V429.57c.418-8.281,7.5-8.949,14.146-8.5a8.5,8.5,0,0,1,8.505,8.506Z" transform="translate(-574.575 -348.748)" fill="#d1ccc5"/>
      </g>
    </g>
    <g id="Gruppe_496" data-name="Gruppe 496" transform="translate(760.938 243.155)">
      <path id="Pfad_603" data-name="Pfad 603" d="M400.9,739.917c-3.78,0-7.387.073-10.69.2a.508.508,0,0,0,.01-.081c0-1.146-3.936-2.193-10.427-2.992,19.116-1.038,31.93-2.944,31.93-5.124,0-3.289-29.175-5.956-65.165-5.956s-65.165,2.667-65.165,5.956c0,.613,1.016,1.205,2.9,1.762-11.227.381-19.3,1.433-19.3,2.671,0,1.559,12.807,2.824,28.6,2.824,5.057,0,9.807-.13,13.929-.357-1,.387-1.529.8-1.529,1.216,0,2.509,18.853,4.542,42.109,4.542,9.662,0,18.563-.351,25.669-.942,3.806,1.118,14.51,1.924,27.12,1.924,15.8,0,28.6-1.264,28.6-2.824S416.7,739.917,400.9,739.917Z" transform="translate(-265 -587.687)" fill="#d1ccc5"/>
      <path id="Pfad_604" data-name="Pfad 604" d="M359.511,678.889c1.647,6.087,7.287,9.857,7.287,9.857s2.97-6.1,1.324-12.186-7.287-9.857-7.287-9.857S357.865,672.8,359.511,678.889Z" transform="translate(-335.931 -542.973)" fill="#f5d166"/>
      <path id="Pfad_605" data-name="Pfad 605" d="M336.2,696.354c4.518,4.4,5.07,11.16,5.07,11.16s-6.774-.37-11.292-4.768-5.07-11.16-5.07-11.16S331.677,691.955,336.2,696.354Z" transform="translate(-310.195 -561.746)" fill="#9f7042"/>
      <path id="Pfad_606" data-name="Pfad 606" d="M600.268,181.639s.519.594-.37,1.744-.171,3.645,1.517,3.708,2.507.771,2.1,1.7-.9,3.144.942,2.808,2.419.4,2.094.958.82-1.119.82-1.119,1.024,1.526,2.282.458,1.757-10.752-.806-10.916A65.323,65.323,0,0,0,600.268,181.639Z" transform="translate(-517.381 -176.496)"/>
      <path id="Pfad_607" data-name="Pfad 607" d="M390.5,275.271l.584,4.089h2.629l-.876-4.673Z" transform="translate(-294.624 -224.075)" fill="#9f616a"/>
      <path id="Pfad_608" data-name="Pfad 608" d="M647.059,377.83s3.5,3.213,2.628,3.5-4.089,3.8-4.673,4.089c-.522.261-6.133,2.044-5.257,0a7.682,7.682,0,0,1,2.921-3.213l.584-3.5Z" transform="translate(-547.673 -325.028)" fill="#f2f2f2"/>
      <path id="Pfad_609" data-name="Pfad 609" d="M647.059,377.83s3.5,3.213,2.628,3.5-4.089,3.8-4.673,4.089c-.522.261-6.133,2.044-5.257,0a7.682,7.682,0,0,1,2.921-3.213l.584-3.5Z" transform="translate(-547.673 -325.028)" opacity="0.1"/>
      <path id="Pfad_610" data-name="Pfad 610" d="M404.779,262.781l.584,4.089h2.628l-.876-4.673Z" transform="translate(-305.393 -214.652)" fill="#9f616a"/>
      <path id="Pfad_611" data-name="Pfad 611" d="M625.047,251.658,628.875,239s-6.425-5.841-2.044-7.593,5.549,7.009,5.549,7.009l-1.46,15.187h-5.841Z" transform="translate(-536.644 -214.382)" fill="#ffb8b8"/>
      <path id="Pfad_612" data-name="Pfad 612" d="M641.415,276.725s-7.548,9.681-6.4,11.12,3.19,10.2,3.19,10.2-.292,3.5.876,3.5,4.089-.584,4.089-1.46-2.628-11.974-2.628-11.974l7.593-9.93Z" transform="translate(-544.074 -248.747)" fill="#f5d166"/>
      <path id="Pfad_613" data-name="Pfad 613" d="M651.593,266.54l7.593-4.089s5.257,2.628,3.8,4.965-8.177,8.47-8.177,8.47,2.044,9.93,1.752,10.222-3.5,1.46-4.381,1.168-5.549-11.682-4.381-12.266,4.965-6.717,4.965-6.717Z" transform="translate(-553.667 -237.978)" fill="#f5d166"/>
      <path id="Pfad_614" data-name="Pfad 614" d="M561.416,712.947s5.257,3.213,5.841,3.213,8.47,2.044,4.965,3.5-16.939-.584-16.647-1.46,0-6.133.584-6.133S561.416,712.947,561.416,712.947Z" transform="translate(-484.226 -577.202)"/>
      <path id="Pfad_615" data-name="Pfad 615" d="M585.206,729.6s5.257,3.213,5.841,3.213,8.469,2.044,4.965,3.5-16.939-.584-16.647-1.46,0-6.133.584-6.133S585.206,729.6,585.206,729.6Z" transform="translate(-502.175 -589.766)"/>
      <path id="Pfad_616" data-name="Pfad 616" d="M561.97,469.355a41.665,41.665,0,0,0,2.336,7.593c1.46,3.213-.292,18.4-1.168,20.736s-9.346,30.081-6.717,30.373a66.582,66.582,0,0,0,7.885,0l8.469-26.577-1.46-35.63Z" transform="translate(-484.488 -391.437)" fill="#575a88"/>
      <path id="Pfad_617" data-name="Pfad 617" d="M561.97,469.355a41.665,41.665,0,0,0,2.336,7.593c1.46,3.213-.292,18.4-1.168,20.736s-9.346,30.081-6.717,30.373a66.582,66.582,0,0,0,7.885,0l8.469-26.577-1.46-35.63Z" transform="translate(-484.488 -391.437)" fill="#646464" opacity="0.835"/>
      <path id="Pfad_618" data-name="Pfad 618" d="M574.878,466.772s1.168,7.885,3.8,9.638,1.752,3.5,1.752,3.5l-1.168,15.479s-11.39,28.037-7.885,31.542,6.717,2.044,8.177,1.752,4.089-6.425,2.628-8.177,2.921-12.266,4.089-14.019,0-4.089,1.46-4.673,4.673-4.381,4.673-7.009,4.089-30.666,1.46-32.418-19.477,3.617-19.477,3.617Z" transform="translate(-495.644 -388.562)" fill="#646464"/>
      <ellipse id="Ellipse_211" data-name="Ellipse 211" cx="6.425" cy="6.425" rx="6.425" ry="6.425" transform="translate(67.26 24.473)" fill="#ffb8b8"/>
      <ellipse id="Ellipse_212" data-name="Ellipse 212" cx="5.257" cy="5.257" rx="5.257" ry="5.257" transform="translate(83.031 2.277)" fill="#9f616a"/>
      <path id="Pfad_619" data-name="Pfad 619" d="M566.668,288.62s3.5,6.425,5.257,6.425-7.009,6.717-7.009,6.717-2.921-8.47-3.5-8.762S566.668,288.62,566.668,288.62Z" transform="translate(-488.602 -257.721)" fill="#ffb8b8"/>
      <path id="Pfad_620" data-name="Pfad 620" d="M558.876,307.025s-7.593,2.628-7.3,3.5-2.044,2.921-2.044,3.8-.584,8.762,2.92,15.187,9.054,11.1,6.425,14.019-6.717,7.885-2.336,7.885,11.39-6.425,17.815-4.089,4.965-6.425,4.965-6.425.876-6.717-.876-8.762-7.885-16.647-7.885-18.4-5.841-8.47-7.3-8.47S558.876,307.025,558.876,307.025Z" transform="translate(-479.642 -270.285)" fill="#e0aa0b"/>
      <path id="Pfad_621" data-name="Pfad 621" d="M624.579,206.546" transform="translate(-536.291 -195.8)" fill="none" stroke="#2f2e41" stroke-width="1"/>
      <path id="Pfad_622" data-name="Pfad 622" d="M630.526,196.675a49.908,49.908,0,0,1,2.5,5.327c.125.806,4.214-5.327,4.214-5.327l-4.673-3.213Z" transform="translate(-540.778 -185.928)" fill="#9f616a"/>
      <path id="Pfad_623" data-name="Pfad 623" d="M632.1,204.666l4.965-5.257,5.841,2.628s5.447,11.974,5.79,12.85-8.711,4.965-9.587,4.965S632.1,210.8,632.1,210.8,630.64,206.419,632.1,204.666Z" transform="translate(-541.476 -190.415)" fill="#f2f2f2"/>
      <path id="Pfad_624" data-name="Pfad 624" d="M359.579,155.145V160.4h3.5l-1.153-5.257Z" transform="translate(-271.291 -133.885)" fill="#9f616a"/>
      <path id="Pfad_625" data-name="Pfad 625" d="M626.08,265.424a2.178,2.178,0,0,0-2.057,1.383c-.228.617-.151,1.266.934,1.538,2.336.584,2.628,0,2.628,0s4.056-.584,3.2-1.752-3.2-1.168-3.2-1.168Z" transform="translate(-535.792 -240.221)" fill="#9f616a"/>
      <path id="Pfad_626" data-name="Pfad 626" d="M661.332,368.314s3.5,3.213,2.629,3.5-4.089,3.8-4.673,4.089c-.522.261-6.133,2.044-5.257,0a7.682,7.682,0,0,1,2.921-3.213l.584-3.5Z" transform="translate(-558.442 -317.849)" fill="#f2f2f2"/>
      <path id="Pfad_627" data-name="Pfad 627" d="M532.063,262.609c.4-.236.877-.529.888-.995a.881.881,0,0,0-.577-.773,2.586,2.586,0,0,0-1.009-.136,1.314,1.314,0,0,0-.39.039c-.333.1-.524.44-.786.67a3.285,3.285,0,0,1-1.394.558,9.124,9.124,0,0,0-2.336.968,1.1,1.1,0,0,0-.37.3,1.492,1.492,0,0,0-.149.756,7.566,7.566,0,0,1-1.1,2.742,3,3,0,0,0-.214,2.841,9.686,9.686,0,0,1,.578.82c.369.769-.092,1.715.175,2.525a2.207,2.207,0,0,0,.559.838,4.443,4.443,0,0,0,1.84,1.114c.664.2,1.487.341,1.747.984a5.244,5.244,0,0,0,.246.855,1.354,1.354,0,0,0,.96.481,4.1,4.1,0,0,0,1.243.09,1.542,1.542,0,0,0,1.072-.574,3.136,3.136,0,0,1,.434-.64c.423-.353,1.065-.074,1.608-.168a1.176,1.176,0,0,0,.922-.865,1.638,1.638,0,0,1,.187-.661c.337-.432,1.225-.127,1.447-.627.145-.325-.158-.669-.451-.871a12.8,12.8,0,0,1-1.439-.976,1.675,1.675,0,0,1-.611-1.543c.2-.847,1.307-1.313,1.343-2.183a1.563,1.563,0,0,0-.738-1.232,11.366,11.366,0,0,1-1.223-.857c-.262-.253-.459-.572-.744-.8a3.49,3.49,0,0,0-1.875-.529c-.352-.036-1.754-.2-1.7-.734C530.25,263.586,531.706,262.818,532.063,262.609Z" transform="translate(-460.667 -236.657)"/>
      <path id="Pfad_628" data-name="Pfad 628" d="M622.229,219.63s-3.213,1.168-3.213,2.628-1.46,6.133,0,6.133a17.868,17.868,0,0,0,4.381-1.121Z" transform="translate(-531.605 -205.671)" fill="#f2f2f2"/>
      <path id="Pfad_629" data-name="Pfad 629" d="M623.741,234.376s8.47-2.921,8.762-2.921,4.381-2.336,4.089-3.213l-1.168-7.3s-4.673-9.638-1.46-9.638,4.965,7.593,4.965,7.593,7.009,13.142,3.213,16.063-19.568,8.177-20.444,7.3S623.741,234.376,623.741,234.376Z" transform="translate(-533.992 -199.389)" fill="#ffb8b8"/>
      <path id="Pfad_630" data-name="Pfad 630" d="M652.112,218.032l1.971,1.9-2.555,2.481s-3.5-1.46-3.213-.584,2.044,3.5,3.213,3.5,7.248-3.8,7.275-4.965-3.77-5.257-4.646-5.549S652.112,218.032,652.112,218.032Z" transform="translate(-554.186 -202.028)" fill="#9f616a"/>
      <path id="Pfad_631" data-name="Pfad 631" d="M648.735,208.448s4.291,3.788,4.875,3.788,1.646-5.691,1.646-5.691-3.462-2.256-4.745-1.641S648.735,208.448,648.735,208.448Z" transform="translate(-554.516 -194.481)" fill="#f2f2f2"/>
      <path id="Pfad_632" data-name="Pfad 632" d="M587.705,306.982s0-4.089,8.762-4.089h3.8l-1.752,9.638-5.841,1.752Z" transform="translate(-508.471 -268.491)" fill="#e0aa0b"/>
      <path id="Pfad_633" data-name="Pfad 633" d="M617.052,168.181a22.679,22.679,0,0,1-2.569-.158,7.168,7.168,0,0,0-2.445-3.482,9.249,9.249,0,0,0-2.457-1.348c-1.946-.827-5.185-.311-5.375.629-3.829,1.83-2.862,5.043-2.862,5.043.595,1.258,1.93.7,3.062.131a2.238,2.238,0,0,0,1.95,1.722c1.87.07,2.777.854,2.326,1.885s-.993,3.483,1.044,3.11,2.68.438,2.32,1.061.908-1.239.908-1.239,1.135,1.691,2.528.507a1.056,1.056,0,0,0,.29-.5,2.094,2.094,0,0,0,1.452.254c1.668-.746.632-2.5.632-2.5s2.227-.342,1.51-.285-1.172-.874.043-2.55S618.177,168.219,617.052,168.181Z" transform="translate(-518.679 -162.778)"/>
      <rect id="Rechteck_759" data-name="Rechteck 759" width="0.876" height="2.628" transform="matrix(0.949, 0.316, -0.316, 0.949, 86.243, 3.812)" fill="#e0aa0b"/>
    </g>
  </g>
</svg>
