<svg xmlns="http://www.w3.org/2000/svg" xmlns:xlink="http://www.w3.org/1999/xlink" width="327.61" height="229.718" viewBox="0 0 327.61 229.718">
  <defs>
    <filter id="Linie_180" x="7.991" y="200.908" width="319.619" height="21" filterUnits="userSpaceOnUse">
      <feOffset dy="3" input="SourceAlpha"/>
      <feGaussianBlur stdDeviation="3" result="blur"/>
      <feFlood flood-opacity="0.161"/>
      <feComposite operator="in" in2="blur"/>
      <feComposite in="SourceGraphic"/>
    </filter>
    <filter id="Ellipse_245" x="277.185" y="192.737" width="36.981" height="36.981" filterUnits="userSpaceOnUse">
      <feOffset dy="3" input="SourceAlpha"/>
      <feGaussianBlur stdDeviation="3" result="blur-2"/>
      <feFlood flood-opacity="0.161"/>
      <feComposite operator="in" in2="blur-2"/>
      <feComposite in="SourceGraphic"/>
    </filter>
    <filter id="Linie_181" x="8.172" y="0" width="21" height="221.908" filterUnits="userSpaceOnUse">
      <feOffset dy="3" input="SourceAlpha"/>
      <feGaussianBlur stdDeviation="3" result="blur-3"/>
      <feFlood flood-opacity="0.161"/>
      <feComposite operator="in" in2="blur-3"/>
      <feComposite in="SourceGraphic"/>
    </filter>
    <filter id="Ellipse_246" x="0" y="19.681" width="36.981" height="36.981" filterUnits="userSpaceOnUse">
      <feOffset dy="3" input="SourceAlpha"/>
      <feGaussianBlur stdDeviation="3" result="blur-4"/>
      <feFlood flood-opacity="0.161"/>
      <feComposite operator="in" in2="blur-4"/>
      <feComposite in="SourceGraphic"/>
    </filter>
  </defs>
  <g id="Gruppe_557" data-name="Gruppe 557" transform="translate(-891.459 -330)">
    <g id="Gruppe_556" data-name="Gruppe 556" transform="translate(919.44 374.663)">
      <ellipse id="Ellipse_151" data-name="Ellipse 151" cx="14.666" cy="14.666" rx="14.666" ry="14.666" transform="translate(44.576 92.276)" fill="#d1ccc5"/>
      <path id="Pfad_307" data-name="Pfad 307" d="M353.089,519.474A14.667,14.667,0,0,0,377.526,535a14.667,14.667,0,1,1-24.438-15.522Z" transform="translate(-304.675 -422.328)" fill="#646464" opacity="0.2" style="mix-blend-mode: normal;isolation: isolate"/>
      <path id="Pfad_308" data-name="Pfad 308" d="M246.743,325.819h.04l.725,41.58h-1.531Z" transform="translate(-187.46 -218.877)" fill="#3f3d56"/>
      <ellipse id="Ellipse_152" data-name="Ellipse 152" cx="29.569" cy="29.569" rx="29.569" ry="29.569" transform="translate(0 35.12)" fill="#9f7042"/>
      <path id="Pfad_309" data-name="Pfad 309" d="M221.428,360.416A29.571,29.571,0,0,0,270.7,391.711a29.571,29.571,0,1,1-49.271-31.295Z" transform="translate(-213.692 -315.477)" opacity="0.2" style="mix-blend-mode: normal;isolation: isolate"/>
      <path id="Pfad_310" data-name="Pfad 310" d="M154.87,197.087h.081l1.462,83.833h-3.087Z" transform="translate(-125.22 -132.398)" fill="#3f3d56"/>
      <rect id="Rechteck_606" data-name="Rechteck 606" width="135.531" height="40.177" transform="translate(88.987 105.13)" fill="#d1ccc5"/>
      <rect id="Rechteck_607" data-name="Rechteck 607" width="15.803" height="31.874" transform="translate(148.851 113.433)" fill="#646464"/>
      <rect id="Rechteck_608" data-name="Rechteck 608" width="119.728" height="36.963" transform="translate(96.888 57.721)" fill="#d1ccc5"/>
      <path id="Pfad_311" data-name="Pfad 311" d="M612.939,283.5h-144a1.205,1.205,0,0,1-.835-2.074l39.357-37.83V227.116a1.207,1.207,0,0,1,1.205-1.205h7.768a1.207,1.207,0,0,1,1.205,1.205v6.695l2.973-2.857a26.709,26.709,0,0,1,36.367-.6L613.745,281.4a1.205,1.205,0,0,1-.806,2.1Z" transform="translate(-384.184 -223.5)" fill="#646464"/>
      <path id="Pfad_312" data-name="Pfad 312" d="M443.553,204.421h0a7.634,7.634,0,0,1,7.634,7.634v10.312H435.919V212.054A7.634,7.634,0,0,1,443.553,204.421Z" transform="translate(-315.058 -137.325)" fill="#fff"/>
      <path id="Pfad_313" data-name="Pfad 313" d="M529.646,204.829h0a7.634,7.634,0,0,1,7.634,7.634v10.312H522.012V212.462A7.634,7.634,0,0,1,529.646,204.829Z" transform="translate(-372.894 -137.599)" fill="#fff"/>
      <path id="Pfad_314" data-name="Pfad 314" d="M615.739,205.237h0a7.634,7.634,0,0,1,7.634,7.634v10.312H608.106V212.87a7.634,7.634,0,0,1,7.634-7.634Z" transform="translate(-430.729 -137.873)" fill="#fff"/>
      <path id="Pfad_315" data-name="Pfad 315" d="M650.013,344.373h0a7.634,7.634,0,0,1,7.634,7.634v10.312H642.38V352.007A7.634,7.634,0,0,1,650.013,344.373Z" transform="translate(-453.754 -231.342)" fill="#fff"/>
      <path id="Pfad_316" data-name="Pfad 316" d="M419.887,344.373h0a7.634,7.634,0,0,1,7.634,7.634v10.312H412.254V352.007A7.634,7.634,0,0,1,419.887,344.373Z" transform="translate(-299.16 -231.342)" fill="#fff"/>
      <path id="Pfad_317" data-name="Pfad 317" d="M597.809,522.5l-25.424-11.25a1.071,1.071,0,0,0-.433-.092H450.784a1.072,1.072,0,0,0-.4.079l-27.674,11.25a1.071,1.071,0,0,0,.4,2.064h7.18v36.963h-.8v3.75H591v-3.75H589.66V524.55h7.716a1.071,1.071,0,0,0,.433-2.051Zm-10.292,39.014H432.433V524.55H587.517Z" transform="translate(-353.491 -416.741)" fill="#646464"/>
      <rect id="Rechteck_609" data-name="Rechteck 609" width="19.553" height="3.214" transform="translate(118.45 83.568)" fill="#646464"/>
      <rect id="Rechteck_610" data-name="Rechteck 610" width="19.553" height="3.214" transform="translate(147.11 83.568)" fill="#cacaca"/>
      <rect id="Rechteck_611" data-name="Rechteck 611" width="19.553" height="3.214" transform="translate(175.769 83.568)" fill="#646464"/>
      <rect id="Rechteck_612" data-name="Rechteck 612" width="19.553" height="3.214" transform="translate(186.483 129.906)" fill="#646464"/>
      <rect id="Rechteck_613" data-name="Rechteck 613" width="19.553" height="3.214" transform="translate(110.682 129.906)" fill="#646464"/>
      <path id="Pfad_318" data-name="Pfad 318" d="M383.44,675.157H145.762a.337.337,0,0,1,0-.657H383.44a.337.337,0,0,1,0,.657Z" transform="translate(-134.082 -526.471)" fill="#646464"/>
      <path id="Pfad_321" data-name="Pfad 321" d="M682.851,444.95H662.521V428.687c.375-7.432,6.727-8.032,12.7-7.633a7.633,7.633,0,0,1,7.634,7.634Z" transform="translate(-515.041 -356.15)" fill="#d1ccc5"/>
    </g>
    <g transform="matrix(1, 0, 0, 1, 891.46, 330)" filter="url(#Linie_180)">
      <line id="Linie_180-2" data-name="Linie 180" x2="298.619" transform="translate(18.49 208.41)" fill="none" stroke="#000" stroke-linecap="round" stroke-width="3"/>
    </g>
    <g transform="matrix(1, 0, 0, 1, 891.46, 330)" filter="url(#Ellipse_245)">
      <circle id="Ellipse_245-2" data-name="Ellipse 245" cx="9.491" cy="9.491" r="9.491" transform="translate(286.19 198.74)" fill="#e0aa0b"/>
    </g>
    <g transform="matrix(1, 0, 0, 1, 891.46, 330)" filter="url(#Linie_181)">
      <line id="Linie_181-2" data-name="Linie 181" y1="200.908" transform="translate(18.67 7.5)" fill="none" stroke="#000" stroke-linecap="round" stroke-width="3"/>
    </g>
    <g transform="matrix(1, 0, 0, 1, 891.46, 330)" filter="url(#Ellipse_246)">
      <circle id="Ellipse_246-2" data-name="Ellipse 246" cx="9.491" cy="9.491" r="9.491" transform="translate(9 44.66) rotate(-90)" fill="#e0aa0b"/>
    </g>
  </g>
</svg>
