<svg xmlns="http://www.w3.org/2000/svg" width="191.056" height="323.128" viewBox="0 0 191.056 323.128">
  <g id="Gruppe_571" data-name="Gruppe 571" transform="translate(-383.581 -332.783)">
    <circle id="Ellipse_209" data-name="Ellipse 209" cx="56.217" cy="56.217" r="56.217" transform="translate(462.203 332.783)" fill="#fff"/>
    <g id="Gruppe_383" data-name="Gruppe 383" transform="translate(481.813 358.179)">
      <rect id="Rechteck_606" data-name="Rechteck 606" width="56.249" height="16.675" transform="translate(8.483 43.633)" fill="#d1ccc5"/>
      <rect id="Rechteck_607" data-name="Rechteck 607" width="6.559" height="13.229" transform="translate(33.328 47.079)" fill="#646464"/>
      <rect id="Rechteck_608" data-name="Rechteck 608" width="49.69" height="15.341" transform="translate(11.762 23.957)" fill="#d1ccc5"/>
      <path id="Pfad_311" data-name="Pfad 311" d="M527.995,248.4H468.229a.5.5,0,0,1-.347-.861l16.334-15.7V225a.5.5,0,0,1,.5-.5h3.224a.5.5,0,0,1,.5.5v2.779l1.234-1.186a11.085,11.085,0,0,1,15.094-.251l23.561,21.186a.5.5,0,0,1-.334.872Z" transform="translate(-461.504 -223.499)" fill="#646464"/>
      <path id="Pfad_312" data-name="Pfad 312" d="M439.087,204.421h0a3.168,3.168,0,0,1,3.168,3.168v4.28h-6.336v-4.28A3.168,3.168,0,0,1,439.087,204.421Z" transform="translate(-414.208 -176.573)" fill="#fff"/>
      <path id="Pfad_313" data-name="Pfad 313" d="M525.181,204.829h0A3.168,3.168,0,0,1,528.349,208v4.28h-6.336V208A3.168,3.168,0,0,1,525.181,204.829Z" transform="translate(-488.573 -176.926)" fill="#fff"/>
      <path id="Pfad_314" data-name="Pfad 314" d="M611.274,205.237h0a3.168,3.168,0,0,1,3.168,3.168v4.28h-6.336V208.4A3.168,3.168,0,0,1,611.274,205.237Z" transform="translate(-562.939 -177.278)" fill="#fff"/>
      <path id="Pfad_315" data-name="Pfad 315" d="M645.548,344.373h0a3.168,3.168,0,0,1,3.168,3.168v4.28H642.38v-4.28A3.168,3.168,0,0,1,645.548,344.373Z" transform="translate(-592.544 -297.461)" fill="#fff"/>
      <path id="Pfad_316" data-name="Pfad 316" d="M415.422,344.373h0a3.168,3.168,0,0,1,3.168,3.168v4.28h-6.336v-4.28A3.168,3.168,0,0,1,415.422,344.373Z" transform="translate(-393.766 -297.461)" fill="#fff"/>
      <path id="Pfad_317" data-name="Pfad 317" d="M494.988,515.865,484.436,511.2a.444.444,0,0,0-.18-.038H433.969a.445.445,0,0,0-.167.033l-11.485,4.669a.445.445,0,0,0,.167.857h2.98v15.341h-.334v1.556h67.032v-1.556h-.556V516.716h3.2a.445.445,0,0,0,.18-.851Zm-4.271,16.192H426.353V516.716h64.364Z" transform="translate(-422.038 -471.972)" fill="#646464"/>
      <rect id="Rechteck_609" data-name="Rechteck 609" width="8.115" height="1.334" transform="translate(20.711 34.684)" fill="#646464"/>
      <rect id="Rechteck_610" data-name="Rechteck 610" width="8.115" height="1.334" transform="translate(32.605 34.684)" fill="#cacaca"/>
      <rect id="Rechteck_611" data-name="Rechteck 611" width="8.115" height="1.334" transform="translate(44.5 34.684)" fill="#646464"/>
      <rect id="Rechteck_612" data-name="Rechteck 612" width="8.115" height="1.334" transform="translate(48.947 53.915)" fill="#646464"/>
      <rect id="Rechteck_613" data-name="Rechteck 613" width="8.115" height="1.334" transform="translate(17.487 53.915)" fill="#646464"/>
      <path id="Pfad_321" data-name="Pfad 321" d="M670.958,430.917h-8.437v-6.749c.156-3.084,2.792-3.333,5.269-3.168a3.168,3.168,0,0,1,3.168,3.168Z" transform="translate(-629.762 -394.062)" fill="#d1ccc5"/>
    </g>
    <g id="Gruppe_565" data-name="Gruppe 565" transform="translate(360.983 326.682)">
      <ellipse id="Ellipse_252" data-name="Ellipse 252" cx="39.409" cy="3.941" rx="39.409" ry="3.941" transform="translate(74.618 321.347)" fill="#d1ccc5" opacity="0.604"/>
      <ellipse id="Ellipse_253" data-name="Ellipse 253" cx="17.931" cy="3.941" rx="17.931" ry="3.941" transform="translate(22.597 317.8)" fill="#d1ccc5" opacity="0.596"/>
      <path id="Pfad_919" data-name="Pfad 919" d="M342.477,87.744h0c-10.923,0-18.876,7.417-21.556,18.006L317.6,121.636h2.365l5.123-13.005-1.079,13.005h2.655l1.97-6.7-.415,6.7H360.16v-16.21A17.682,17.682,0,0,0,342.477,87.744Z" transform="translate(-241.956 -42.426)"/>
      <path id="Pfad_920" data-name="Pfad 920" d="M168.2,344.524l7.488,36.187,40.986.6-10.246-38Z" transform="translate(-88.219 -180.56)" fill="#3f3d56"/>
      <path id="Pfad_921" data-name="Pfad 921" d="M168.2,344.524l7.488,36.187,40.986.6-10.246-38Z" transform="translate(-88.219 -180.56)" opacity="0.1"/>
      <path id="Pfad_922" data-name="Pfad 922" d="M320.424,317.244s-16.158,22.463-15.37,31.528,11.035,156.849,11.035,156.849l24.04,1.182L333.035,400.4l5.911-28.769,14.581,133.992,29.557.788-26.4-173.8-5.123-15.37Z" transform="translate(-234.339 -181.482)" fill="#646464"/>
      <path id="Pfad_923" data-name="Pfad 923" d="M340.526,143.244s5.123,9.458-1.576,15.764S329.1,182.26,329.1,182.26L366.93,179.5l-3.153-21.281s-8.276-5.123-6.306-14.187Z" transform="translate(-248.924 -76.054)" fill="#a0616a"/>
      <path id="Pfad_924" data-name="Pfad 924" d="M340.526,143.244s5.123,9.458-1.576,15.764S329.1,182.26,329.1,182.26L366.93,179.5l-3.153-21.281s-8.276-5.123-6.306-14.187Z" transform="translate(-248.924 -76.054)" opacity="0.1"/>
      <path id="Pfad_925" data-name="Pfad 925" d="M339.674,207.244s2.365,7.094,12.611,6.305a35.162,35.162,0,0,0,17.34-6.305v46.109L338.1,252.171V224.19Z" transform="translate(-254.377 -114.832)" fill="#e0aa0b"/>
      <path id="Pfad_926" data-name="Pfad 926" d="M322.143,173.7l-3.012,2.184L301,184.557l6.306,32.71,4.335,7.094v8.67L301,248.006a162.531,162.531,0,0,0-3.941,32.316c-.394,18.128,4.335,13.4,6.7,13.005s7.488-1.576,7.488-1.576l-8.276-38.621,13.793-20.1,2.365-7.882s-.788-18.522-3.941-26.01C315.19,199.138,321.214,179.4,322.143,173.7Z" transform="translate(-229.499 -94.509)"/>
      <path id="Pfad_927" data-name="Pfad 927" d="M392.674,164.244l7.217,7.094,14.187,4.335-6.7,37.045-3.941,7.882.788,7.882s14.768,15.839,16.946,47.291c1.144,16.518-1.221,15.73-1.221,15.73l-29.125-.36-4.729-65.42,9.064-49.262Z" transform="translate(-283.461 -88.778)"/>
      <path id="Pfad_928" data-name="Pfad 928" d="M463.442,404.244s3.941,16.946-3.941,18.917-5.123-18.917-5.123-18.917Z" transform="translate(-324.549 -234.196)" fill="#a0616a"/>
      <path id="Pfad_929" data-name="Pfad 929" d="M292.316,359.613s15.175,8.509,11.319,15.66-17.428-8.964-17.428-8.964Z" transform="translate(-222.937 -207.153)" fill="#a0616a"/>
      <path id="Pfad_930" data-name="Pfad 930" d="M440.885,194.033l5.911-.788s3.547,4.729,3.941,8.276,6.7,63.449,6.7,63.449l6.306,11.429s-.394,1.97-3.547,1.97h-3.153l-1.182,4.729s-2.365-9.064-11.429-4.335l-3.547-1.182,2.365-4.335s-2.365-20.887-2.365-30.739-.788-20.493-.788-20.493Z" transform="translate(-316.18 -106.349)"/>
      <ellipse id="Ellipse_254" data-name="Ellipse 254" cx="5.604" cy="2.101" rx="5.604" ry="2.101" transform="translate(90.552 322.632)"/>
      <ellipse id="Ellipse_255" data-name="Ellipse 255" cx="5.604" cy="2.101" rx="5.604" ry="2.101" transform="translate(128.379 322.632)"/>
      <path id="Pfad_931" data-name="Pfad 931" d="M290.07,200.244l-4.335.394-9.852,38.227s-3.941,25.222-3.153,26.4,0,3.153-.788,3.941,3.153,11.823,7.094,11.429,5.517-1.576,5.517-1.576-3.547-10.246,5.517-13.793l2.365-7.882-2.365-13.005,3.153-18.128Z" transform="translate(-214.231 -110.591)"/>
      <ellipse id="Ellipse_256" data-name="Ellipse 256" cx="0.591" cy="1.97" rx="0.591" ry="1.97" transform="translate(113.08 61.476)" fill="#a0616a"/>
      <ellipse id="Ellipse_257" data-name="Ellipse 257" cx="0.591" cy="1.97" rx="0.591" ry="1.97" transform="translate(86.282 61.476)" fill="#a0616a"/>
      <circle id="Ellipse_258" data-name="Ellipse 258" cx="13.005" cy="13.005" r="13.005" transform="translate(87.267 49.456)" fill="#a0616a"/>
      <path id="Pfad_932" data-name="Pfad 932" d="M193.683,57.988l-.332,3.153h9l1.182-2.365-.249,2.365h10.89l-7.488-11.823-16.552.394L186.2,61.141h5.911Z" transform="translate(-99.125 -2.424)"/>
      <path id="Pfad_933" data-name="Pfad 933" d="M223.786,718.991c2.643,9.77,11.7,15.821,11.7,15.821s4.768-9.789,2.125-19.559-11.7-15.821-11.7-15.821S221.143,709.222,223.786,718.991Z" transform="translate(-184.632 -413.052)" fill="#9f7042"/>
      <path id="Pfad_934" data-name="Pfad 934" d="M207,731.968c7.252,7.06,8.138,17.912,8.138,17.912s-10.872-.594-18.125-7.653-8.138-17.912-8.138-17.912S199.75,724.909,207,731.968Z" transform="translate(-163.964 -428.128)" fill="#d1ccc5"/>
    </g>
  </g>
</svg>
