<svg xmlns="http://www.w3.org/2000/svg" width="370.492" height="305.512" viewBox="0 0 370.492 305.512">
  <g id="Gruppe_576" data-name="Gruppe 576" transform="translate(-442.861 -427.467)">
    <g id="Gruppe_537" data-name="Gruppe 537" transform="translate(442.861 427.467)">
      <g id="Gruppe_528" data-name="Gruppe 528" transform="translate(0 0)">
        <g id="Gruppe_383" data-name="Gruppe 383">
          <rect id="Rechteck_606" data-name="Rechteck 606" width="256.224" height="75.956" transform="translate(38.64 198.751)" fill="#d1ccc5"/>
          <rect id="Rechteck_607" data-name="Rechteck 607" width="29.876" height="60.258" transform="translate(151.814 214.448)" fill="#646464"/>
          <rect id="Rechteck_608" data-name="Rechteck 608" width="226.348" height="69.879" transform="translate(53.578 109.123)" fill="#d1ccc5"/>
          <path id="Pfad_311" data-name="Pfad 311" d="M742.25,336.927H470.007a2.279,2.279,0,0,1-1.579-3.921l74.4-71.518V230.336a2.281,2.281,0,0,1,2.279-2.279H559.8a2.281,2.281,0,0,1,2.279,2.279v12.656l5.62-5.4a50.493,50.493,0,0,1,68.753-1.143l107.326,96.507a2.279,2.279,0,0,1-1.523,3.973Z" transform="translate(-439.377 -223.5)" fill="#646464"/>
          <path id="Pfad_312" data-name="Pfad 312" d="M450.351,204.421h0a14.432,14.432,0,0,1,14.432,14.432v19.5H435.919v-19.5A14.432,14.432,0,0,1,450.351,204.421Z" transform="translate(-337.021 -77.575)" fill="#fff"/>
          <path id="Pfad_313" data-name="Pfad 313" d="M536.444,204.829h0a14.432,14.432,0,0,1,14.432,14.432v19.5H522.012v-19.5A14.431,14.431,0,0,1,536.444,204.829Z" transform="translate(-369.692 -77.729)" fill="#fff"/>
          <path id="Pfad_314" data-name="Pfad 314" d="M622.537,205.237h0a14.432,14.432,0,0,1,14.432,14.432v19.5H608.106v-19.5A14.432,14.432,0,0,1,622.537,205.237Z" transform="translate(-402.364 -77.884)" fill="#fff"/>
          <path id="Pfad_315" data-name="Pfad 315" d="M656.811,344.373h0A14.432,14.432,0,0,1,671.243,358.8v19.5H642.38V358.8A14.431,14.431,0,0,1,656.811,344.373Z" transform="translate(-415.37 -130.684)" fill="#fff"/>
          <path id="Pfad_316" data-name="Pfad 316" d="M426.685,344.373h0A14.432,14.432,0,0,1,441.117,358.8v19.5H412.254V358.8A14.432,14.432,0,0,1,426.685,344.373Z" transform="translate(-328.04 -130.684)" fill="#fff"/>
          <path id="Pfad_317" data-name="Pfad 317" d="M754.335,532.6l-48.065-21.267a2.024,2.024,0,0,0-.819-.173H476.383a2.025,2.025,0,0,0-.763.149L423.3,532.575a2.025,2.025,0,0,0,.763,3.9h13.574v69.879h-1.519v7.089H741.461v-7.089h-2.532V536.476h14.587a2.025,2.025,0,0,0,.819-3.878Zm-19.457,73.757H441.689V536.476H734.878Z" transform="translate(-422.039 -332.662)" fill="#646464"/>
          <rect id="Rechteck_609" data-name="Rechteck 609" width="36.965" height="6.076" transform="translate(94.341 157.988)" fill="#646464"/>
          <rect id="Rechteck_610" data-name="Rechteck 610" width="36.965" height="6.076" transform="translate(148.522 157.988)" fill="#cacaca"/>
          <rect id="Rechteck_611" data-name="Rechteck 611" width="36.965" height="6.076" transform="translate(202.704 157.988)" fill="#646464"/>
          <rect id="Rechteck_612" data-name="Rechteck 612" width="36.965" height="6.076" transform="translate(222.959 245.59)" fill="#646464"/>
          <rect id="Rechteck_613" data-name="Rechteck 613" width="36.965" height="6.076" transform="translate(79.656 245.59)" fill="#646464"/>
          <path id="Pfad_321" data-name="Pfad 321" d="M700.954,466.312H662.521V435.568c.709-14.05,12.718-15.185,24-14.431a14.431,14.431,0,0,1,14.432,14.432Z" transform="translate(-513.298 -298.434)" fill="#d1ccc5"/>
        </g>
      </g>
      <g id="Gruppe_535" data-name="Gruppe 535" transform="translate(191.953 151.477)">
        <ellipse id="Ellipse_228" data-name="Ellipse 228" cx="24.107" cy="24.107" rx="24.107" ry="24.107" transform="translate(129.386 61.582)" fill="#fff"/>
        <path id="Pfad_781" data-name="Pfad 781" d="M110.953,394.03h-.066l-1.192,68.347h2.517Z" transform="translate(42.473 -308.342)" fill="#646464"/>
        <ellipse id="Ellipse_229" data-name="Ellipse 229" cx="17.583" cy="17.583" rx="17.583" ry="17.583" transform="translate(84.153 86.602)" fill="#f5d166"/>
        <path id="Pfad_782" data-name="Pfad 782" d="M350.1,479.085h-.049l-.87,49.851h1.836Z" transform="translate(-248.41 -374.9)" fill="#646464"/>
        <ellipse id="Ellipse_230" data-name="Ellipse 230" cx="40.008" cy="40.009" rx="40.008" ry="40.009" transform="translate(83.871 0)" fill="#9f7042"/>
        <path id="Pfad_783" data-name="Pfad 783" d="M280.271,156.936a40.012,40.012,0,0,0,66.666,42.344,40.012,40.012,0,1,1-66.666-42.344Z" transform="translate(-185.932 -143.65)" opacity="0.1" style="mix-blend-mode: normal;isolation: isolate"/>
        <path id="Pfad_784" data-name="Pfad 784" d="M243.327,183.975h.11l1.979,113.431h-4.177Z" transform="translate(-119.338 -143.967)" fill="#646464"/>
        <path id="Pfad_785" data-name="Pfad 785" d="M189.717,802.427h178.1a.217.217,0,1,0,0-.435h-178.1a.217.217,0,1,0,0,.435Z" transform="translate(-189.5 -648.428)" fill="#d1ccc5"/>
      </g>
    </g>
    <ellipse id="Ellipse_283" data-name="Ellipse 283" cx="28.5" cy="28" rx="28.5" ry="28" transform="translate(696 517)" fill="#fff"/>
    <ellipse id="Ellipse_284" data-name="Ellipse 284" cx="28" cy="28.5" rx="28" ry="28.5" transform="translate(487 460)" fill="#fff"/>
    <circle id="Ellipse_285" data-name="Ellipse 285" cx="28" cy="28" r="28" transform="translate(559 613)" fill="#fff"/>
    <text id="_2" data-name="2" transform="translate(714 556)" fill="#e0aa0b" font-size="36" font-family="Montserrat-SemiBold, Montserrat" font-weight="600"><tspan x="0" y="0">2</tspan></text>
    <text id="_3" data-name="3" transform="translate(505 501)" fill="#e0aa0b" font-size="36" font-family="Montserrat-SemiBold, Montserrat" font-weight="600"><tspan x="0" y="0">3</tspan></text>
    <text id="_1" data-name="1" transform="translate(581 654)" fill="#e0aa0b" font-size="37" font-family="Montserrat-SemiBold, Montserrat" font-weight="600"><tspan x="0" y="0">1</tspan></text>
  </g>
</svg>
