<svg id="Gruppe_535" data-name="Gruppe 535" xmlns="http://www.w3.org/2000/svg" width="369.576" height="318.854" viewBox="0 0 369.576 318.854">
  <ellipse id="Ellipse_228" data-name="Ellipse 228" cx="49.901" cy="49.901" rx="49.901" ry="49.901" transform="translate(267.828 127.474)" fill="#fff"/>
  <path id="Pfad_781" data-name="Pfad 781" d="M112.3,394.03h-.137l-2.468,141.478h5.21Z" transform="translate(205.292 -216.655)" fill="#646464"/>
  <ellipse id="Ellipse_229" data-name="Ellipse 229" cx="36.396" cy="36.396" rx="36.396" ry="36.396" transform="translate(174.196 179.267)" fill="#f5d166"/>
  <path id="Pfad_782" data-name="Pfad 782" d="M351.079,479.085h-.1l-1.8,103.191h3.8Z" transform="translate(-140.587 -263.422)" fill="#646464"/>
  <ellipse id="Ellipse_230" data-name="Ellipse 230" cx="82.817" cy="82.818" rx="82.817" ry="82.818" transform="translate(173.613 0)" fill="#9f7042"/>
  <path id="Pfad_783" data-name="Pfad 783" d="M291.119,156.936a82.824,82.824,0,0,0,138,87.652,82.825,82.825,0,1,1-138-87.652Z" transform="translate(-95.838 -129.434)" opacity="0.1" style="mix-blend-mode: normal;isolation: isolate"/>
  <path id="Pfad_784" data-name="Pfad 784" d="M245.562,183.975h.228l4.1,234.8h-8.646Z" transform="translate(11.097 -101.158)" fill="#646464"/>
  <path id="Pfad_785" data-name="Pfad 785" d="M189.95,802.893H558.626a.45.45,0,1,0,0-.9H189.95a.45.45,0,1,0,0,.9Z" transform="translate(-189.5 -484.114)" fill="#d1ccc5"/>
</svg>
