<svg xmlns="http://www.w3.org/2000/svg" width="263.503" height="190.347" viewBox="0 0 263.503 190.347">
  <g id="Gruppe_555" data-name="Gruppe 555" transform="translate(-339.992 -257.649)">
    <g id="Gruppe_554" data-name="Gruppe 554" transform="translate(431.801 282.859)">
      <ellipse id="Ellipse_228" data-name="Ellipse 228" cx="23.773" cy="23.773" rx="23.773" ry="23.773" transform="translate(0 60.73)" fill="#fff"/>
      <path id="Pfad_781" data-name="Pfad 781" d="M110.936,394.03H111l1.176,67.4h-2.482Z" transform="translate(-87.097 -309.527)" fill="#646464"/>
      <ellipse id="Ellipse_229" data-name="Ellipse 229" cx="17.339" cy="17.34" rx="17.339" ry="17.34" transform="translate(57.475 85.404)" fill="#f5d166"/>
      <path id="Pfad_782" data-name="Pfad 782" d="M350.084,479.085h.048l.857,49.161h-1.81Z" transform="translate(-275.222 -376.341)" fill="#646464"/>
      <ellipse id="Ellipse_230" data-name="Ellipse 230" cx="39.455" cy="39.455" rx="39.455" ry="39.455" transform="translate(13.521 0)" fill="#646464"/>
      <path id="Pfad_783" data-name="Pfad 783" d="M335.876,156.936a39.458,39.458,0,0,1-65.744,41.758,39.458,39.458,0,1,0,65.744-41.758Z" transform="translate(-253.767 -143.834)" opacity="0.1" style="mix-blend-mode: normal;isolation: isolate"/>
      <path id="Pfad_784" data-name="Pfad 784" d="M243.3,183.975h-.109l-1.951,111.862h4.119Z" transform="translate(-190.431 -144.52)" fill="#646464"/>
    </g>
    <g id="Gruppe_553" data-name="Gruppe 553" transform="translate(339.992 257.649)">
      <path id="Pfad_827" data-name="Pfad 827" d="M157.82,212.764l2.925-.008h4.124l5.214-84.706,51.638-86.17-2.245-2.409v-6.1l-55.846,92.683Z" transform="translate(-149.201 -33.37)" fill="#9f7042"/>
      <path id="Pfad_828" data-name="Pfad 828" d="M169.43,228.535h3.812l5.214-84.706,51.638-86.17L227.85,55.25l-53.264,87.288Z" transform="translate(-157.574 -49.149)" opacity="0.1"/>
      <path id="Pfad_829" data-name="Pfad 829" d="M126.91,663.943l133.8,10.239.114.008,129.49-7.964.1-.006v-5.468l-142.682-2.618-119.039-.114h-.87l-.095.613Z" transform="translate(-126.91 -483.843)" fill="#9f7042"/>
      <path id="Pfad_830" data-name="Pfad 830" d="M126.91,663.943l133.8,10.239.114.008,129.49-7.964.1-.106v-5.253H390.3l-129.588,4.328L128.692,658.02h-.02l-.234.153-.711.46Z" transform="translate(-126.91 -483.843)" opacity="0.1"/>
      <path id="Pfad_831" data-name="Pfad 831" d="M126.91,664.339l133.8,10.239v-8.987L128.438,658.57l-.711.46Z" transform="translate(-126.91 -484.24)" opacity="0.1"/>
      <path id="Pfad_832" data-name="Pfad 832" d="M378.88,39.523l58.989,63.313L436.045,214.2l5.011.605.084.011h5.011l.6-107.2,110.457,36.9,1.863,65.695,4.032.452,1.366.153-3.162-70.856L445.838,99.42,382.524,33.6H378.88Z" transform="translate(-308.621 -33.536)" fill="#9f7042"/>
      <path id="Pfad_833" data-name="Pfad 833" d="M620.65,291.7l.455,2.049,110.457,36.9,1.863,65.695,4.032.452-3.162-67.513Z" transform="translate(-482.976 -219.667)" opacity="0.1"/>
      <path id="Pfad_834" data-name="Pfad 834" d="M378.88,39.523l58.989,63.313L436.045,214.2l5.011.605,1.366-115.618L378.88,33.6Z" transform="translate(-308.621 -33.536)" opacity="0.1"/>
      <path id="Pfad_835" data-name="Pfad 835" d="M621.42,433.283l40.513,7.978.014,0L732.9,455.242l3.248-1.3-.011-.229-.212-4.531L621.462,426.05Z" transform="translate(-483.531 -316.555)" fill="#9f7042"/>
      <path id="Pfad_836" data-name="Pfad 836" d="M766.76,480.61l70.956,13.978,3.249-1.3-.011-.229Z" transform="translate(-588.345 -355.902)" opacity="0.1"/>
      <path id="Pfad_837" data-name="Pfad 837" d="M776.49,350.56l1.1,60.324.566,30.948,4.988-.167,3.14-.106-.976-90.126-2.164-.719-.474-.153Z" transform="translate(-595.361 -262.115)" fill="#9f7042"/>
      <path id="Pfad_838" data-name="Pfad 838" d="M776.65,350.51v.014l1.051,60.324.566,30.948,4.989-.167V350.51Z" transform="translate(-595.477 -262.079)" opacity="0.1"/>
      <path id="Pfad_839" data-name="Pfad 839" d="M486.083,483.638a6.355,6.355,0,0,1,.837.544,5.532,5.532,0,0,1,.836.917c1.2,1.547,2.3,3.346,2.183,5.3a2.155,2.155,0,0,1-.622,1.534,2.787,2.787,0,0,1-1.849.441,3.936,3.936,0,0,1-2.049-.363c-.608-.362-1.115-1.068-1.835-1.051a.944.944,0,0,1-.307,0c-.248-.081-.3-.407-.46-.613-.279-.371-.867-.279-1.3-.117a1.892,1.892,0,0,1-1.355.217,1.408,1.408,0,0,1-.588-.588,12.951,12.951,0,0,1-1.45-5.627c-.12-1.182-1.034-5.214,1.489-4.3a20.93,20.93,0,0,1,3.173,1.793Z" transform="translate(-383.094 -379.787)" fill="#646464"/>
      <path id="Pfad_840" data-name="Pfad 840" d="M497.083,491.072a1.244,1.244,0,0,0,1.531-.061,2.306,2.306,0,0,0,.745-1.444c.279-.087.421.279.6.5.312.379.948.374,1.232.778.2.279.153.666.293.981.181.407.63.619.937.948a3.228,3.228,0,0,1,.613,1.224l.457,1.372a6.782,6.782,0,0,1,.418,1.776,2.3,2.3,0,0,1-.53,1.7,4.5,4.5,0,0,1-3.391.608,2.5,2.5,0,0,1-1.5-1.84,23.241,23.241,0,0,1-.31-2.459,9.639,9.639,0,0,0-.7-2.337c-.245-.58-.92-1.444-.909-2.061C496.77,490.757,496.915,490.941,497.083,491.072Z" transform="translate(-396.586 -386.823)" fill="#646464"/>
      <path id="Pfad_841" data-name="Pfad 841" d="M492.163,475.574a4.6,4.6,0,0,1-.226-1.224,5.329,5.329,0,0,1,.767-2.37l-3.187.432a1.411,1.411,0,0,0-1.032.452,1.115,1.115,0,0,0,0,1.029,5.251,5.251,0,0,1,.379,1,4.965,4.965,0,0,0,.1.9,1.9,1.9,0,0,0,.41.577,19.332,19.332,0,0,1,2.275,3.38c-.02-.033,1.921-1.536,1.843-2.027-.045-.279-.605-.613-.784-.881A4.485,4.485,0,0,1,492.163,475.574Z" transform="translate(-390.665 -374.149)" fill="#be6f72"/>
      <path id="Pfad_842" data-name="Pfad 842" d="M439.19,358.04v2.747l-47.032,9.174-2.44,1.478H381.3v-1.548l46.209-11.165Z" transform="translate(-310.366 -267.509)" fill="#9f7042"/>
      <path id="Pfad_843" data-name="Pfad 843" d="M439.19,367.89l-47.032,9.174-2.44,1.478H381.3l46.552-9.963Z" transform="translate(-310.366 -274.613)" opacity="0.1"/>
      <path id="Pfad_844" data-name="Pfad 844" d="M444.322,722a3.644,3.644,0,0,0-4.434-.942,1.168,1.168,0,0,0-.407.318c-.279.39-.1.929-.075,1.411.064,1.177-.873,2.133-1.715,2.956a4.055,4.055,0,0,0-1.115,1.511,1.416,1.416,0,0,0,.494,1.673,2.053,2.053,0,0,0,.764.212,8.245,8.245,0,0,0,2.7.075,2.93,2.93,0,0,0,2.147-1.495,1.576,1.576,0,0,1,.36-.594c.491-.388,1.244.067,1.8-.209.46-.229.48-.588.485-1.062A6.152,6.152,0,0,0,444.322,722Z" transform="translate(-353.258 -553.495)"/>
      <path id="Pfad_845" data-name="Pfad 845" d="M472.968,716.625a9.18,9.18,0,0,1,.435,2.853,2.753,2.753,0,0,1-.259,1.626,2.221,2.221,0,0,1-1.453.836,3.331,3.331,0,0,1-3.26-.909,3.44,3.44,0,0,1-.588-2.588c.089-.75.279-1.628-.259-2.161-.139-.142-.321-.242-.449-.4a1.328,1.328,0,0,1-.084-1.271,5.524,5.524,0,0,0,.438-1.258,16.238,16.238,0,0,1,4.121.315c.471.231.4.619.541,1.088C472.349,715.412,472.728,716,472.968,716.625Z" transform="translate(-375.212 -548.175)"/>
      <path id="Pfad_846" data-name="Pfad 846" d="M444.243,579.351a3.1,3.1,0,0,1,1.135,2.284c.315,2.384-.237,4.793-.279,7.2-.039,3.371.937,6.8.1,10.069-.5,1.952-.075,4.183-.544,6.154-.139.585-.4,1.138-.53,1.723a7.518,7.518,0,0,0,.407,3.837,3.964,3.964,0,0,1,.237,1.04,3.74,3.74,0,0,1-.407,1.573l-1.673,3.957c-.187.443-.923.516-1.394.574a3.487,3.487,0,0,1-2.582-.368,3.3,3.3,0,0,1-.984-2.328,35.689,35.689,0,0,1-.279-4.972,4.1,4.1,0,0,0-.114-1.291,11.318,11.318,0,0,1-.583-1.394,5.6,5.6,0,0,1,.337-1.952,5.882,5.882,0,0,0-.028-1.81c-.109-.892-.234-1.785-.376-2.671a11.835,11.835,0,0,1,.279-3.709,10.225,10.225,0,0,0-.279-3.519,9.7,9.7,0,0,1-.349,2.788c-.148.443-.36.867-.488,1.319-.572,2.027.647,4.155.474,6.254a15.5,15.5,0,0,0-.357,2.919,9.848,9.848,0,0,0,.63,2.033,2.635,2.635,0,0,1,0,2.077c-.906,1.712-.229,4.04.583,5.8a7.824,7.824,0,0,1,.429.965,11.527,11.527,0,0,1,.1,2.468,1.556,1.556,0,0,1-1.308-.393c-.123-.128-.223-.279-.343-.413a3.4,3.4,0,0,0-1.166-.728,1.53,1.53,0,0,0-.837-.192,1.672,1.672,0,0,0-.795.494,7.8,7.8,0,0,1-.876.666,1.038,1.038,0,0,1-.446.2.393.393,0,0,1-.41-.209.5.5,0,0,1-.031-.145,22.069,22.069,0,0,1-.164-2.537c0-1.458-1.746-2.462-1.966-3.9-.176-1.163.151-2.348.042-3.519a17.125,17.125,0,0,1-.209-1.8c0-.39.089-.772.12-1.16a8.682,8.682,0,0,0-.02-1.291l-.087-1.347a11.635,11.635,0,0,0-.7-3.9,13.265,13.265,0,0,1-1.087-4.484c-.056-.976-.02-1.952-.131-2.931a14.438,14.438,0,0,1-.259-2.649c.053-.686.279-1.35.332-2.036a10.4,10.4,0,0,0-.786-3.865,5.72,5.72,0,0,1-.167-3.881,1.274,1.274,0,0,1,.357-.519,1.555,1.555,0,0,1,.658-.245A51.054,51.054,0,0,1,442,578.651,4.835,4.835,0,0,1,444.243,579.351Z" transform="translate(-345.798 -450.959)" fill="#646464"/>
      <ellipse id="Ellipse_243" data-name="Ellipse 243" cx="4.467" cy="4.467" rx="4.467" ry="4.467" transform="translate(78.148 89.842)" fill="#be6f72"/>
      <path id="Pfad_847" data-name="Pfad 847" d="M426.723,468.038a1.594,1.594,0,0,1,0,.778,1.761,1.761,0,0,1-.293.491,12.6,12.6,0,0,1-1.43,1.556,2.591,2.591,0,0,0,1.336,1.319,7.753,7.753,0,0,0,1.843.527,2.6,2.6,0,0,0,.97.067,2.574,2.574,0,0,0,.836-.379l2.482-1.486a4.957,4.957,0,0,0,1.032-.745,2.54,2.54,0,0,0,.719-1.746.48.48,0,0,0-.089-.329.586.586,0,0,0-.34-.142,3.024,3.024,0,0,1-1.952-1.7,9.022,9.022,0,0,1-.678-2.585l-2.646,1.394c-.393.209-.784.418-1.191.6-.259.117-.784.215-.968.452C426,466.543,426.631,467.511,426.723,468.038Z" transform="translate(-344.973 -368.149)" fill="#be6f72"/>
      <path id="Pfad_848" data-name="Pfad 848" d="M422.66,479.219a2.942,2.942,0,0,0-.856,1.157,3.015,3.015,0,0,0,.156,1.7,50.672,50.672,0,0,1,1.673,7.191c.234,1.673.321,3.371.435,5.064.234,3.452.574,8.956,1.029,12.386a32.884,32.884,0,0,0,4.963-.591c3.1-.329,6.293.424,9.33-.279-.736-2.908-1.472-7.874-2.208-10.78a20.578,20.578,0,0,1-.675-3.5c-.064-.85-.025-1.7-.014-2.56.025-1.673-.067-3.346-.159-5.019a31.844,31.844,0,0,0-.675-5.814,1.082,1.082,0,0,0-.323-.639,1.31,1.31,0,0,0-.973-.086,4.233,4.233,0,0,1-2.894-.686c-.368-.251-.862-.558-1.2-.279a1.2,1.2,0,0,0-.279.594,2.97,2.97,0,0,1-1.746,1.72,8.737,8.737,0,0,1-2.47.507,1.213,1.213,0,0,1-.767-.086c-.4-.243-.424-1.115-.923-1.174C423.641,478,422.955,478.938,422.66,479.219Z" transform="translate(-342.616 -377.318)" fill="#646464"/>
      <path id="Pfad_849" data-name="Pfad 849" d="M416.458,486.507c-1.029-.984-1.481-2.412-2.231-3.625a8.071,8.071,0,0,0-1.927-2.119,5.747,5.747,0,0,1-1.048-.889c-.265-.326-.466-.761-.867-.887a1.048,1.048,0,0,0-.94.259,9.237,9.237,0,0,0-.7.742c-1.182,1.224-3.26,1.394-4.2,2.811a2.3,2.3,0,0,0-.5,1.046,8.1,8.1,0,0,0,1.489,5.828,1.98,1.98,0,0,0,1.032.836,3.229,3.229,0,0,0,.2,1.534,41.016,41.016,0,0,0,1.9,5.172,12.506,12.506,0,0,0-.374,2c-.2,1.7-.014,3.432-.2,5.139-.151,1.394-.558,2.752-.572,4.149,0,.223.02.488.212.6a.641.641,0,0,0,.332.07l3.43.1a27.832,27.832,0,0,0,5.962-.251,2.48,2.48,0,0,0,.75-.237,2.52,2.52,0,0,0,.99-1.952,17.009,17.009,0,0,0,.164-2.917c.415,1.313.909,2.671,2.164,3.24a4.854,4.854,0,0,0,2.15.259,40.477,40.477,0,0,0,4.682-.482.616.616,0,0,0,.683-.717l.017-1.522c.033-3.092-.733-6.048-1.032-9.126a19.847,19.847,0,0,0-.323-2.9c-.1-.4-.24-.789-.326-1.191a8.516,8.516,0,0,1-.139-1.191l-.217-3.067c-.1-1.419-.251-2.788-.36-4.2a20.355,20.355,0,0,0-.6-4.088c-.243-.836-.747-1.785-1.62-1.888a3.341,3.341,0,0,0-1.361.293,5.5,5.5,0,0,1-3.346-.014,4.715,4.715,0,0,0-1.043-.279,1.023,1.023,0,0,0-.954.4,1.431,1.431,0,0,0-.148.7A37.192,37.192,0,0,1,416.458,486.507Z" transform="translate(-329.817 -377.796)" fill="#f5d166"/>
      <path id="Pfad_850" data-name="Pfad 850" d="M412.615,500.7a16.93,16.93,0,0,0-4.261-3.6,3.4,3.4,0,0,0-2.116-.468,1.585,1.585,0,0,0-1.361,1.489,9.635,9.635,0,0,0,.385,1.3,13.688,13.688,0,0,0,.112,1.522,2.576,2.576,0,0,0,.558.856l1.974,2.339a12.708,12.708,0,0,0,2.749,2.641,4.133,4.133,0,0,0,3.653.51,4.489,4.489,0,0,0,2-1.838c.491-.781.837-1.634,1.3-2.44a12.116,12.116,0,0,1,2.788-3.382,3.1,3.1,0,0,1-1.673-.837,2.765,2.765,0,0,1-.265-.48l-.452-.976a1.116,1.116,0,0,0-.837.315,7.012,7.012,0,0,1-.622.633c-.393.3-.926.376-1.283.714a3.4,3.4,0,0,0-.374.468,3.129,3.129,0,0,1-2.275,1.227Z" transform="translate(-330.46 -391.904)" fill="#646464"/>
      <path id="Pfad_851" data-name="Pfad 851" d="M453.224,469.889c.968-1.765.923-3.881,1.2-5.875a2.683,2.683,0,0,1,.533-1.458A2.778,2.778,0,0,1,457.34,462c.248.028.558.145.544.393a.5.5,0,0,1-.126.237,6.634,6.634,0,0,0-1.377,3.658c.438.3,1.115-.321,1.536,0,.279.234.151.7-.017,1.032q-.583,1.163-1.2,2.309a7.415,7.415,0,0,1-1.274,1.838c-.354.34-.77.608-1.129.942-.836.784-1.341,1.89-2.206,2.655a.452.452,0,0,1-.279.142.468.468,0,0,1-.293-.131,4.228,4.228,0,0,1-1.054-1.274c-.329-.608-.279-.786.24-1.216A9.215,9.215,0,0,0,453.224,469.889Z" transform="translate(-363.187 -366.925)" fill="#be6f72"/>
      <path id="Pfad_852" data-name="Pfad 852" d="M413.306,497.356c.167.1.374.22.558.134a.581.581,0,0,0,.187-.181,6.568,6.568,0,0,0,.792-1.377.529.529,0,0,0,.059-.223c0-.178-.159-.31-.307-.413a11.369,11.369,0,0,0-2.535-1.2,5.23,5.23,0,0,0-2.286-.452,2.18,2.18,0,0,0-1.525.775c-.558.717.376.934.962,1.193A37.167,37.167,0,0,1,413.306,497.356Z" transform="translate(-332.768 -389.76)" fill="#646464"/>
      <path id="Pfad_853" data-name="Pfad 853" d="M423.669,517.457a.41.41,0,0,0,.117.351c.081-.4-.025-.814.059-1.213.123-.6.705-1.051.756-1.654C423.532,514.733,423.677,516.81,423.669,517.457Z" transform="translate(-344.01 -405.121)" opacity="0.1"/>
      <path id="Pfad_854" data-name="Pfad 854" d="M558.7,358.04v2.747l-11.338.689-.343-2.749Z" transform="translate(-429.877 -267.509)" opacity="0.2"/>
      <path id="Pfad_855" data-name="Pfad 855" d="M416.336,444.668c.708-.577.3-1.787.778-2.563a2.49,2.49,0,0,1,1.213-.837,5.518,5.518,0,0,1,1.771-.491,2.055,2.055,0,0,1,1.673.616c.181.206.3.457.474.672a1.812,1.812,0,0,0,1.757.608c.371-.084.756-.365.731-.744a1.051,1.051,0,0,0-.335-.6l-.8-.884a6.33,6.33,0,0,0-3.243-2.32,5.564,5.564,0,0,0-2.766.371c-.36.12-.764.3-.864.664-.067.251.033.524-.025.778-.114.5-.761.675-1.062,1.1s-.209.926-.3,1.394a12.184,12.184,0,0,0-.368,1.411c-.02.293.128.837.457.943S416.133,444.319,416.336,444.668Z" transform="translate(-337.743 -349.695)" fill="#3f3d56"/>
      <path id="Pfad_856" data-name="Pfad 856" d="M423.848,435.607a8.365,8.365,0,0,0-1.483-3.391,5.942,5.942,0,0,0-2.641-2.1,3.781,3.781,0,0,0-3.288.259,4.774,4.774,0,0,0-1.642,2.072,5.54,5.54,0,0,0-.151,4.952c.335-.407.909-.223,1.417-.371a14.761,14.761,0,0,0,1.779-.87C419.665,435.356,421.9,436.008,423.848,435.607Z" transform="translate(-337.129 -343.774)" fill="#e0aa0b"/>
      <path id="Pfad_857" data-name="Pfad 857" d="M417.318,446.258a1.7,1.7,0,0,1,.251-1.442.181.181,0,0,1,.148-.067.193.193,0,0,1,.114.1,6.247,6.247,0,0,1,.524,1.026,1.065,1.065,0,0,0-1.115.432" transform="translate(-339.377 -354.512)" opacity="0.1"/>
      <path id="Pfad_858" data-name="Pfad 858" d="M440.551,441.5l-.1-1a.454.454,0,0,1,.02-.245.315.315,0,0,1,.407-.111.836.836,0,0,1,.326.326,5.855,5.855,0,0,1,.574,1.135,3.373,3.373,0,0,0-1.358.017" transform="translate(-356.093 -351.165)" opacity="0.1"/>
      <path id="Pfad_859" data-name="Pfad 859" d="M407.646,502.21v2.275l-1.921.128H395.62v-2.4Z" transform="translate(-320.693 -371.479)" opacity="0.1"/>
      <path id="Pfad_860" data-name="Pfad 860" d="M325.016,400.029v2.4H312.989L281.04,362.411V360.52h6.7Z" transform="translate(-238.063 -269.298)" fill="#f1c0c0"/>
      <path id="Pfad_861" data-name="Pfad 861" d="M325.016,400.029v2.4H312.989L281.04,362.411V360.52h6.7Z" transform="translate(-238.063 -269.298)" fill="#9f7042"/>
      <path id="Pfad_862" data-name="Pfad 862" d="M325.016,400.029v2.4H312.989L281.04,362.411V360.52l32.122,39.509Z" transform="translate(-238.063 -269.298)" opacity="0.1"/>
      <path id="Pfad_863" data-name="Pfad 863" d="M298.534,728.95a.836.836,0,0,1-.731.984,4.97,4.97,0,0,0-2.147,1.115,1.534,1.534,0,0,0,0,2.178,2.116,2.116,0,0,0,1.115.3,7.557,7.557,0,0,0,3.725-.466,5.528,5.528,0,0,1,2.493-.968c.466.028.962.245,1.377.033s.533-.8.535-1.3a9.6,9.6,0,0,0-.46-3.036,12.179,12.179,0,0,0-2.027-.279l-2.15-.279c-.407-.053-1.285-.36-1.606-.02S298.534,728.546,298.534,728.95Z" transform="translate(-251.369 -558.105)"/>
      <path id="Pfad_864" data-name="Pfad 864" d="M352.967,698.161a6.738,6.738,0,0,0,.441,1.461,3.4,3.4,0,0,0,1.411,1.932,2.519,2.519,0,0,0,2.153-.1,1.775,1.775,0,0,0,.717-.544,2.158,2.158,0,0,0,.279-1.252,6.84,6.84,0,0,0-.558-3.154c-.424-.836-1.163-1.556-1.174-2.482l-2.54.491a.726.726,0,0,0-.374.148.645.645,0,0,0-.162.3A8.3,8.3,0,0,0,352.967,698.161Z" transform="translate(-292.972 -534.276)"/>
      <path id="Pfad_865" data-name="Pfad 865" d="M244.247,601.96a4.15,4.15,0,0,0,.407,2.635,2.04,2.04,0,0,0,2.309.979.338.338,0,0,0,.209-.159.393.393,0,0,0-.036-.279,4.116,4.116,0,0,1,.086-3.1c.056-.128.176-.279.307-.229a.279.279,0,0,1,.125.128,1.458,1.458,0,0,1,.2.77,2.86,2.86,0,0,0-.022.739c.053.24.31.466.533.362a.558.558,0,0,0,.254-.36,11.888,11.888,0,0,0,.056-5.646.3.3,0,0,0-.332-.31c-1.316-.131-2.035-.446-2.788.778A7.643,7.643,0,0,0,244.247,601.96Z" transform="translate(-214.587 -464.565)" fill="#fbbebe"/>
      <path id="Pfad_866" data-name="Pfad 866" d="M297.459,595.389a17.1,17.1,0,0,0-.574,8.036l.293,2.415c.1.814.2,1.626.34,2.432a6.454,6.454,0,0,1,.148,1.263,6.761,6.761,0,0,1-.2,1.241,14.5,14.5,0,0,0-.293,2.593c-.031,1.394.142,2.788.251,4.183a46.579,46.579,0,0,1-.1,8.343,3.129,3.129,0,0,0,.457,2.15,2.765,2.765,0,0,1,.4.664c.209.638-.279,1.277-.4,1.932a1.952,1.952,0,0,0,1.623,2.231c2.231.265,4.523.145,6.533,1.165.212-.619-.251-1.322-.039-1.952.134-.39.5-.644.753-.973a2.833,2.833,0,0,0,.48-1.7,6.215,6.215,0,0,0-.413-2.306,4.989,4.989,0,0,1-.558-1.877,2.371,2.371,0,0,0-.017-.962,1.5,1.5,0,0,0-.36-.449,5.668,5.668,0,0,1-1.458-3.3,15.219,15.219,0,0,1,.117-3.664,6.225,6.225,0,0,1,1.054-3.274,21.005,21.005,0,0,1,.588-8.156c.073-.245.187-.53.438-.588a.625.625,0,0,1,.535.212,3.655,3.655,0,0,1,.837,1.573,3.429,3.429,0,0,1,.262,1.9c-.067.279-.2.524-.279.792a2.348,2.348,0,0,0,.084,1.637,1.573,1.573,0,0,1,.2.616,1.709,1.709,0,0,1-.167.535,2.465,2.465,0,0,0,.231,1.994,7.222,7.222,0,0,0,1.3,1.6,5.856,5.856,0,0,0,.181,3.223.407.407,0,0,1,.036.31c-.05.106-.178.145-.279.22-.279.229-.106.661.081.959a22,22,0,0,0,1.693,2.348c.558.666.507,1.952,1.338,2.192a2.509,2.509,0,0,0,1.06,0,2.778,2.778,0,0,0,2.136-1.087,2.928,2.928,0,0,1,.488-.884c.257-.223.588-.262.731-.53s-.017-.619.031-.929.318-.558.4-.884c.206-.753-.672-1.372-.792-2.141-.173-1.115,1.232-1.952,1.174-3.067-.123-2.423-.2-4.857-.326-7.28a52.507,52.507,0,0,1-.067-6.522,9.172,9.172,0,0,0-.217-4.026,5.394,5.394,0,0,0-4.587-2.958,22.585,22.585,0,0,0-5.691.558A35.97,35.97,0,0,1,297.459,595.389Z" transform="translate(-252.412 -462.57)" fill="#646464"/>
      <ellipse id="Ellipse_244" data-name="Ellipse 244" cx="4.467" cy="4.467" rx="4.467" ry="4.467" transform="translate(46.24 97.234)" fill="#fbbebe"/>
      <path id="Pfad_867" data-name="Pfad 867" d="M308.524,497.6a1.9,1.9,0,0,1-1.821,1.152,2.245,2.245,0,0,0,.669,1.871,7.941,7.941,0,0,0,7.6,2.607,3.75,3.75,0,0,0,1.5-.625,3.32,3.32,0,0,0,1.143-1.98,9.841,9.841,0,0,0,.109-2.328.6.6,0,0,0-.123-.429.614.614,0,0,0-.39-.128,6.77,6.77,0,0,1-2.755-.583,1.963,1.963,0,0,1-1.018-2.367,9.994,9.994,0,0,1-1.907.226c-.672.095-1.344.2-2.013.323a3.658,3.658,0,0,0-.945.178c-.4.209-.254.106-.159.485A2.306,2.306,0,0,1,308.524,497.6Z" transform="translate(-259.635 -390.599)" fill="#fbbebe"/>
      <path id="Pfad_868" data-name="Pfad 868" d="M269.9,506.2a7.4,7.4,0,0,1-1.787-.2,2.51,2.51,0,0,1-1.467-.979c-.206-.312-.34-.705-.669-.881-.538-.279-1.152.192-1.581.625a5.743,5.743,0,0,1-1.344,1.082c-.6.315-1.294.427-1.857.8a4.667,4.667,0,0,0-1.115,1.2l-3.951,5.382c-1.587,2.164-2.967,4.486-4.381,6.77a47.876,47.876,0,0,0-2.788,6.385.714.714,0,0,0-.086.429c.033.145.209.262.332.178-.415.413-.05,1.115-.148,1.7a2.08,2.08,0,0,1-.664,1.04,5.245,5.245,0,0,1,1.84.086,5.647,5.647,0,0,1,1.74.837c.337-.053.307-.653.558-.876.151-.131.374-.114.572-.153.744-.145,1.04-1.04,1.612-1.545.477-.421,1.152-.558,1.656-.954.82-.644,1-1.79,1.425-2.741.365-.806.94-1.509,1.26-2.334a10.059,10.059,0,0,1,.608-1.609,4.607,4.607,0,0,1,2.231-1.6,3.693,3.693,0,0,1,1.7-.455,15.772,15.772,0,0,0,.086,3.84c.1.446.234.881.351,1.324a24.939,24.939,0,0,1,.683,6.134,18.659,18.659,0,0,1,3.9-.468c1.034-.031,2.066.1,3.1.084,1.227-.022,2.44-.259,3.667-.343a6.849,6.849,0,0,1,3.594.558,34.144,34.144,0,0,1,.148-5.3l.3-2.772a17.03,17.03,0,0,1,.371-2.392c.162-.636.4-1.249.574-1.882a21.543,21.543,0,0,0,.393-6.935,8.741,8.741,0,0,0-1.062-3.43,9.277,9.277,0,0,0-.669-1.138,6.589,6.589,0,0,0-5.761-2.7,1.166,1.166,0,0,0-.413.089,1.375,1.375,0,0,0-.527.627A6.831,6.831,0,0,1,269.9,506.2Z" transform="translate(-217.609 -396.484)" fill="#646464"/>
      <path id="Pfad_869" data-name="Pfad 869" d="M302.224,473.4c.125-.279.463-.382.669-.605.4-.424.217-1.1.279-1.673a2.4,2.4,0,0,1,1.589-1.835,5.136,5.136,0,0,1,2.51-.159,2.428,2.428,0,0,1,1.132.376c.145.106.279.243.415.34a1.115,1.115,0,0,0,1.517-.354c-.987-1.188-2.08-2.443-3.58-2.808a7.344,7.344,0,0,0-1.564-.148,5.081,5.081,0,0,0-2.052.24,3.421,3.421,0,0,0-1.8,2.08,10.113,10.113,0,0,0-.438,2.788,10.5,10.5,0,0,0,0,1.9,5.241,5.241,0,0,0,.931,2.39.722.722,0,0,0,.279.259C303.381,476.746,302.121,473.631,302.224,473.4Z" transform="translate(-255.446 -370.218)" fill="#3f3d56"/>
      <path id="Pfad_870" data-name="Pfad 870" d="M307.787,461.393a5.474,5.474,0,0,0-2.086-3.271,7.691,7.691,0,0,0-2.8-1.687,3.745,3.745,0,0,0-3.162.385,4.858,4.858,0,0,0-1.539,2.116,6.662,6.662,0,0,0-.672,3.067,3.307,3.307,0,0,0,1.5,2.654,2.816,2.816,0,0,1,1.45-.934,71,71,0,0,1,7.314-2.331Z" transform="translate(-253.043 -362.809)" fill="#e0aa0b"/>
      <path id="Pfad_871" data-name="Pfad 871" d="M303.216,472.72c.089,0,.148.092.192.167a7.072,7.072,0,0,1,.583,1.115c-.326.07-.887.148-1.048-.139C302.856,473.718,302.959,472.706,303.216,472.72Z" transform="translate(-256.928 -374.683)" opacity="0.1"/>
      <path id="Pfad_872" data-name="Pfad 872" d="M326.414,466.9c-.067.064-.145-.067-.145-.162v-1.082a.158.158,0,0,1,.019-.086.132.132,0,0,1,.092-.045c.226-.025.413.167.558.351a5.889,5.889,0,0,1,.572.951l-1.179-.036" transform="translate(-273.772 -369.492)" opacity="0.1"/>
      <path id="Pfad_873" data-name="Pfad 873" d="M356.477,516.173a7.286,7.286,0,0,1,.82-.672,12.365,12.365,0,0,1,2.574-1.048,3.4,3.4,0,0,0,2.086-1.726,4.1,4.1,0,0,0,.162-1.673,1.672,1.672,0,0,0-.123-.689,1.37,1.37,0,0,0-.441-.48,6.374,6.374,0,0,0-4.216-.85,26.426,26.426,0,0,0-9.316,2.326.808.808,0,0,0-.39.279.8.8,0,0,0-.075.388,6.414,6.414,0,0,0,.315,2.429c.385.993,1.177,1.793,1.509,2.805.151.454.2.937.332,1.394a1.952,1.952,0,0,0,.784,1.166c1.1.658,2.141-.226,2.905-.912Z" transform="translate(-289.115 -400.85)" fill="#3f3d56"/>
      <path id="Pfad_874" data-name="Pfad 874" d="M302.007,514.134l-1.414-3.084a10.78,10.78,0,0,1-.535-1.319c-.162-.538-.24-1.1-.39-1.637-.5-1.8-1.748-3.3-2.359-5.067a.961.961,0,0,0-.229-.427.744.744,0,0,0-.622-.112,9.713,9.713,0,0,0-2.3,1.166c-.362.167-.753.279-1.115.471a1.394,1.394,0,0,0-.747.889,2.175,2.175,0,0,0,.3,1.252,14.139,14.139,0,0,1,.965,5.5,5.847,5.847,0,0,1-.784,3.625c-1.43,1.952-.516,4.818.02,7.18.064.279.139.58.184.876a8.053,8.053,0,0,1,.064,1.115,8.729,8.729,0,0,1-.594,3.678,4.114,4.114,0,0,0,1.673.474q2.429.31,4.877.435a5.321,5.321,0,0,0,1.531-.078,2.788,2.788,0,0,0,2.061-2.733,3.448,3.448,0,0,0,.814,2.147,3.244,3.244,0,0,0,2.139.658,39.756,39.756,0,0,0,6.441-.181,1.113,1.113,0,0,0,.4-.092c.413-.206.435-.775.4-1.233-.061-.856-.125-1.712-.229-2.562a10.484,10.484,0,0,1-.134-1.64,9.436,9.436,0,0,1,.279-1.673,18.973,18.973,0,0,0,.544-5.3,8.944,8.944,0,0,1-.053-1.308c.072-.984.591-1.921.494-2.9a47.476,47.476,0,0,0-1.308-8.608,2.231,2.231,0,0,0-.761-1.313c-.558-.374-1.341-.178-1.98-.415a4.952,4.952,0,0,1-.85-.5,3.9,3.9,0,0,0-1.921-.591,1.631,1.631,0,0,0-1.394.507,2.024,2.024,0,0,0-.279.761c-.4,1.7-.878,3.382-1.352,5.064l-.454,1.612-1.219,4.328C302.049,513.557,302.13,513.7,302.007,514.134Z" transform="translate(-249.07 -394.949)" fill="#f5d166"/>
      <path id="Pfad_875" data-name="Pfad 875" d="M328.563,400.25l26.972,28.344V431H343.509L323.24,404.544" transform="translate(-268.495 -297.949)" fill="#f1c0c0"/>
      <path id="Pfad_876" data-name="Pfad 876" d="M328.563,400.25l26.972,28.344V431H343.509L323.24,404.544" transform="translate(-268.495 -297.949)" fill="#9f7042" opacity="0.996"/>
      <path id="Pfad_877" data-name="Pfad 877" d="M323.669,414.31l.086.031,19.926,24.393h11.853v2.4H343.509L323.24,414.684Z" transform="translate(-268.495 -308.089)" opacity="0.1"/>
      <path id="Pfad_878" data-name="Pfad 878" d="M340.771,501.2c-.976.427-2.061.973-2.353,2a1,1,0,0,0,.987,1.341,3.346,3.346,0,0,0,1.341-.245l5.758-1.9c.156-.05.335-.125.374-.279a.48.48,0,0,0-.056-.279c-.178-.435-.354-1.325-.728-1.628-.307-.245-.915-.159-1.285-.153A10.422,10.422,0,0,0,340.771,501.2Z" transform="translate(-282.494 -394.378)" fill="#fbbebe"/>
      <path id="Pfad_879" data-name="Pfad 879" d="M362.23,501.111a9.26,9.26,0,0,1,2.858.443,5.092,5.092,0,0,1,2.367,1.617,1.773,1.773,0,0,1,.374.731c.056.279.965.446.764.636.611-.1.466.19,1.085.184a2.05,2.05,0,0,0,1.659-.658,2.156,2.156,0,0,0,.326-1.363,2.322,2.322,0,0,0-.184-.965,2.848,2.848,0,0,0-1.511-1.171l-4.98-2.278a3.309,3.309,0,0,0-.92-.326,3.444,3.444,0,0,0-.811.02l-2.256.259a3.383,3.383,0,0,1,1.542,2.975" transform="translate(-298.819 -392.874)" fill="#646464"/>
    </g>
  </g>
</svg>
