<?xml version="1.0" standalone="no"?>
<!DOCTYPE svg PUBLIC "-//W3C//DTD SVG 20010904//EN"
 "http://www.w3.org/TR/2001/REC-SVG-20010904/DTD/svg10.dtd">
<svg version="1.0" xmlns="http://www.w3.org/2000/svg"
 width="1280.000000pt" height="962.000000pt" viewBox="0 0 1280.000000 962.000000"
 preserveAspectRatio="xMidYMid meet">
<metadata>
Created by potrace 1.15, written by Peter Selinger 2001-2017
</metadata>
<g transform="translate(0.000000,962.000000) scale(0.100000,-0.100000)"
fill="#4caf50" stroke="none">
<path d="M8080 9604 c0 -8 -19 -70 -41 -137 -27 -79 -44 -149 -49 -202 -4 -44
-23 -143 -43 -220 -76 -290 -104 -577 -87 -857 6 -95 8 -193 5 -218 -3 -25 -1
-114 5 -198 17 -238 50 -392 124 -572 24 -58 56 -134 70 -170 77 -189 117
-252 301 -480 105 -131 194 -254 238 -330 l26 -45 -52 -29 c-229 -127 -691
-401 -934 -554 -46 -29 -83 -50 -83 -47 0 2 21 36 46 75 65 102 158 298 198
422 56 170 70 262 70 443 0 152 -1 165 -32 269 -87 284 -312 782 -418 921 -49
65 -127 186 -394 612 -58 92 -134 204 -169 248 -35 44 -92 123 -126 175 -115
177 -305 506 -305 529 0 18 -5 22 -27 19 -24 -3 -28 -7 -25 -30 2 -15 -10 -69
-26 -120 -36 -110 -65 -229 -86 -352 -17 -99 -41 -387 -33 -415 2 -9 -2 -77
-9 -151 -24 -251 -16 -551 22 -805 8 -55 21 -147 30 -205 8 -58 19 -139 25
-180 13 -92 59 -271 94 -365 41 -107 130 -272 190 -350 29 -38 70 -95 91 -125
54 -79 161 -187 299 -303 189 -159 292 -256 362 -340 36 -43 64 -79 62 -81 -2
-1 -87 -56 -189 -121 -102 -65 -353 -230 -557 -367 -205 -136 -373 -246 -373
-244 0 2 20 46 44 97 60 126 109 276 142 434 25 117 28 150 28 340 0 203 -1
213 -27 287 -46 132 -117 282 -275 575 -117 220 -165 299 -214 355 -91 105
-201 250 -396 523 -95 132 -213 285 -263 339 -111 122 -201 240 -353 463 -76
112 -116 180 -116 198 0 23 -4 26 -27 23 -25 -3 -28 -7 -29 -43 0 -22 -12 -95
-27 -162 -44 -202 -56 -337 -68 -763 -9 -313 -9 -434 1 -535 13 -149 49 -349
84 -480 13 -49 45 -168 70 -264 91 -341 191 -547 388 -798 156 -199 214 -252
438 -397 57 -38 138 -94 180 -126 92 -70 224 -200 213 -210 -8 -8 -1089 -732
-1109 -743 -7 -4 6 34 27 83 93 215 139 439 139 673 0 312 -38 404 -401 977
-96 151 -176 265 -225 320 -42 47 -156 184 -252 305 -286 357 -319 396 -407
475 -47 41 -110 104 -140 140 -87 101 -196 267 -210 319 -10 40 -14 46 -36 43
-31 -5 -30 -3 -21 -36 4 -16 2 -67 -6 -115 -7 -47 -15 -201 -17 -341 -3 -140
-8 -334 -11 -430 -11 -292 24 -537 112 -795 25 -71 65 -197 89 -280 90 -308
200 -545 325 -700 22 -27 66 -84 97 -125 98 -132 171 -198 373 -340 137 -97
274 -207 327 -261 l42 -44 -147 -94 c-312 -201 -912 -571 -925 -571 -2 0 14
51 34 113 88 268 99 551 34 825 -27 113 -76 204 -238 446 -138 207 -406 556
-426 556 -14 0 -202 191 -277 280 -39 47 -147 178 -241 291 -114 138 -180 210
-202 218 -27 12 -31 18 -31 52 0 22 -3 39 -7 39 -35 -1 -54 -77 -29 -115 13
-20 16 -57 16 -222 0 -286 18 -417 121 -888 95 -436 170 -634 346 -911 38 -60
84 -134 102 -165 51 -86 119 -157 274 -287 163 -137 298 -261 327 -303 l20
-28 -107 -60 c-210 -118 -576 -296 -900 -437 -7 -4 -2 24 12 69 72 226 43 502
-82 796 -49 115 -64 134 -358 466 -83 94 -200 228 -259 300 -60 71 -161 179
-224 240 -63 60 -128 130 -143 154 -38 59 -44 41 -35 -112 5 -98 12 -132 33
-181 14 -34 28 -81 30 -106 34 -370 108 -611 292 -950 16 -30 59 -116 95 -190
73 -151 126 -226 301 -425 66 -75 121 -140 123 -145 7 -19 -920 -371 -971
-370 -7 1 4 14 23 30 34 30 35 39 0 20 -17 -9 -18 -4 -19 80 -1 50 -6 112 -11
138 -30 136 -106 304 -223 489 -54 87 -73 109 -124 142 -78 51 -168 143 -196
203 -21 46 -44 66 -33 31 3 -10 10 -54 16 -98 14 -100 35 -176 66 -236 13 -26
44 -129 69 -230 25 -101 57 -220 71 -264 32 -102 104 -253 149 -316 l35 -48
-113 -35 c-260 -80 -596 -166 -887 -228 -80 -16 -146 -31 -148 -32 -3 -4 57
-299 63 -304 12 -12 526 103 752 168 101 29 378 115 407 126 10 4 14 -24 19
-118 8 -174 36 -264 171 -557 43 -91 78 -186 97 -259 28 -108 65 -195 108
-251 18 -24 18 -23 25 78 4 56 16 143 27 194 36 173 21 476 -32 652 -26 86
-79 190 -126 245 -19 22 -33 44 -29 47 3 4 -8 13 -26 20 -17 8 -27 17 -22 22
5 4 56 25 114 45 152 55 457 182 665 276 99 45 185 84 192 86 17 8 28 -62 15
-91 -9 -19 -8 -23 2 -19 10 4 15 -16 20 -78 10 -132 36 -304 57 -387 17 -67
79 -209 123 -281 9 -14 33 -74 55 -133 73 -196 216 -436 384 -639 115 -139
137 -169 137 -185 0 -20 38 -93 72 -135 42 -54 167 -143 174 -124 3 8 -3 29
-12 48 -15 27 -19 64 -21 208 -1 96 -9 231 -18 300 -8 69 -21 197 -30 285 -37
387 -69 546 -135 680 -92 189 -233 373 -363 476 l-48 38 28 15 c31 17 18 21
-20 7 -18 -7 -31 -5 -48 7 -13 9 -59 35 -101 57 l-77 41 87 43 c198 98 740
388 874 468 32 19 62 32 66 29 5 -3 17 -33 26 -67 16 -55 16 -77 0 -131 -3
-10 -1 -18 5 -18 6 0 11 7 11 15 0 8 4 15 8 15 5 0 23 -96 42 -213 39 -248 59
-330 104 -412 18 -33 61 -112 96 -175 173 -319 322 -521 508 -688 48 -43 123
-114 167 -158 219 -216 442 -385 710 -539 55 -31 118 -77 141 -101 44 -48 55
-52 74 -29 10 12 10 15 -3 15 -20 0 -37 30 -37 67 0 15 -52 177 -116 358 -115
328 -173 519 -194 638 -22 122 -157 450 -340 821 -87 179 -119 233 -164 283
-187 206 -492 367 -788 416 l-73 13 115 69 c224 134 518 320 735 464 121 80
223 147 226 149 9 4 73 -158 99 -253 12 -44 42 -161 65 -260 55 -230 71 -276
155 -450 149 -306 301 -482 656 -757 54 -43 146 -116 204 -164 171 -141 388
-277 542 -341 35 -14 119 -47 188 -73 69 -26 182 -73 251 -103 70 -30 197 -78
283 -106 86 -28 168 -58 182 -67 24 -16 26 -16 42 0 16 15 15 18 -10 39 -45
36 -238 386 -298 536 -11 30 -65 133 -120 230 -55 98 -152 285 -216 417 -63
131 -139 285 -166 342 -98 201 -318 508 -526 735 -100 111 -135 137 -274 208
-227 115 -460 174 -736 188 l-134 6 184 127 c100 69 352 246 558 392 l375 266
53 -108 c28 -59 57 -132 62 -161 6 -30 15 -58 20 -61 5 -3 24 -60 41 -125 86
-325 102 -375 164 -507 36 -76 79 -161 96 -190 100 -169 306 -378 493 -498 64
-41 163 -108 219 -149 330 -241 598 -378 878 -450 41 -10 117 -39 169 -64 213
-100 470 -165 765 -193 39 -3 80 -12 92 -20 19 -12 23 -11 37 12 16 24 16 25
-14 42 -68 38 -322 412 -447 660 -46 91 -158 279 -252 426 -93 145 -215 337
-271 427 -79 125 -136 201 -244 324 -336 382 -507 547 -644 622 -213 117 -542
176 -852 153 -74 -6 -148 -13 -165 -16 -16 -4 -28 -4 -25 -1 37 35 1104 767
1120 767 12 0 90 -176 126 -284 19 -54 48 -149 65 -210 65 -238 100 -323 192
-473 18 -29 51 -85 74 -125 119 -207 325 -403 603 -574 58 -36 141 -92 185
-125 215 -160 498 -295 803 -384 64 -18 167 -55 227 -80 187 -79 411 -135 620
-156 61 -6 126 -17 145 -26 31 -13 35 -13 47 3 17 24 16 31 -6 44 -29 15 -355
491 -453 660 -30 52 -129 205 -220 340 -91 135 -219 328 -283 430 -116 182
-172 253 -416 525 -190 212 -363 367 -474 422 -222 112 -564 169 -868 145 -79
-7 -159 -15 -178 -18 -31 -5 -27 -1 36 42 266 182 947 604 976 604 17 0 121
-231 199 -440 81 -216 130 -323 190 -408 22 -31 75 -109 117 -172 150 -222
367 -413 668 -585 28 -16 84 -54 125 -85 243 -185 542 -327 851 -405 65 -17
113 -36 149 -60 61 -41 160 -74 250 -82 36 -3 74 -10 84 -16 15 -7 23 -5 33 9
11 16 11 20 -6 29 -36 19 -168 211 -197 287 -10 23 -92 162 -184 308 -170 269
-295 481 -351 593 -66 131 -412 573 -639 814 -146 155 -365 256 -643 297 -109
17 -352 20 -444 7 -29 -4 -53 -6 -53 -5 0 5 242 135 390 209 148 74 515 242
541 247 16 4 78 -108 79 -141 0 -13 3 -21 7 -17 4 3 41 -60 82 -141 121 -235
149 -271 426 -549 326 -326 434 -411 697 -544 68 -35 148 -80 178 -100 97 -65
192 -117 295 -160 55 -24 105 -47 112 -52 7 -6 14 -5 19 3 4 7 -2 19 -13 28
-63 51 -180 263 -214 388 -26 94 -139 295 -400 715 -171 274 -184 291 -262
359 -197 171 -448 278 -697 297 l-94 7 69 28 c224 91 667 257 686 257 5 0 19
-21 32 -47 118 -243 286 -420 559 -588 51 -32 127 -90 169 -130 102 -97 205
-173 318 -234 90 -49 116 -57 93 -29 -16 20 -186 385 -217 468 -65 171 -295
437 -461 536 -81 48 -143 72 -222 89 l-57 11 145 46 c185 60 384 118 528 157
l113 30 11 -27 c6 -15 11 -44 11 -64 0 -22 4 -35 11 -33 6 2 34 -44 63 -103
69 -142 153 -243 347 -420 86 -78 204 -192 262 -251 97 -101 146 -145 296
-264 55 -45 75 -51 58 -18 -4 9 -22 59 -38 111 -79 250 -162 475 -202 542
-191 323 -367 486 -586 542 -34 9 -75 16 -92 16 -24 0 -31 5 -34 25 -4 20 1
29 26 43 149 89 259 245 321 453 28 93 65 326 65 409 0 109 -58 640 -70 640
-8 -1 -114 -226 -150 -320 -18 -47 -84 -213 -146 -370 -141 -358 -173 -484
-174 -679 0 -77 -1 -83 -15 -65 -8 10 -15 14 -15 7 0 -6 6 -18 14 -26 8 -8 18
-30 21 -50 7 -34 5 -37 -21 -42 -191 -42 -636 -160 -825 -220 -10 -4 14 27 54
68 88 88 152 209 189 352 20 80 22 114 23 300 0 176 -3 217 -17 252 -42 101
-106 398 -110 506 0 26 -4 47 -8 47 -22 0 -135 -346 -170 -515 -7 -33 -34
-139 -60 -235 -108 -395 -120 -525 -74 -791 l6 -37 -53 -17 c-106 -35 -457
-164 -607 -224 -84 -34 -155 -61 -158 -61 -3 0 17 25 46 57 178 195 273 446
286 758 6 130 4 148 -21 245 -79 309 -260 871 -317 985 -31 60 -158 406 -158
429 0 9 -6 16 -12 16 -19 0 -95 -248 -119 -385 -11 -66 -33 -185 -49 -265 -64
-318 -79 -542 -61 -945 14 -334 24 -376 185 -789 36 -93 65 -170 63 -172 -1
-1 -83 -38 -182 -82 -225 -99 -450 -208 -625 -301 -73 -39 -136 -71 -138 -71
-2 0 12 19 31 43 131 160 255 425 303 647 25 117 30 308 10 412 -25 133 -87
316 -215 633 -87 214 -136 320 -187 405 -38 63 -154 282 -257 485 -104 204
-203 391 -221 416 -41 59 -117 229 -123 280 -4 30 -10 39 -24 39 -11 0 -19 -7
-19 -16z"/>
</g>
</svg>
