<svg xmlns="http://www.w3.org/2000/svg" width="387.359" height="155.403" viewBox="0 0 387.359 155.403">
  <g id="Gruppe_538" data-name="Gruppe 538" transform="translate(-430.363 -705.477)">
    <g id="Gruppe_531" data-name="Gruppe 531" transform="translate(462.27 705.477)">
      <rect id="Rechteck_606" data-name="Rechteck 606" width="109.71" height="36.73" transform="translate(11.945 96.111)" fill="#d1ccc5"/>
      <rect id="Rechteck_607" data-name="Rechteck 607" width="14.447" height="29.139" transform="translate(59.703 103.702)" fill="#646464"/>
      <rect id="Rechteck_608" data-name="Rechteck 608" width="109.688" height="33.792" transform="translate(11.945 52.769)" fill="#d1ccc5"/>
      <path id="Pfad_311" data-name="Pfad 311" d="M600.479,278.35H468.83a1.1,1.1,0,0,1-.764-1.9l35.98-34.584V226.806a1.1,1.1,0,0,1,1.1-1.1h7.1a1.1,1.1,0,0,1,1.1,1.1v6.12l2.718-2.612a24.417,24.417,0,0,1,33.247-.553l51.9,46.668a1.1,1.1,0,0,1-.737,1.921Z" transform="translate(-467.729 -223.5)" fill="#646464"/>
      <path id="Pfad_312" data-name="Pfad 312" d="M442.9,204.421h0a6.979,6.979,0,0,1,6.979,6.979v9.427H435.919V211.4A6.979,6.979,0,0,1,442.9,204.421Z" transform="translate(-401.805 -143.081)" fill="#fff"/>
      <path id="Pfad_313" data-name="Pfad 313" d="M528.991,204.829h0a6.979,6.979,0,0,1,6.979,6.979v9.427H522.012v-9.427A6.979,6.979,0,0,1,528.991,204.829Z" transform="translate(-462.064 -143.367)" fill="#fff"/>
      <path id="Pfad_314" data-name="Pfad 314" d="M615.084,205.237h0a6.979,6.979,0,0,1,6.979,6.979v9.427H608.106v-9.427A6.979,6.979,0,0,1,615.084,205.237Z" transform="translate(-522.324 -143.652)" fill="#fff"/>
      <path id="Pfad_315" data-name="Pfad 315" d="M649.358,344.373h0a6.979,6.979,0,0,1,6.979,6.979v9.427H642.38v-9.427A6.979,6.979,0,0,1,649.358,344.373Z" transform="translate(-546.314 -241.039)" fill="#fff"/>
      <path id="Pfad_316" data-name="Pfad 316" d="M419.232,344.373h0a6.979,6.979,0,0,1,6.979,6.979v9.427H412.254v-9.427A6.979,6.979,0,0,1,419.232,344.373Z" transform="translate(-385.24 -241.039)" fill="#fff"/>
      <rect id="Rechteck_609" data-name="Rechteck 609" width="17.875" height="2.938" transform="translate(31.911 76.399)" fill="#646464"/>
      <rect id="Rechteck_610" data-name="Rechteck 610" width="17.875" height="2.938" transform="translate(58.112 76.399)" fill="#cacaca"/>
      <rect id="Rechteck_611" data-name="Rechteck 611" width="17.875" height="2.938" transform="translate(84.312 76.399)" fill="#646464"/>
      <rect id="Rechteck_612" data-name="Rechteck 612" width="17.875" height="2.938" transform="translate(94.107 118.761)" fill="#646464"/>
      <rect id="Rechteck_613" data-name="Rechteck 613" width="17.875" height="2.938" transform="translate(24.81 118.761)" fill="#646464"/>
      <path id="Pfad_321" data-name="Pfad 321" d="M681.106,442.892H662.521V428.025c.343-6.794,6.15-7.343,11.607-6.978a6.978,6.978,0,0,1,6.979,6.979Z" transform="translate(-604.071 -361.71)" fill="#d1ccc5"/>
      <rect id="Rechteck_880" data-name="Rechteck 880" width="109.356" height="11.887" transform="translate(12.47 86.768)" fill="#646464"/>
      <rect id="Rechteck_881" data-name="Rechteck 881" width="109.356" height="3.566" transform="translate(12.47 131.937)" fill="#646464"/>
    </g>
    <g id="Gruppe_532" data-name="Gruppe 532" transform="translate(573.191 705.477)">
      <rect id="Rechteck_606-2" data-name="Rechteck 606" width="109.71" height="36.73" transform="translate(11.945 96.111)" fill="#d1ccc5"/>
      <rect id="Rechteck_607-2" data-name="Rechteck 607" width="14.447" height="29.139" transform="translate(59.703 103.702)" fill="#646464"/>
      <rect id="Rechteck_608-2" data-name="Rechteck 608" width="109.688" height="33.792" transform="translate(11.945 52.769)" fill="#d1ccc5"/>
      <path id="Pfad_311-2" data-name="Pfad 311" d="M600.479,278.35H468.83a1.1,1.1,0,0,1-.764-1.9l35.98-34.584V226.806a1.1,1.1,0,0,1,1.1-1.1h7.1a1.1,1.1,0,0,1,1.1,1.1v6.12l2.718-2.612a24.417,24.417,0,0,1,33.247-.553l51.9,46.668a1.1,1.1,0,0,1-.737,1.921Z" transform="translate(-467.729 -223.5)" fill="#646464"/>
      <path id="Pfad_312-2" data-name="Pfad 312" d="M442.9,204.421h0a6.979,6.979,0,0,1,6.979,6.979v9.427H435.919V211.4A6.979,6.979,0,0,1,442.9,204.421Z" transform="translate(-401.805 -143.081)" fill="#fff"/>
      <path id="Pfad_313-2" data-name="Pfad 313" d="M528.991,204.829h0a6.979,6.979,0,0,1,6.979,6.979v9.427H522.012v-9.427A6.979,6.979,0,0,1,528.991,204.829Z" transform="translate(-462.064 -143.367)" fill="#fff"/>
      <path id="Pfad_314-2" data-name="Pfad 314" d="M615.084,205.237h0a6.979,6.979,0,0,1,6.979,6.979v9.427H608.106v-9.427A6.979,6.979,0,0,1,615.084,205.237Z" transform="translate(-522.324 -143.652)" fill="#fff"/>
      <path id="Pfad_315-2" data-name="Pfad 315" d="M649.358,344.373h0a6.979,6.979,0,0,1,6.979,6.979v9.427H642.38v-9.427A6.979,6.979,0,0,1,649.358,344.373Z" transform="translate(-546.314 -241.039)" fill="#fff"/>
      <path id="Pfad_316-2" data-name="Pfad 316" d="M419.232,344.373h0a6.979,6.979,0,0,1,6.979,6.979v9.427H412.254v-9.427A6.979,6.979,0,0,1,419.232,344.373Z" transform="translate(-385.24 -241.039)" fill="#fff"/>
      <rect id="Rechteck_609-2" data-name="Rechteck 609" width="17.875" height="2.938" transform="translate(31.911 76.399)" fill="#646464"/>
      <rect id="Rechteck_610-2" data-name="Rechteck 610" width="17.875" height="2.938" transform="translate(58.112 76.399)" fill="#cacaca"/>
      <rect id="Rechteck_611-2" data-name="Rechteck 611" width="17.875" height="2.938" transform="translate(84.312 76.399)" fill="#646464"/>
      <rect id="Rechteck_612-2" data-name="Rechteck 612" width="17.875" height="2.938" transform="translate(94.107 118.761)" fill="#646464"/>
      <rect id="Rechteck_613-2" data-name="Rechteck 613" width="17.875" height="2.938" transform="translate(24.81 118.761)" fill="#646464"/>
      <path id="Pfad_321-2" data-name="Pfad 321" d="M681.106,442.892H662.521V428.025c.343-6.794,6.15-7.343,11.607-6.978a6.978,6.978,0,0,1,6.979,6.979Z" transform="translate(-604.071 -361.71)" fill="#d1ccc5"/>
      <rect id="Rechteck_880-2" data-name="Rechteck 880" width="109.356" height="11.887" transform="translate(12.094 86.768)" fill="#646464"/>
      <rect id="Rechteck_881-2" data-name="Rechteck 881" width="109.356" height="3.566" transform="translate(12.094 131.937)" fill="#646464"/>
    </g>
    <g id="Gruppe_533" data-name="Gruppe 533" transform="translate(683.869 705.477)">
      <rect id="Rechteck_606-3" data-name="Rechteck 606" width="109.71" height="36.73" transform="translate(11.945 96.111)" fill="#d1ccc5"/>
      <rect id="Rechteck_607-3" data-name="Rechteck 607" width="14.447" height="29.139" transform="translate(59.703 103.702)" fill="#646464"/>
      <rect id="Rechteck_608-3" data-name="Rechteck 608" width="109.688" height="33.792" transform="translate(11.945 52.769)" fill="#d1ccc5"/>
      <path id="Pfad_311-3" data-name="Pfad 311" d="M600.479,278.35H468.83a1.1,1.1,0,0,1-.764-1.9l35.98-34.584V226.806a1.1,1.1,0,0,1,1.1-1.1h7.1a1.1,1.1,0,0,1,1.1,1.1v6.12l2.718-2.612a24.417,24.417,0,0,1,33.247-.553l51.9,46.668a1.1,1.1,0,0,1-.737,1.921Z" transform="translate(-467.729 -223.5)" fill="#646464"/>
      <path id="Pfad_312-3" data-name="Pfad 312" d="M442.9,204.421h0a6.979,6.979,0,0,1,6.979,6.979v9.427H435.919V211.4A6.979,6.979,0,0,1,442.9,204.421Z" transform="translate(-401.805 -143.081)" fill="#fff"/>
      <path id="Pfad_313-3" data-name="Pfad 313" d="M528.991,204.829h0a6.979,6.979,0,0,1,6.979,6.979v9.427H522.012v-9.427A6.979,6.979,0,0,1,528.991,204.829Z" transform="translate(-462.064 -143.367)" fill="#fff"/>
      <path id="Pfad_314-3" data-name="Pfad 314" d="M615.084,205.237h0a6.979,6.979,0,0,1,6.979,6.979v9.427H608.106v-9.427A6.979,6.979,0,0,1,615.084,205.237Z" transform="translate(-522.324 -143.652)" fill="#fff"/>
      <path id="Pfad_315-3" data-name="Pfad 315" d="M649.358,344.373h0a6.979,6.979,0,0,1,6.979,6.979v9.427H642.38v-9.427A6.979,6.979,0,0,1,649.358,344.373Z" transform="translate(-546.314 -241.039)" fill="#fff"/>
      <path id="Pfad_316-3" data-name="Pfad 316" d="M419.232,344.373h0a6.979,6.979,0,0,1,6.979,6.979v9.427H412.254v-9.427A6.979,6.979,0,0,1,419.232,344.373Z" transform="translate(-385.24 -241.039)" fill="#fff"/>
      <rect id="Rechteck_609-3" data-name="Rechteck 609" width="17.875" height="2.938" transform="translate(31.911 76.399)" fill="#646464"/>
      <rect id="Rechteck_610-3" data-name="Rechteck 610" width="17.875" height="2.938" transform="translate(58.112 76.399)" fill="#cacaca"/>
      <rect id="Rechteck_611-3" data-name="Rechteck 611" width="17.875" height="2.938" transform="translate(84.312 76.399)" fill="#646464"/>
      <rect id="Rechteck_612-3" data-name="Rechteck 612" width="17.875" height="2.938" transform="translate(94.107 118.761)" fill="#646464"/>
      <rect id="Rechteck_613-3" data-name="Rechteck 613" width="17.875" height="2.938" transform="translate(24.81 118.761)" fill="#646464"/>
      <path id="Pfad_321-3" data-name="Pfad 321" d="M681.106,442.892H662.521V428.025c.343-6.794,6.15-7.343,11.607-6.978a6.978,6.978,0,0,1,6.979,6.979Z" transform="translate(-604.071 -361.71)" fill="#d1ccc5"/>
      <rect id="Rechteck_880-3" data-name="Rechteck 880" width="109.688" height="12.325" transform="translate(11.945 86.247)" fill="#646464"/>
      <rect id="Rechteck_881-3" data-name="Rechteck 881" width="109.688" height="3.081" transform="translate(11.945 132.464)" fill="#646464"/>
    </g>
    <g id="Gruppe_534" data-name="Gruppe 534" transform="translate(430.363 766.779)">
      <ellipse id="Ellipse_228" data-name="Ellipse 228" cx="14.727" cy="14.727" rx="14.727" ry="14.727" transform="translate(0.574 37.621)" fill="#fff"/>
      <path id="Pfad_781" data-name="Pfad 781" d="M110.464,394.03h.041l.728,41.754h-1.537Z" transform="translate(-95.122 -341.682)" fill="#646464"/>
      <ellipse id="Ellipse_229" data-name="Ellipse 229" cx="10.741" cy="10.741" rx="10.741" ry="10.741" transform="translate(36.179 52.906)" fill="#f5d166"/>
      <path id="Pfad_782" data-name="Pfad 782" d="M349.74,479.085h.03l.531,30.454h-1.121Z" transform="translate(-302.79 -415.438)" fill="#646464"/>
      <ellipse id="Ellipse_230" data-name="Ellipse 230" cx="24.441" cy="24.441" rx="24.441" ry="24.441" transform="translate(8.951 0)" fill="#9f7042"/>
      <path id="Pfad_783" data-name="Pfad 783" d="M310.859,156.936A24.443,24.443,0,0,1,270.132,182.8a24.444,24.444,0,1,0,40.727-25.868Z" transform="translate(-259.42 -148.82)" opacity="0.1" style="mix-blend-mode: normal;isolation: isolate"/>
      <path id="Pfad_784" data-name="Pfad 784" d="M242.515,183.975h-.067l-1.209,69.3h2.552Z" transform="translate(-209.19 -159.534)" fill="#646464"/>
      <path id="Pfad_785" data-name="Pfad 785" d="M298.438,802.258H189.633a.133.133,0,1,1,0-.266H298.438a.133.133,0,1,1,0,.266Z" transform="translate(-189.5 -708.179)" fill="#d1ccc5"/>
    </g>
  </g>
</svg>
