<svg xmlns="http://www.w3.org/2000/svg" width="363.94" height="296.622" viewBox="0 0 363.94 296.622">
  <g id="Gruppe_485" data-name="Gruppe 485" transform="translate(-500.65 -364.408)">
    <g id="Gruppe_383" data-name="Gruppe 383" transform="translate(500.65 364.407)">
      <rect id="Rechteck_606" data-name="Rechteck 606" width="220.889" height="65.481" transform="translate(33.311 171.342)" fill="#d1ccc5"/>
      <rect id="Rechteck_607" data-name="Rechteck 607" width="25.756" height="51.948" transform="translate(130.877 184.875)" fill="#646464"/>
      <rect id="Rechteck_608" data-name="Rechteck 608" width="195.133" height="60.242" transform="translate(46.189 94.075)" fill="#d1ccc5"/>
      <path id="Pfad_311" data-name="Pfad 311" d="M704.392,321.285h-234.7a1.964,1.964,0,0,1-1.361-3.381l64.143-61.655V229.393a1.967,1.967,0,0,1,1.964-1.964H547.1a1.967,1.967,0,0,1,1.964,1.964V240.3l4.845-4.657a43.53,43.53,0,0,1,59.272-.986l92.525,83.2a1.965,1.965,0,0,1-1.313,3.425Z" transform="translate(-443.287 -223.5)" fill="#646464"/>
      <path id="Pfad_312" data-name="Pfad 312" d="M448.36,204.421h0A12.441,12.441,0,0,1,460.8,216.862v16.807H435.919V216.862A12.441,12.441,0,0,1,448.36,204.421Z" transform="translate(-350.66 -95.067)" fill="#fff"/>
      <path id="Pfad_313" data-name="Pfad 313" d="M534.454,204.829h0A12.441,12.441,0,0,1,546.9,217.27v16.807H522.012V217.27A12.441,12.441,0,0,1,534.454,204.829Z" transform="translate(-390.699 -95.257)" fill="#fff"/>
      <path id="Pfad_314" data-name="Pfad 314" d="M620.547,205.237h0a12.441,12.441,0,0,1,12.441,12.441v16.807H608.106V217.678A12.441,12.441,0,0,1,620.547,205.237Z" transform="translate(-430.737 -95.447)" fill="#fff"/>
      <path id="Pfad_315" data-name="Pfad 315" d="M654.821,344.373h0a12.441,12.441,0,0,1,12.441,12.441v16.807H642.38V356.815A12.441,12.441,0,0,1,654.821,344.373Z" transform="translate(-446.677 -160.153)" fill="#fff"/>
      <path id="Pfad_316" data-name="Pfad 316" d="M424.695,344.373h0a12.441,12.441,0,0,1,12.441,12.441v16.807H412.254V356.815A12.441,12.441,0,0,1,424.695,344.373Z" transform="translate(-339.654 -160.153)" fill="#fff"/>
      <path id="Pfad_317" data-name="Pfad 317" d="M708.509,529.642l-41.436-18.335a1.747,1.747,0,0,0-.706-.149H468.888a1.746,1.746,0,0,0-.658.129l-45.1,18.335a1.746,1.746,0,0,0,.658,3.364h11.7v60.242h-1.31v6.112H697.41v-6.112h-2.183V532.985H707.8a1.746,1.746,0,0,0,.706-3.343Zm-16.774,63.585H438.979V532.985H691.735Z" transform="translate(-422.039 -357.277)" fill="#646464"/>
      <rect id="Rechteck_609" data-name="Rechteck 609" width="31.867" height="5.238" transform="translate(81.33 136.201)" fill="#646464"/>
      <rect id="Rechteck_610" data-name="Rechteck 610" width="31.867" height="5.238" transform="translate(128.04 136.201)" fill="#cacaca"/>
      <rect id="Rechteck_611" data-name="Rechteck 611" width="31.867" height="5.238" transform="translate(174.749 136.201)" fill="#646464"/>
      <rect id="Rechteck_612" data-name="Rechteck 612" width="31.867" height="5.238" transform="translate(192.211 211.722)" fill="#646464"/>
      <rect id="Rechteck_613" data-name="Rechteck 613" width="31.867" height="5.238" transform="translate(68.67 211.722)" fill="#646464"/>
      <path id="Pfad_321" data-name="Pfad 321" d="M695.654,460.058H662.521v-26.5c.611-12.113,10.964-13.091,20.692-12.441a12.44,12.44,0,0,1,12.441,12.442Z" transform="translate(-533.878 -315.331)" fill="#d1ccc5"/>
    </g>
    <g id="Gruppe_481" data-name="Gruppe 481" transform="translate(664.633 442.331)">
      <path id="Pfad_483" data-name="Pfad 483" d="M375.145,572.576l-7.477-4.763a111.6,111.6,0,0,1-.321-12.574l3.879.991-3.828-2.439c.211-5.185.68-8.6.68-8.6s15.118,9.82,24.761,23.131l-1.644,11.257,3.921-7.873a45.162,45.162,0,0,1,2.7,4.991c7.944,17.355,8.716,34.019,1.724,37.22s-19.1-8.274-27.044-25.629a59.438,59.438,0,0,1-4.527-17.542Z" transform="translate(-335.137 -396.947)" fill="#9f7042"/>
      <path id="Pfad_484" data-name="Pfad 484" d="M319.663,624.575l-8.863-.213a111.6,111.6,0,0,1-6.775-10.6l3.833-1.157-4.538-.109c-2.5-4.547-3.866-7.717-3.866-7.717s18.018.592,33.153,7l4.412,10.487-.713-8.766a45.126,45.126,0,0,1,4.889,2.879c15.772,10.75,25.046,24.616,20.715,30.97s-20.628,2.79-36.4-7.96a59.441,59.441,0,0,1-12.942-12.677Z" transform="translate(-295.014 -432.194)" fill="#d1ccc5"/>
      <path id="Pfad_485" data-name="Pfad 485" d="M631.782,331.43l-6.946-.817-2.451,21.245L616.126,381.2a4.493,4.493,0,1,0,4.875.615l6.286-17.288Z" transform="translate(-531.064 -270.042)" fill="#ffb6b6"/>
      <path id="Pfad_486" data-name="Pfad 486" d="M371.572,489.016H365.85l-2.723-22.073h8.446Z" transform="translate(-260.765 -276.166)" fill="#ffb6b6"/>
      <path id="Pfad_487" data-name="Pfad 487" d="M659.658,706.168H641.207v-.233a7.182,7.182,0,0,1,7.181-7.182h11.271Z" transform="translate(-547.392 -487.771)"/>
      <path id="Pfad_488" data-name="Pfad 488" d="M473.225,481.957l-5.619,1.085-6.859-21.156,8.293-1.6Z" transform="translate(-318.501 -272.228)" fill="#ffb6b6"/>
      <path id="Pfad_489" data-name="Pfad 489" d="M769.889,697.8l-18.117,3.5-.044-.229a7.183,7.183,0,0,1,5.69-8.414h0l11.065-2.137Z" transform="translate(-612.68 -482.902)"/>
      <path id="Pfad_490" data-name="Pfad 490" d="M649.5,208.931l3.325,6.379,24.9-5.493L675,197.449c-2.159-9.79-10.816-16.86-20.605-14.7s-14.358,11.728-12.2,21.518l4.013,12.5,4.06-.9Z" transform="translate(-547.665 -182.359)"/>
      <path id="Pfad_491" data-name="Pfad 491" d="M637.824,418.036s-2.451,12.257.817,30.234,4.086,25.74,4.086,25.74-2.451,2.86-.817,4.494,0,4.9,0,4.9l3.677,39.631,12.665-2.043-1.634-37.18s1.634-3.269.817-4.086.817-5.72.817-5.72L660.3,435.2l12.666,42.491s-1.226,1.634,0,2.86,3.677,7.354,3.677,7.354l8.171,28.6,13.074-2.451-7.354-32.685s.817-2.043-.409-3.268a3.2,3.2,0,0,1-.817-2.86s1.226-1.226-.409-2.86-2.451-8.171-2.451-8.171-1.226-43.717-5.311-46.168S637.824,418.036,637.824,418.036Z" transform="translate(-544.87 -321.102)" fill="#646464"/>
      <ellipse id="Ellipse_194" data-name="Ellipse 194" cx="11.44" cy="11.44" rx="11.44" ry="11.44" transform="translate(99.989 6.452)" fill="#ffb6b6"/>
      <path id="Pfad_492" data-name="Pfad 492" d="M672.334,261.718s8.3-.973,10.755,1.479l-2.451,49.437s1.634,1.226.817,4.086a11.67,11.67,0,0,0,0,5.72s2.451,2.86,1.226,4.086-45.351.409-45.351.409-1.634-2.86.817-4.494,1.226-6.128,1.226-6.128-.817-1.226,1.226-3.269,3.677-18.794,3.677-18.794l-5.311-20.428s5.347-6.035,11.458-6.49Z" transform="translate(-544.783 -229.182)" fill="#e0aa0b"/>
      <path id="Pfad_493" data-name="Pfad 493" d="M639.26,291.894l-6.33-.281s-3.677,7.354-4.086,13.891l-2.25,24.387,14.507,2.17Z" transform="translate(-538.75 -246.976)" fill="#e0aa0b"/>
      <path id="Pfad_494" data-name="Pfad 494" d="M654.029,206.681l-4.25-5.467a4.458,4.458,0,0,1,3.384-5.3l16.053-3.541a4.458,4.458,0,0,1,5.3,3.384l.009.04-1.15,6.6-.2-.036c-9.963-1.776-12.8-1.152-18.982,4.178Z" transform="translate(-552.401 -188.221)"/>
      <path id="Pfad_495" data-name="Pfad 495" d="M748.49,361.664l-.766-32.171-.817-22.88-9.806,1.226,5.266,54.685a4.494,4.494,0,1,0,6.123-.86Z" transform="translate(-604.107 -255.847)" fill="#ffb6b6"/>
      <path id="Pfad_496" data-name="Pfad 496" d="M732.594,266.3l7.153-.69s1.226,0,2.451,4.086,7.964,47.266,7.964,47.266l-14.91,1.353Z" transform="translate(-601.442 -231.598)" fill="#e0aa0b"/>
      <path id="Pfad_497" data-name="Pfad 497" d="M621.483,437.87h0Z" transform="translate(-535.727 -333.477)" fill="#3f3d56"/>
      <path id="Pfad_507" data-name="Pfad 507" d="M498.626,716.459H299.332a.417.417,0,0,1,0-.817H498.626a.417.417,0,0,1,0,.817Z" transform="translate(-299.001 -497.76)" fill="#d1ccc5"/>
    </g>
  </g>
</svg>
