<svg xmlns="http://www.w3.org/2000/svg" width="257.695" height="218.905" viewBox="0 0 257.695 218.905">
  <g id="Gruppe_537" data-name="Gruppe 537" transform="translate(-809.368 -481.478)">
    <g id="Gruppe_528" data-name="Gruppe 528" transform="translate(809.368 487.886)">
      <g id="Gruppe_383" data-name="Gruppe 383">
        <rect id="Rechteck_606" data-name="Rechteck 606" width="178.215" height="52.831" transform="translate(26.876 138.24)" fill="#d1ccc5"/>
        <rect id="Rechteck_607" data-name="Rechteck 607" width="20.78" height="41.912" transform="translate(105.593 149.159)" fill="#646464"/>
        <rect id="Rechteck_608" data-name="Rechteck 608" width="157.435" height="48.604" transform="translate(37.266 75.9)" fill="#d1ccc5"/>
        <path id="Pfad_311" data-name="Pfad 311" d="M658.671,302.394H469.314a1.585,1.585,0,0,1-1.1-2.728l51.752-49.744V228.255a1.586,1.586,0,0,1,1.585-1.585h10.214a1.587,1.587,0,0,1,1.585,1.585v8.8l3.909-3.757a35.12,35.12,0,0,1,47.821-.8l74.651,67.125a1.585,1.585,0,0,1-1.06,2.764Z" transform="translate(-448.009 -223.5)" fill="#646464"/>
        <path id="Pfad_312" data-name="Pfad 312" d="M445.957,204.421h0a10.038,10.038,0,0,1,10.038,10.038v13.56H435.919v-13.56A10.038,10.038,0,0,1,445.957,204.421Z" transform="translate(-367.131 -116.193)" fill="#fff"/>
        <path id="Pfad_313" data-name="Pfad 313" d="M532.05,204.829h0a10.038,10.038,0,0,1,10.038,10.038v13.56H522.012v-13.56A10.038,10.038,0,0,1,532.05,204.829Z" transform="translate(-416.067 -116.425)" fill="#fff"/>
        <path id="Pfad_314" data-name="Pfad 314" d="M618.143,205.237h0a10.038,10.038,0,0,1,10.038,10.038v13.56H608.106v-13.56A10.038,10.038,0,0,1,618.143,205.237Z" transform="translate(-465.003 -116.657)" fill="#fff"/>
        <path id="Pfad_315" data-name="Pfad 315" d="M652.418,344.373h0a10.038,10.038,0,0,1,10.038,10.038v13.56H642.38v-13.56A10.038,10.038,0,0,1,652.418,344.373Z" transform="translate(-484.484 -195.743)" fill="#fff"/>
        <path id="Pfad_316" data-name="Pfad 316" d="M422.291,344.373h0a10.038,10.038,0,0,1,10.038,10.038v13.56H412.254v-13.56A10.038,10.038,0,0,1,422.291,344.373Z" transform="translate(-353.679 -195.743)" fill="#fff"/>
        <path id="Pfad_317" data-name="Pfad 317" d="M653.166,526.071l-33.431-14.792a1.408,1.408,0,0,0-.57-.12H459.837a1.409,1.409,0,0,0-.531.1l-36.39,14.792a1.409,1.409,0,0,0,.531,2.714h9.441v48.6h-1.057V582.3H644.212v-4.931h-1.761v-48.6H652.6a1.409,1.409,0,0,0,.57-2.7Zm-13.533,51.3H435.707v-48.6H639.633Z" transform="translate(-422.039 -387.006)" fill="#646464"/>
        <rect id="Rechteck_609" data-name="Rechteck 609" width="25.711" height="4.226" transform="translate(65.618 109.888)" fill="#646464"/>
        <rect id="Rechteck_610" data-name="Rechteck 610" width="25.711" height="4.226" transform="translate(103.304 109.888)" fill="#cacaca"/>
        <rect id="Rechteck_611" data-name="Rechteck 611" width="25.711" height="4.226" transform="translate(140.99 109.888)" fill="#646464"/>
        <rect id="Rechteck_612" data-name="Rechteck 612" width="25.711" height="4.226" transform="translate(155.078 170.819)" fill="#646464"/>
        <rect id="Rechteck_613" data-name="Rechteck 613" width="25.711" height="4.226" transform="translate(55.404 170.819)" fill="#646464"/>
        <path id="Pfad_321" data-name="Pfad 321" d="M689.253,452.5H662.521V431.121c.493-9.773,8.846-10.562,16.694-10.037a10.037,10.037,0,0,1,10.038,10.038Z" transform="translate(-558.73 -335.738)" fill="#d1ccc5"/>
      </g>
    </g>
    <path id="Pfad_140" data-name="Pfad 140" d="M-2275-5953.067V-6160.9" transform="translate(3200.35 6642.378)" fill="none" stroke="#f5d166" stroke-width="5" stroke-dasharray="20 10"/>
    <g id="Gruppe_535" data-name="Gruppe 535" transform="translate(942.88 593.245)">
      <ellipse id="Ellipse_228" data-name="Ellipse 228" cx="16.767" cy="16.767" rx="16.767" ry="16.767" transform="translate(89.994 42.833)" fill="#fff"/>
      <path id="Pfad_781" data-name="Pfad 781" d="M110.57,394.03h-.046l-.829,47.538h1.751Z" transform="translate(-3.855 -334.43)" fill="#646464"/>
      <ellipse id="Ellipse_229" data-name="Ellipse 229" cx="12.23" cy="12.23" rx="12.23" ry="12.23" transform="translate(58.532 60.236)" fill="#f5d166"/>
      <path id="Pfad_782" data-name="Pfad 782" d="M349.818,479.085h-.034l-.6,34.673h1.277Z" transform="translate(-279.089 -406.62)" fill="#646464"/>
      <ellipse id="Ellipse_230" data-name="Ellipse 230" cx="27.828" cy="27.828" rx="27.828" ry="27.828" transform="translate(58.336 0)" fill="#9f7042"/>
      <path id="Pfad_783" data-name="Pfad 783" d="M277.184,156.936a27.83,27.83,0,0,0,46.369,29.452,27.83,27.83,0,1,1-46.369-29.452Z" transform="translate(-211.567 -147.695)" opacity="0.1" style="mix-blend-mode: normal;isolation: isolate"/>
      <path id="Pfad_784" data-name="Pfad 784" d="M242.691,183.975h.077l1.376,78.9h-2.905Z" transform="translate(-156.451 -156.147)" fill="#646464"/>
      <path id="Pfad_785" data-name="Pfad 785" d="M189.651,802.295h123.88a.151.151,0,1,0,0-.3H189.651a.151.151,0,1,0,0,.3Z" transform="translate(-189.5 -695.181)" fill="#d1ccc5"/>
    </g>
  </g>
</svg>
