<svg xmlns="http://www.w3.org/2000/svg" width="313.992" height="314.06" viewBox="0 0 313.992 314.06">
  <g id="Gruppe_575" data-name="Gruppe 575" transform="translate(-409.185 -368.674)">
    <g id="Gruppe_574" data-name="Gruppe 574" transform="translate(414.308 368.674)">
      <path id="Pfad_1022" data-name="Pfad 1022" d="M539.8,369.292a34.834,34.834,0,0,1-10.062-5.085l1.968,4.83A151.422,151.422,0,0,1,385.1,261.478c-19.283-64.182,6.47-134.027,62.641-170.285l1.037,5.112a34.832,34.832,0,0,1,5.561-9.807,34.8,34.8,0,0,1-11.264.446l4.066,3.264a152.191,152.191,0,0,0,82.573,280c.681,0,1.364-.012,2.046-.022l-1.577,4.971A34.8,34.8,0,0,1,539.8,369.292Z" transform="translate(-377.546 -61.1)" fill="#646464"/>
      <path id="Pfad_1023" data-name="Pfad 1023" d="M785.678,155.585A152.187,152.187,0,0,0,645.889,47.3l1.838-4.876a34.8,34.8,0,0,1-9.923,5.349,34.831,34.831,0,0,1,9.778,5.612l-1.71-4.931A151.037,151.037,0,0,1,729.14,321.247L727.8,316.2a34.833,34.833,0,0,1-4.976,10.116,34.8,34.8,0,0,1,11.219-1.106l-4.248-3.018a152.21,152.21,0,0,0,55.88-166.608Z" transform="translate(-487.822 -42.426)" fill="#646464"/>
    </g>
    <path id="Pfad_1024" data-name="Pfad 1024" d="M-3119,16053.55h48.172v36.2h-61.992Z" transform="translate(3542 -15627.255)" fill="#f4f1ed"/>
    <path id="Pfad_1025" data-name="Pfad 1025" d="M-2845.319,16266.652h76.85v75.358h-120.774v-75.358Z" transform="translate(3488.409 -15674.141)" fill="#f4f1ed"/>
    <g id="Gruppe_573" data-name="Gruppe 573" transform="translate(409.737 399.687)">
      <path id="Pfad_982" data-name="Pfad 982" d="M485.331,203.038q0,3.4-.184,6.744a122.768,122.768,0,0,1-3.867,24.7s0,0,0,.007q-.419,1.6-.888,3.19c-.014.051-.027.1-.044.146q-.695,2.374-1.484,4.7v0a123.226,123.226,0,0,1-239.989-39.5q0-2.849.129-5.668a122.6,122.6,0,0,1,21.531-64.127c.157-.231.317-.463.48-.691a123.251,123.251,0,0,1,221.563,44.478.01.01,0,0,1,0,.007q1.154,5.372,1.831,10.907A123.4,123.4,0,0,1,485.331,203.038Z" transform="translate(-205.081 -79.809)" fill="#fff"/>
      <path id="Pfad_983" data-name="Pfad 983" d="M992.342,706.515a32.991,32.991,0,0,1-4.258,9.371c-4.248,6.424-10.328,11.336-17.01,15.267-.463.276-.933.545-1.4.81h-4.687l-.163-.375v0l-.191-.432-.024-.051-.01.051-.187.81h-2.3c-.19-.269-.378-.538-.562-.81q-.4-.6-.773-1.208a19.638,19.638,0,0,1-1.158-2.219c-.041-.085-.075-.17-.109-.255l.153-.167-.637-2.785,1.28-.211-1.4-4.327c.051-.16.109-.32.17-.48a10.769,10.769,0,0,1,4.017-4.728,61.181,61.181,0,0,1,5.835-3.4c.905-.507,1.8-1.042,2.665-1.607v0q1.665-1.078,3.23-2.3a.493.493,0,0,0,.051-.037.37.37,0,0,0,.041-.034,47.965,47.965,0,0,0,11.679-13.252h0a0,0,0,0,0,0,0c.1-.163.2-.327.293-.494v0a46.387,46.387,0,0,0,3.2-6.689v0c.068-.17.129-.34.194-.51q.133.225.255.449h0a0,0,0,0,1,0,0C993.844,692.79,994.157,699.9,992.342,706.515Z" transform="translate(-680.003 -479.931)" fill="#f5d166"/>
      <path id="Pfad_988" data-name="Pfad 988" d="M961.5,699.1v0a44.674,44.674,0,0,1-.909,7.23v0c-.027.163-.065.323-.1.483a62.8,62.8,0,0,1-3.442,10.76q-.607,1.471-1.273,2.911c-.123.272-.249.541-.378.81h-.5l-.163-.374v0l-.191-.432-.024-.051-.01.051-.187.81h-4.868l-.946-.81-1.379-1.181,1.927-2.1.317-.347.048-.051.153-.167-.637-2.785,1.28-.211-1.4-4.327-.664-2.046-.167-.514-.97-2.992-2.927.548-.477-1.668a46.294,46.294,0,0,0,2.185-6.267c0-.017.01-.031.014-.048a48.194,48.194,0,0,0,1.368-17.688v0c-.02-.191-.044-.385-.071-.572v-.007a45.488,45.488,0,0,0-1.471-7.264c-.048-.18-.1-.357-.153-.534l.466.2,0,0h.007c.249.109.5.225.739.347,5.807,2.822,10.08,8.119,12.507,14.226l.021.048a32.818,32.818,0,0,1,2.236,10.018A39.092,39.092,0,0,1,961.5,699.1Z" transform="translate(-669.918 -469.265)" fill="#d1ccc5"/>
      <path id="Pfad_989" data-name="Pfad 989" d="M963.222,811.583h-.538c-.17-.276-.354-.545-.538-.81q-.439-.618-.905-1.208-.4-.51-.807-1.014c-.279-.351-.555-.7-.824-1.062l.316-.347c.051.068.1.136.157.2.871,1.147,1.814,2.25,2.621,3.428C962.885,811.038,963.059,811.307,963.222,811.583Z" transform="translate(-680.471 -559.55)" fill="#fff"/>
      <path id="Pfad_992" data-name="Pfad 992" d="M956.347,753.9a11.822,11.822,0,0,1-4.847-7.123c-.065-.287-.508-.171-.443.116a12.3,12.3,0,0,0,5.059,7.4C956.361,754.457,956.59,754.061,956.347,753.9Z" transform="translate(-674.826 -519.622)" fill="#fff"/>
      <path id="Pfad_994" data-name="Pfad 994" d="M355.2,235.444H139.948a.346.346,0,1,1,0-.691H355.2a.346.346,0,1,1,0,.691Z" transform="translate(-139.603 -182.008)" fill="#646464"/>
      <ellipse id="Ellipse_275" data-name="Ellipse 275" cx="3.719" cy="3.802" rx="3.719" ry="3.802" transform="translate(4.237 40.993)" fill="#9f7042"/>
      <ellipse id="Ellipse_276" data-name="Ellipse 276" cx="3.719" cy="3.802" rx="3.719" ry="3.802" transform="translate(17.084 40.993)" fill="#9f7042"/>
      <ellipse id="Ellipse_277" data-name="Ellipse 277" cx="3.719" cy="3.802" rx="3.719" ry="3.802" transform="translate(29.932 40.993)" fill="#9f7042"/>
      <path id="Pfad_995" data-name="Pfad 995" d="M731.3,203h-9.126a.691.691,0,1,0,0,1.382H731.3a.691.691,0,1,0,0-1.382Z" transform="translate(-523.406 -161.064)" fill="#9f7042"/>
      <path id="Pfad_996" data-name="Pfad 996" d="M731.3,210.619h-9.126a.691.691,0,1,0,0,1.382H731.3a.691.691,0,1,0,0-1.382Z" transform="translate(-523.406 -166.09)" fill="#9f7042"/>
      <path id="Pfad_997" data-name="Pfad 997" d="M731.3,218.229h-9.126a.691.691,0,1,0,0,1.382H731.3a.691.691,0,1,0,0-1.382Z" transform="translate(-523.406 -171.109)" fill="#9f7042"/>
      <path id="Pfad_998" data-name="Pfad 998" d="M265.5,278.159h-9.664a122.318,122.318,0,0,0-11.387,34.058H265.5a5.1,5.1,0,0,0,5.106-5.106V283.262A5.109,5.109,0,0,0,265.5,278.159Z" transform="translate(-208.755 -210.639)" fill="#d1ccc5" style="mix-blend-mode: normal;isolation: isolate"/>
      <path id="Pfad_999" data-name="Pfad 999" d="M421.858,278.159H378.071a5.109,5.109,0,0,0-5.106,5.1v23.849a5.112,5.112,0,0,0,5.106,5.106h43.787a5.112,5.112,0,0,0,5.106-5.106V283.262a5.11,5.11,0,0,0-5.106-5.1Z" transform="translate(-293.526 -210.639)" fill="#d1ccc5" style="mix-blend-mode: normal;isolation: isolate"/>
      <path id="Pfad_1000" data-name="Pfad 1000" d="M632.168,278.159H588.381a5.109,5.109,0,0,0-5.106,5.1v23.849a5.112,5.112,0,0,0,5.106,5.106h43.787a5.112,5.112,0,0,0,5.106-5.106V283.262a5.109,5.109,0,0,0-5.106-5.1Z" transform="translate(-432.244 -210.639)" fill="#d1ccc5" style="mix-blend-mode: normal;isolation: isolate"/>
      <path id="Pfad_1001" data-name="Pfad 1001" d="M261.821,425.159H239q-.128,2.819-.129,5.668a123.45,123.45,0,0,0,3.288,28.39h19.659a5.112,5.112,0,0,0,5.106-5.106V430.262A5.109,5.109,0,0,0,261.821,425.159Z" transform="translate(-205.081 -307.599)" fill="#d1ccc5" style="mix-blend-mode: normal;isolation: isolate"/>
      <path id="Pfad_1002" data-name="Pfad 1002" d="M421.858,425.159H378.071a5.11,5.11,0,0,0-5.106,5.1v23.849a5.112,5.112,0,0,0,5.106,5.106h43.787a5.112,5.112,0,0,0,5.106-5.106V430.262a5.11,5.11,0,0,0-5.106-5.1Z" transform="translate(-293.526 -307.599)" fill="#d1ccc5" style="mix-blend-mode: normal;isolation: isolate"/>
      <path id="Pfad_1003" data-name="Pfad 1003" d="M632.168,425.159H588.381a5.109,5.109,0,0,0-5.106,5.1v23.849a5.112,5.112,0,0,0,5.106,5.106h43.787q.209,0,.419-.02a4.87,4.87,0,0,0,1.586-.391,5.113,5.113,0,0,0,3.1-4.647v-23.9a5.109,5.109,0,0,0-5.106-5.1Z" transform="translate(-432.244 -307.599)" fill="#d1ccc5" style="mix-blend-mode: normal;isolation: isolate"/>
      <circle id="Ellipse_278" data-name="Ellipse 278" cx="10.13" cy="10.13" r="10.13" transform="translate(47.524 87.014)" fill="#e0aa0b"/>
      <path id="Pfad_1004" data-name="Pfad 1004" d="M297.371,360.238a1.127,1.127,0,0,1-.9-.451l-2.764-3.685a1.127,1.127,0,1,1,1.8-1.352l1.808,2.411,4.644-6.966a1.127,1.127,0,1,1,1.875,1.25l-5.527,8.291a1.127,1.127,0,0,1-.906.5Z" transform="translate(-241.099 -257.822)" fill="#fff"/>
      <circle id="Ellipse_279" data-name="Ellipse 279" cx="10.13" cy="10.13" r="10.13" transform="translate(121.393 88.035)" fill="#e0aa0b"/>
      <path id="Pfad_1005" data-name="Pfad 1005" d="M514.371,363.238a1.127,1.127,0,0,1-.9-.451l-2.764-3.685a1.127,1.127,0,1,1,1.8-1.352l1.808,2.411,4.644-6.966a1.127,1.127,0,0,1,1.875,1.25l-5.527,8.291a1.127,1.127,0,0,1-.906.5Z" transform="translate(-384.23 -259.801)" fill="#fff"/>
      <path id="Pfad_1006" data-name="Pfad 1006" d="M943.169,441.487,940,410.795l-.837-12.632,8.875-1.6s1.329,8.684,2.492,13.78c1.147,5.029-1.528,30.476-1.6,31.147a4.318,4.318,0,1,1-5.76,0Z" transform="translate(-666.984 -288.733)" fill="#a0616a"/>
      <path id="Pfad_1007" data-name="Pfad 1007" d="M724.476,684.228l-4.4,1.006-5.975-16.5,6.5-1.485Z" transform="translate(-471.005 -440.112)" fill="#a0616a"/>
      <path id="Pfad_1008" data-name="Pfad 1008" d="M861.208,790.838l-1.123.255-.116.027-5.137-.837-.15-.024-2.145,2.56a5.669,5.669,0,0,0-4.262,6.788l.007.031.037.15.654-.15,13.538-3.1Z" transform="translate(-606.942 -548.415)"/>
      <path id="Pfad_1009" data-name="Pfad 1009" d="M808.755,691.833H804.24l-2.148-17.415h6.664Z" transform="translate(-529.044 -444.839)" fill="#a0616a"/>
      <path id="Pfad_1010" data-name="Pfad 1010" d="M935.194,797.148l-.395-.16-4.425-1.8-.143-.058-2.659,2.019a5.666,5.666,0,0,0-5.668,5.664V803l12.462,0h2.1v-5.852Z" transform="translate(-655.601 -551.627)"/>
      <path id="Pfad_1011" data-name="Pfad 1011" d="M859.951,529.737l3.8,36.077s5.055,36.123,4.106,41.108.237,5.7.237,5.7L859.429,612s.237-3.086-1.187-4.51-.712-5.7-.712-5.7l-16.8-58.767-10.206,30.855s6.448,25.022,6.21,25.5,4.085,10.893,4.085,10.893l-9.67,3.207s1.187-3.8-.475-4.984-3.086-.237-1.661-2.373-11.22-17.824-10.942-27.935c.084-3.041.185-6.3.306-9.648.643-17.692,1.857-37.628,4.078-38.8C826.484,527.6,859.951,529.737,859.951,529.737Z" transform="translate(-587.107 -375.95)"/>
      <circle id="Ellipse_280" data-name="Ellipse 280" cx="9.34" cy="9.34" r="9.34" transform="translate(245.519 62.059)" fill="#a0616a"/>
      <path id="Pfad_1012" data-name="Pfad 1012" d="M945.948,384.46l-12.683,3.22.088-3.56-.963-1.021-1.923-10.075-2.042-26.085,7.008,3.717.008.007a18.943,18.943,0,0,1,3.039,4.5c2.642,5.371,5.18,17.2,6.509,24.074a.751.751,0,0,0,.253.364,3.886,3.886,0,0,1,.706,4.86Z" transform="translate(-659.902 -256.005)" fill="#d1ccc5"/>
      <path id="Pfad_1013" data-name="Pfad 1013" d="M753.947,429.5s17.507-18.457,17.67-18.8c1.223-9.287,4.74-13.383,5.267-12.938l9.078,3.145s-2.7,8.551-4.528,13.63c-1.747,4.853-21.881,16.707-22.217,17.293a4.318,4.318,0,1,1-5.27-2.325Z" transform="translate(-542.851 -289.504)" fill="#a0616a"/>
      <path id="Pfad_1014" data-name="Pfad 1014" d="M827.931,349.973s-7.86-3.852-10.908,3.714c-1.671,4.271-5.946,14.637-8.076,21.018a.472.472,0,0,1-.058.114,5.189,5.189,0,0,0-.884,2.863.974.974,0,0,1-.023.221s8.637,1.683,11.206,6.21l1.019-1.106.181-.775Z" transform="translate(-580.459 -257.36)" fill="#d1ccc5"/>
      <path id="Pfad_1015" data-name="Pfad 1015" d="M869.1,399.3c-18.089,3.736-42.06-2.687-42.06-2.687l6.395-27.72-2.273-29.009a7.894,7.894,0,0,1,4.886-8.051l4.34-1.626,3.588-5.136,10.247.336,4.1,5.392,3.233,1.715,7.009,3.717.031.015v.015l-2.2,21.334-1.326,12.863s4.029,14.467,3.2,16.386-.108.99.093,2.014.814,1.089.907,3.106S869.1,399.3,869.1,399.3Z" transform="translate(-593.03 -241.582)" fill="#d1ccc5"/>
      <path id="Pfad_1016" data-name="Pfad 1016" d="M873,261.958c-.738-.728.373-2.656.163-3.671-.241-1.164-1.523-1.2-1.83-2.347-.329-1.236-1.646-1.909-2.863-2.3a18.515,18.515,0,0,0-9.649-.442,36.827,36.827,0,0,0-4.175,1.286c-.942.332-.034-.571-.976-.239a1.479,1.479,0,0,0-.883.586c-.169.32.059.832.415.768l-3.451,1.522,1.935,2.027a1.35,1.35,0,0,0-1.533,1.715,1.938,1.938,0,0,0,1.483,1.027c1.036.2.25,1.188,1.306,1.168s8.415-2.183,8.928-1.26c.365.657.325,1.527.847,2.068.667.692,1.833.439,2.682-.012a4.873,4.873,0,0,1,2.667-.962c1,.113,1.752,1.956,2,2.93a7.5,7.5,0,0,1-.066,2.99c-.205,1.3-2.262,2.605-2.467,3.908,2.282.631,4.73-1.377,5.632-4.869C873.077,265.642,874.576,263.51,873,261.958Z" transform="translate(-608.012 -193.885)"/>
      <circle id="Ellipse_281" data-name="Ellipse 281" cx="10.13" cy="10.13" r="10.13" transform="translate(192.198 136.373)" fill="#e0aa0b"/>
      <path id="Pfad_1017" data-name="Pfad 1017" d="M722.371,505.238a1.127,1.127,0,0,1-.9-.451l-2.764-3.685a1.127,1.127,0,1,1,1.8-1.352l1.808,2.411,4.644-6.966a1.127,1.127,0,1,1,1.875,1.25l-5.527,8.291a1.127,1.127,0,0,1-.906.5Z" transform="translate(-521.424 -353.462)" fill="#fff"/>
      <path id="Pfad_1018" data-name="Pfad 1018" d="M868.124,818.216a.4.4,0,0,1-.405.405H772.305a.405.405,0,0,1,0-.81h95.414a.4.4,0,0,1,.405.405Z" transform="translate(-556.66 -566.587)" fill="#d1ccc5"/>
    </g>
  </g>
</svg>
