<svg xmlns="http://www.w3.org/2000/svg" width="442.66" height="332.45" viewBox="0 0 442.66 332.45">
  <g id="Gruppe_495" data-name="Gruppe 495" transform="translate(-416.657 -361)">
    <circle id="Ellipse_209" data-name="Ellipse 209" cx="102" cy="102" r="102" transform="translate(531 361)" fill="#fff"/>
    <g id="Gruppe_383" data-name="Gruppe 383" transform="translate(566.58 407.079)">
      <rect id="Rechteck_606" data-name="Rechteck 606" width="102.059" height="30.255" transform="translate(15.391 79.166)" fill="#d1ccc5"/>
      <rect id="Rechteck_607" data-name="Rechteck 607" width="11.9" height="24.002" transform="translate(60.47 85.419)" fill="#646464"/>
      <rect id="Rechteck_608" data-name="Rechteck 608" width="90.159" height="27.834" transform="translate(21.341 43.466)" fill="#d1ccc5"/>
      <path id="Pfad_311" data-name="Pfad 311" d="M577.076,268.68H468.636a.908.908,0,0,1-.629-1.562l29.637-28.487V226.223a.909.909,0,0,1,.908-.908H504.4a.909.909,0,0,1,.908.908v5.041l2.239-2.152a20.112,20.112,0,0,1,27.386-.455l42.75,38.44a.908.908,0,0,1-.607,1.583Z" transform="translate(-456.436 -223.5)" fill="#646464"/>
      <path id="Pfad_312" data-name="Pfad 312" d="M441.667,204.421h0a5.748,5.748,0,0,1,5.748,5.748v7.765h-11.5v-7.765A5.748,5.748,0,0,1,441.667,204.421Z" transform="translate(-396.527 -153.895)" fill="#fff"/>
      <path id="Pfad_313" data-name="Pfad 313" d="M527.761,204.829h0a5.748,5.748,0,0,1,5.748,5.748v7.765h-11.5v-7.765A5.748,5.748,0,0,1,527.761,204.829Z" transform="translate(-461.341 -154.202)" fill="#fff"/>
      <path id="Pfad_314" data-name="Pfad 314" d="M613.854,205.237h0a5.748,5.748,0,0,1,5.748,5.748v7.765h-11.5v-7.765A5.748,5.748,0,0,1,613.854,205.237Z" transform="translate(-526.155 -154.51)" fill="#fff"/>
      <path id="Pfad_315" data-name="Pfad 315" d="M648.128,344.373h0a5.748,5.748,0,0,1,5.748,5.748v7.765h-11.5v-7.765A5.748,5.748,0,0,1,648.128,344.373Z" transform="translate(-551.958 -259.257)" fill="#fff"/>
      <path id="Pfad_316" data-name="Pfad 316" d="M418,344.373h0a5.748,5.748,0,0,1,5.748,5.748v7.765h-11.5v-7.765A5.748,5.748,0,0,1,418,344.373Z" transform="translate(-378.71 -259.257)" fill="#fff"/>
      <path id="Pfad_317" data-name="Pfad 317" d="M554.4,519.7l-19.145-8.471a.806.806,0,0,0-.326-.069H443.685a.806.806,0,0,0-.3.059l-20.839,8.471a.807.807,0,0,0,.3,1.554h5.407v27.834h-.605V551.9H549.271v-2.824h-1.009V521.243h5.81a.807.807,0,0,0,.326-1.545Zm-7.75,29.379H429.866V521.243H546.648Z" transform="translate(-422.039 -440.059)" fill="#646464"/>
      <rect id="Rechteck_609" data-name="Rechteck 609" width="14.724" height="2.42" transform="translate(37.577 62.93)" fill="#646464"/>
      <rect id="Rechteck_610" data-name="Rechteck 610" width="14.724" height="2.42" transform="translate(59.159 62.93)" fill="#cacaca"/>
      <rect id="Rechteck_611" data-name="Rechteck 611" width="14.724" height="2.42" transform="translate(80.74 62.93)" fill="#646464"/>
      <rect id="Rechteck_612" data-name="Rechteck 612" width="14.724" height="2.42" transform="translate(88.808 97.823)" fill="#646464"/>
      <rect id="Rechteck_613" data-name="Rechteck 613" width="14.724" height="2.42" transform="translate(31.728 97.823)" fill="#646464"/>
      <path id="Pfad_321" data-name="Pfad 321" d="M677.83,439.025H662.521V426.779c.283-5.6,5.066-6.048,9.56-5.748a5.748,5.748,0,0,1,5.748,5.748Z" transform="translate(-603.083 -372.156)" fill="#d1ccc5"/>
    </g>
    <g id="Gruppe_491" data-name="Gruppe 491" transform="translate(416.657 463)">
      <ellipse id="Ellipse_203" data-name="Ellipse 203" cx="29.358" cy="33.295" rx="29.358" ry="33.295" transform="translate(63.297 116.798)" fill="#454545"/>
      <path id="Pfad_542" data-name="Pfad 542" d="M728.6,231.205a47.9,47.9,0,0,0,22.427,3.885,9.943,9.943,0,0,1-3.749-6.035,16.917,16.917,0,0,1,.211-7.209,1.177,1.177,0,0,0-.016-.832,1.149,1.149,0,0,0-.9-.427c-2.974-.414-11.492-2.211-13.756.334-1.073,1.206-.662,3.55-1.054,5.023C731.6,226.553,729.531,231.614,728.6,231.205Z" transform="translate(-673.626 -191.9)" fill="#fbbebe"/>
      <path id="Pfad_543" data-name="Pfad 543" d="M728.6,231.205a47.9,47.9,0,0,0,22.427,3.885,9.943,9.943,0,0,1-3.749-6.035,16.917,16.917,0,0,1,.211-7.209,1.177,1.177,0,0,0-.016-.832,1.149,1.149,0,0,0-.9-.427c-2.974-.414-11.492-2.211-13.756.334-1.073,1.206-.662,3.55-1.054,5.023C731.6,226.553,729.531,231.614,728.6,231.205Z" transform="translate(-673.626 -191.9)" opacity="0.1"/>
      <path id="Pfad_544" data-name="Pfad 544" d="M538.17,402.75l44.121,1.358s39.03,38.012,6.788,49.552c0,0-39.709,6.448-49.212-1.018C539.867,452.641,527.988,405.8,538.17,402.75Zm2.036,12.558,47.176,3.055s-3.394-11.539-16.97-11.539-28.849-3.055-30.206,4.073S540.206,415.308,540.206,415.308Z" transform="translate(-458.412 -312.9)" fill="#454545"/>
      <path id="Pfad_545" data-name="Pfad 545" d="M594.446,384.3c2.2-.337,4.593-.531,6.521.583a10.388,10.388,0,0,1,1.777,1.4q1.163,1.068,2.308,2.154a3.736,3.736,0,0,1,1.285,1.87c.295,1.556-1.5,2.809-3.085,2.748s-3-.93-4.5-1.454c-3.009-1.055-14.077.748-14.681-2.492C583.306,384.987,592,384.686,594.446,384.3Z" transform="translate(-479.905 -300.536)" fill="#fbbebe"/>
      <path id="Pfad_546" data-name="Pfad 546" d="M647.03,374.23a24.968,24.968,0,0,0,9.228,2.62,3.889,3.889,0,0,1,1.46.311,1.475,1.475,0,0,1,.608.74,22.027,22.027,0,0,1,2.063,7.53.672.672,0,0,1-.238.688,2.118,2.118,0,0,1-1,.224q-7.92.5-15.893.54a1.658,1.658,0,0,1-.692-.094.648.648,0,0,1-.318-.394,24.079,24.079,0,0,1-1.726-9.768C640.662,372.693,641.814,371.461,647.03,374.23Z" transform="translate(-553.115 -293.071)" fill="#d7e5f2"/>
      <path id="Pfad_547" data-name="Pfad 547" d="M647.03,374.23a24.968,24.968,0,0,0,9.228,2.62,3.889,3.889,0,0,1,1.46.311,1.475,1.475,0,0,1,.608.74,22.027,22.027,0,0,1,2.063,7.53.672.672,0,0,1-.238.688,2.118,2.118,0,0,1-1,.224q-7.92.5-15.893.54a1.658,1.658,0,0,1-.692-.094.648.648,0,0,1-.318-.394,24.079,24.079,0,0,1-1.726-9.768C640.662,372.693,641.814,371.461,647.03,374.23Z" transform="translate(-553.115 -293.071)" fill="#f5d166" opacity="0.743"/>
      <path id="Pfad_548" data-name="Pfad 548" d="M692.151,365.063l58.036-2.036-13.576-57.358s-54.3-4.073-52.946,9.842S692.151,365.063,692.151,365.063Z" transform="translate(-657.533 -248.401)" fill="#454545"/>
      <path id="Pfad_549" data-name="Pfad 549" d="M549.674,517.243s34.93,6.182,47.488-12.146-47.515-8.485-47.515-8.485l-5.091,13.915Z" transform="translate(-459.028 -373.162)" fill="#36334a"/>
      <ellipse id="Ellipse_204" data-name="Ellipse 204" cx="15.952" cy="15.952" rx="15.952" ry="15.952" transform="translate(85.188 189.972)" fill="#454545"/>
      <ellipse id="Ellipse_205" data-name="Ellipse 205" cx="10.012" cy="11.539" rx="10.012" ry="11.539" transform="translate(89.6 194.384)" fill="#646464"/>
      <path id="Pfad_550" data-name="Pfad 550" d="M842.094,298.7s13.236-7.467,13.915,10.182l11.2,82.134h-4.752l-12.9-87.9s-6.449,1.018-7.467,1.018S842.094,298.7,842.094,298.7Z" transform="translate(-828.179 -243.126)" fill="#646464"/>
      <path id="Pfad_551" data-name="Pfad 551" d="M896.689,307.759h0A3.174,3.174,0,0,0,901,309.829l15.355-6.565-2.785-6.135-15.133,6.893a3.174,3.174,0,0,0-1.743,3.738Z" transform="translate(-895.963 -243.126)" fill="#454545"/>
      <path id="Pfad_552" data-name="Pfad 552" d="M511.86,556.563s24.436-2.715,31.224,20.7,6.109,41.406,11.879,40.049,17.988-6.109,17.988-6.109l-1.018,7.127s-21.382,10.861-24.776-.679-5.43-53.964-24.776-52.946-22.739-1.018-22.739-1.018Z" transform="translate(-417.847 -414.446)" fill="#646464"/>
      <path id="Pfad_553" data-name="Pfad 553" d="M431.642,523.75s19.006,2.376,26.473,16.291,11.2,39.03,11.2,39.03h-7.127s-4.073-49.891-25.455-47.176Z" transform="translate(-291.132 -392.833)" fill="#646464"/>
      <path id="Pfad_554" data-name="Pfad 554" d="M436.263,697.92l30.206-18.667s1.7-6.788-17.648-9.5c0,0-36.576,12.792-33.051,17.6S431.172,699.617,436.263,697.92Z" transform="translate(-282.857 -489.281)" fill="#454545"/>
      <path id="Pfad_555" data-name="Pfad 555" d="M452.912,464.679v39.709H448.5V464Z" transform="translate(-346.342 -316.792)" fill="#646464"/>
      <path id="Pfad_556" data-name="Pfad 556" d="M638.511,645.75s-8.485,33.261-3.055,38.012c0,0,7.127-21.042,12.558-18.327l-1.7-19.685Z" transform="translate(-538.39 -473.427)" fill="#454545"/>
      <ellipse id="Ellipse_206" data-name="Ellipse 206" cx="13.236" cy="13.236" rx="13.236" ry="13.236" transform="translate(53.964 7.377)" fill="#fbbebe"/>
      <path id="Pfad_557" data-name="Pfad 557" d="M705.651,248.982c-5.4.917-10.063-5.359-15.467-4.476a10.379,10.379,0,0,0-3.324,1.308A32.974,32.974,0,0,0,670.967,267.1c-.611,2.722-.847,5.674.3,8.216a15.621,15.621,0,0,0,2.545,3.63c3.6,4.181,7.541,8.348,12.671,10.371a8.889,8.889,0,0,1-.581,5.318c-2.509,7.113,1.48,14.779,1.684,22.319.035,1.29,0,2.7.8,3.71.9,1.118,2.493,1.316,3.923,1.4,13.106.738,26.194-1.272,39.166-3.277a1.969,1.969,0,0,0,.951-.322,2.282,2.282,0,0,0,.582-1.488c.481-2.849-2.049-5.159-.849-7.788,2.062-4.519-2.436-9.46-3.733-14.255s-1.808-5.638-2.715-10.521c-.339-1.826.638-7.331.339-9.164-.974-5.988-.237-12.808-3.394-17.988-1.9-3.112-1.4-5.533-4.789-6.886C714.3,248.946,709.471,249.427,705.651,248.982Z" transform="translate(-635.947 -208.307)" fill="#f5d166"/>
      <path id="Pfad_558" data-name="Pfad 558" d="M503.235,469.162c3.951.762,8.147,1.489,11.188,4.125a21.713,21.713,0,0,1,4.318,5.93l12.371,21.811c3.773,6.652,7.548,13.308,10.969,20.148a3.632,3.632,0,0,1,.512,1.638,3.345,3.345,0,0,1-1.124,2.11,18.042,18.042,0,0,1-15.274,5.371c-.851-4.406-5.039-7.318-7.092-11.309a42.273,42.273,0,0,1-2.309-7.014c-2.716-8.787-9.162-15.843-15.421-22.581-2.958-3.185-5.986-6.425-9.8-8.515-4.471-2.452-9.659-3.13-14.656-4.148s-10.17-2.562-13.706-6.237a14.716,14.716,0,0,1-3.919-11.987c3.2-.224,6.763-.64,9.851.389,3.586,1.2,7.055,2.83,10.646,4.051A176.876,176.876,0,0,0,503.235,469.162Z" transform="translate(-373.754 -349.55)" fill="#696880"/>
      <path id="Pfad_559" data-name="Pfad 559" d="M503.235,469.162c3.951.762,8.147,1.489,11.188,4.125a21.713,21.713,0,0,1,4.318,5.93l12.371,21.811c3.773,6.652,7.548,13.308,10.969,20.148a3.632,3.632,0,0,1,.512,1.638,3.345,3.345,0,0,1-1.124,2.11,18.042,18.042,0,0,1-15.274,5.371c-.851-4.406-5.039-7.318-7.092-11.309a42.273,42.273,0,0,1-2.309-7.014c-2.716-8.787-9.162-15.843-15.421-22.581-2.958-3.185-5.986-6.425-9.8-8.515-4.471-2.452-9.659-3.13-14.656-4.148s-10.17-2.562-13.706-6.237a14.716,14.716,0,0,1-3.919-11.987c3.2-.224,6.763-.64,9.851.389,3.586,1.2,7.055,2.83,10.646,4.051A176.876,176.876,0,0,0,503.235,469.162Z" transform="translate(-373.754 -349.55)" fill="#9f7042" opacity="0.868"/>
      <path id="Pfad_560" data-name="Pfad 560" d="M443.538,669.262a2.777,2.777,0,0,1,.974,1.258c.449,1.531-1.466,2.609-3,3.05-3.444.991-7.119,1.984-10.554.963-2.107-.626-3.94-1.969-6.033-2.639-3.106-1-6.471-.43-9.682.143a20.954,20.954,0,0,1,1.388-11.961c1.03-2.376,5.154-3.533,7.609-3.637,2.684-.114,3.616,1.866,5.165,3.689C433.18,664.568,439.191,665.6,443.538,669.262Z" transform="translate(-260.722 -480.486)"/>
      <path id="Pfad_561" data-name="Pfad 561" d="M587.136,476.571a16.389,16.389,0,0,1,5.336,2.94A15.588,15.588,0,0,1,595.8,485a153.372,153.372,0,0,1,6.323,18.037c.875,3.1,1.654,6.238,2.832,9.237,2.351,5.986,6.341,11.718,5.966,18.138a4.3,4.3,0,0,1-.607,2.216,5.091,5.091,0,0,1-2.3,1.557l-4.513,1.96c-2.422,1.052-5.377,2.063-7.54.549-1.448-1.013-2.026-2.849-2.463-4.561-1.577-6.183-2.552-12.6-5.378-18.325-3.194-6.466-8.6-11.691-11.453-18.312a6.347,6.347,0,0,0-1.583-2.582,5.609,5.609,0,0,0-2.331-.921c-16.95-3.859-34.282-5.971-51.1-10.384-2.39-.627-4.891-1.372-6.6-3.161-2.365-2.48-2.575-6.25-2.651-9.676-.047-2.146-.037-4.479,1.27-6.182,1.475-1.92,4.12-2.428,6.528-2.681,9.236-.972,17.755.559,26.852,1.68,8.323,1.026,16.706,5.724,24.471,8.793Q579.338,473.47,587.136,476.571Z" transform="translate(-460.176 -350.457)" fill="#9f7042"/>
      <path id="Pfad_562" data-name="Pfad 562" d="M511.834,678.659c1.27,3.014,2.639,6.162,5.214,8.179,1.076.843,2.467,1.686,2.51,3.052.045,1.445-1.472,2.4-2.832,2.889a14.8,14.8,0,0,1-10.783.055,22.862,22.862,0,0,1-6.077-4.426,4.8,4.8,0,0,1-1.4-1.763,4.56,4.56,0,0,1-.158-1.851,47.435,47.435,0,0,1,2-11.112c.086-.284,7.389-1.194,8.036-1.025C510.384,673.19,511.048,676.792,511.834,678.659Z" transform="translate(-363.99 -491.188)"/>
      <path id="Pfad_563" data-name="Pfad 563" d="M672.17,432.75l44.121,1.358s39.03,38.012,6.788,49.552c0,0-39.709,6.449-49.212-1.018C673.867,482.641,661.988,435.8,672.17,432.75Zm2.036,12.558,47.176,3.055s-3.394-11.539-16.97-11.539-28.849-3.055-30.206,4.073S674.206,445.308,674.206,445.308Z" transform="translate(-637.891 -332.718)" fill="#646464"/>
      <ellipse id="Ellipse_207" data-name="Ellipse 207" cx="44.291" cy="50.231" rx="44.291" ry="50.231" transform="translate(0 121.414)" fill="#454545"/>
      <ellipse id="Ellipse_208" data-name="Ellipse 208" cx="33.43" cy="37.333" rx="33.43" ry="37.333" transform="translate(8.824 134.311)" fill="#646464"/>
      <path id="Pfad_564" data-name="Pfad 564" d="M756.417,557.734a9.941,9.941,0,0,1,.194-1.939l-24.97-12.485,1.7-3.733,25.223,12.288a5.265,5.265,0,0,1,.838-.7l-.019,0-7.375-36.707,6.524-.148,4.337,36.124-.416.087a4.072,4.072,0,0,1,.973.332l21.815-22.392,3.083,4.324-22.413,20.62a9.016,9.016,0,0,1,.992,3.475l31.6,12.9.679,5.43-32.942-13.854a7.2,7.2,0,0,1-1.288,2.081l10.132,34.513h-3.733l-8.5-33.108a3.874,3.874,0,0,1-1.168.187,4.045,4.045,0,0,1-2.157-.647l-17.7,23.386-5.43-3.733,20.736-22.65A9.492,9.492,0,0,1,756.417,557.734Z" transform="translate(-722.817 -386.599)" fill="#454545"/>
      <path id="Pfad_565" data-name="Pfad 565" d="M744.011,150.247c-.6-1.5-2.526-2.122-3.158-3.61-.679-1.6.385-3.636-.539-5.108s-3.1-1.309-4.829-1.023a11.036,11.036,0,0,1-6.111-.244c-.846-.36-1.6-.91-2.416-1.327a8.536,8.536,0,0,0-4.212-.916,1.911,1.911,0,0,0-.945.226,1.771,1.771,0,0,0-.613.791c-.6,1.289-.68,2.9-1.757,3.822a7.358,7.358,0,0,1-1.809.938,7.832,7.832,0,0,0-4.391,7.814,15.9,15.9,0,0,1,.267,2.238c-.042,1.65-1.121,3.3-.57,4.855a4.008,4.008,0,0,0,2.782,2.2,1.6,1.6,0,0,0,1.05.053c.6-.244.723-1.018.915-1.639a4.02,4.02,0,0,1,3.894-2.744c1.369.058,2.754.827,4.046.37a5.383,5.383,0,0,0,1.639-1.158,8.115,8.115,0,0,1,4.083-2.083,4.365,4.365,0,0,1,4.138,1.559c.365.508.586,1.107.934,1.627C739.539,161.56,745.3,153.49,744.011,150.247Z" transform="translate(-661.429 -138.014)"/>
      <path id="Pfad_566" data-name="Pfad 566" d="M716.8,411.182a3.6,3.6,0,0,1,3.15,1.173c2.97,2.706,6.118,5.756,6.656,9.737a1.64,1.64,0,0,1-.123,1.078,1.675,1.675,0,0,1-1.463.581,9.738,9.738,0,0,1-7.361-3.251,5.648,5.648,0,0,0-1.675-1.565,4.367,4.367,0,0,0-2-.248c-1.863.061-6.118,1.015-7.742.09-1.708-.972-1.238-4.018-.441-5.487C707.7,409.8,713.578,411.148,716.8,411.182Z" transform="translate(-641.275 -318.282)" fill="#fbbebe"/>
      <path id="Pfad_567" data-name="Pfad 567" d="M755.249,309.011c-1.141,3.671-.473,7.806-2.09,11.294-1.073,2.315-3.092,4.181-3.717,6.655a8.529,8.529,0,0,0,1.588,6.829,22.66,22.66,0,0,0,5.258,4.922,25.632,25.632,0,0,0,6.826,3.955,28.1,28.1,0,0,0,7.8,1.1l17.439.8,3.212-9.629L780.2,330.482a12.266,12.266,0,0,0-3.514-.986c-2.1-.156-4.668.616-6.019-1a4.386,4.386,0,0,1-.794-2.016c-1.1-5.657-.143-11.642-1.839-17.15-.84-2.726-3.262-8.195-6.566-8.676C757.966,300.141,756.041,306.463,755.249,309.011Z" transform="translate(-721.173 -245.433)" fill="#f5d166"/>
    </g>
    <g id="Gruppe_410" data-name="Gruppe 410" transform="translate(557.764 418.004)">
      <g id="Gruppe_318" data-name="Gruppe 318" transform="translate(165.269 51.639)">
        <path id="uuid-070545a9-7559-45f6-9b62-076b2f028fa8" d="M323.161,109.43c-3.507-3.263-4.666-7.717-2.589-9.948s6.6-1.395,10.11,1.87a11.988,11.988,0,0,1,3.181,4.683l14.683,14.012-6.722,6.75-13.762-14.53A11.988,11.988,0,0,1,323.161,109.43Z" transform="translate(-319.541 -97.548)" fill="#a0616a"/>
        <path id="Pfad_222" data-name="Pfad 222" d="M406.732,110.952,378.39,141.126s-6.365,6.3-16.836-2.784-22.113-23.981-22.113-23.981l6.531-7.108,11.569,10.321s6.868,2.764,7.346,4.552-.858,2.528,1.288,1.955,2.188-1.851,2.322.087-1.176,4.2,1.3,2.01,3.219-.86,3.219-.86l18.115-24s11.705-9.256,15.07-.959.528,10.587.528,10.587Z" transform="translate(-329.148 -96.91)" fill="#e0aa0b"/>
      </g>
      <rect id="Rechteck_533" data-name="Rechteck 533" width="27.296" height="40.333" transform="translate(246.486 71.886) rotate(180)"/>
      <path id="Pfad_225" data-name="Pfad 225" d="M449.335,101.5l-.956-11.552h-12.71l-2.818,12.239Z" transform="translate(-208.977 -41.907)" fill="#a0616a"/>
      <path id="Pfad_226" data-name="Pfad 226" d="M449.335,101.5l-.956-11.552h-12.71l-2.818,12.239Z" transform="translate(-208.977 -41.907)" opacity="0.1"/>
      <circle id="Ellipse_132" data-name="Ellipse 132" cx="13.894" cy="13.894" r="13.894" transform="translate(217.153 23.924)" fill="#a0616a"/>
      <path id="Pfad_229" data-name="Pfad 229" d="M439.941,37.582s0-5.7,5.3-4.481,6.926,3.259,6.926,3.259,2.037,3.259,5.3,3.667,6.111,9.778,5.7,11.815-2.444,7.333.407,9.778,6.926,6.111,5.7,9.778-4.889,13.037-4.889,13.037,10.227,1.495,9.391,7.877a20.527,20.527,0,0,0-11.428-3.8c-6.519,0-5.7-11.826-5.7-11.826s-.407-7.322-1.63-9.359.407-13.444-5.7-19.556-9.37-10.185-9.37-10.185Z" transform="translate(-212.399 -14.381)"/>
      <path id="Pfad_230" data-name="Pfad 230" d="M413.844,39.563s-7.741,1.63-10.593,9.37-1.411,9.181-1.411,9.181-.631,4.661-4.091,6.3-.609,8.56-.609,8.56-.815,6.926-11.815,9.37,13.794,21.19,13.794,21.19-1.783-8.847,9.625-9.255S406.51,72.97,406.51,72.97l-1.222-13.444s2.444-15.482,9.778-17.519-1.222-2.444-1.222-2.444Z" transform="translate(-184.673 -17.584)"/>
      <g id="Gruppe_321" data-name="Gruppe 321" transform="translate(206.427 232.709)">
        <path id="Pfad_235" data-name="Pfad 235" d="M449.676,483.53h-9.47L435.7,447h13.977Z" transform="translate(-416.779 -447)" fill="#a0616a"/>
        <path id="Pfad_236" data-name="Pfad 236" d="M399.567,507.24h0a8.131,8.131,0,0,0-.451,2.677h0a3.214,3.214,0,0,0,3.214,3.214h29.329a2.193,2.193,0,0,0,2.193-2.193v-1.221s1.451-3.67-1.536-8.193c0,0-3.712,3.542-9.26-2.006l-1.636-2.964-11.842,8.66-6.564.808c-1.436.177-2.709-.027-3.448,1.217Z" transform="translate(-399.116 -470.925)"/>
      </g>
      <g id="Gruppe_322" data-name="Gruppe 322" transform="translate(246.546 224.311)">
        <path id="Pfad_237" data-name="Pfad 237" d="M509.788,464.53l-8.755,3.612-18.1-32.049,12.921-5.331Z" transform="translate(-479.703 -430.762)" fill="#a0616a"/>
        <path id="Pfad_238" data-name="Pfad 238" d="M476.7,502.6h0a8.131,8.131,0,0,0,.6,2.646h0a3.214,3.214,0,0,0,4.2,1.745L508.609,495.8a2.193,2.193,0,0,0,1.191-2.863l-.466-1.129s-.059-3.946-4.545-6.988c0,0-2.081,4.69-9.325,1.678l-2.643-2.115-7.643,12.523-5.759,3.251c-1.26.711-2.515,1.008-2.723,2.44Z" transform="translate(-476.686 -456.65)"/>
      </g>
      <path id="Pfad_239" data-name="Pfad 239" d="M439.18,253.681l-3.865,14.756,1.029,23.944,1.707,39.769.048,1.122.192,4.472.888,20.649H420.138l-8.477-57.686-6.7-45.6.7-23.218.037-1.214s34.057-1.481,37.759,3.332-4.279,19.672-4.279,19.672Z" transform="translate(-195.511 -109.749)" fill="#646464"/>
      <path id="Pfad_240" data-name="Pfad 240" d="M465.674,343.9l-3.228,1.669-11.938,6.178-1.747.9L438.292,338.1l-26.631-37.037-6.7-45.6.7-23.218c3.013-.959,5.423-1.351,6.645-.781,5.5,2.573,5.238,19.438,5.238,19.438l3.35,14.881,15.448,26.949,29.33,51.167Z" transform="translate(-195.511 -110.106)" fill="#646464" opacity="0.996"/>
      <g id="Gruppe_323" data-name="Gruppe 323" transform="translate(147.976 208.765)">
        <path id="Pfad_241" data-name="Pfad 241" d="M352.071,447.18c-.245-.75-2.1-.42-2.281-1.09s1.6-1.229,2.971-3.112c.247-.34,1.8-2.48,1.2-3.38-1.129-1.706-8.986,2.543-10.871.159a31.517,31.517,0,0,0-1.817-3.094c-.491-.665-.805-.986-1.181-.977-.533.013-.724.681-1.563,1.89-1.257,1.813-1.711,1.585-2.54,3.071-.615,1.1-.688,1.807-1.131,1.849-.628.059-.887-1.314-1.654-1.367-.783-.054-1.565,1.3-1.954,2.362-.728,1.989-.277,3.509-.177,5.025a12.414,12.414,0,0,1-1.936,7.151l-16.875,26.886c3.624-5.481,13.911-20.427,18.056-25.909,1.2-1.583,2.482-3.172,4.461-3.471,1.905-.288,4.224.655,7.46.6.378-.006,1.43-.038,1.685-.6.212-.461-.314-.862-.123-1.295.256-.581,1.409-.332,2.98-.718a8.578,8.578,0,0,0,2.508-1.108c.2-.117,3.1-1.877,2.776-2.876Z" transform="translate(-298.735 -417.593)" fill="#d1ccc5"/>
        <path id="Pfad_242" data-name="Pfad 242" d="M295.241,467.135c-.439-.1-.813.911-1.193.8s-.14-1.142-.67-2.356c-.1-.219-.7-1.6-1.311-1.566-1.163.062-1.344,5.144-3.059,5.382a17.923,17.923,0,0,0-2.043,0c-.468.049-.716.111-.82.3-.147.266.125.552.477,1.312.527,1.14.284,1.3.774,2.133.364.62.689.859.581,1.089-.152.325-.9.056-1.148.417s.188,1.144.6,1.64a5.968,5.968,0,0,0,2.415,1.537,7.068,7.068,0,0,1,2.951,3.013l8.327,16.04c-1.644-3.36-6.012-12.721-7.507-16.338a4.217,4.217,0,0,1-.416-3.191c.409-1.018,1.54-1.884,2.447-3.488.106-.187.394-.713.194-1-.165-.237-.513-.095-.671-.313-.211-.293.244-.787.508-1.67a4.883,4.883,0,0,0,.18-1.551c0-.129-.026-2.064-.61-2.192Z" transform="translate(-286.104 -431.271)" fill="#d1ccc5"/>
        <path id="Pfad_243" data-name="Pfad 243" d="M319.832,469.093l.262-2.416.161-.152a4.469,4.469,0,0,0,1.382-2.211c.028-.122.049-.245.071-.37a3.778,3.778,0,0,1,.673-1.756c.267-.357.974-1.165,1.7-.883a.876.876,0,0,1,.422.337l.072-.072a2.657,2.657,0,0,1,.748-.526,3.109,3.109,0,0,0,.617-.4c.125-.1.225-.19.31-.266a1.134,1.134,0,0,1,1.032-.39,1.211,1.211,0,0,1,.746.883,5.82,5.82,0,0,1,.292,1.148,1.838,1.838,0,0,0,.043.222c.1.262,1.41.33,1.9.358,1.1.06,2.06.112,2.29.868.165.541-.179,1.131-1.051,1.8a3.943,3.943,0,0,1-.78.459.808.808,0,0,1,.269.58h0c.016.6-.6,1.067-1.839,1.379a4.019,4.019,0,0,1-1.261.156,4.7,4.7,0,0,1-.668-.088.8.8,0,0,1-.174.328,1.2,1.2,0,0,1-1.323.218,9.754,9.754,0,0,1-1.657-.66,4.271,4.271,0,0,0-1.049-.4,2.44,2.44,0,0,0-1.664.709l-1.526,1.145h0Z" transform="translate(-302.388 -429.316)" fill="#d1ccc5"/>
        <path id="Pfad_244" data-name="Pfad 244" d="M318.271,440.715l-2.4.36-.188-.117a4.469,4.469,0,0,0-2.489-.776c-.125,0-.249.014-.376.025a3.779,3.779,0,0,1-1.869-.205c-.414-.168-1.374-.647-1.286-1.424a.875.875,0,0,1,.219-.494l-.088-.052a2.658,2.658,0,0,1-.7-.59,3.108,3.108,0,0,0-.54-.5c-.128-.1-.241-.17-.335-.232a1.134,1.134,0,0,1-.639-.9,1.211,1.211,0,0,1,.665-.946,5.821,5.821,0,0,1,1.036-.573,1.834,1.834,0,0,0,.2-.1c.227-.167-.038-1.448-.136-1.93-.222-1.084-.414-2.021.259-2.435.482-.3,1.14-.114,2.008.56a3.945,3.945,0,0,1,.642.638.809.809,0,0,1,.493-.407h0c.58-.169,1.185.313,1.8,1.43a4.018,4.018,0,0,1,.471,1.181,4.709,4.709,0,0,1,.084.669.794.794,0,0,1,.361.085,1.2,1.2,0,0,1,.546,1.225,9.756,9.756,0,0,1-.218,1.77,4.27,4.27,0,0,0-.124,1.117c.065.547.52.954,1.108,1.43l1.495,1.186h0Z" transform="translate(-296.47 -414.701)" fill="#d1ccc5"/>
        <path id="Pfad_245" data-name="Pfad 245" d="M328.881,428.525l.262-2.417.161-.152a4.469,4.469,0,0,0,1.382-2.211c.028-.122.049-.245.071-.37a3.779,3.779,0,0,1,.672-1.756c.267-.357.975-1.165,1.7-.883a.876.876,0,0,1,.422.337l.072-.072a2.657,2.657,0,0,1,.748-.526,3.11,3.11,0,0,0,.617-.4c.125-.1.225-.19.31-.266a1.134,1.134,0,0,1,1.032-.39,1.211,1.211,0,0,1,.746.883,5.823,5.823,0,0,1,.292,1.148,1.821,1.821,0,0,0,.043.222c.1.262,1.41.33,1.9.358,1.1.06,2.06.112,2.29.868.165.541-.179,1.131-1.051,1.8a3.944,3.944,0,0,1-.78.459.809.809,0,0,1,.269.58h0c.016.6-.6,1.067-1.84,1.379a4.02,4.02,0,0,1-1.261.156,4.7,4.7,0,0,1-.668-.088.8.8,0,0,1-.174.328,1.2,1.2,0,0,1-1.323.218,9.755,9.755,0,0,1-1.657-.66,4.27,4.27,0,0,0-1.049-.4,2.441,2.441,0,0,0-1.664.709l-1.526,1.145h0Z" transform="translate(-306.756 -409.73)" fill="#d1ccc5"/>
        <path id="Pfad_246" data-name="Pfad 246" d="M312.841,473.293l-.425-.42.008-.6-.008.6-.591-.062c0-.056,0-.185-.005-.388a84.476,84.476,0,0,1,.378-9.693,97.293,97.293,0,0,1,1.634-10.95c.756-3.643,1.541-6.354,2.172-8.533.476-1.643.956-3.2,1.425-4.72a91.958,91.958,0,0,0,3.164-12.259,11.724,11.724,0,0,0-.192-5.4,11.11,11.11,0,0,0-2.056-3.888l.93-.751a12.323,12.323,0,0,1,2.274,4.307,12.839,12.839,0,0,1,.223,5.934,92.848,92.848,0,0,1-3.2,12.412c-.466,1.513-.945,3.065-1.419,4.7-.625,2.159-1.4,4.846-2.149,8.442a96.114,96.114,0,0,0-1.615,10.816,83.113,83.113,0,0,0-.372,9.561c.012.585.014.707-.174.9h0Z" transform="translate(-298.511 -408.197)" fill="#d1ccc5"/>
        <path id="Pfad_247" data-name="Pfad 247" d="M316.726,410.858c-.048-.011-.1-.023-.144-.037a3.819,3.819,0,0,1-2.339-2.375,8.352,8.352,0,0,1-.456-2.54,14.916,14.916,0,0,1,0-2.527c.07-.868.163-1.216.4-1.49a1.823,1.823,0,0,1,.989-.567.675.675,0,0,1,.122-.334c.307-.442.821-.26,1.1-.166a2.933,2.933,0,0,0,.513.148,1.5,1.5,0,0,0,.774-.082,3.32,3.32,0,0,1,1.061-.166,3.561,3.561,0,0,1,1.8.555,5.233,5.233,0,0,1,2.036,3.115,9.122,9.122,0,0,1,.472,2.407,2.67,2.67,0,0,1-.194,1.484c-.268.525-.677.768-1.694,1.28a16.022,16.022,0,0,1-2.033.942,4.488,4.488,0,0,1-2.407.352h0Z" transform="translate(-299.444 -400.705)" fill="#d1ccc5"/>
      </g>
      <path id="Pfad_248" data-name="Pfad 248" d="M343.842,528.384h0a.468.468,0,0,1-.5.434H0v-.869H343.346A.468.468,0,0,1,343.842,528.384Z" transform="translate(-42.288 -253.372)" fill="#d1ccc5"/>
      <path id="Pfad_251" data-name="Pfad 251" d="M418.683,107.932l.339-.1,16.689-4.717,13.327,18.139-8.884,37.759,3.332,15.178s-27.023-7.034-37.759-1.111c0,0-.74-3.375,0-5.019s1.851-8.485.74-11.543,2.221-17.495,2.221-17.495-1.111-9.625,3.7-14.437S418.683,107.932,418.683,107.932Z" transform="translate(-195.722 -48.269)" fill="#e0aa0b"/>
      <g id="Gruppe_324" data-name="Gruppe 324" transform="translate(187.221 66.646)">
        <path id="uuid-7eb47ac4-3db4-4d62-bd0a-b38893e38622" d="M370.225,218.572c-4.776-.36-8.462-3.116-8.233-6.156s4.287-5.211,9.065-4.851a11.987,11.987,0,0,1,5.409,1.673l20.218,1.78-1.038,9.47-19.822-2.76a11.988,11.988,0,0,1-5.6.843Z" transform="translate(-361.982 -165.321)" fill="#a0616a"/>
        <path id="Pfad_258" data-name="Pfad 258" d="M445.16,134.688l-3.3,41.266s-1.041,8.893-14.89,8.335-32.246-4.929-32.246-4.929l.665-9.63,15.481.841s7.091-2.129,8.58-1.03.908,2.51,2.227.723.553-2.812,1.869-1.382,1.706,4.019,2.273.757,1.978-2.681,1.978-2.681l-.828-30.053s3.366-14.538,11.174-10.157,7.022,7.941,7.022,7.941Z" transform="translate(-377.788 -125.925)" fill="#e0aa0b"/>
      </g>
    </g>
  </g>
</svg>
