<svg xmlns="http://www.w3.org/2000/svg" width="333.765" height="323.128" viewBox="0 0 333.765 323.128">
  <g id="Gruppe_572" data-name="Gruppe 572" transform="translate(-829.871 -332.783)">
    <ellipse id="Ellipse_272" data-name="Ellipse 272" cx="100.409" cy="5.941" rx="100.409" ry="5.941" transform="translate(906.601 644.028)" fill="#d1ccc5"/>
    <circle id="Ellipse_273" data-name="Ellipse 273" cx="56.217" cy="56.217" r="56.217" transform="translate(829.871 332.783)" fill="#fff" opacity="0.502"/>
    <circle id="Ellipse_274" data-name="Ellipse 274" cx="56.217" cy="56.217" r="56.217" transform="translate(1051.202 509.783)" fill="#fff" opacity="0.502"/>
    <g id="Gruppe_569" data-name="Gruppe 569" transform="translate(849.48 358.179)" opacity="0.502">
      <rect id="Rechteck_606" data-name="Rechteck 606" width="56.249" height="16.675" transform="translate(8.483 43.633)" fill="#d1ccc5"/>
      <rect id="Rechteck_607" data-name="Rechteck 607" width="6.559" height="13.229" transform="translate(33.328 47.079)" fill="#646464"/>
      <rect id="Rechteck_608" data-name="Rechteck 608" width="49.69" height="15.341" transform="translate(11.762 23.957)" fill="#d1ccc5"/>
      <path id="Pfad_311" data-name="Pfad 311" d="M527.995,248.4H468.229a.5.5,0,0,1-.347-.861l16.334-15.7V225a.5.5,0,0,1,.5-.5h3.224a.5.5,0,0,1,.5.5v2.779l1.234-1.186a11.085,11.085,0,0,1,15.094-.251l23.561,21.186a.5.5,0,0,1-.334.872Z" transform="translate(-461.504 -223.499)" fill="#646464"/>
      <path id="Pfad_312" data-name="Pfad 312" d="M439.087,204.421h0a3.168,3.168,0,0,1,3.168,3.168v4.28h-6.336v-4.28A3.168,3.168,0,0,1,439.087,204.421Z" transform="translate(-414.208 -176.573)" fill="#fff"/>
      <path id="Pfad_313" data-name="Pfad 313" d="M525.181,204.829h0A3.168,3.168,0,0,1,528.349,208v4.28h-6.336V208A3.168,3.168,0,0,1,525.181,204.829Z" transform="translate(-488.573 -176.926)" fill="#fff"/>
      <path id="Pfad_314" data-name="Pfad 314" d="M611.274,205.237h0a3.168,3.168,0,0,1,3.168,3.168v4.28h-6.336V208.4A3.168,3.168,0,0,1,611.274,205.237Z" transform="translate(-562.939 -177.278)" fill="#fff"/>
      <path id="Pfad_315" data-name="Pfad 315" d="M645.548,344.373h0a3.168,3.168,0,0,1,3.168,3.168v4.28H642.38v-4.28A3.168,3.168,0,0,1,645.548,344.373Z" transform="translate(-592.544 -297.461)" fill="#fff"/>
      <path id="Pfad_316" data-name="Pfad 316" d="M415.422,344.373h0a3.168,3.168,0,0,1,3.168,3.168v4.28h-6.336v-4.28A3.168,3.168,0,0,1,415.422,344.373Z" transform="translate(-393.766 -297.461)" fill="#fff"/>
      <path id="Pfad_317" data-name="Pfad 317" d="M494.988,515.865,484.436,511.2a.444.444,0,0,0-.18-.038H433.969a.445.445,0,0,0-.167.033l-11.485,4.669a.445.445,0,0,0,.167.857h2.98v15.341h-.334v1.556h67.032v-1.556h-.556V516.716h3.2a.445.445,0,0,0,.18-.851Zm-4.271,16.192H426.353V516.716h64.364Z" transform="translate(-422.038 -471.972)" fill="#646464"/>
      <rect id="Rechteck_609" data-name="Rechteck 609" width="8.115" height="1.334" transform="translate(20.711 34.684)" fill="#646464"/>
      <rect id="Rechteck_610" data-name="Rechteck 610" width="8.115" height="1.334" transform="translate(32.605 34.684)" fill="#cacaca"/>
      <rect id="Rechteck_611" data-name="Rechteck 611" width="8.115" height="1.334" transform="translate(44.5 34.684)" fill="#646464"/>
      <rect id="Rechteck_612" data-name="Rechteck 612" width="8.115" height="1.334" transform="translate(48.947 53.915)" fill="#646464"/>
      <rect id="Rechteck_613" data-name="Rechteck 613" width="8.115" height="1.334" transform="translate(17.487 53.915)" fill="#646464"/>
      <path id="Pfad_321" data-name="Pfad 321" d="M670.958,430.917h-8.437v-6.749c.156-3.084,2.792-3.333,5.269-3.168a3.168,3.168,0,0,1,3.168,3.168Z" transform="translate(-629.762 -394.062)" fill="#d1ccc5"/>
    </g>
    <g id="Gruppe_570" data-name="Gruppe 570" transform="translate(1070.812 535.179)" opacity="0.502">
      <rect id="Rechteck_606-2" data-name="Rechteck 606" width="56.249" height="16.675" transform="translate(8.483 43.633)" fill="#d1ccc5"/>
      <rect id="Rechteck_607-2" data-name="Rechteck 607" width="6.559" height="13.229" transform="translate(33.328 47.079)" fill="#646464"/>
      <rect id="Rechteck_608-2" data-name="Rechteck 608" width="49.69" height="15.341" transform="translate(11.762 23.957)" fill="#d1ccc5"/>
      <path id="Pfad_311-2" data-name="Pfad 311" d="M527.995,248.4H468.229a.5.5,0,0,1-.347-.861l16.334-15.7V225a.5.5,0,0,1,.5-.5h3.224a.5.5,0,0,1,.5.5v2.779l1.234-1.186a11.085,11.085,0,0,1,15.094-.251l23.561,21.186a.5.5,0,0,1-.334.872Z" transform="translate(-461.504 -223.499)" fill="#646464"/>
      <path id="Pfad_312-2" data-name="Pfad 312" d="M439.087,204.421h0a3.168,3.168,0,0,1,3.168,3.168v4.28h-6.336v-4.28A3.168,3.168,0,0,1,439.087,204.421Z" transform="translate(-414.208 -176.573)" fill="#fff"/>
      <path id="Pfad_313-2" data-name="Pfad 313" d="M525.181,204.829h0A3.168,3.168,0,0,1,528.349,208v4.28h-6.336V208A3.168,3.168,0,0,1,525.181,204.829Z" transform="translate(-488.573 -176.926)" fill="#fff"/>
      <path id="Pfad_314-2" data-name="Pfad 314" d="M611.274,205.237h0a3.168,3.168,0,0,1,3.168,3.168v4.28h-6.336V208.4A3.168,3.168,0,0,1,611.274,205.237Z" transform="translate(-562.939 -177.278)" fill="#fff"/>
      <path id="Pfad_315-2" data-name="Pfad 315" d="M645.548,344.373h0a3.168,3.168,0,0,1,3.168,3.168v4.28H642.38v-4.28A3.168,3.168,0,0,1,645.548,344.373Z" transform="translate(-592.544 -297.461)" fill="#fff"/>
      <path id="Pfad_316-2" data-name="Pfad 316" d="M415.422,344.373h0a3.168,3.168,0,0,1,3.168,3.168v4.28h-6.336v-4.28A3.168,3.168,0,0,1,415.422,344.373Z" transform="translate(-393.766 -297.461)" fill="#fff"/>
      <path id="Pfad_317-2" data-name="Pfad 317" d="M494.988,515.865,484.436,511.2a.444.444,0,0,0-.18-.038H433.969a.445.445,0,0,0-.167.033l-11.485,4.669a.445.445,0,0,0,.167.857h2.98v15.341h-.334v1.556h67.032v-1.556h-.556V516.716h3.2a.445.445,0,0,0,.18-.851Zm-4.271,16.192H426.353V516.716h64.364Z" transform="translate(-422.038 -471.972)" fill="#646464"/>
      <rect id="Rechteck_609-2" data-name="Rechteck 609" width="8.115" height="1.334" transform="translate(20.711 34.684)" fill="#646464"/>
      <rect id="Rechteck_610-2" data-name="Rechteck 610" width="8.115" height="1.334" transform="translate(32.605 34.684)" fill="#cacaca"/>
      <rect id="Rechteck_611-2" data-name="Rechteck 611" width="8.115" height="1.334" transform="translate(44.5 34.684)" fill="#646464"/>
      <rect id="Rechteck_612-2" data-name="Rechteck 612" width="8.115" height="1.334" transform="translate(48.947 53.915)" fill="#646464"/>
      <rect id="Rechteck_613-2" data-name="Rechteck 613" width="8.115" height="1.334" transform="translate(17.487 53.915)" fill="#646464"/>
      <path id="Pfad_321-2" data-name="Pfad 321" d="M670.958,430.917h-8.437v-6.749c.156-3.084,2.792-3.333,5.269-3.168a3.168,3.168,0,0,1,3.168,3.168Z" transform="translate(-629.762 -394.062)" fill="#d1ccc5"/>
    </g>
    <g id="Gruppe_564" data-name="Gruppe 564" transform="translate(801.829 308.339)">
      <path id="Pfad_891" data-name="Pfad 891" d="M649.238,461.389a6.293,6.293,0,0,1,1.415-9.546l-8.184-38.97,10.847,4.171,6.28,37.23a6.327,6.327,0,0,1-10.358,7.115Z" transform="translate(-386.696 -253.723)" fill="#ffb8b8"/>
      <path id="Pfad_892" data-name="Pfad 892" d="M336.977,565.768H345.9l4.248-34.439H336.975Z" transform="translate(-78.046 -234.851)" fill="#ffb6b6" opacity="0.503"/>
      <path id="Pfad_893" data-name="Pfad 893" d="M644.143,730.35h2.513l9.812-3.99,5.259,3.99h0a11.206,11.206,0,0,1,11.206,11.2v.365H644.143Z" transform="translate(-387.49 -402.348)" fill="#7a7876"/>
      <path id="Pfad_894" data-name="Pfad 894" d="M183.573,546.955l7.991,3.983,19.164-28.927-11.794-5.878Z" transform="translate(-5.318 -227.646)" fill="#ffb6b6" opacity="0.503"/>
      <path id="Pfad_895" data-name="Pfad 895" d="M489.013,710.524l2.249,1.121,10.561.806,2.927,5.917h0a11.206,11.206,0,0,1,5.03,15.028l-.162.326-25.767-12.842Z" transform="translate(-311.496 -394.84)" fill="#7a7876"/>
      <path id="Pfad_896" data-name="Pfad 896" d="M584.7,442.078l-56.77,1.481.987,27.645s-.987,7.4.987,9.379,2.962,1.975,1.975,5.43-3.54,36.473-3.54,36.473-23.3,41.2-22.313,42.186,1.975,0,.987,2.468-1.975,1.481-.987,2.468a36.354,36.354,0,0,1,2.468,2.962h16.091s.9-4.937.9-5.43.987-3.456.987-3.949,28.114-30.28,28.114-30.28l5.924-49.366,14.316,48.378s0,42.454.987,43.442.987.494.494,2.468-2.468,1.481-.987,2.962,1.975-.987,1.481,1.481l-.494,2.468,18.966.212s1.975-4.161.987-5.642-.928-1.077.276-3.5,1.7-2.917,1.2-3.411-.494-3.119-.494-3.119-7.118-97.092-7.118-98.573a4.924,4.924,0,0,1,.41-2.221v-2.01l-1.891-7.123Z" transform="translate(-321.816 -267.569)" fill="#7a7876"/>
      <path id="Pfad_898" data-name="Pfad 898" d="M270.592,115.052l28.436,57.508-5.563,69.793-36.336-3.32-6.516-115.583Z" transform="translate(-37.101 -37.494)" fill="#7a7876"/>
      <path id="Pfad_899" data-name="Pfad 899" d="M650.97,388.1l-16.616-1.519-.026-.211-11.151-92.327,2.5-6.919a10.132,10.132,0,0,1,7.58-6.483h0a10.087,10.087,0,0,1,11.827,8.069l2.984,16.118,4.233,54.484Z" transform="translate(-377.55 -190.947)" fill="#7a7876"/>
      <path id="Pfad_900" data-name="Pfad 900" d="M593.763,266.715l3.351-8.018,10.372.182,10.815,15.3,11.351,47.737s4.077,34.872,0,36.713-17.9-.432-17.9-.432Z" transform="translate(-363.605 -180.629)" fill="#e2ded9"/>
      <path id="Pfad_901" data-name="Pfad 901" d="M619.857,259.044S642.2,271.959,643.073,278.7s3.8,89.255,3.8,89.255l-7.9-5.105-2.159-30.073-9.642-61.572Z" transform="translate(-375.976 -180.793)" fill="#7a7876"/>
      <circle id="Ellipse_250" data-name="Ellipse 250" cx="15.227" cy="15.227" r="15.227" transform="translate(223.38 44.041)" fill="#f9d4d2"/>
      <path id="Pfad_902" data-name="Pfad 902" d="M575.416,191.938a8.381,8.381,0,0,1,8.029-3.913,10.964,10.964,0,0,1,18.371-6.395,3.409,3.409,0,0,1,3.334-.334,7.03,7.03,0,0,1,2.709,2.174,15.777,15.777,0,0,1,2.208,16.051c.38-1.382-1-2.682-2.4-2.992s-2.867-.017-4.286-.219c-1.819-.259-3.454-1.314-5.275-1.551a12.009,12.009,0,0,0-4.563.586,12.373,12.373,0,0,1-4.561.613c-1.533-.182-3.508,5.628-3.481,9.72.005.775-.155,1.771-.913,1.936-.933.2-1.474-1.085-2.362-1.436a1.644,1.644,0,0,0-2.016,1.072,2.68,2.68,0,0,0,.512,2.4,7.916,7.916,0,0,0,1.92,1.665l-.366.3a2.177,2.177,0,0,1-2.748.341,5.932,5.932,0,0,1-1.973-2.247,26.436,26.436,0,0,1-3.619-8.672A12.631,12.631,0,0,1,575.416,191.938Z" transform="translate(-354.08 -142.675)" fill="#ded0c2"/>
      <path id="Pfad_903" data-name="Pfad 903" d="M513.1,387.953l30.421-32.637a3.41,3.41,0,0,1,4.814-.169l24.648,22.974a3.41,3.41,0,0,1,.169,4.814L542.73,415.573a3.41,3.41,0,0,1-4.814.169l-24.648-22.974A3.41,3.41,0,0,1,513.1,387.953Z" transform="translate(-324.929 -225.923)" fill="#acaaa8"/>
      <path id="Pfad_904" data-name="Pfad 904" d="M531.555,383.129l19.557-20.982a3.193,3.193,0,0,1,4.508-.158L576.8,381.733a3.194,3.194,0,0,1,.159,4.508l-27.07,29.043a3.194,3.194,0,0,1-4.509.158l-13.123-12.231A14.225,14.225,0,0,1,531.555,383.129Z" transform="translate(-332.306 -229.193)" fill="#f9f8f6"/>
      <path id="Pfad_905" data-name="Pfad 905" d="M567.569,379.379a3.121,3.121,0,0,1,4.406-.155l14.695,13.7a3.117,3.117,0,0,1-4.251,4.56l-14.695-13.7a3.121,3.121,0,0,1-.155-4.406Z" transform="translate(-350.79 -237.374)" fill="#acaaa8"/>
      <path id="Pfad_906" data-name="Pfad 906" d="M555,392.868a3.121,3.121,0,0,1,4.406-.155l14.695,13.7a3.117,3.117,0,1,1-4.251,4.56l-14.695-13.7A3.121,3.121,0,0,1,555,392.868Z" transform="translate(-344.829 -243.769)" fill="#acaaa8"/>
      <path id="Pfad_907" data-name="Pfad 907" d="M542.422,406.357a3.121,3.121,0,0,1,4.406-.155l14.695,13.7a3.117,3.117,0,1,1-4.251,4.56l-14.695-13.7A3.121,3.121,0,0,1,542.422,406.357Z" transform="translate(-338.868 -250.165)" fill="#646464"/>
      <path id="Pfad_909" data-name="Pfad 909" d="M558.353,466.657a6.293,6.293,0,0,1,1.415-9.546l-8.184-38.97,10.847,4.171,6.28,37.23a6.327,6.327,0,0,1-10.358,7.115Z" transform="translate(-343.608 -256.221)" fill="#ffb8b8"/>
      <path id="Pfad_910" data-name="Pfad 910" d="M547.553,382.264l-4.415-28.444-1.659-54.628,1.233-16.374a10.087,10.087,0,0,1,19.123-3.665l3.226,6.61-1.152,93.2Z" transform="translate(-338.817 -187.641)" fill="#7a7876"/>
      <path id="Pfad_912" data-name="Pfad 912" d="M587.154,233.788a1.052,1.052,0,1,1,1.757.838l1.768,2.905a.526.526,0,1,1-.9.547l-1.988-3.266A1.049,1.049,0,0,1,587.154,233.788Z" transform="translate(-360.471 -168.348)" fill="#fff"/>
      <rect id="Rechteck_903" data-name="Rechteck 903" width="0.526" height="1.578" rx="0.263" transform="translate(228.513 67.414) rotate(153.236)" fill="#2f2e41"/>
    </g>
    <g id="Gruppe_567" data-name="Gruppe 567" transform="translate(139.138 190.52)">
      <path id="Pfad_971" data-name="Pfad 971" d="M817.167,603.246h8.939l4.253-34.483H817.165Z" transform="translate(-20.975 -154.521)" fill="#ffb8b8" opacity="0.5"/>
      <path id="Pfad_972" data-name="Pfad 972" d="M935.558,749.441h17.607a11.22,11.22,0,0,1,11.22,11.219v.365H935.559Z" transform="translate(-141.647 -303.634)" fill="#7a7876"/>
      <path id="Pfad_973" data-name="Pfad 973" d="M781.694,554.67l6.6,6.034,26.41-22.575-9.737-8.9Z" transform="translate(-7.767 -139.798)" fill="#ffb8b8" opacity="0.5"/>
      <path id="Pfad_974" data-name="Pfad 974" d="M899.537,694.27l12.992,11.882h0A11.22,11.22,0,0,1,913.237,722l-.246.269-21.272-19.454Z" transform="translate(-125.323 -283.091)" fill="#7a7876"/>
      <path id="Pfad_975" data-name="Pfad 975" d="M821.141,425.51l-2.534,50.675,6.335,55.11-19,2.534L793.9,464.151l-3.8-47.509Z" transform="translate(-10.898 -97.877)" fill="#e2ded9"/>
      <path id="Pfad_976" data-name="Pfad 976" d="M972.936,516.484s7.6,50.042-8.235,66.511S927.328,628.6,927.328,628.6l-15.2-19,38.64-41.174-7.6-27.871-31.039-14.569,5.067-34.839,45.608-.633Z" transform="translate(-132.922 -207.22)" fill="#e2ded9"/>
      <circle id="Ellipse_271" data-name="Ellipse 271" cx="15.514" cy="15.514" r="15.514" transform="translate(789.62 162.317)" fill="#f9d4d2"/>
      <path id="Pfad_977" data-name="Pfad 977" d="M834.161,227.224l2.376,3.6,6.335,17.736L837.8,317.605l-29.772.634-3.8-79.18,7.962-9.952Z" transform="translate(-16.16 -27.345)" fill="#acaaa8"/>
      <path id="Pfad_978" data-name="Pfad 978" d="M898.06,379.12l-5.068-.633s-1.267.633-1.9,5.068-8.235,43.707-8.235,43.707L892.993,475.4l11.4-15.2-6.968-26.6,6.968-26.6Z" transform="translate(-122.024 -165.506)" fill="#c9b097"/>
      <path id="Pfad_979" data-name="Pfad 979" d="M883.489,248.1h3.8l9.5,51.308-8.868,39.907-8.869-14.569,2.534-15.836-1.267-13.935-4.434-8.235Z" transform="translate(-42.842 -35.118)" fill="#9f7042"/>
      <path id="Pfad_980" data-name="Pfad 980" d="M951.729,308.218l-2.821-.705s-2.115-11.988-7.052-10.577-17.629,2.821-17.629-2.821,11.988-10.578,19.039-9.872,16.058,3.045,18.334,13.4c3.65,16.6-7.53,20.79-7.53,20.79l.186-.6a9.412,9.412,0,0,0-2.529-9.608Z" transform="translate(-137.428 -130.388)" fill="#7a7876"/>
      <path id="Pfad_981" data-name="Pfad 981" d="M900.015,370.407l20.27-8.235,4.751-3.484,14.252,63.027,9.5-28.5-2.851-36.423,26.288,13.619-8.868,43.074-1.267,16.469,3.8,13.3s13.3,9.5,8.868,19.637-9.5,10.769-9.5,10.769-21.537-20.27-22.8-25.338-3.167-13.936-3.167-13.936-10.768,40.54-23.437,39.907-12.669-13.936-12.669-13.936l3.167-13.936,5.067-14.569-2.534-24.071Z" transform="translate(-128.412 -157.426)" fill="#c9b097"/>
    </g>
    <g id="Gruppe_568" data-name="Gruppe 568" transform="translate(886.983 326.682)">
      <ellipse id="Ellipse_253" data-name="Ellipse 253" cx="17.931" cy="3.941" rx="17.931" ry="3.941" transform="translate(-22.403 321.347)" fill="#d1ccc5"/>
      <path id="Pfad_919" data-name="Pfad 919" d="M342.477,87.744h0c-10.923,0-18.876,7.417-21.556,18.006L317.6,121.636h2.365l5.123-13.005-1.079,13.005h2.655l1.97-6.7-.415,6.7H360.16v-16.21A17.682,17.682,0,0,0,342.477,87.744Z" transform="translate(-241.956 -42.426)"/>
      <path id="Pfad_920" data-name="Pfad 920" d="M168.2,344.524l7.488,36.187,40.986.6-10.246-38Z" transform="translate(-88.219 -180.56)" fill="#3f3d56"/>
      <path id="Pfad_921" data-name="Pfad 921" d="M168.2,344.524l7.488,36.187,40.986.6-10.246-38Z" transform="translate(-88.219 -180.56)" opacity="0.1"/>
      <path id="Pfad_922" data-name="Pfad 922" d="M320.424,317.244s-16.158,22.463-15.37,31.528,11.035,156.849,11.035,156.849l24.04,1.182L333.035,400.4l5.911-28.769,14.581,133.992,29.557.788-26.4-173.8-5.123-15.37Z" transform="translate(-234.339 -181.482)" fill="#646464"/>
      <path id="Pfad_923" data-name="Pfad 923" d="M340.526,143.244s5.123,9.458-1.576,15.764S329.1,182.26,329.1,182.26L366.93,179.5l-3.153-21.281s-8.276-5.123-6.306-14.187Z" transform="translate(-248.924 -76.054)" fill="#a0616a"/>
      <path id="Pfad_924" data-name="Pfad 924" d="M340.526,143.244s5.123,9.458-1.576,15.764S329.1,182.26,329.1,182.26L366.93,179.5l-3.153-21.281s-8.276-5.123-6.306-14.187Z" transform="translate(-248.924 -76.054)" opacity="0.1"/>
      <path id="Pfad_925" data-name="Pfad 925" d="M339.674,207.244s2.365,7.094,12.611,6.305a35.162,35.162,0,0,0,17.34-6.305v46.109L338.1,252.171V224.19Z" transform="translate(-254.377 -114.832)" fill="#e0aa0b"/>
      <path id="Pfad_926" data-name="Pfad 926" d="M322.143,173.7l-3.012,2.184L301,184.557l6.306,32.71,4.335,7.094v8.67L301,248.006a162.531,162.531,0,0,0-3.941,32.316c-.394,18.128,4.335,13.4,6.7,13.005s7.488-1.576,7.488-1.576l-8.276-38.621,13.793-20.1,2.365-7.882s-.788-18.522-3.941-26.01C315.19,199.138,321.214,179.4,322.143,173.7Z" transform="translate(-229.499 -94.509)"/>
      <path id="Pfad_927" data-name="Pfad 927" d="M392.674,164.244l7.217,7.094,14.187,4.335-6.7,37.045-3.941,7.882.788,7.882s14.768,15.839,16.946,47.291c1.144,16.518-1.221,15.73-1.221,15.73l-29.125-.36-4.729-65.42,9.064-49.262Z" transform="translate(-283.461 -88.778)"/>
      <path id="Pfad_928" data-name="Pfad 928" d="M463.442,404.244s3.941,16.946-3.941,18.917-5.123-18.917-5.123-18.917Z" transform="translate(-324.549 -234.196)" fill="#a0616a"/>
      <path id="Pfad_929" data-name="Pfad 929" d="M292.316,359.613s15.175,8.509,11.319,15.66-17.428-8.964-17.428-8.964Z" transform="translate(-222.937 -207.153)" fill="#a0616a"/>
      <path id="Pfad_930" data-name="Pfad 930" d="M440.885,194.033l5.911-.788s3.547,4.729,3.941,8.276,6.7,63.449,6.7,63.449l6.306,11.429s-.394,1.97-3.547,1.97h-3.153l-1.182,4.729s-2.365-9.064-11.429-4.335l-3.547-1.182,2.365-4.335s-2.365-20.887-2.365-30.739-.788-20.493-.788-20.493Z" transform="translate(-316.18 -106.349)"/>
      <ellipse id="Ellipse_254" data-name="Ellipse 254" cx="5.604" cy="2.101" rx="5.604" ry="2.101" transform="translate(90.552 322.632)"/>
      <ellipse id="Ellipse_255" data-name="Ellipse 255" cx="5.604" cy="2.101" rx="5.604" ry="2.101" transform="translate(128.379 322.632)"/>
      <path id="Pfad_931" data-name="Pfad 931" d="M290.07,200.244l-4.335.394-9.852,38.227s-3.941,25.222-3.153,26.4,0,3.153-.788,3.941,3.153,11.823,7.094,11.429,5.517-1.576,5.517-1.576-3.547-10.246,5.517-13.793l2.365-7.882-2.365-13.005,3.153-18.128Z" transform="translate(-214.231 -110.591)"/>
      <ellipse id="Ellipse_256" data-name="Ellipse 256" cx="0.591" cy="1.97" rx="0.591" ry="1.97" transform="translate(113.08 61.476)" fill="#a0616a"/>
      <ellipse id="Ellipse_257" data-name="Ellipse 257" cx="0.591" cy="1.97" rx="0.591" ry="1.97" transform="translate(86.282 61.476)" fill="#a0616a"/>
      <circle id="Ellipse_258" data-name="Ellipse 258" cx="13.005" cy="13.005" r="13.005" transform="translate(87.267 49.456)" fill="#a0616a"/>
      <path id="Pfad_932" data-name="Pfad 932" d="M193.683,57.988l-.332,3.153h9l1.182-2.365-.249,2.365h10.89l-7.488-11.823-16.552.394L186.2,61.141h5.911Z" transform="translate(-99.125 -2.424)"/>
      <path id="Pfad_933" data-name="Pfad 933" d="M223.786,718.991c2.643,9.77,11.7,15.821,11.7,15.821s4.768-9.789,2.125-19.559-11.7-15.821-11.7-15.821S221.143,709.222,223.786,718.991Z" transform="translate(-229.632 -409.505)" fill="#646464"/>
      <path id="Pfad_934" data-name="Pfad 934" d="M207,731.968c7.252,7.06,8.138,17.912,8.138,17.912s-10.872-.594-18.125-7.653-8.138-17.912-8.138-17.912S199.75,724.909,207,731.968Z" transform="translate(-208.964 -424.581)" fill="#f5d166"/>
    </g>
  </g>
</svg>
