<svg xmlns="http://www.w3.org/2000/svg" width="307.452" height="327.574" viewBox="0 0 307.452 327.574">
  <g id="Gruppe_494" data-name="Gruppe 494" transform="translate(-1087.412 -371)">
    <g id="Gruppe_409" data-name="Gruppe 409" transform="translate(1072.864 401.688)">
      <g id="Gruppe_402" data-name="Gruppe 402" transform="translate(140.606 262.389)">
        <path id="Pfad_392" data-name="Pfad 392" d="M220.213,435.4h7.668l3.648-29.575H220.212Z" transform="translate(-218.439 -405.827)" fill="#ffb6b6"/>
        <path id="Pfad_393" data-name="Pfad 393" d="M245.514,446.573h0a6.583,6.583,0,0,1,.365,2.167h0a2.6,2.6,0,0,1-2.6,2.6H219.531a1.775,1.775,0,0,1-1.775-1.775v-.989s-1.175-2.971,1.244-6.633c0,0,3.006,2.868,7.5-1.624l1.324-2.4,9.587,7.012,5.314.654c1.163.143,2.193-.022,2.791.985Z" transform="translate(-217.471 -417.171)" fill="#2f2e41"/>
      </g>
      <g id="Gruppe_403" data-name="Gruppe 403" transform="translate(111.511 262.389)">
        <path id="Pfad_394" data-name="Pfad 394" d="M175.213,435.4h7.668l3.647-29.575H175.212Z" transform="translate(-173.439 -405.827)" fill="#ffb6b6"/>
        <path id="Pfad_395" data-name="Pfad 395" d="M200.514,446.573h0a6.583,6.583,0,0,1,.365,2.167h0a2.6,2.6,0,0,1-2.6,2.6H174.531a1.775,1.775,0,0,1-1.775-1.775v-.989s-1.175-2.971,1.244-6.633c0,0,3.006,2.868,7.5-1.624l1.324-2.4,9.587,7.012,5.314.654c1.163.143,2.193-.022,2.791.985Z" transform="translate(-172.471 -417.171)" fill="#2f2e41"/>
      </g>
      <path id="Pfad_396" data-name="Pfad 396" d="M161.178,205.856l-9.7,21.983L163.765,348.1l15.194.97L185.1,242.709,190.92,349.39l18.1-1.94,4.294-135.427Z" transform="translate(-53.54 -72.759)" fill="#646464"/>
      <path id="Pfad_397" data-name="Pfad 397" d="M201.368,68.412l-19.46-3.556-3.93,3.93L157.985,77.14l3.233,62.716s-6.466,4.307-3.233,10.235,2.586,13.041,2.586,13.041H215.3l-2.355-35.56,6.466-45.259L204.3,75.16l-2.932-6.748h0Z" transform="translate(-55.52 -22.923)" fill="#e0aa0b"/>
      <circle id="Ellipse_166" data-name="Ellipse 166" cx="17.09" cy="17.09" r="17.09" transform="translate(120.25 5.917)" fill="#ffb6b6"/>
      <path id="Pfad_398" data-name="Pfad 398" d="M188.983,38.179c-2.047.183-5.39-5.055-5.241-10.127.1-3.263-2.737-3.9-2.948-8.113-.123-2.452,3.644-3.217,3.9-5.183A11.633,11.633,0,0,1,187.752,8.5c2.478-2.516,4.226-1.7,7.14-4.615,1.754-1.756,1.3-2.237,2.486-3.016,3.41-2.248,9.536.188,13.2,3.47,1.268,1.135,5.994-.106,8.058,3.1,2.432,3.778,1.867,11.482.824,12.5-.634.618-2.081-.891-6-1.86-3.631-.9-.206,3.538-4.4,2.794-4.964-.88-5.936-2.39-7.795-1.484a6.348,6.348,0,0,0-3.055,6.253c.221,1.157.862,1.8.5,2.39-.66,1.074-1.418.021-2.264,1.1-.985,1.253,1.463,4.469,1,4.779-.093.063-.374.054-3.016-2.486-1.055-1.014-1.364-1.637-1.57-1.542-.334.155-2.524,2.195-1.688,3.806,1.3,2.507-.364,2.585,0,4.273.376,1.741-.885.1-2.186.217h0Z" transform="translate(-63.9)" fill="#2f2e41"/>
      <path id="b" d="M217.96,179.825c-5.039,2.63-7.766,7.362-6.092,10.568s7.116,3.673,12.156,1.042a14.225,14.225,0,0,0,5.113-4.358l21.209-11.413-5.568-9.839-20.318,12.3a14.226,14.226,0,0,0-6.5,1.7Z" transform="translate(-74.71 -58.611)" fill="#ffb6b6"/>
      <path id="Pfad_399" data-name="Pfad 399" d="M243.747,92.466s5.819-3.879,9.7,6.466c3.06,8.161,8.737,32.218,11,42.01a7.287,7.287,0,0,1-2.262,7.087l-2.592,2.3-12.608,9.375-8.6-12.509,10.44-6.295-11.906-25.829,6.83-22.609h0Z" transform="translate(-83.738 -32.43)" fill="#e0aa0b"/>
      <path id="Pfad_400" data-name="Pfad 400" d="M247.839,167.584V154.325a1.388,1.388,0,0,1,1.387-1.387h6.416a1.388,1.388,0,0,1,1.387,1.387v13.259a1.388,1.388,0,0,1-1.387,1.387h-6.416a1.388,1.388,0,0,1-1.387-1.387Z" transform="translate(-87.598 -54.056)" fill="#6c63ff"/>
      <g id="Gruppe_404" data-name="Gruppe 404" transform="translate(203.044 54.181)">
        <path id="Pfad_401" data-name="Pfad 401" d="M344.159,228.569l-21.475.3-8.609-96a8.79,8.79,0,0,1,2.065-6.463l21.116-24.669a8.7,8.7,0,0,1,11.691-1.448L375.4,119.025a8.7,8.7,0,0,1,3.668,6.557l19.306,64.859-2.589,21.63.025.03,3.06,15.714-54.706.755Z" transform="translate(-314.041 -89.054)" fill="#e6e6e6"/>
        <path id="Pfad_402" data-name="Pfad 402" d="M353.474,133.974l-.346-4.456a2.142,2.142,0,0,1,1.967-2.3l6.26-.486a2.142,2.142,0,0,1,2.3,1.967l.346,4.456a2.142,2.142,0,0,1-1.967,2.3l-6.26.486A2.142,2.142,0,0,1,353.474,133.974Z" transform="translate(-327.854 -98.973)" fill="#f5d166"/>
        <path id="Pfad_403" data-name="Pfad 403" d="M336.648,182.351l-1.279-16.485a2.142,2.142,0,0,1,1.967-2.3l9.268-.719a2.142,2.142,0,0,1,2.3,1.967l1.279,16.485a2.142,2.142,0,0,1-1.967,2.3l-9.268.719a2.142,2.142,0,0,1-2.3-1.967Z" transform="translate(-321.577 -111.737)" fill="#646464"/>
        <path id="Pfad_404" data-name="Pfad 404" d="M372.233,239.157a2.145,2.145,0,0,1-2.217-1.909l-1.705-15.9a2.139,2.139,0,0,1,2.517-2.332l.478.089a2.142,2.142,0,0,1,1.743,1.938l1.227,15.809a2.139,2.139,0,0,1-1.965,2.3l-.078,0Z" transform="translate(-333.218 -131.58)" fill="#646464"/>
        <path id="Pfad_405" data-name="Pfad 405" d="M343.34,238.353l-1.283-16.533a2.127,2.127,0,0,1,1.915-2.294l8.407-.859a2.154,2.154,0,0,1,2.345,1.9l1.784,16.7a2.14,2.14,0,0,1-1.962,2.36l-8.909.691a2.142,2.142,0,0,1-2.3-1.967Z" transform="translate(-323.94 -131.465)" fill="#646464"/>
        <path id="Pfad_406" data-name="Pfad 406" d="M421.893,257.662l7.513,11.225,1.782,13.141,5.283-.074-3.018-15.5-11.994-14.2h0A5.556,5.556,0,0,0,421.893,257.662Z" transform="translate(-351.829 -143.341)" fill="#d1ccc5"/>
        <rect id="Rechteck_614" data-name="Rechteck 614" width="21.494" height="0.302" transform="translate(57.45 136.88) rotate(-5.221)" fill="#3f3d56"/>
        <rect id="Rechteck_615" data-name="Rechteck 615" width="20.378" height="0.302" transform="translate(57.045 134.108) rotate(-4.885)" fill="#3f3d56"/>
        <rect id="Rechteck_616" data-name="Rechteck 616" width="19.496" height="0.302" transform="translate(56.679 131.629) rotate(-5.557)" fill="#3f3d56"/>
        <rect id="Rechteck_617" data-name="Rechteck 617" width="18.729" height="0.302" transform="translate(56.658 129.159) rotate(-6.339)" fill="#3f3d56"/>
        <rect id="Rechteck_618" data-name="Rechteck 618" width="17.996" height="0.302" transform="translate(56.302 126.781) rotate(-6.451)" fill="#3f3d56"/>
        <rect id="Rechteck_619" data-name="Rechteck 619" width="17.517" height="0.302" transform="translate(55.354 124.095) rotate(-4.437)" fill="#3f3d56"/>
        <rect id="Rechteck_620" data-name="Rechteck 620" width="17.025" height="0.302" transform="translate(54.796 122.215) rotate(-5.109)" fill="#3f3d56"/>
        <rect id="Rechteck_621" data-name="Rechteck 621" width="16.505" height="0.302" transform="translate(54.281 120.488) rotate(-6.339)" fill="#3f3d56"/>
        <rect id="Rechteck_622" data-name="Rechteck 622" width="16.292" height="0.302" transform="translate(53.705 118.162) rotate(-5.445)" fill="#3f3d56"/>
        <rect id="Rechteck_623" data-name="Rechteck 623" width="15.605" height="0.302" transform="translate(53.043 116.32) rotate(-6.228)" fill="#3f3d56"/>
        <rect id="Rechteck_624" data-name="Rechteck 624" width="15.46" height="0.302" transform="translate(52.414 114.186) rotate(-4.997)" fill="#3f3d56"/>
        <path id="Pfad_407" data-name="Pfad 407" d="M391.734,237.9l-1.583-20.4a2.142,2.142,0,0,1,1.967-2.3l9.869-.766a2.142,2.142,0,0,1,2.3,1.968l1.583,20.4a2.142,2.142,0,0,1-1.967,2.3l-9.869.766A2.142,2.142,0,0,1,391.734,237.9Z" transform="translate(-340.94 -129.974)" fill="#f5d166"/>
        <path id="Pfad_408" data-name="Pfad 408" d="M350.37,289.763l-17.557.243-.142,0-1.049-13.521a3.114,3.114,0,0,1,2.86-3.342l17.256-1.339a3.114,3.114,0,0,1,3.342,2.86l1.136,14.643-.15.012Z" transform="translate(-320.251 -150.247)" fill="#d1ccc5"/>
        <path id="Pfad_409" data-name="Pfad 409" d="M389.359,183.458l-1.209-15.583a2.142,2.142,0,0,1,1.967-2.3l3.253-.252a2.142,2.142,0,0,1,2.3,1.967l1.209,15.583a2.142,2.142,0,0,1-1.967,2.3l-3.253.252a2.142,2.142,0,0,1-2.3-1.967Z" transform="translate(-340.232 -112.612)" fill="#646464"/>
        <path id="Pfad_410" data-name="Pfad 410" d="M397.853,282.6l-1.929-13.163-3.687-12.421-1.02-3.4h0a2.27,2.27,0,0,0-3.378,2.258l.188,1.469,3.687,12.421,1.929,13.163" transform="translate(-340.117 -143.713)" fill="#d1ccc5"/>
      </g>
      <g id="Gruppe_405" data-name="Gruppe 405" transform="translate(14.548 66.217)">
        <path id="Pfad_411" data-name="Pfad 411" d="M52.619,232.322l-21.475.3-8.609-96a8.79,8.79,0,0,1,2.065-6.463l21.116-24.669a8.7,8.7,0,0,1,11.691-1.448l26.448,18.739a8.7,8.7,0,0,1,3.668,6.557l19.306,64.859-2.589,21.63.025.03,3.06,15.714-54.706.755Z" transform="translate(-22.501 -102.416)" fill="#e6e6e6"/>
        <path id="Pfad_412" data-name="Pfad 412" d="M61.934,137.727l-.346-4.456a2.142,2.142,0,0,1,1.967-2.3l6.26-.486a2.142,2.142,0,0,1,2.3,1.967l.346,4.456a2.142,2.142,0,0,1-1.967,2.3l-6.26.486a2.142,2.142,0,0,1-2.3-1.967Z" transform="translate(-36.314 -112.335)" fill="#f5d166"/>
        <path id="Pfad_413" data-name="Pfad 413" d="M45.108,186.1l-1.279-16.485a2.142,2.142,0,0,1,1.967-2.3l9.268-.719a2.142,2.142,0,0,1,2.3,1.967l1.279,16.485a2.142,2.142,0,0,1-1.967,2.3l-9.268.719a2.142,2.142,0,0,1-2.3-1.967Z" transform="translate(-30.037 -125.1)" fill="#646464"/>
        <path id="Pfad_414" data-name="Pfad 414" d="M80.693,242.909A2.145,2.145,0,0,1,78.476,241l-1.705-15.9a2.139,2.139,0,0,1,2.517-2.332l.478.089a2.142,2.142,0,0,1,1.743,1.938l1.227,15.809a2.139,2.139,0,0,1-1.965,2.3l-.078,0Z" transform="translate(-41.678 -144.942)" fill="#646464"/>
        <path id="Pfad_415" data-name="Pfad 415" d="M51.8,242.1l-1.283-16.533a2.127,2.127,0,0,1,1.915-2.294l8.407-.859a2.154,2.154,0,0,1,2.345,1.9l1.784,16.7a2.14,2.14,0,0,1-1.962,2.36l-8.909.691a2.142,2.142,0,0,1-2.3-1.967Z" transform="translate(-32.401 -144.827)" fill="#646464"/>
        <path id="Pfad_416" data-name="Pfad 416" d="M130.353,261.415l7.513,11.225,1.782,13.141,5.283-.074-3.018-15.5-11.994-14.2h0A5.555,5.555,0,0,0,130.353,261.415Z" transform="translate(-60.289 -156.704)" fill="#d1ccc5"/>
        <rect id="Rechteck_625" data-name="Rechteck 625" width="21.494" height="0.302" transform="translate(57.45 127.271) rotate(-5.221)" fill="#3f3d56"/>
        <rect id="Rechteck_626" data-name="Rechteck 626" width="20.378" height="0.302" transform="translate(57.044 124.498) rotate(-4.885)" fill="#3f3d56"/>
        <rect id="Rechteck_627" data-name="Rechteck 627" width="19.496" height="0.302" transform="translate(56.679 122.019) rotate(-5.557)" fill="#3f3d56"/>
        <rect id="Rechteck_628" data-name="Rechteck 628" width="18.729" height="0.302" transform="translate(56.657 119.55) rotate(-6.339)" fill="#3f3d56"/>
        <rect id="Rechteck_629" data-name="Rechteck 629" width="17.996" height="0.302" transform="translate(56.301 117.171) rotate(-6.451)" fill="#3f3d56"/>
        <rect id="Rechteck_630" data-name="Rechteck 630" width="17.517" height="0.302" transform="translate(55.355 114.484) rotate(-4.437)" fill="#3f3d56"/>
        <rect id="Rechteck_631" data-name="Rechteck 631" width="17.025" height="0.302" transform="translate(54.795 112.605) rotate(-5.109)" fill="#3f3d56"/>
        <rect id="Rechteck_632" data-name="Rechteck 632" width="16.505" height="0.302" transform="translate(54.281 110.878) rotate(-6.339)" fill="#3f3d56"/>
        <rect id="Rechteck_633" data-name="Rechteck 633" width="16.292" height="0.302" transform="translate(53.705 108.553) rotate(-5.445)" fill="#3f3d56"/>
        <rect id="Rechteck_634" data-name="Rechteck 634" width="15.605" height="0.302" transform="translate(53.043 106.711) rotate(-6.228)" fill="#3f3d56"/>
        <rect id="Rechteck_635" data-name="Rechteck 635" width="15.46" height="0.302" transform="translate(52.414 104.576) rotate(-4.997)" fill="#3f3d56"/>
        <path id="Pfad_417" data-name="Pfad 417" d="M100.195,241.657l-1.583-20.4a2.142,2.142,0,0,1,1.967-2.3l9.869-.766a2.142,2.142,0,0,1,2.3,1.968l1.583,20.4a2.142,2.142,0,0,1-1.967,2.3l-9.869.766A2.142,2.142,0,0,1,100.195,241.657Z" transform="translate(-49.4 -143.336)" fill="#f5d166"/>
        <path id="Pfad_418" data-name="Pfad 418" d="M58.83,293.515l-17.557.243-.142,0-1.049-13.521a3.114,3.114,0,0,1,2.86-3.342L60.2,275.558a3.114,3.114,0,0,1,3.342,2.861l1.136,14.643-.15.012-5.7.442Z" transform="translate(-28.712 -163.609)" fill="#d1ccc5"/>
        <path id="Pfad_419" data-name="Pfad 419" d="M97.819,187.21,96.61,171.627a2.142,2.142,0,0,1,1.967-2.3l3.253-.252a2.142,2.142,0,0,1,2.3,1.967l1.209,15.583a2.142,2.142,0,0,1-1.967,2.3l-3.253.252a2.142,2.142,0,0,1-2.3-1.967Z" transform="translate(-48.692 -125.974)" fill="#646464"/>
        <path id="Pfad_420" data-name="Pfad 420" d="M106.313,286.351l-1.929-13.163L100.7,260.767l-1.02-3.4h0a2.27,2.27,0,0,0-3.378,2.258l.188,1.469,3.687,12.421,1.929,13.163" transform="translate(-48.577 -157.075)" fill="#d1ccc5"/>
      </g>
      <path id="Pfad_421" data-name="Pfad 421" d="M227.759,230.115l-21.474.3-8.61-96a8.789,8.789,0,0,1,2.065-6.463l21.116-24.67a8.7,8.7,0,0,1,11.691-1.448L259,120.571c2.158,1.529,13.765,10.2,13.939,12.842l-5.516,66.044,11.962,14.159.025.03,3.06,15.714-54.706.755h0Z" transform="translate(-69.856 -35.419)" fill="#e6e6e6"/>
      <path id="Pfad_422" data-name="Pfad 422" d="M237.074,135.521l-.346-4.456a2.142,2.142,0,0,1,1.968-2.3l6.26-.486a2.142,2.142,0,0,1,2.3,1.967l.346,4.456a2.142,2.142,0,0,1-1.967,2.3l-6.26.486A2.142,2.142,0,0,1,237.074,135.521Z" transform="translate(-83.669 -45.338)" fill="#f5d166"/>
      <path id="Pfad_423" data-name="Pfad 423" d="M220.248,183.9l-1.279-16.485a2.142,2.142,0,0,1,1.968-2.3l9.268-.719a2.142,2.142,0,0,1,2.3,1.967l1.279,16.485a2.142,2.142,0,0,1-1.967,2.3l-9.268.719A2.142,2.142,0,0,1,220.248,183.9Z" transform="translate(-77.392 -58.102)" fill="#646464"/>
      <path id="Pfad_424" data-name="Pfad 424" d="M252.954,221.485a1.821,1.821,0,0,0-.578,1.544l1.705,15.9a1.842,1.842,0,0,0,1.9,1.64,1.838,1.838,0,0,0,1.755-1.978l-1.227-15.809a1.84,1.84,0,0,0-1.5-1.665l-.478-.089a1.858,1.858,0,0,0-.483-.026,1.822,1.822,0,0,0-1.1.485Z" transform="translate(-89.198 -78.11)" fill="#646464"/>
      <path id="Pfad_425" data-name="Pfad 425" d="M212.864,243.417a2.123,2.123,0,0,1-.771-1.484l-1.227-15.809a2.142,2.142,0,0,1,1.423-2.184l.459-.161a2.14,2.14,0,0,1,2.847,1.916l.768,15.97a2.144,2.144,0,0,1-1.9,2.229l-.078.007A2.123,2.123,0,0,1,212.864,243.417Z" transform="translate(-74.528 -79.051)" fill="#646464"/>
      <path id="Pfad_426" data-name="Pfad 426" d="M305.492,259.209l7.513,11.225,1.782,13.141,5.283-.074L317.052,268l-11.994-14.2h0A5.556,5.556,0,0,0,305.492,259.209Z" transform="translate(-107.644 -89.706)" fill="#d1ccc5"/>
      <rect id="Rechteck_636" data-name="Rechteck 636" width="21.494" height="0.302" transform="translate(185.235 192.061) rotate(-5.221)" fill="#3f3d56"/>
      <rect id="Rechteck_637" data-name="Rechteck 637" width="20.378" height="0.302" transform="translate(184.83 189.289) rotate(-4.885)" fill="#3f3d56"/>
      <rect id="Rechteck_638" data-name="Rechteck 638" width="19.496" height="0.302" transform="translate(184.464 186.81) rotate(-5.557)" fill="#3f3d56"/>
      <rect id="Rechteck_639" data-name="Rechteck 639" width="18.729" height="0.302" transform="translate(184.443 184.34) rotate(-6.339)" fill="#3f3d56"/>
      <rect id="Rechteck_640" data-name="Rechteck 640" width="17.996" height="0.302" transform="translate(184.086 181.962) rotate(-6.451)" fill="#3f3d56"/>
      <rect id="Rechteck_641" data-name="Rechteck 641" width="17.517" height="0.302" transform="translate(183.14 179.275) rotate(-4.437)" fill="#3f3d56"/>
      <rect id="Rechteck_642" data-name="Rechteck 642" width="17.025" height="0.302" transform="translate(182.58 177.396) rotate(-5.109)" fill="#3f3d56"/>
      <rect id="Rechteck_643" data-name="Rechteck 643" width="16.505" height="0.302" transform="translate(182.066 175.669) rotate(-6.339)" fill="#3f3d56"/>
      <rect id="Rechteck_644" data-name="Rechteck 644" width="16.292" height="0.302" transform="translate(181.49 173.344) rotate(-5.445)" fill="#3f3d56"/>
      <rect id="Rechteck_645" data-name="Rechteck 645" width="15.605" height="0.302" transform="translate(180.828 171.501) rotate(-6.228)" fill="#3f3d56"/>
      <rect id="Rechteck_646" data-name="Rechteck 646" width="15.46" height="0.302" transform="translate(180.199 169.367) rotate(-4.997)" fill="#3f3d56"/>
      <path id="Pfad_427" data-name="Pfad 427" d="M275.334,239.451l-1.583-20.4a2.142,2.142,0,0,1,1.967-2.3l9.869-.766a2.142,2.142,0,0,1,2.3,1.968l1.583,20.4a2.142,2.142,0,0,1-1.967,2.3l-9.869.766A2.142,2.142,0,0,1,275.334,239.451Z" transform="translate(-96.754 -76.339)" fill="#f5d166"/>
      <path id="Pfad_428" data-name="Pfad 428" d="M233.969,291.309l-17.557.243-.141,0-1.049-13.521a3.114,3.114,0,0,1,2.86-3.342l17.256-1.339a3.114,3.114,0,0,1,3.341,2.861l1.136,14.643-.15.012-5.7.442Z" transform="translate(-76.066 -96.612)" fill="#d1ccc5"/>
      <path id="Pfad_429" data-name="Pfad 429" d="M272.959,185l-1.209-15.583a2.142,2.142,0,0,1,1.967-2.3l3.253-.252a2.142,2.142,0,0,1,2.3,1.967l1.209,15.583a2.142,2.142,0,0,1-1.967,2.3l-3.253.252a2.142,2.142,0,0,1-2.3-1.967Z" transform="translate(-96.047 -58.977)" fill="#646464"/>
      <path id="Pfad_430" data-name="Pfad 430" d="M281.453,284.145l-1.929-13.163-3.687-12.421-1.02-3.4h0a2.27,2.27,0,0,0-3.378,2.258l.188,1.469,3.687,12.421,1.929,13.163" transform="translate(-95.932 -90.078)" fill="#d1ccc5"/>
      <path id="c" d="M187.677,173.469c5.529,1.32,10.691-.463,11.53-3.982s-2.962-7.44-8.493-8.759a14.225,14.225,0,0,0-6.718-.064l-23.5-5.3-2.25,11.079,23.4,4.045a14.226,14.226,0,0,0,6.025,2.977Z" transform="translate(-55.933 -54.914)" fill="#ffb6b6"/>
      <path id="Pfad_432" data-name="Pfad 432" d="M152.307,87.088l-3.879-3.233s-7.759,3.879-9.052,7.112-9.052,34.267-9.052,34.267-1.522,17.008,2.472,19.172,29.209.871,29.209.871l1.94-12.931L153.6,128.468Z" transform="translate(-45.962 -29.639)" fill="#e0aa0b"/>
      <g id="Gruppe_408" data-name="Gruppe 408" transform="translate(47.047 209.355)">
        <path id="Pfad_440" data-name="Pfad 440" d="M208.8,458.047h0c0,.3-.183.543-.41.543H.41c-.226,0-.41-.243-.41-.543H0c0-.3.183-.543.41-.543H208.392C208.618,457.5,208.8,457.747,208.8,458.047Z" transform="translate(0 -371.058)" fill="#d1ccc5"/>
      </g>
    </g>
    <circle id="Ellipse_210" data-name="Ellipse 210" cx="66" cy="66" r="66" transform="translate(1262.864 371)" fill="#fff"/>
    <g id="Gruppe_493" data-name="Gruppe 493" transform="translate(1339.346 394.654) rotate(60)">
      <rect id="Rechteck_757" data-name="Rechteck 757" width="29.772" height="59.932" transform="translate(1.278 32.11) rotate(-85.49)" fill="#fff"/>
      <path id="Pfad_593" data-name="Pfad 593" d="M4.028,1.106A7,7,0,0,0,0,0,7.008,7.008,0,0,0,2.351,3.453,7,7,0,0,0,6.379,4.559,7.01,7.01,0,0,0,4.028,1.106Z" transform="translate(5.975 3.624)" fill="#d1ccc5"/>
      <path id="Pfad_594" data-name="Pfad 594" d="M11.929.764,2.336.007A2.165,2.165,0,0,0,2,4.324H2l9.593.757A2.165,2.165,0,0,0,11.929.764Z" transform="translate(3.841 22.852)" fill="#d1ccc5"/>
      <path id="Pfad_595" data-name="Pfad 595" d="M61.01,4.258,7.223.015A4.779,4.779,0,0,0,2.084,4.4L.015,30.609A4.781,4.781,0,0,0,4.4,35.75l53.788,4.243A4.779,4.779,0,0,0,63.331,35.6L65.3,10.7l.04-.509L65.4,9.4A4.779,4.779,0,0,0,61.01,4.258Zm-1.588,22.8-.341,4.317a2.894,2.894,0,0,1-3.106,2.65l-7.2-.567a2.894,2.894,0,0,1-2.65-3.106l.341-4.317a2.9,2.9,0,0,1,3.106-2.65l7.193.568A2.9,2.9,0,0,1,59.422,27.058ZM3.372,24.807a2.646,2.646,0,0,1,2.843-2.428l9.593.757a2.645,2.645,0,0,1-.411,5.275h0L5.8,27.655a2.643,2.643,0,0,1-2.426-2.848ZM5.426,3.454,5.36,3.186l.276-.025a7.541,7.541,0,0,1,4.646,1.178A7.567,7.567,0,0,1,12.9,8.351l.063.269-.275.028a7.269,7.269,0,0,1-1.174-.008A6.941,6.941,0,0,1,8.046,7.467,7.537,7.537,0,0,1,5.426,3.454Z" transform="translate(0 0)" fill="#d1ccc5"/>
      <path id="Pfad_596" data-name="Pfad 596" d="M4.026.249.908,0A.842.842,0,0,0,.776,1.682l3.118.246A.842.842,0,0,0,4.026.249Z" transform="translate(47.326 29.672)" fill="#9f7042"/>
      <path id="Pfad_597" data-name="Pfad 597" d="M4.026.249.908,0A.842.842,0,0,0,.776,1.682l3.118.246A.842.842,0,0,0,4.026.249Z" transform="translate(53.082 30.126)" fill="#9f7042"/>
      <path id="Pfad_598" data-name="Pfad 598" d="M4.026.249.908,0A.842.842,0,0,0,.776,1.682l3.118.246A.842.842,0,1,0,4.026.249Z" transform="translate(47.496 27.514)" fill="#9f7042"/>
      <path id="Pfad_599" data-name="Pfad 599" d="M4.026.249.908,0A.842.842,0,1,0,.776,1.682l3.118.246A.842.842,0,0,0,4.026.249Z" transform="translate(53.252 27.968)" fill="#9f7042"/>
      <path id="Pfad_600" data-name="Pfad 600" d="M4.026.249.908,0A.842.842,0,1,0,.776,1.682l3.118.246A.842.842,0,1,0,4.026.249Z" transform="translate(47.666 25.355)" fill="#9f7042"/>
      <path id="Pfad_601" data-name="Pfad 601" d="M4.026.249.908,0A.842.842,0,0,0,.776,1.681l3.118.246A.842.842,0,1,0,4.026.249Z" transform="translate(53.422 25.809)" fill="#9f7042"/>
      <rect id="Rechteck_758" data-name="Rechteck 758" width="0.512" height="63.334" transform="translate(1.244 13.182) rotate(-85.509)" fill="#fff"/>
      <path id="Pfad_602" data-name="Pfad 602" d="M25.649,2.012l-.04.509-2.2-.172L0,.51.042,0l23.41,1.839Z" transform="translate(39.687 8.177)" fill="#646464"/>
    </g>
    <g id="Gruppe_492" data-name="Gruppe 492" transform="translate(1300.664 417.745) rotate(22)">
      <rect id="Rechteck_757-2" data-name="Rechteck 757" width="29.772" height="59.932" transform="translate(1.278 32.11) rotate(-85.49)" fill="#fff"/>
      <path id="Pfad_593-2" data-name="Pfad 593" d="M4.028,1.106A7,7,0,0,0,0,0,7.008,7.008,0,0,0,2.351,3.453,7,7,0,0,0,6.379,4.559,7.009,7.009,0,0,0,4.028,1.106Z" transform="translate(5.975 3.623)" fill="#9f7042"/>
      <path id="Pfad_594-2" data-name="Pfad 594" d="M11.929.764,2.336.007A2.165,2.165,0,1,0,2,4.324H2l9.594.757A2.165,2.165,0,1,0,11.929.764Z" transform="translate(3.842 22.851)" fill="#9f7042"/>
      <path id="Pfad_595-2" data-name="Pfad 595" d="M61.011,4.258,7.223.015A4.779,4.779,0,0,0,2.084,4.4L.015,30.609A4.781,4.781,0,0,0,4.4,35.75l53.788,4.243A4.779,4.779,0,0,0,63.332,35.6L65.3,10.7l.04-.509L65.4,9.4A4.779,4.779,0,0,0,61.011,4.258Zm-1.588,22.8-.341,4.317a2.894,2.894,0,0,1-3.106,2.65l-7.2-.567a2.894,2.894,0,0,1-2.65-3.106l.341-4.317a2.9,2.9,0,0,1,3.106-2.65l7.194.568A2.9,2.9,0,0,1,59.422,27.058ZM3.372,24.807a2.646,2.646,0,0,1,2.843-2.428l9.593.757a2.645,2.645,0,1,1-.411,5.275h0L5.8,27.655a2.643,2.643,0,0,1-2.426-2.848ZM5.426,3.454l-.066-.268.276-.025a7.541,7.541,0,0,1,4.646,1.178A7.567,7.567,0,0,1,12.9,8.351l.063.269-.275.028a7.269,7.269,0,0,1-1.174-.008A6.941,6.941,0,0,1,8.046,7.467,7.537,7.537,0,0,1,5.426,3.454Z" transform="translate(0 0)" fill="#9f7042"/>
      <path id="Pfad_596-2" data-name="Pfad 596" d="M4.026.249.908,0A.842.842,0,1,0,.776,1.682l3.118.246A.842.842,0,0,0,4.026.249Z" transform="translate(47.326 29.672)" fill="#9f7042"/>
      <path id="Pfad_597-2" data-name="Pfad 597" d="M4.026.249.908,0A.842.842,0,0,0,.776,1.681l3.118.246A.842.842,0,1,0,4.026.249Z" transform="translate(53.082 30.126)" fill="#9f7042"/>
      <path id="Pfad_598-2" data-name="Pfad 598" d="M4.026.249.908,0A.842.842,0,0,0,.776,1.681l3.118.246A.842.842,0,1,0,4.026.249Z" transform="translate(47.496 27.514)" fill="#9f7042"/>
      <path id="Pfad_599-2" data-name="Pfad 599" d="M4.026.249.908,0A.842.842,0,1,0,.776,1.681l3.118.246A.842.842,0,0,0,4.026.249Z" transform="translate(53.253 27.968)" fill="#9f7042"/>
      <path id="Pfad_600-2" data-name="Pfad 600" d="M4.026.249.908,0A.842.842,0,1,0,.776,1.682l3.118.246A.842.842,0,1,0,4.026.249Z" transform="translate(47.667 25.355)" fill="#9f7042"/>
      <path id="Pfad_601-2" data-name="Pfad 601" d="M4.026.249.908,0A.842.842,0,1,0,.776,1.681l3.118.246A.842.842,0,1,0,4.026.249Z" transform="translate(53.423 25.809)" fill="#9f7042"/>
      <rect id="Rechteck_758-2" data-name="Rechteck 758" width="0.512" height="63.335" transform="translate(1.244 13.182) rotate(-85.509)" fill="#fff"/>
      <path id="Pfad_602-2" data-name="Pfad 602" d="M25.649,2.012l-.04.509-2.2-.172L0,.51.042,0l23.41,1.839Z" transform="translate(39.688 8.177)" fill="#646464"/>
    </g>
  </g>
</svg>
