<svg xmlns="http://www.w3.org/2000/svg" width="348.218" height="443.848" viewBox="0 0 348.218 443.848">
  <g id="Gruppe_579" data-name="Gruppe 579" transform="translate(-949.724 -286.984)">
    <g id="Gruppe_577" data-name="Gruppe 577" transform="translate(949.724 286.984)">
      <circle id="Ellipse_286" data-name="Ellipse 286" cx="32.385" cy="32.385" r="32.385" transform="translate(146.552 0)" fill="#f5d166"/>
      <path id="Pfad_1031" data-name="Pfad 1031" d="M669.976,199.208v38.555l-18.06,12.175-26.532,17.875L595.9,287.686l-46.268-23.134-58.461-29.227L479,229.237l-12.175-9.742,37.593-33.568,10.8-9.64a69.59,69.59,0,0,1,46.348-17.68h67.817A40.6,40.6,0,0,1,669.976,199.208Z" transform="translate(-347.413 -129.723)" fill="#646464"/>
      <path id="Pfad_1032" data-name="Pfad 1032" d="M739.561,247.262l17.9-19.455c31.3,115.446,21.293,221.517,0,333.8H734.749l-1.222-1.222-31.66-31.654-18.376-18.376.483-3.542,1.669-12.181,3.667-26.789,4-29.227,4-29.221,4-29.227,3.244-23.712.167-1.2.59-4.317,4-29.227,3.554-25.96.447-3.261,2.945-21.512,1.222-8.932L739.4,247.435Z" transform="translate(-434.897 -157.663)" fill="#d1ccc5"/>
      <path id="Pfad_1033" data-name="Pfad 1033" d="M452.993,260.725H613.934V574.9H452.993C435.42,459.945,431,352.648,452.993,260.725Z" transform="translate(-307.289 -170.954)" fill="#d1ccc5"/>
      <rect id="Rechteck_904" data-name="Rechteck 904" width="34.097" height="76.718" transform="translate(191.253 327.231)" fill="#fff"/>
      <rect id="Rechteck_906" data-name="Rechteck 906" width="49.438" height="12.461" rx="6" transform="translate(231.928 350.786)" fill="#f4f1ed"/>
      <rect id="Rechteck_920" data-name="Rechteck 920" width="312.955" height="29.226" transform="translate(148.634 89.769) rotate(90)" fill="#d1ccc5"/>
      <rect id="Rechteck_911" data-name="Rechteck 911" width="322.563" height="1.192" transform="translate(0 402.724)" fill="#d1ccc5"/>
      <path id="Pfad_1037" data-name="Pfad 1037" d="M350.721,357.785s-22.275-.2-49.869-.072c-13.26.06-25.334.185-34.3.3V342.592c9.647-7.387,22.371-13.272,34.206-6.606C324.01,349.091,350.721,357.785,350.721,357.785Z" transform="translate(-266.551 -200.167)" fill="#f2f2f2"/>
      <path id="Pfad_1039" data-name="Pfad 1039" d="M616.344,154.2l74.045-3.621a40.6,40.6,0,0,1,42.26,35.439l8.982,70.752L710.084,216.1l-.066-.036-94.4-48.963-1.873-.971a6.321,6.321,0,0,1,2.6-11.925Z" transform="translate(-406.929 -123.862)" fill="#646464"/>
      <path id="Pfad_1070" data-name="Pfad 1070" d="M0,0H141.258V29.226H0Z" transform="translate(140.107 280.956)" fill="#fff"/>
      <rect id="Rechteck_908" data-name="Rechteck 908" width="141.258" height="29.226" transform="translate(140.107 222.505)" fill="#fff"/>
      <rect id="Rechteck_909" data-name="Rechteck 909" width="141.258" height="29.226" transform="translate(140.107 164.053)" fill="#fff"/>
      <rect id="Rechteck_910" data-name="Rechteck 910" width="141.258" height="29.226" transform="translate(140.107 105.601)" fill="#fff"/>
      <rect id="Rechteck_916" data-name="Rechteck 916" width="141.258" height="5.073" transform="translate(140.108 134.827)" fill="#646464"/>
      <rect id="Rechteck_917" data-name="Rechteck 917" width="141.258" height="5.073" transform="translate(140.108 193.279)" fill="#646464"/>
      <rect id="Rechteck_918" data-name="Rechteck 918" width="141.258" height="5.073" transform="translate(140.108 251.731)" fill="#646464"/>
      <rect id="Rechteck_919" data-name="Rechteck 919" width="141.258" height="5.073" transform="translate(140.108 310.183)" fill="#646464"/>
      <rect id="Rechteck_921" data-name="Rechteck 921" width="222.924" height="29.226" transform="translate(222.915 99.357) rotate(90)" fill="#d1ccc5"/>
      <rect id="Rechteck_907" data-name="Rechteck 907" width="44.726" height="12.461" rx="6" transform="translate(140.107 350.786)" fill="#f4f1ed"/>
    </g>
    <g id="Gruppe_535" data-name="Gruppe 535" transform="translate(1010.341 549.171)">
      <ellipse id="Ellipse_228" data-name="Ellipse 228" cx="22.186" cy="22.186" rx="22.186" ry="22.186" transform="translate(0 56.675)" fill="#fff"/>
      <path id="Pfad_781" data-name="Pfad 781" d="M110.853,394.03h.061l1.1,62.9h-2.316Z" transform="translate(-88.606 -315.169)" fill="#646464"/>
      <ellipse id="Ellipse_229" data-name="Ellipse 229" cx="16.182" cy="16.182" rx="16.182" ry="16.182" transform="translate(53.637 79.702)" fill="#e0aa0b"/>
      <path id="Pfad_782" data-name="Pfad 782" d="M350.023,479.085h.045l.8,45.879h-1.689Z" transform="translate(-280.16 -383.201)" fill="#646464"/>
      <ellipse id="Ellipse_230" data-name="Ellipse 230" cx="36.821" cy="36.821" rx="36.821" ry="36.821" transform="translate(12.618 0)" fill="#9f7042"/>
      <path id="Pfad_783" data-name="Pfad 783" d="M331.487,156.936a36.824,36.824,0,0,1-61.354,38.97,36.824,36.824,0,1,0,61.354-38.97Z" transform="translate(-254.86 -144.709)" opacity="0.1" style="mix-blend-mode: normal;isolation: isolate"/>
      <path id="Pfad_784" data-name="Pfad 784" d="M243.161,183.975h-.1l-1.821,104.393h3.844Z" transform="translate(-193.823 -147.154)" fill="#646464"/>
    </g>
    <rect id="Rechteck_922" data-name="Rechteck 922" width="322.563" height="1.192" transform="translate(949.724 689.708)" fill="#d1ccc5"/>
    <g id="Gruppe_497" data-name="Gruppe 497" transform="translate(1196.417 617.241)">
      <path id="Pfad_657" data-name="Pfad 657" d="M511.272,655.143s1.856,7.147,1.808,7.969v.025a1.751,1.751,0,0,1-1.356,1.577c-.788.187-1.83.439-2.388.6-.528.15-3.112,1-5,.339s3.995-4.06,3.995-4.06l-.549-6.684Z" transform="translate(-433.221 -570.167)"/>
      <path id="Pfad_658" data-name="Pfad 658" d="M450.535,657.568s.476,7.13.272,7.929-.668.4-.668.4-2.511.085-3.52.17c-.547.046-3.245.385-4.971-.623s4.971-3.5,4.971-3.5l.463-6.391Z" transform="translate(-386.806 -570.646)"/>
      <path id="Pfad_637" data-name="Pfad 637" d="M314.181,698.373s.179-3.741,3.839-3.306" transform="translate(-289.145 -599.918)" fill="#646464"/>
      <circle id="Ellipse_213" data-name="Ellipse 213" cx="1.832" cy="1.832" r="1.832" transform="translate(22.171 91.231)" fill="#e0aa0b"/>
      <rect id="Rechteck_760" data-name="Rechteck 760" width="0.517" height="3.62" transform="translate(23.704 96.148)" fill="#646464"/>
      <path id="Pfad_643" data-name="Pfad 643" d="M150.164,514.727l-2.559.726-10.054-32.018,7.378-1.272Z" transform="translate(-115.607 -407.569)" fill="#9f616a"/>
      <path id="Pfad_644" data-name="Pfad 644" d="M62.912,513.175l-2.531-.542,6.546-32.811,7.118,2.319Z" transform="translate(-58.388 -405.834)" fill="#9f616a"/>
      <path id="Pfad_645" data-name="Pfad 645" d="M335.246,744.214c.7.32,1.288-1.662,1.879-1.081,1.653,1.625,5.619,1.26,5.619,1.26a1.033,1.033,0,0,0,.651-1.347h0a1.033,1.033,0,0,0-.717-.64l-1.758-.44-2.761-4.855-3.009-.381-.076.124a7.757,7.757,0,0,0-.831,6.343C334.493,744,334.834,744.026,335.246,744.214Z" transform="translate(-303.772 -630.836)"/>
      <path id="Pfad_646" data-name="Pfad 646" d="M218.19,739.062c.63.442,1.57-1.4,2.045-.72,1.328,1.9,5.294,2.266,5.294,2.266a1.033,1.033,0,0,0,.887-1.205h0a1.033,1.033,0,0,0-.588-.76l-1.648-.754-1.827-5.278-2.888-.924-.1.108a7.757,7.757,0,0,0-1.977,6.084A1.314,1.314,0,0,0,218.19,739.062Z" transform="translate(-217.342 -627.097)"/>
      <path id="Pfad_647" data-name="Pfad 647" d="M259.7,526.249a21.636,21.636,0,0,1,3.231,6.547,131.745,131.745,0,0,1,2.986,17.714c-4.682,2.686-8.743,4.228-12.711,4.493-.184.012-.369.021-.553.028l-1.446-8.166-1.154,8.075q-.857-.091-1.718-.263a25.462,25.462,0,0,1-7.726-3.084,41.294,41.294,0,0,1-1.209-11.812,50.982,50.982,0,0,1,2.588-13.522Z" transform="translate(-233.673 -474.772)" fill="#646464"/>
      <path id="Pfad_648" data-name="Pfad 648" d="M261.348,405.4l-6.36-2.162c2.3-2.252,3.241-4.725,2.29-7.5l7.123,1.272C262.711,400.266,260.5,402.227,261.348,405.4Z" transform="translate(-245.255 -378.002)" fill="#9f616a"/>
      <path id="Pfad_649" data-name="Pfad 649" d="M261.84,443.7c-5.786,4.6-11.676,5.133-17.711.01,2.433-7.639-2.531-14.822-1.808-20.245.451-3.383,1.858-7.574,5.13-8.548L250.965,416A7.444,7.444,0,0,1,256,421.252l.416,1.618c2.012,2.14,2.682,4.953,2.16,8.367a6.119,6.119,0,0,1,.036,3.415,6.584,6.584,0,0,0-.022,3.279,31.52,31.52,0,0,0,3.25,5.774" transform="translate(-235.809 -392.228)" fill="#e0aa0b"/>
      <circle id="Ellipse_216" data-name="Ellipse 216" cx="5.724" cy="5.724" r="5.724" transform="translate(11.641 10.483)" fill="#9f616a"/>
      <path id="Pfad_650" data-name="Pfad 650" d="M349.035,502.619l-4.01-1.312.293-3.218,4.4-.1a2.373,2.373,0,0,1,2.4,2.743h0a2.373,2.373,0,0,1-3.082,1.885Z" transform="translate(-312.014 -453.82)" fill="#9f616a"/>
      <path id="Pfad_651" data-name="Pfad 651" d="M282.651,478.343a68.734,68.734,0,0,1-10.88-6.708c-7.505-5.47-5.6-18.826-5.6-18.826l10.016,9.934a6.585,6.585,0,0,0-.022,3.279C277.807,470.317,281.55,473.806,282.651,478.343Z" transform="translate(-253.389 -420.319)" opacity="0.2"/>
      <path id="Pfad_652" data-name="Pfad 652" d="M286.317,447.734c-5.43,1.2-9.873,1.924-13.483-.636-5.726-6.66-8.981-13.346-7.763-20.079a3.265,3.265,0,0,1,2.37-2.556h0a3.284,3.284,0,0,1,3.918,1.981l4.326,14.5,11.207,2.169Z" transform="translate(-252.543 -399.217)" fill="#e0aa0b"/>
      <path id="Pfad_653" data-name="Pfad 653" d="M306.261,556.315a2.807,2.807,0,0,1-2.735-2.194l-.333-1.5,5.47-1.215.333,1.5a2.8,2.8,0,0,1-2.127,3.343h0A2.8,2.8,0,0,1,306.261,556.315Zm-2.637-3.42.255,1.147a2.44,2.44,0,1,0,4.764-1.059l-.255-1.147Z" transform="translate(-280.997 -493.425)"/>
      <path id="Pfad_654" data-name="Pfad 654" d="M262.208,365.44s.919-7.151-6.579-4.806c0,0-5.355-.983-7.111,5.716l-1.778,7.021.867-.472.4.883,1.4.356.6-1.193.291,1.448,11.5,1.147s-5.151-3.046-5.233-8.507l.981,1.037Z" transform="translate(-239.139 -351.625)"/>
      <path id="Pfad_655" data-name="Pfad 655" d="M290.65,213.266h12.8l-1.519,13.455-11.284-.28Z" transform="translate(-232.485 -208.193)" fill="#2f2e41"/>
      <path id="Pfad_656" data-name="Pfad 656" d="M434.8,464.13c-3.844,1.373-1.373,15.1-1.373,15.1l3.3,15.927,3.021,21.693,4.943-.824L443.038,499l-.824-20.87,7.14,18.124,5.217,20.046,4.943-1.1-1.1-7.14c-.275-4.943-3.844-15.1-3.844-15.1L450.453,464.4Z" transform="translate(-380.342 -428.714)" fill="#9f7042"/>
      <circle id="Ellipse_217" data-name="Ellipse 217" cx="5.217" cy="5.217" r="5.217" transform="translate(59.126 2.19)" fill="#ffb8b8"/>
      <path id="Pfad_659" data-name="Pfad 659" d="M308.175,234.526l1.1,7.689,4.668-2.2-1.1-6.041Z" transform="translate(-245.479 -223.549)" fill="#ffb8b8"/>
      <path id="Pfad_660" data-name="Pfad 660" d="M450.541,380.569l-.919-1.488-1,1.214-4.394,1.373-1.1,6.59a14.891,14.891,0,0,0,.549,4.668s-3.021,6.041-2.746,8.238,14.279,1.373,14.279,1.373l4.119-21.968-3.57-1.1-1.1-1.373-3.3,1.648-.549,2.2Z" transform="translate(-386.472 -364.924)"/>
      <path id="Pfad_661" data-name="Pfad 661" d="M469.736,335.834h0a1.623,1.623,0,0,0-1.623-1.623h-7.824a2.054,2.054,0,0,0-2.054,2.054v3.154c3.748-1.9,7.6-1.565,11.5,0Z" transform="translate(-399.316 -332.384)"/>
      <path id="Pfad_662" data-name="Pfad 662" d="M414.968,505.835a16.578,16.578,0,0,1-5.126-4.048c-1.372-1.833-1.912-4.539-.556-6.384a4.934,4.934,0,0,1,5.2-1.552,8.985,8.985,0,0,1,4.569,3.354c-.354-1.841,1.62-3.565,3.484-3.358a4.755,4.755,0,0,1,3.779,3.694,10.141,10.141,0,0,1-.492,5.529,24.509,24.509,0,0,1-4.534,8.176,7.991,7.991,0,0,0-1.048-1.54A20.19,20.19,0,0,0,414.968,505.835Z" transform="translate(-362.44 -450.612)" fill="#f5d166"/>
      <path id="Pfad_663" data-name="Pfad 663" d="M459.125,470.5l-4.668,4.668s-4.119,5.492-2.2,6.59,4.394-5.217,4.394-5.217l5.767-4.119Z" transform="translate(-394.507 -433.439)" fill="#ffb8b8"/>
      <path id="Pfad_664" data-name="Pfad 664" d="M429.919,470.777l-.275,2.746s2.2,4.394.549,5.767-3.021-5.492-3.021-5.492l.549-3.3Z" transform="translate(-376.285 -433.439)" fill="#ffb8b8"/>
      <path id="Pfad_665" data-name="Pfad 665" d="M481.834,395.072l-1.373,7.963-5.492,6.316,5.217,2.471s3.844-5.767,5.217-7.689,1.922-11.808,1.373-14a3.046,3.046,0,0,0-2.2-2.471l-.824.549Z" transform="translate(-411.723 -372.012)"/>
      <path id="Pfad_666" data-name="Pfad 666" d="M432.225,401.791l-2.2,5.767-2.2,5.767-3.844-.275s2.746-5.492,2.471-6.316,2.746-10.435,3.3-12.357a3.719,3.719,0,0,1,1.922-2.471l2.2.549Z" transform="translate(-373.922 -375.162)"/>
      <path id="Pfad_667" data-name="Pfad 667" d="M454.245,342.738a7.358,7.358,0,0,1-4.019.48,3.144,3.144,0,0,1-1.2-.254,4.968,4.968,0,0,0,2.014-3.059,12.913,12.913,0,0,0,.393-1.911,9.731,9.731,0,0,1,.353-1.643,4.847,4.847,0,1,0-9.477-1.439,5.2,5.2,0,0,0,.865,2.664,4.493,4.493,0,0,0,3.422,2.017.758.758,0,0,1,.508.218c.457.458-.341,1.381-.235,2.019a3.162,3.162,0,0,1-.231,2.377,2.728,2.728,0,0,1-.989.761,10.534,10.534,0,0,1-4.821,1.214A5.407,5.407,0,0,0,442.664,343a5.187,5.187,0,0,0-.651-3.536,9.571,9.571,0,0,1-.461,3.633,4.186,4.186,0,0,1-1.153,1.92,1.835,1.835,0,0,1-2,.4,3.379,3.379,0,0,0,1.556-1.713,5.9,5.9,0,0,0,.428-2.308,9.451,9.451,0,0,0-.088-2.113,5.826,5.826,0,0,1-2.172,3.223,2.313,2.313,0,0,1-.979.466.974.974,0,0,1-.94-.331,3.165,3.165,0,0,0,2.02-2.66,5.825,5.825,0,0,1,.159-1.851,3.762,3.762,0,0,1,1.37-1.344c.518-.39,1.143-1,1.013-1.638a6.277,6.277,0,0,1,1.3-5.6,7.488,7.488,0,0,1,.84-.727,6.427,6.427,0,0,1,1.662-.99,2.768,2.768,0,0,1,1.9-.06c.052-.333.141-.319.411-.428a2.9,2.9,0,0,1,1.106-.2,8.132,8.132,0,0,1,6.538,3.759,2.942,2.942,0,0,1,.421.871,2.9,2.9,0,0,1,.065.765c-.024,1.255-.328,2.5-.292,3.752a3.732,3.732,0,0,0,1.649,3.215A3.557,3.557,0,0,1,454.245,342.738Z" transform="translate(-382.979 -327.143)"/>
      <ellipse id="Ellipse_218" data-name="Ellipse 218" cx="0.575" cy="0.921" rx="0.575" ry="0.921" transform="translate(68.63 7.147)" fill="#ffb8b8"/>
      <path id="Pfad_668" data-name="Pfad 668" d="M608.181,697.373s.178-3.741,3.839-3.306" transform="translate(-510.495 -599.177)" fill="#646464"/>
      <circle id="Ellipse_219" data-name="Ellipse 219" cx="1.832" cy="1.832" r="1.832" transform="translate(94.82 90.973)" fill="#e0aa0b"/>
      <rect id="Rechteck_763" data-name="Rechteck 763" width="0.517" height="3.62" transform="translate(96.354 95.889)" fill="#646464"/>
      <path id="Pfad_669" data-name="Pfad 669" d="M481.181,720.373s.178-3.741,3.838-3.306" transform="translate(-416.33 -616.23)" fill="#646464"/>
      <circle id="Ellipse_220" data-name="Ellipse 220" cx="1.832" cy="1.832" r="1.832" transform="translate(61.986 96.919)" fill="#e0aa0b"/>
      <rect id="Rechteck_764" data-name="Rechteck 764" width="0.517" height="3.62" transform="translate(63.519 101.836)" fill="#646464"/>
    </g>
    <g id="Gruppe_578" data-name="Gruppe 578" transform="translate(990.727 625.47)">
      <path id="Pfad_1048" data-name="Pfad 1048" d="M644.635,428.4a2.014,2.014,0,0,1,.453-3.054l-2.618-12.468,3.47,1.334,2.009,11.911a2.024,2.024,0,0,1-3.314,2.276Z" transform="translate(-615.781 -373.464)" fill="#ffb8b8"/>
      <path id="Pfad_1049" data-name="Pfad 1049" d="M336.975,542.347h2.857l1.359-11.018h-4.216Z" transform="translate(-309.277 -447.983)" fill="#ffb6b6"/>
      <path id="Pfad_1050" data-name="Pfad 1050" d="M644.143,727.636h.8l3.139-1.277,1.682,1.276h0a3.585,3.585,0,0,1,3.585,3.585v.117h-9.211Z" transform="translate(-617.173 -634.205)"/>
      <path id="Pfad_1051" data-name="Pfad 1051" d="M183.573,525.994l2.557,1.274,6.131-9.255-3.773-1.881Z" transform="translate(-181.686 -435.344)" fill="#ffb6b6"/>
      <path id="Pfad_1052" data-name="Pfad 1052" d="M485.5,710.524l.72.359,3.379.258.936,1.893h0a3.585,3.585,0,0,1,1.609,4.808l-.052.1-8.244-4.109Z" transform="translate(-483.852 -621.034)"/>
      <path id="Pfad_1053" data-name="Pfad 1053" d="M530.921,442.078l-18.163.474.316,8.844s-.316,2.369.316,3,.948.632.632,1.737-1.132,11.669-1.132,11.669-7.454,13.181-7.139,13.5.632,0,.316.79-.632.474-.316.79a11.641,11.641,0,0,1,.79.948h5.148s.288-1.579.288-1.737.316-1.106.316-1.264,8.995-9.688,8.995-9.688l1.9-15.794,4.58,15.478s0,13.582.316,13.9.316.158.158.79-.79.474-.316.948.632-.316.474.474l-.158.79,6.068.068s.632-1.331.316-1.805-.3-.344.089-1.12.543-.933.385-1.091-.158-1-.158-1-2.277-31.063-2.277-31.537a1.574,1.574,0,0,1,.131-.71v-.643l-.6-2.279Z" transform="translate(-501.957 -397.754)"/>
      <path id="Pfad_1054" data-name="Pfad 1054" d="M724.5,680.149l.157-3.524a11.38,11.38,0,0,1,5.308-1.344c-2.55,2.084-2.231,6.1-3.959,8.905a6.846,6.846,0,0,1-5.02,3.164l-2.134,1.306a11.471,11.471,0,0,1,2.418-9.3,11.083,11.083,0,0,1,2.036-1.892C723.813,678.817,724.5,680.149,724.5,680.149Z" transform="translate(-679.159 -591.721)" fill="#e0aa0b"/>
      <path id="Pfad_1055" data-name="Pfad 1055" d="M257,115.052l9.1,18.4-1.78,22.329L252.7,154.718l-2.085-36.979Z" transform="translate(-237.445 -101.746)"/>
      <path id="Pfad_1056" data-name="Pfad 1056" d="M632.069,314.9l-5.316-.486-.008-.067-3.568-29.538.8-2.213a3.241,3.241,0,0,1,2.425-2.074h0a3.227,3.227,0,0,1,3.784,2.581l.955,5.157,1.354,17.431Z" transform="translate(-599.735 -263.33)"/>
      <path id="Pfad_1057" data-name="Pfad 1057" d="M593.763,261.263l1.072-2.565,3.318.058,3.46,4.894,3.632,15.273s1.3,11.157,0,11.746-5.726-.138-5.726-.138Z" transform="translate(-575.27 -245.228)" fill="#d1ccc5"/>
      <path id="Pfad_1058" data-name="Pfad 1058" d="M619.857,259.044s7.148,4.132,7.427,6.289,1.216,28.556,1.216,28.556l-2.528-1.633-.691-9.621-3.085-19.7Z" transform="translate(-596.974 -245.516)"/>
      <circle id="Ellipse_290" data-name="Ellipse 290" cx="4.872" cy="4.872" r="4.872" transform="translate(16.324 2.583)" fill="#ffb8b8"/>
      <path id="Pfad_1059" data-name="Pfad 1059" d="M574.232,182.9a2.681,2.681,0,0,1,2.569-1.252,3.508,3.508,0,0,1,5.877-2.046,1.091,1.091,0,0,1,1.067-.107,2.251,2.251,0,0,1,.867.7,5.048,5.048,0,0,1,.706,5.135c.122-.442-.321-.858-.769-.957s-.917-.005-1.371-.07c-.582-.083-1.1-.42-1.688-.5a3.842,3.842,0,0,0-1.46.188,3.958,3.958,0,0,1-1.459.2c-.491-.058-1.122,1.8-1.114,3.11,0,.248-.05.567-.292.619-.3.065-.472-.347-.756-.46a.526.526,0,0,0-.645.343.857.857,0,0,0,.164.768,2.535,2.535,0,0,0,.614.533l-.117.1a.7.7,0,0,1-.879.109,1.9,1.9,0,0,1-.631-.719,8.456,8.456,0,0,1-1.158-2.775A4.041,4.041,0,0,1,574.232,182.9Z" transform="translate(-558.561 -178.643)" fill="#9f7042"/>
      <path id="Pfad_1060" data-name="Pfad 1060" d="M512.478,365.022l9.733-10.442a1.091,1.091,0,0,1,1.54-.054l7.886,7.35a1.091,1.091,0,0,1,.054,1.54l-9.733,10.442a1.091,1.091,0,0,1-1.54.054l-7.886-7.35A1.091,1.091,0,0,1,512.478,365.022Z" transform="translate(-507.418 -324.69)" fill="#646464"/>
      <path id="Pfad_1061" data-name="Pfad 1061" d="M528.965,368.17l6.257-6.713a1.022,1.022,0,0,1,1.442-.051l6.777,6.317a1.022,1.022,0,0,1,.051,1.442l-8.661,9.292a1.022,1.022,0,0,1-1.442.051l-4.2-3.913A4.551,4.551,0,0,1,528.965,368.17Z" transform="translate(-520.361 -330.429)" fill="#fff"/>
      <path id="Pfad_1062" data-name="Pfad 1062" d="M567,378.705a1,1,0,0,1,1.41-.049l4.7,4.382a1,1,0,1,1-1.36,1.459l-4.7-4.382A1,1,0,0,1,567,378.705Z" transform="translate(-552.788 -344.781)" fill="#646464"/>
      <path id="Pfad_1063" data-name="Pfad 1063" d="M554.427,392.194a1,1,0,0,1,1.409-.05l4.7,4.382a1,1,0,1,1-1.36,1.459l-4.7-4.382A1,1,0,0,1,554.427,392.194Z" transform="translate(-542.331 -356)" fill="#646464"/>
      <path id="Pfad_1064" data-name="Pfad 1064" d="M541.854,405.684a1,1,0,0,1,1.409-.049l4.7,4.382a1,1,0,1,1-1.36,1.459l-4.7-4.382A1,1,0,0,1,541.854,405.684Z" transform="translate(-531.873 -367.22)" fill="#646464"/>
      <path id="Pfad_1066" data-name="Pfad 1066" d="M553.75,433.664a2.013,2.013,0,0,1,.453-3.054l-2.618-12.468,3.47,1.334,2.009,11.911a2.024,2.024,0,0,1-3.314,2.276Z" transform="translate(-540.188 -377.846)" fill="#ffb8b8"/>
      <path id="Pfad_1067" data-name="Pfad 1067" d="M543.422,308.29l-1.412-9.1-.531-17.477.394-5.238a3.227,3.227,0,0,1,6.118-1.173l1.032,2.115-.368,29.819Z" transform="translate(-531.783 -257.531)"/>
      <path id="Pfad_1069" data-name="Pfad 1069" d="M587.153,233.112a.336.336,0,1,1,.562.268l.566.929a.168.168,0,0,1-.287.175l-.636-1.045a.335.335,0,0,1-.2-.327Z" transform="translate(-569.772 -223.683)" fill="#fff"/>
      <rect id="Rechteck_915" data-name="Rechteck 915" width="0.168" height="0.505" rx="0.084" transform="translate(17.966 10.061) rotate(153.236)" fill="#2f2e41"/>
    </g>
  </g>
</svg>
