<svg xmlns="http://www.w3.org/2000/svg" width="253.449" height="190.347" viewBox="0 0 253.449 190.347">
  <g id="Gruppe_495" data-name="Gruppe 495" transform="translate(-416.657 -361)">
    <circle id="Ellipse_209" data-name="Ellipse 209" cx="58.401" cy="58.401" r="58.401" transform="translate(482.125 361)" fill="#fff"/>
    <g id="Gruppe_383" data-name="Gruppe 383" transform="translate(502.497 387.383)">
      <rect id="Rechteck_606" data-name="Rechteck 606" width="58.435" height="17.323" transform="translate(8.812 45.327)" fill="#d1ccc5"/>
      <rect id="Rechteck_607" data-name="Rechteck 607" width="6.814" height="13.743" transform="translate(34.623 48.907)" fill="#646464"/>
      <rect id="Rechteck_608" data-name="Rechteck 608" width="51.621" height="15.937" transform="translate(12.219 24.887)" fill="#d1ccc5"/>
      <path id="Pfad_311" data-name="Pfad 311" d="M530.336,249.368H468.248a.52.52,0,0,1-.36-.894l16.969-16.31v-7.1a.52.52,0,0,1,.52-.52h3.349a.52.52,0,0,1,.52.52v2.886l1.282-1.232a11.516,11.516,0,0,1,15.68-.261l24.477,22.009a.52.52,0,0,1-.348.906Z" transform="translate(-461.263 -223.5)" fill="#646464"/>
      <path id="Pfad_312" data-name="Pfad 312" d="M439.21,204.421h0a3.291,3.291,0,0,1,3.291,3.291v4.446h-6.583v-4.446A3.291,3.291,0,0,1,439.21,204.421Z" transform="translate(-413.364 -175.492)" fill="#fff"/>
      <path id="Pfad_313" data-name="Pfad 313" d="M525.3,204.829h0a3.291,3.291,0,0,1,3.291,3.291v4.446h-6.583V208.12A3.291,3.291,0,0,1,525.3,204.829Z" transform="translate(-487.274 -175.842)" fill="#fff"/>
      <path id="Pfad_314" data-name="Pfad 314" d="M611.4,205.237h0a3.291,3.291,0,0,1,3.291,3.291v4.446h-6.583v-4.446A3.291,3.291,0,0,1,611.4,205.237Z" transform="translate(-561.184 -176.193)" fill="#fff"/>
      <path id="Pfad_315" data-name="Pfad 315" d="M645.671,344.373h0a3.291,3.291,0,0,1,3.291,3.291v4.446H642.38v-4.446A3.291,3.291,0,0,1,645.671,344.373Z" transform="translate(-590.608 -295.639)" fill="#fff"/>
      <path id="Pfad_316" data-name="Pfad 316" d="M415.545,344.373h0a3.291,3.291,0,0,1,3.291,3.291v4.446h-6.583v-4.446A3.291,3.291,0,0,1,415.545,344.373Z" transform="translate(-393.048 -295.639)" fill="#fff"/>
      <path id="Pfad_317" data-name="Pfad 317" d="M497.822,516.048l-10.962-4.85a.462.462,0,0,0-.187-.039H434.432a.461.461,0,0,0-.174.034l-11.932,4.85a.462.462,0,0,0,.174.89h3.1v15.937h-.346v1.617h69.636v-1.617h-.577V516.932h3.327a.462.462,0,0,0,.187-.884Zm-4.437,16.821H426.52V516.932h66.865Z" transform="translate(-422.039 -470.45)" fill="#646464"/>
      <rect id="Rechteck_609" data-name="Rechteck 609" width="8.43" height="1.386" transform="translate(21.515 36.031)" fill="#646464"/>
      <rect id="Rechteck_610" data-name="Rechteck 610" width="8.43" height="1.386" transform="translate(33.872 36.031)" fill="#cacaca"/>
      <rect id="Rechteck_611" data-name="Rechteck 611" width="8.43" height="1.386" transform="translate(46.229 36.031)" fill="#646464"/>
      <rect id="Rechteck_612" data-name="Rechteck 612" width="8.43" height="1.386" transform="translate(50.848 56.009)" fill="#646464"/>
      <rect id="Rechteck_613" data-name="Rechteck 613" width="8.43" height="1.386" transform="translate(18.166 56.009)" fill="#646464"/>
      <path id="Pfad_321" data-name="Pfad 321" d="M671.286,431.3h-8.765v-7.012c.162-3.2,2.9-3.463,5.474-3.291a3.291,3.291,0,0,1,3.291,3.291Z" transform="translate(-628.489 -393.018)" fill="#d1ccc5"/>
    </g>
    <g id="Gruppe_491" data-name="Gruppe 491" transform="translate(416.657 419.401)">
      <ellipse id="Ellipse_203" data-name="Ellipse 203" cx="16.809" cy="19.063" rx="16.809" ry="19.063" transform="translate(36.241 66.874)" fill="#454545"/>
      <path id="Pfad_542" data-name="Pfad 542" d="M728.6,226.238a27.425,27.425,0,0,0,12.84,2.224,5.693,5.693,0,0,1-2.146-3.455,9.688,9.688,0,0,1,.121-4.128.673.673,0,0,0-.009-.476.657.657,0,0,0-.513-.244c-1.7-.237-6.58-1.266-7.876.192-.614.691-.379,2.032-.6,2.876C730.317,223.574,729.132,226.472,728.6,226.238Z" transform="translate(-697.122 -203.733)" fill="#fbbebe"/>
      <path id="Pfad_543" data-name="Pfad 543" d="M728.6,226.238a27.425,27.425,0,0,0,12.84,2.224,5.693,5.693,0,0,1-2.146-3.455,9.688,9.688,0,0,1,.121-4.128.673.673,0,0,0-.009-.476.657.657,0,0,0-.513-.244c-1.7-.237-6.58-1.266-7.876.192-.614.691-.379,2.032-.6,2.876C730.317,223.574,729.132,226.472,728.6,226.238Z" transform="translate(-697.122 -203.733)" opacity="0.1"/>
      <path id="Pfad_544" data-name="Pfad 544" d="M536.407,402.75l25.262.777s22.347,21.764,3.886,28.371c0,0-22.736,3.692-28.177-.583C537.379,431.316,530.578,404.5,536.407,402.75Zm1.166,7.19,27.011,1.749a9.875,9.875,0,0,0-9.716-6.607c-7.773,0-16.518-1.749-17.295,2.332S537.573,409.94,537.573,409.94Z" transform="translate(-490.741 -351.306)" fill="#454545"/>
      <path id="Pfad_545" data-name="Pfad 545" d="M589.992,384.185a5.723,5.723,0,0,1,3.734.334,5.949,5.949,0,0,1,1.017.8q.666.611,1.321,1.233a2.139,2.139,0,0,1,.736,1.071c.169.891-.86,1.608-1.766,1.573a9.165,9.165,0,0,1-2.574-.832c-1.723-.6-8.06.428-8.406-1.427C583.614,384.58,588.591,384.408,589.992,384.185Z" transform="translate(-524.411 -336.227)" fill="#fbbebe"/>
      <path id="Pfad_546" data-name="Pfad 546" d="M644.243,373.59a14.3,14.3,0,0,0,5.283,1.5,2.226,2.226,0,0,1,.836.178.844.844,0,0,1,.348.424A12.611,12.611,0,0,1,651.892,380a.385.385,0,0,1-.136.394,1.212,1.212,0,0,1-.571.128q-4.535.288-9.1.309a.949.949,0,0,1-.4-.054.371.371,0,0,1-.182-.225,13.787,13.787,0,0,1-.989-5.593C640.6,372.71,641.257,372,644.243,373.59Z" transform="translate(-590.471 -327.122)" fill="#d7e5f2"/>
      <path id="Pfad_547" data-name="Pfad 547" d="M644.243,373.59a14.3,14.3,0,0,0,5.283,1.5,2.226,2.226,0,0,1,.836.178.844.844,0,0,1,.348.424A12.611,12.611,0,0,1,651.892,380a.385.385,0,0,1-.136.394,1.212,1.212,0,0,1-.571.128q-4.535.288-9.1.309a.949.949,0,0,1-.4-.054.371.371,0,0,1-.182-.225,13.787,13.787,0,0,1-.989-5.593C640.6,372.71,641.257,372,644.243,373.59Z" transform="translate(-590.471 -327.122)" fill="#f5d166" opacity="0.743"/>
      <path id="Pfad_548" data-name="Pfad 548" d="M688.514,339.439l33.229-1.166-7.773-32.841s-31.092-2.332-30.314,5.635S688.514,339.439,688.514,339.439Z" transform="translate(-668.693 -272.643)" fill="#454545"/>
      <path id="Pfad_549" data-name="Pfad 549" d="M547.486,507.3s20,3.539,27.19-6.954-27.205-4.858-27.205-4.858l-2.915,7.967Z" transform="translate(-495.586 -424.802)" fill="#36334a"/>
      <ellipse id="Ellipse_204" data-name="Ellipse 204" cx="9.133" cy="9.133" rx="9.133" ry="9.133" transform="translate(48.775 108.77)" fill="#454545"/>
      <ellipse id="Ellipse_205" data-name="Ellipse 205" cx="5.733" cy="6.607" rx="5.733" ry="6.607" transform="translate(51.301 111.296)" fill="#646464"/>
      <path id="Pfad_550" data-name="Pfad 550" d="M841.9,298.027s7.579-4.275,7.967,5.83l6.413,47.026H853.56l-7.384-50.33s-3.692.583-4.275.583S841.9,298.027,841.9,298.027Z" transform="translate(-833.933 -266.209)" fill="#646464"/>
      <path id="Pfad_551" data-name="Pfad 551" d="M896.639,303.215h0A1.818,1.818,0,0,0,899.1,304.4l8.791-3.759-1.595-3.513-8.664,3.946A1.817,1.817,0,0,0,896.639,303.215Z" transform="translate(-896.223 -266.209)" fill="#454545"/>
      <path id="Pfad_552" data-name="Pfad 552" d="M506.637,556.522s13.991-1.555,17.878,11.854,3.5,23.708,6.8,22.93,10.3-3.5,10.3-3.5l-.583,4.081s-12.242,6.218-14.186-.389-3.109-30.9-14.186-30.315-13.02-.583-13.02-.583Z" transform="translate(-452.81 -475.151)" fill="#646464"/>
      <path id="Pfad_553" data-name="Pfad 553" d="M431.642,523.75s10.882,1.36,15.157,9.328,6.413,22.347,6.413,22.347h-4.081s-2.332-28.566-14.574-27.011Z" transform="translate(-351.192 -448.792)" fill="#646464"/>
      <path id="Pfad_554" data-name="Pfad 554" d="M427.4,685.879,444.7,675.191s.972-3.886-10.1-5.441c0,0-20.942,7.324-18.924,10.075S424.486,686.85,427.4,685.879Z" transform="translate(-339.567 -566.421)" fill="#454545"/>
      <path id="Pfad_555" data-name="Pfad 555" d="M451.026,464.389v22.736H448.5V464Z" transform="translate(-390.009 -379.715)" fill="#646464"/>
      <path id="Pfad_556" data-name="Pfad 556" d="M636.43,645.75s-4.858,19.044-1.749,21.764c0,0,4.081-12.048,7.19-10.493L640.9,645.75Z" transform="translate(-579.104 -547.085)" fill="#454545"/>
      <ellipse id="Ellipse_206" data-name="Ellipse 206" cx="7.579" cy="7.579" rx="7.579" ry="7.579" transform="translate(30.897 4.224)" fill="#fbbebe"/>
      <path id="Pfad_557" data-name="Pfad 557" d="M690.608,247.032c-3.091.525-5.762-3.068-8.856-2.563a5.942,5.942,0,0,0-1.9.749,18.879,18.879,0,0,0-9.1,12.188,7.494,7.494,0,0,0,.174,4.7,8.944,8.944,0,0,0,1.457,2.078c2.059,2.394,4.318,4.78,7.255,5.938a5.09,5.09,0,0,1-.333,3.045c-1.436,4.073.848,8.462.964,12.779a3.464,3.464,0,0,0,.46,2.124,2.984,2.984,0,0,0,2.246.8c7.5.423,15-.728,22.425-1.876a1.127,1.127,0,0,0,.545-.184,1.307,1.307,0,0,0,.333-.852c.275-1.631-1.173-2.954-.486-4.459,1.181-2.587-1.395-5.416-2.138-8.162a56.328,56.328,0,0,1-1.555-6.024c-.194-1.045.365-4.2.194-5.247-.558-3.428-.136-7.333-1.943-10.3-1.086-1.782-.8-3.168-2.742-3.943C695.562,247.012,692.8,247.287,690.608,247.032Z" transform="translate(-650.698 -223.743)" fill="#f5d166"/>
      <path id="Pfad_558" data-name="Pfad 558" d="M484.4,464.489c2.262.436,4.665.852,6.406,2.362a12.432,12.432,0,0,1,2.472,3.4l7.083,12.488c2.16,3.809,4.322,7.62,6.28,11.536a2.08,2.08,0,0,1,.293.938,1.916,1.916,0,0,1-.644,1.208,10.33,10.33,0,0,1-8.745,3.075c-.487-2.523-2.885-4.19-4.06-6.475A24.2,24.2,0,0,1,492.164,489c-1.555-5.031-5.246-9.071-8.829-12.929a23.347,23.347,0,0,0-5.61-4.875c-2.56-1.4-5.531-1.792-8.391-2.375s-5.823-1.467-7.847-3.571a8.426,8.426,0,0,1-2.244-6.863,14.893,14.893,0,0,1,5.64.223c2.053.685,4.039,1.62,6.1,2.32A101.266,101.266,0,0,0,484.4,464.489Z" transform="translate(-410.266 -396.004)" fill="#696880"/>
      <path id="Pfad_559" data-name="Pfad 559" d="M484.4,464.489c2.262.436,4.665.852,6.406,2.362a12.432,12.432,0,0,1,2.472,3.4l7.083,12.488c2.16,3.809,4.322,7.62,6.28,11.536a2.08,2.08,0,0,1,.293.938,1.916,1.916,0,0,1-.644,1.208,10.33,10.33,0,0,1-8.745,3.075c-.487-2.523-2.885-4.19-4.06-6.475A24.2,24.2,0,0,1,492.164,489c-1.555-5.031-5.246-9.071-8.829-12.929a23.347,23.347,0,0,0-5.61-4.875c-2.56-1.4-5.531-1.792-8.391-2.375s-5.823-1.467-7.847-3.571a8.426,8.426,0,0,1-2.244-6.863,14.893,14.893,0,0,1,5.64.223c2.053.685,4.039,1.62,6.1,2.32A101.266,101.266,0,0,0,484.4,464.489Z" transform="translate(-410.266 -396.004)" fill="#9f7042" opacity="0.868"/>
      <path id="Pfad_560" data-name="Pfad 560" d="M431.306,663.78a1.59,1.59,0,0,1,.558.721c.257.876-.84,1.494-1.717,1.746-1.972.567-4.076,1.136-6.043.551-1.206-.359-2.256-1.127-3.454-1.511a11.586,11.586,0,0,0-5.543.082,12,12,0,0,1,.795-6.848c.59-1.361,2.951-2.023,4.357-2.083,1.537-.065,2.07,1.069,2.957,2.112C425.376,661.092,428.817,661.681,431.306,663.78Z" transform="translate(-326.633 -555.694)"/>
      <path id="Pfad_561" data-name="Pfad 561" d="M555.19,469.318A9.385,9.385,0,0,1,558.245,471a8.924,8.924,0,0,1,1.908,3.144,87.8,87.8,0,0,1,3.62,10.327c.5,1.776.947,3.572,1.621,5.289,1.346,3.427,3.631,6.709,3.416,10.385a2.463,2.463,0,0,1-.348,1.269,2.915,2.915,0,0,1-1.317.891l-2.584,1.122c-1.387.6-3.079,1.181-4.317.315a4.325,4.325,0,0,1-1.41-2.611c-.9-3.54-1.461-7.217-3.079-10.492-1.829-3.7-4.921-6.694-6.558-10.485a3.634,3.634,0,0,0-.906-1.478,3.211,3.211,0,0,0-1.334-.528c-9.7-2.21-19.628-3.418-29.255-5.945a7.745,7.745,0,0,1-3.777-1.81c-1.354-1.42-1.474-3.579-1.518-5.54a5.515,5.515,0,0,1,.727-3.539c.845-1.1,2.359-1.39,3.738-1.535,5.288-.556,10.166.32,15.374.962,4.765.587,9.565,3.277,14.011,5.034Q550.726,467.542,555.19,469.318Z" transform="translate(-482.499 -397.111)" fill="#9f7042"/>
      <path id="Pfad_562" data-name="Pfad 562" d="M506.037,676.085a11.147,11.147,0,0,0,2.985,4.683c.616.482,1.412.965,1.437,1.747.026.827-.843,1.373-1.621,1.654a8.476,8.476,0,0,1-6.174.031,13.089,13.089,0,0,1-3.479-2.534,2.747,2.747,0,0,1-.8-1.009,2.611,2.611,0,0,1-.09-1.06,27.161,27.161,0,0,1,1.147-6.362,24.076,24.076,0,0,1,4.6-.587C505.207,672.953,505.587,675.016,506.037,676.085Z" transform="translate(-421.388 -568.747)"/>
      <path id="Pfad_563" data-name="Pfad 563" d="M670.407,432.75l25.262.777s22.347,21.764,3.886,28.371c0,0-22.736,3.692-28.177-.583C671.379,461.316,664.578,434.5,670.407,432.75Zm1.166,7.19,27.011,1.749a9.874,9.874,0,0,0-9.716-6.607c-7.773,0-16.517-1.749-17.295,2.332S671.573,439.94,671.573,439.94Z" transform="translate(-650.781 -375.476)" fill="#646464"/>
      <ellipse id="Ellipse_207" data-name="Ellipse 207" cx="25.359" cy="28.76" rx="25.359" ry="28.76" transform="translate(0 69.517)" fill="#454545"/>
      <ellipse id="Ellipse_208" data-name="Ellipse 208" cx="19.141" cy="21.376" rx="19.141" ry="21.376" transform="translate(5.052 76.901)" fill="#646464"/>
      <path id="Pfad_564" data-name="Pfad 564" d="M745.827,539.174a5.7,5.7,0,0,1,.111-1.11l-14.3-7.148.972-2.138,14.442,7.036a3.016,3.016,0,0,1,.48-.4l-.011,0L743.3,514.4l3.735-.085L749.519,535l-.238.05a2.324,2.324,0,0,1,.557.19l12.49-12.821,1.765,2.476L751.261,536.7a5.162,5.162,0,0,1,.568,1.99l18.094,7.385.389,3.109-18.861-7.932a4.123,4.123,0,0,1-.737,1.191l5.8,19.76h-2.138l-4.869-18.956a2.217,2.217,0,0,1-.669.107,2.315,2.315,0,0,1-1.235-.37l-10.133,13.39-3.109-2.138,11.872-12.968A5.435,5.435,0,0,1,745.827,539.174Z" transform="translate(-726.589 -441.189)" fill="#454545"/>
      <path id="Pfad_565" data-name="Pfad 565" d="M730.659,145.018c-.342-.86-1.446-1.215-1.808-2.067-.389-.916.221-2.082-.308-2.924s-1.776-.75-2.765-.586a6.319,6.319,0,0,1-3.5-.139c-.484-.206-.914-.521-1.384-.76a4.887,4.887,0,0,0-2.412-.524,1.094,1.094,0,0,0-.541.129,1.014,1.014,0,0,0-.351.453c-.341.738-.389,1.659-1.006,2.188a4.211,4.211,0,0,1-1.036.537,4.484,4.484,0,0,0-2.514,4.474,9.114,9.114,0,0,1,.153,1.281c-.024.945-.642,1.889-.326,2.78a2.294,2.294,0,0,0,1.593,1.258.914.914,0,0,0,.6.03c.345-.14.414-.583.524-.938a2.3,2.3,0,0,1,2.23-1.571c.784.033,1.577.474,2.317.212a3.081,3.081,0,0,0,.938-.663A4.646,4.646,0,0,1,723.4,147a2.5,2.5,0,0,1,2.369.893c.209.291.335.634.535.932C728.1,151.5,731.4,146.875,730.659,145.018Z" transform="translate(-683.375 -138.014)"/>
      <path id="Pfad_566" data-name="Pfad 566" d="M711.8,411.061a2.062,2.062,0,0,1,1.8.672c1.7,1.549,3.5,3.3,3.811,5.575a.939.939,0,0,1-.07.617.959.959,0,0,1-.838.333,5.576,5.576,0,0,1-4.214-1.861,3.233,3.233,0,0,0-.959-.9,2.5,2.5,0,0,0-1.145-.142c-1.067.035-3.5.581-4.433.052-.978-.556-.709-2.3-.253-3.142C706.583,410.269,709.948,411.041,711.8,411.061Z" transform="translate(-668.55 -357.87)" fill="#fbbebe"/>
      <path id="Pfad_567" data-name="Pfad 567" d="M752.683,305.425c-.654,2.1-.271,4.469-1.2,6.466-.615,1.326-1.77,2.394-2.128,3.811a4.884,4.884,0,0,0,.909,3.91,12.972,12.972,0,0,0,3.01,2.818,14.677,14.677,0,0,0,3.908,2.264,16.09,16.09,0,0,0,4.464.628l9.985.458,1.839-5.513-6.506-2.548a7.023,7.023,0,0,0-2.012-.565c-1.2-.089-2.673.353-3.446-.574a2.511,2.511,0,0,1-.454-1.155c-.631-3.239-.082-6.666-1.053-9.819-.481-1.561-1.868-4.692-3.76-4.967C754.238,300.346,753.136,303.966,752.683,305.425Z" transform="translate(-733.172 -269.023)" fill="#f5d166"/>
    </g>
    <g id="Gruppe_410" data-name="Gruppe 410" transform="translate(473.237 404.258)">
      <g id="Gruppe_318" data-name="Gruppe 318" transform="translate(118.839 18.947)">
        <path id="uuid-070545a9-7559-45f6-9b62-076b2f028fa8" d="M321.613,104.644c-2.008-1.868-2.671-4.418-1.482-5.7s3.78-.8,5.789,1.07a6.863,6.863,0,0,1,1.821,2.682l8.407,8.023-3.849,3.865-7.879-8.319A6.864,6.864,0,0,1,321.613,104.644Z" transform="translate(-319.541 -97.84)" fill="#a0616a"/>
        <path id="Pfad_222" data-name="Pfad 222" d="M377.969,104.95l-16.228,17.277s-3.644,3.606-9.64-1.594S339.441,106.9,339.441,106.9l3.74-4.07,6.624,5.909s3.933,1.582,4.206,2.606-.491,1.447.738,1.119,1.253-1.06,1.33.05-.673,2.407.746,1.151,1.843-.492,1.843-.492l10.372-13.739s6.7-5.3,8.629-.549S377.969,104.95,377.969,104.95Z" transform="translate(-333.548 -96.91)" fill="#e0aa0b"/>
      </g>
      <rect id="Rechteck_533" data-name="Rechteck 533" width="15.629" height="23.093" transform="translate(165.34 30.539) rotate(180)"/>
      <path id="Pfad_225" data-name="Pfad 225" d="M442.289,96.557l-.547-6.614h-7.277l-1.613,7.008Z" transform="translate(-280.458 -73.059)" fill="#a0616a"/>
      <path id="Pfad_226" data-name="Pfad 226" d="M442.289,96.557l-.547-6.614h-7.277l-1.613,7.008Z" transform="translate(-280.458 -73.059)" opacity="0.1"/>
      <circle id="Ellipse_132" data-name="Ellipse 132" cx="7.955" cy="7.955" r="7.955" transform="translate(148.545 3.078)" fill="#a0616a"/>
      <path id="Pfad_229" data-name="Pfad 229" d="M439.941,35.593s0-3.266,3.032-2.566,3.966,1.866,3.966,1.866a4.815,4.815,0,0,0,3.032,2.1c1.866.233,3.5,5.6,3.266,6.765s-1.4,4.2.233,5.6,3.966,3.5,3.266,5.6-2.8,7.464-2.8,7.464,5.855.856,5.377,4.51a11.753,11.753,0,0,0-6.543-2.177c-3.732,0-3.266-6.771-3.266-6.771s-.233-4.192-.933-5.359.233-7.7-3.266-11.2-5.365-5.832-5.365-5.832Z" transform="translate(-285.448 -32.929)"/>
      <path id="Pfad_230" data-name="Pfad 230" d="M400.451,39.563a8.875,8.875,0,0,0-6.065,5.365c-1.633,4.432-.808,5.257-.808,5.257s-.361,2.669-2.342,3.6-.349,4.9-.349,4.9-.466,3.966-6.765,5.365,7.9,12.132,7.9,12.132-1.021-5.066,5.511-5.3-1.279-12.2-1.279-12.2l-.7-7.7s1.4-8.864,5.6-10.03-.7-1.4-.7-1.4Z" transform="translate(-245.024 -37.598)"/>
      <g id="Gruppe_321" data-name="Gruppe 321" transform="translate(142.404 122.62)">
        <path id="Pfad_235" data-name="Pfad 235" d="M443.7,467.916H438.28L435.7,447h8Z" transform="translate(-424.867 -447)" fill="#a0616a"/>
        <path id="Pfad_236" data-name="Pfad 236" d="M399.374,502.673h0a4.655,4.655,0,0,0-.258,1.533h0a1.84,1.84,0,0,0,1.84,1.84h16.792A1.255,1.255,0,0,0,419,504.79v-.7a5.368,5.368,0,0,0-.88-4.691s-2.126,2.028-5.3-1.148l-.937-1.7-6.78,4.959-3.758.463c-.822.1-1.551-.016-1.974.7Z" transform="translate(-399.116 -481.88)"/>
      </g>
      <g id="Gruppe_322" data-name="Gruppe 322" transform="translate(165.375 117.811)">
        <path id="Pfad_237" data-name="Pfad 237" d="M498.31,450.1l-5.013,2.068-10.362-18.35,7.4-3.052Z" transform="translate(-481.085 -430.762)" fill="#a0616a"/>
        <path id="Pfad_238" data-name="Pfad 238" d="M476.692,494.811h0a4.657,4.657,0,0,0,.346,1.515h0a1.84,1.84,0,0,0,2.4,1l15.523-6.405a1.256,1.256,0,0,0,.682-1.639l-.267-.646a5.367,5.367,0,0,0-2.6-4s-1.191,2.685-5.339.961l-1.513-1.211-4.376,7.17-3.3,1.861c-.721.407-1.44.577-1.559,1.4Z" transform="translate(-476.686 -468.504)"/>
      </g>
      <path id="Pfad_239" data-name="Pfad 239" d="M424.553,243.756,422.34,252.2l.589,13.709.977,22.77.028.642.11,2.56.509,11.823h-10.9L408.8,270.681l-3.836-26.106.4-13.294.021-.7s19.5-.848,21.619,1.908S424.553,243.756,424.553,243.756Z" transform="translate(-260.826 -171.967)" fill="#646464"/>
      <path id="Pfad_240" data-name="Pfad 240" d="M439.723,295.732l-1.848.956-6.835,3.537-1,.517-5.994-8.334L408.8,271.2,404.96,245.1l.4-13.294c1.725-.549,3.105-.774,3.8-.447,3.15,1.473,3,11.13,3,11.13l1.918,8.52,8.845,15.43Z" transform="translate(-260.826 -172.488)" fill="#646464" opacity="0.996"/>
      <g id="Gruppe_323" data-name="Gruppe 323" transform="translate(108.937 108.91)">
        <path id="Pfad_241" data-name="Pfad 241" d="M335.057,442.267c-.14-.429-1.2-.24-1.306-.624s.919-.7,1.7-1.782c.141-.194,1.03-1.42.689-1.935-.647-.977-5.145,1.456-6.225.091a18.037,18.037,0,0,0-1.04-1.771c-.281-.381-.461-.565-.676-.559-.305.008-.415.39-.895,1.082-.72,1.038-.98.908-1.454,1.758-.352.631-.394,1.035-.648,1.059-.359.034-.508-.753-.947-.783s-.9.746-1.119,1.353a6,6,0,0,0-.1,2.877,7.108,7.108,0,0,1-1.108,4.094l-9.662,15.394c2.075-3.138,7.965-11.7,10.338-14.834a4.241,4.241,0,0,1,2.554-1.987c1.091-.165,2.418.375,4.271.343.216,0,.819-.022.965-.341.121-.264-.18-.493-.07-.741.147-.333.807-.19,1.706-.411a4.912,4.912,0,0,0,1.436-.635c.112-.067,1.776-1.075,1.589-1.646Z" transform="translate(-304.52 -425.326)" fill="#d1ccc5"/>
        <path id="Pfad_242" data-name="Pfad 242" d="M291.336,465.8c-.251-.055-.465.521-.683.461s-.08-.654-.384-1.349c-.055-.125-.4-.915-.751-.9-.666.035-.77,2.945-1.751,3.081a10.262,10.262,0,0,0-1.17,0c-.268.028-.41.063-.47.171-.084.152.072.316.273.751.3.653.163.743.443,1.221.208.355.394.492.333.623-.087.186-.516.032-.657.239s.107.655.341.939a3.417,3.417,0,0,0,1.383.88,4.047,4.047,0,0,1,1.69,1.725l4.768,9.184c-.941-1.924-3.442-7.284-4.3-9.354a2.414,2.414,0,0,1-.238-1.827c.234-.583.882-1.079,1.4-2,.061-.107.226-.408.111-.572-.095-.136-.294-.054-.384-.179-.121-.168.14-.451.291-.956a2.8,2.8,0,0,0,.1-.888c0-.074-.015-1.182-.35-1.255Z" transform="translate(-286.104 -445.268)" fill="#d1ccc5"/>
        <path id="Pfad_243" data-name="Pfad 243" d="M319.832,465.192l.15-1.384.092-.087a2.559,2.559,0,0,0,.791-1.266c.016-.07.028-.14.041-.212a2.163,2.163,0,0,1,.385-1.005c.153-.2.558-.667.976-.506a.5.5,0,0,1,.242.193l.041-.041a1.523,1.523,0,0,1,.428-.3,1.778,1.778,0,0,0,.353-.227c.072-.057.129-.109.177-.152a.65.65,0,0,1,.591-.223.693.693,0,0,1,.427.506,3.332,3.332,0,0,1,.167.657,1.051,1.051,0,0,0,.025.127c.06.15.807.189,1.089.205.632.034,1.18.064,1.311.5.094.31-.1.648-.6,1.031a2.258,2.258,0,0,1-.447.263.463.463,0,0,1,.154.332h0c.009.345-.345.611-1.053.789a2.3,2.3,0,0,1-.722.089,2.691,2.691,0,0,1-.383-.05.455.455,0,0,1-.1.188.684.684,0,0,1-.758.125,5.581,5.581,0,0,1-.949-.378,2.446,2.446,0,0,0-.6-.231,1.4,1.4,0,0,0-.953.406l-.874.656h0Z" transform="translate(-309.844 -442.417)" fill="#d1ccc5"/>
        <path id="Pfad_244" data-name="Pfad 244" d="M313.7,436l-1.376.206-.107-.067a2.559,2.559,0,0,0-1.425-.444c-.071,0-.143.008-.215.014a2.164,2.164,0,0,1-1.07-.117c-.237-.1-.787-.371-.737-.815a.5.5,0,0,1,.125-.283l-.051-.03a1.522,1.522,0,0,1-.4-.338,1.779,1.779,0,0,0-.309-.284c-.074-.055-.138-.1-.192-.133a.649.649,0,0,1-.366-.515.693.693,0,0,1,.381-.542,3.334,3.334,0,0,1,.593-.328,1.052,1.052,0,0,0,.117-.056c.13-.1-.022-.829-.078-1.105-.127-.62-.237-1.157.148-1.394.276-.17.652-.065,1.15.321a2.256,2.256,0,0,1,.368.365.463.463,0,0,1,.282-.233h0c.332-.1.678.179,1.031.819a2.3,2.3,0,0,1,.27.676,2.687,2.687,0,0,1,.048.383.456.456,0,0,1,.207.049.684.684,0,0,1,.313.7,5.582,5.582,0,0,1-.125,1.013,2.446,2.446,0,0,0-.071.639c.037.313.3.546.634.819l.856.679h0Z" transform="translate(-301.217 -421.11)" fill="#d1ccc5"/>
        <path id="Pfad_245" data-name="Pfad 245" d="M328.881,424.624l.15-1.384.092-.087a2.559,2.559,0,0,0,.791-1.266c.016-.07.028-.14.041-.212a2.163,2.163,0,0,1,.385-1.005c.153-.2.558-.667.976-.506a.5.5,0,0,1,.242.193l.041-.041a1.523,1.523,0,0,1,.428-.3,1.779,1.779,0,0,0,.353-.227c.072-.057.129-.109.177-.152a.65.65,0,0,1,.591-.223.693.693,0,0,1,.427.506,3.334,3.334,0,0,1,.167.657,1.044,1.044,0,0,0,.025.127c.06.15.807.189,1.089.205.632.034,1.18.064,1.311.5.094.31-.1.648-.6,1.031a2.26,2.26,0,0,1-.447.263.463.463,0,0,1,.154.332h0c.009.345-.345.611-1.053.789a2.3,2.3,0,0,1-.722.089,2.678,2.678,0,0,1-.383-.05.455.455,0,0,1-.1.188.684.684,0,0,1-.758.125,5.586,5.586,0,0,1-.949-.378,2.444,2.444,0,0,0-.6-.231,1.4,1.4,0,0,0-.953.406l-.874.656h0Z" transform="translate(-316.213 -413.863)" fill="#d1ccc5"/>
        <path id="Pfad_246" data-name="Pfad 246" d="M312.4,448.9l-.243-.24,0-.342,0,.342-.338-.036c0-.032,0-.106,0-.222a48.365,48.365,0,0,1,.216-5.55,55.707,55.707,0,0,1,.935-6.269c.433-2.086.883-3.638,1.244-4.886.272-.941.547-1.833.816-2.7a52.649,52.649,0,0,0,1.812-7.019,6.713,6.713,0,0,0-.11-3.094,6.362,6.362,0,0,0-1.177-2.226l.532-.43a7.056,7.056,0,0,1,1.3,2.466,7.351,7.351,0,0,1,.128,3.4,53.156,53.156,0,0,1-1.833,7.106c-.267.866-.541,1.755-.812,2.692-.358,1.236-.8,2.775-1.231,4.834a55.022,55.022,0,0,0-.924,6.192,47.591,47.591,0,0,0-.213,5.474c.007.335.008.4-.1.513h0Z" transform="translate(-304.192 -411.628)" fill="#d1ccc5"/>
        <path id="Pfad_247" data-name="Pfad 247" d="M315.447,406.518c-.027-.006-.055-.013-.083-.021a2.186,2.186,0,0,1-1.339-1.36,4.781,4.781,0,0,1-.261-1.454,8.539,8.539,0,0,1,0-1.447c.04-.5.093-.7.229-.853a1.044,1.044,0,0,1,.566-.325.386.386,0,0,1,.07-.191c.176-.253.47-.149.63-.095a1.683,1.683,0,0,0,.293.085.859.859,0,0,0,.443-.047,1.9,1.9,0,0,1,.607-.1,2.039,2.039,0,0,1,1.031.318,3,3,0,0,1,1.166,1.784,5.222,5.222,0,0,1,.27,1.378,1.529,1.529,0,0,1-.111.85c-.153.3-.388.44-.97.733a9.181,9.181,0,0,1-1.164.54,2.57,2.57,0,0,1-1.378.2h0Z" transform="translate(-305.552 -400.705)" fill="#d1ccc5"/>
      </g>
      <path id="Pfad_248" data-name="Pfad 248" d="M196.87,528.2h0a.268.268,0,0,1-.284.249H0v-.5H196.586A.268.268,0,0,1,196.87,528.2Z" transform="translate(0 -381.358)" fill="#d1ccc5"/>
      <path id="Pfad_251" data-name="Pfad 251" d="M413,105.875l.194-.055,9.556-2.7,7.63,10.386L425.3,135.124l1.908,8.69s-15.473-4.027-21.619-.636a6.192,6.192,0,0,1,0-2.874c.424-.941,1.06-4.858.424-6.609s1.272-10.017,1.272-10.017-.636-5.511,2.12-8.266S413,105.875,413,105.875Z" transform="translate(-261.134 -82.334)" fill="#e0aa0b"/>
      <g id="Gruppe_324" data-name="Gruppe 324" transform="translate(131.407 27.539)">
        <path id="uuid-7eb47ac4-3db4-4d62-bd0a-b38893e38622" d="M366.7,213.851c-2.735-.206-4.845-1.784-4.714-3.524s2.455-2.984,5.19-2.777a6.864,6.864,0,0,1,3.1.958l11.576,1.019-.594,5.422-11.349-1.58A6.864,6.864,0,0,1,366.7,213.851Z" transform="translate(-361.982 -183.361)" fill="#a0616a"/>
        <path id="Pfad_258" data-name="Pfad 258" d="M423.6,130.942l-1.892,23.627s-.6,5.092-8.526,4.772-18.463-2.822-18.463-2.822l.381-5.514,8.864.481s4.06-1.219,4.913-.59.52,1.437,1.275.414.317-1.61,1.07-.791.977,2.3,1.3.433,1.133-1.535,1.133-1.535l-.474-17.207s1.927-8.324,6.4-5.816S423.6,130.942,423.6,130.942Z" transform="translate(-385.025 -125.925)" fill="#e0aa0b"/>
      </g>
    </g>
  </g>
</svg>
