<svg xmlns="http://www.w3.org/2000/svg" width="408.682" height="203.666" viewBox="0 0 408.682 203.666">
  <g id="Gruppe_542" data-name="Gruppe 542" transform="translate(0 0)">
    <ellipse id="Ellipse_151" data-name="Ellipse 151" cx="20.089" cy="20.089" rx="20.089" ry="20.089" transform="translate(91.495 126.397)" fill="#d1ccc5"/>
    <path id="Pfad_307" data-name="Pfad 307" d="M354.463,519.474a20.09,20.09,0,0,0,33.474,21.262,20.091,20.091,0,1,1-33.474-21.262Z" transform="translate(-257.712 -386.406)" fill="#646464" opacity="0.2" style="mix-blend-mode: normal;isolation: isolate"/>
    <path id="Pfad_308" data-name="Pfad 308" d="M247.026,325.819h.055l.994,56.955h-2.1Z" transform="translate(-135.387 -179.333)" fill="#3f3d56"/>
    <ellipse id="Ellipse_152" data-name="Ellipse 152" cx="40.503" cy="40.503" rx="40.503" ry="40.503" transform="translate(30.435 48.107)" fill="#9f7042"/>
    <path id="Pfad_309" data-name="Pfad 309" d="M224.2,360.416a40.506,40.506,0,0,0,67.49,42.867,40.506,40.506,0,1,1-67.49-42.867Z" transform="translate(-183.167 -298.859)" opacity="0.2" style="mix-blend-mode: normal;isolation: isolate"/>
    <path id="Pfad_310" data-name="Pfad 310" d="M155.441,197.087h.112l2,114.832h-4.228Z" transform="translate(-84.392 -108.478)" fill="#3f3d56"/>
    <rect id="Rechteck_606" data-name="Rechteck 606" width="185.647" height="55.034" transform="translate(152.327 144.005)" fill="#d1ccc5"/>
    <rect id="Rechteck_607" data-name="Rechteck 607" width="21.647" height="43.66" transform="translate(234.327 155.379)" fill="#646464"/>
    <rect id="Rechteck_608" data-name="Rechteck 608" width="164.001" height="50.631" transform="translate(163.15 79.065)" fill="#d1ccc5"/>
    <path id="Pfad_311" data-name="Pfad 311" d="M666.634,305.684H469.38a1.651,1.651,0,0,1-1.144-2.841l53.91-51.818V228.453A1.653,1.653,0,0,1,523.8,226.8h10.64a1.653,1.653,0,0,1,1.651,1.651v9.17l4.072-3.914a36.585,36.585,0,0,1,49.815-.828L667.738,302.8a1.651,1.651,0,0,1-1.1,2.879Z" transform="translate(-322.856 -223.5)" fill="#646464"/>
    <path id="Pfad_312" data-name="Pfad 312" d="M446.375,204.421h0a10.456,10.456,0,0,1,10.456,10.456V229H435.919V214.877A10.456,10.456,0,0,1,446.375,204.421Z" transform="translate(-239.932 -112.514)" fill="#fff"/>
    <path id="Pfad_313" data-name="Pfad 313" d="M532.469,204.829h0a10.456,10.456,0,0,1,10.456,10.456V229.41H522.012V215.285A10.456,10.456,0,0,1,532.469,204.829Z" transform="translate(-287.318 -112.739)" fill="#fff"/>
    <path id="Pfad_314" data-name="Pfad 314" d="M618.562,205.237h0a10.456,10.456,0,0,1,10.456,10.456v14.125H608.106V215.693a10.456,10.456,0,0,1,10.457-10.456Z" transform="translate(-334.705 -112.963)" fill="#fff"/>
    <path id="Pfad_315" data-name="Pfad 315" d="M652.836,344.373h0a10.456,10.456,0,0,1,10.456,10.456v14.125H642.38V354.83A10.456,10.456,0,0,1,652.836,344.373Z" transform="translate(-353.569 -189.545)" fill="#fff"/>
    <path id="Pfad_316" data-name="Pfad 316" d="M422.71,344.373h0a10.456,10.456,0,0,1,10.456,10.456v14.125H412.254V354.83A10.456,10.456,0,0,1,422.71,344.373Z" transform="translate(-226.907 -189.545)" fill="#fff"/>
    <path id="Pfad_317" data-name="Pfad 317" d="M662.8,526.693l-34.825-15.409a1.468,1.468,0,0,0-.594-.125H461.414a1.467,1.467,0,0,0-.553.108l-37.907,15.409a1.468,1.468,0,0,0,.553,2.827h9.835v50.631h-1.1v5.136H653.477v-5.136h-1.834V529.5h10.569a1.468,1.468,0,0,0,.594-2.81Zm-14.1,53.44H436.277V529.5h212.43Z" transform="translate(-297.708 -381.828)" fill="#646464"/>
    <rect id="Rechteck_609" data-name="Rechteck 609" width="26.783" height="4.403" transform="translate(192.685 114.47)" fill="#646464"/>
    <rect id="Rechteck_610" data-name="Rechteck 610" width="26.783" height="4.403" transform="translate(231.942 114.47)" fill="#cacaca"/>
    <rect id="Rechteck_611" data-name="Rechteck 611" width="26.783" height="4.403" transform="translate(271.2 114.47)" fill="#646464"/>
    <rect id="Rechteck_612" data-name="Rechteck 612" width="26.783" height="4.403" transform="translate(285.875 177.942)" fill="#646464"/>
    <rect id="Rechteck_613" data-name="Rechteck 613" width="26.783" height="4.403" transform="translate(182.045 177.942)" fill="#646464"/>
    <path id="Pfad_318" data-name="Pfad 318" d="M553.732,675.4H145.95a.45.45,0,0,1,0-.9H553.732a.45.45,0,1,1,0,.9Z" transform="translate(-145.5 -471.733)" fill="#646464"/>
    <path id="Pfad_321" data-name="Pfad 321" d="M690.368,453.82H662.521V431.544c.514-10.18,9.215-11,17.391-10.456a10.456,10.456,0,0,1,10.456,10.457Z" transform="translate(-430.071 -332.184)" fill="#d1ccc5"/>
  </g>
</svg>
