<svg xmlns="http://www.w3.org/2000/svg" width="308.367" height="370.556" viewBox="0 0 308.367 370.556">
  <g id="Gruppe_584" data-name="Gruppe 584" transform="translate(0)">
    <ellipse id="Ellipse_295" data-name="Ellipse 295" cx="62.206" cy="62.206" rx="62.206" ry="62.206" transform="translate(46.461 0)" fill="#fff"/>
    <g id="Gruppe_582" data-name="Gruppe 582" transform="translate(0 93.65)">
      <g id="Gruppe_491" data-name="Gruppe 491" transform="translate(144.982 68.306)">
        <ellipse id="Ellipse_203" data-name="Ellipse 203" cx="26.089" cy="29.587" rx="26.089" ry="29.587" transform="translate(56.249 103.793)" fill="#454545"/>
        <path id="Pfad_542" data-name="Pfad 542" d="M728.6,229.911a42.566,42.566,0,0,0,19.929,3.452A8.836,8.836,0,0,1,745.195,228a15.033,15.033,0,0,1,.188-6.407,1.046,1.046,0,0,0-.014-.739,1.021,1.021,0,0,0-.8-.379c-2.643-.368-10.212-1.965-12.225.3-.954,1.072-.588,3.154-.937,4.464C731.267,225.777,729.427,230.275,728.6,229.911Z" transform="translate(-679.747 -194.982)" fill="#fbbebe"/>
        <path id="Pfad_543" data-name="Pfad 543" d="M728.6,229.911a42.566,42.566,0,0,0,19.929,3.452A8.836,8.836,0,0,1,745.195,228a15.033,15.033,0,0,1,.188-6.407,1.046,1.046,0,0,0-.014-.739,1.021,1.021,0,0,0-.8-.379c-2.643-.368-10.212-1.965-12.225.3-.954,1.072-.588,3.154-.937,4.464C731.267,225.777,729.427,230.275,728.6,229.911Z" transform="translate(-679.747 -194.982)" opacity="0.1"/>
        <path id="Pfad_544" data-name="Pfad 544" d="M537.711,402.75l39.209,1.206s34.684,33.78,6.032,44.034c0,0-35.288,5.73-43.733-.9C539.219,447.086,528.663,405.464,537.711,402.75Zm1.81,11.159,41.923,2.714s-3.016-10.255-15.08-10.255-25.636-2.714-26.843,3.619S539.52,413.909,539.52,413.909Z" transform="translate(-466.834 -322.905)" fill="#454545"/>
        <path id="Pfad_545" data-name="Pfad 545" d="M593.286,384.268c1.956-.3,4.082-.472,5.795.518a9.232,9.232,0,0,1,1.579,1.246q1.033.949,2.051,1.914a3.319,3.319,0,0,1,1.142,1.662c.262,1.383-1.335,2.5-2.741,2.442s-2.668-.827-4-1.292c-2.674-.937-12.509.665-13.047-2.215C583.386,384.881,591.111,384.614,593.286,384.268Z" transform="translate(-491.498 -309.834)" fill="#fbbebe"/>
        <path id="Pfad_546" data-name="Pfad 546" d="M646.3,374.063a22.188,22.188,0,0,0,8.2,2.328,3.456,3.456,0,0,1,1.3.276,1.311,1.311,0,0,1,.541.658,19.574,19.574,0,0,1,1.833,6.691.6.6,0,0,1-.212.611,1.882,1.882,0,0,1-.886.2q-7.038.447-14.124.48a1.473,1.473,0,0,1-.615-.084.576.576,0,0,1-.283-.35,21.4,21.4,0,0,1-1.534-8.68C640.645,372.7,641.669,371.6,646.3,374.063Z" transform="translate(-562.846 -301.941)" fill="#d7e5f2"/>
        <path id="Pfad_547" data-name="Pfad 547" d="M646.3,374.063a22.188,22.188,0,0,0,8.2,2.328,3.456,3.456,0,0,1,1.3.276,1.311,1.311,0,0,1,.541.658,19.574,19.574,0,0,1,1.833,6.691.6.6,0,0,1-.212.611,1.882,1.882,0,0,1-.886.2q-7.038.447-14.124.48a1.473,1.473,0,0,1-.615-.084.576.576,0,0,1-.283-.35,21.4,21.4,0,0,1-1.534-8.68C640.645,372.7,641.669,371.6,646.3,374.063Z" transform="translate(-562.846 -301.941)" fill="#f5d166" opacity="0.743"/>
        <path id="Pfad_548" data-name="Pfad 548" d="M691.2,358.388l51.574-1.81-12.064-50.971s-48.257-3.619-47.05,8.746S691.2,358.388,691.2,358.388Z" transform="translate(-660.44 -254.716)" fill="#454545"/>
        <path id="Pfad_549" data-name="Pfad 549" d="M549.1,514.652s31.041,5.493,42.2-10.793-42.225-7.54-42.225-7.54l-4.524,12.366Z" transform="translate(-468.551 -386.614)" fill="#36334a"/>
        <ellipse id="Ellipse_204" data-name="Ellipse 204" cx="14.175" cy="14.175" rx="14.175" ry="14.175" transform="translate(75.703 168.818)" fill="#454545"/>
        <ellipse id="Ellipse_205" data-name="Ellipse 205" cx="8.897" cy="10.255" rx="8.897" ry="10.255" transform="translate(79.623 172.739)" fill="#646464"/>
        <path id="Pfad_550" data-name="Pfad 550" d="M842.044,298.522s11.763-6.635,12.366,9.048l9.953,72.988H860.14l-11.461-78.115s-5.731.9-6.635.9S842.044,298.522,842.044,298.522Z" transform="translate(-829.678 -249.139)" fill="#646464"/>
        <path id="Pfad_551" data-name="Pfad 551" d="M896.676,306.576h0a2.821,2.821,0,0,0,3.827,1.839l13.645-5.834-2.475-5.452-13.448,6.125a2.821,2.821,0,0,0-1.549,3.322Z" transform="translate(-896.031 -249.139)" fill="#454545"/>
        <path id="Pfad_552" data-name="Pfad 552" d="M510.5,556.552s21.715-2.413,27.747,18.4,5.429,36.8,10.556,35.589,15.985-5.429,15.985-5.429l-.9,6.334s-19,9.651-22.017-.6-4.826-47.955-22.017-47.05-20.207-.9-20.207-.9Z" transform="translate(-426.955 -430.26)" fill="#646464"/>
        <path id="Pfad_553" data-name="Pfad 553" d="M431.642,523.75s16.89,2.111,23.525,14.477,9.953,34.684,9.953,34.684h-6.334s-3.619-44.336-22.62-41.923Z" transform="translate(-306.778 -407.411)" fill="#646464"/>
        <path id="Pfad_554" data-name="Pfad 554" d="M433.955,694.783,460.8,678.195s1.508-6.032-15.683-8.445c0,0-32.5,11.367-29.371,15.637S429.431,696.291,433.955,694.783Z" transform="translate(-297.63 -509.376)" fill="#454545"/>
        <path id="Pfad_555" data-name="Pfad 555" d="M452.421,464.6v35.288H448.5V464Z" transform="translate(-357.717 -333.184)" fill="#646464"/>
        <path id="Pfad_556" data-name="Pfad 556" d="M637.969,645.75s-7.54,29.557-2.715,33.78c0,0,6.334-18.7,11.159-16.287l-1.508-17.493Z" transform="translate(-548.996 -492.615)" fill="#454545"/>
        <ellipse id="Ellipse_206" data-name="Ellipse 206" cx="11.763" cy="11.763" rx="11.763" ry="11.763" transform="translate(47.955 6.556)" fill="#fbbebe"/>
        <path id="Pfad_557" data-name="Pfad 557" d="M701.732,248.474c-4.8.815-8.943-4.762-13.745-3.978a9.224,9.224,0,0,0-2.954,1.162,29.3,29.3,0,0,0-14.123,18.916,11.631,11.631,0,0,0,.269,7.3,13.882,13.882,0,0,0,2.262,3.225c3.195,3.716,4.887,12.145,9.445,13.943.445,1.542,1.832-1.514,1.3,0-2.229,6.321,1.316,13.134,1.5,19.834a5.376,5.376,0,0,0,.713,3.3c.8.993,2.216,1.17,3.487,1.241,11.647.656,23.277-1.131,34.805-2.912a1.75,1.75,0,0,0,.846-.286,2.028,2.028,0,0,0,.517-1.322c.428-2.532-1.82-4.585-.755-6.92,1.832-4.015-2.165-8.407-3.318-12.667a87.392,87.392,0,0,1-2.413-9.35c-.3-1.623.567-6.514.3-8.143-.866-5.321-.211-11.381-3.016-15.985-1.685-2.766-1.248-4.917-4.255-6.119C709.421,248.442,705.127,248.869,701.732,248.474Z" transform="translate(-639.79 -212.328)" fill="#f5d166"/>
        <path id="Pfad_558" data-name="Pfad 558" d="M498.329,467.945c3.511.677,7.24,1.323,9.942,3.665a19.3,19.3,0,0,1,3.837,5.27L523.1,496.262c3.353,5.911,6.708,11.826,9.747,17.9a3.228,3.228,0,0,1,.455,1.456,2.972,2.972,0,0,1-1,1.875,16.033,16.033,0,0,1-13.573,4.773c-.756-3.915-4.478-6.5-6.3-10.049a37.56,37.56,0,0,1-2.052-6.233c-2.413-7.808-8.142-14.079-13.7-20.067-2.629-2.83-5.32-5.71-8.706-7.567-3.973-2.179-8.584-2.782-13.024-3.686s-9.038-2.277-12.18-5.542a13.077,13.077,0,0,1-3.482-10.652c2.845-.2,6.01-.569,8.754.346,3.187,1.063,6.269,2.515,9.461,3.6A157.178,157.178,0,0,0,498.329,467.945Z" transform="translate(-383.265 -361.651)" fill="#696880"/>
        <path id="Pfad_559" data-name="Pfad 559" d="M498.329,467.945c3.511.677,7.24,1.323,9.942,3.665a19.3,19.3,0,0,1,3.837,5.27L523.1,496.262c3.353,5.911,6.708,11.826,9.747,17.9a3.228,3.228,0,0,1,.455,1.456,2.972,2.972,0,0,1-1,1.875,16.033,16.033,0,0,1-13.573,4.773c-.756-3.915-4.478-6.5-6.3-10.049a37.56,37.56,0,0,1-2.052-6.233c-2.413-7.808-8.142-14.079-13.7-20.067-2.629-2.83-5.32-5.71-8.706-7.567-3.973-2.179-8.584-2.782-13.024-3.686s-9.038-2.277-12.18-5.542a13.077,13.077,0,0,1-3.482-10.652c2.845-.2,6.01-.569,8.754.346,3.187,1.063,6.269,2.515,9.461,3.6A157.178,157.178,0,0,0,498.329,467.945Z" transform="translate(-383.265 -361.651)" fill="#9f7042" opacity="0.868"/>
        <path id="Pfad_560" data-name="Pfad 560" d="M440.352,667.834a2.468,2.468,0,0,1,.866,1.118c.4,1.36-1.3,2.319-2.665,2.711-3.061.881-6.326,1.763-9.379.856-1.872-.557-3.5-1.749-5.361-2.345-2.76-.884-5.75-.382-8.6.128a18.621,18.621,0,0,1,1.234-10.629c.915-2.112,4.58-3.14,6.762-3.232,2.385-.1,3.213,1.658,4.59,3.278C431.147,663.663,436.489,664.577,440.352,667.834Z" transform="translate(-277.892 -500.078)"/>
        <path id="Pfad_561" data-name="Pfad 561" d="M578.814,474.682a14.566,14.566,0,0,1,4.742,2.613,13.852,13.852,0,0,1,2.961,4.88,136.28,136.28,0,0,1,5.619,16.028c.777,2.756,1.47,5.544,2.517,8.209,2.089,5.319,5.635,10.414,5.3,16.119a3.823,3.823,0,0,1-.54,1.969,4.524,4.524,0,0,1-2.043,1.383l-4.01,1.741c-2.152.934-4.778,1.833-6.7.488-1.287-.9-1.8-2.532-2.189-4.053-1.4-5.494-2.268-11.2-4.779-16.285-2.839-5.746-7.638-10.389-10.178-16.273a5.64,5.64,0,0,0-1.407-2.295,4.985,4.985,0,0,0-2.071-.819c-15.062-3.43-30.465-5.306-45.407-9.227-2.124-.558-4.347-1.219-5.862-2.809-2.1-2.2-2.289-5.554-2.356-8.6-.042-1.907-.033-3.98,1.129-5.493,1.311-1.707,3.661-2.157,5.8-2.382,8.208-.863,15.778.5,23.862,1.493,7.4.911,14.846,5.086,21.746,7.814Q571.884,471.926,578.814,474.682Z" transform="translate(-465.991 -362.611)" fill="#9f7042"/>
        <path id="Pfad_562" data-name="Pfad 562" d="M510.324,677.988c1.128,2.678,2.345,5.476,4.633,7.268.956.749,2.192,1.5,2.23,2.712.04,1.284-1.308,2.131-2.516,2.567a13.156,13.156,0,0,1-9.582.049,20.316,20.316,0,0,1-5.4-3.933,4.263,4.263,0,0,1-1.246-1.566,4.052,4.052,0,0,1-.14-1.645,42.152,42.152,0,0,1,1.78-9.874,37.36,37.36,0,0,1,7.141-.911C509.035,673.128,509.625,676.329,510.324,677.988Z" transform="translate(-378.942 -511.392)"/>
        <path id="Pfad_563" data-name="Pfad 563" d="M671.711,432.75l39.208,1.206s34.685,33.78,6.032,44.034c0,0-35.288,5.73-43.732-.9C673.219,477.086,662.663,435.464,671.711,432.75Zm1.81,11.159,41.923,2.714s-3.016-10.255-15.08-10.255-25.636-2.714-26.843,3.619S673.52,443.909,673.52,443.909Z" transform="translate(-641.249 -343.857)" fill="#646464"/>
        <ellipse id="Ellipse_207" data-name="Ellipse 207" cx="39.359" cy="44.637" rx="39.359" ry="44.637" transform="translate(0 107.894)" fill="#454545"/>
        <ellipse id="Ellipse_208" data-name="Ellipse 208" cx="29.708" cy="33.176" rx="29.708" ry="33.176" transform="translate(7.842 119.355)" fill="#646464"/>
        <path id="Pfad_564" data-name="Pfad 564" d="M753.659,552.9a8.834,8.834,0,0,1,.172-1.723l-22.189-11.095,1.508-3.318,22.415,10.92a4.686,4.686,0,0,1,.745-.622l-.017,0-6.554-32.62,5.8-.132,3.854,32.1-.37.078a3.618,3.618,0,0,1,.864.3l19.386-19.9,2.74,3.842-19.917,18.324a8.012,8.012,0,0,1,.882,3.088l28.083,11.463.6,4.826L762.387,556.12a6.4,6.4,0,0,1-1.144,1.849l9,30.67h-3.318l-7.558-29.421a3.441,3.441,0,0,1-1.038.166,3.594,3.594,0,0,1-1.917-.575L740.69,579.591l-4.826-3.318,18.427-20.128A8.435,8.435,0,0,1,753.659,552.9Z" transform="translate(-723.8 -400.82)" fill="#454545"/>
        <path id="Pfad_565" data-name="Pfad 565" d="M740.533,148.885c-.531-1.334-2.245-1.886-2.806-3.208-.6-1.422.343-3.231-.479-4.539s-2.756-1.164-4.291-.909a9.807,9.807,0,0,1-5.43-.216c-.752-.32-1.419-.808-2.147-1.179a7.585,7.585,0,0,0-3.743-.814,1.7,1.7,0,0,0-.84.2,1.575,1.575,0,0,0-.545.7c-.529,1.145-.6,2.575-1.562,3.4a6.539,6.539,0,0,1-1.607.833,6.96,6.96,0,0,0-3.9,6.944,14.125,14.125,0,0,1,.237,1.989c-.037,1.467-1,2.932-.506,4.315a3.562,3.562,0,0,0,2.472,1.953,1.419,1.419,0,0,0,.933.047c.535-.217.642-.9.813-1.456a3.572,3.572,0,0,1,3.461-2.439c1.217.052,2.448.735,3.6.328a4.784,4.784,0,0,0,1.456-1.029,7.212,7.212,0,0,1,3.629-1.851,3.879,3.879,0,0,1,3.677,1.386c.324.452.521.984.83,1.446C736.558,158.939,741.681,151.767,740.533,148.885Z" transform="translate(-667.146 -138.014)"/>
        <path id="Pfad_566" data-name="Pfad 566" d="M715.5,411.151a3.2,3.2,0,0,1,2.8,1.042c2.639,2.4,5.436,5.115,5.915,8.653a1.458,1.458,0,0,1-.109.958,1.488,1.488,0,0,1-1.3.516,8.654,8.654,0,0,1-6.541-2.889,5.019,5.019,0,0,0-1.489-1.391,3.88,3.88,0,0,0-1.778-.22c-1.656.054-5.436.9-6.88.08-1.518-.864-1.1-3.571-.392-4.876C707.409,409.922,712.632,411.12,715.5,411.151Z" transform="translate(-648.38 -328.595)" fill="#fbbebe"/>
        <path id="Pfad_567" data-name="Pfad 567" d="M754.581,308.077c-1.014,3.262-.42,6.937-1.857,10.036-.954,2.057-2.747,3.716-3.3,5.914a7.58,7.58,0,0,0,1.411,6.069,20.135,20.135,0,0,0,4.672,4.374,22.778,22.778,0,0,0,6.066,3.514,24.973,24.973,0,0,0,6.929.974l15.5.71,2.854-8.557-10.1-3.955a10.9,10.9,0,0,0-3.123-.876c-1.869-.138-4.148.548-5.349-.891a3.9,3.9,0,0,1-.705-1.792c-.979-5.027-.127-10.346-1.634-15.24-.746-2.423-2.9-7.282-5.835-7.71C757,300.194,755.284,305.813,754.581,308.077Z" transform="translate(-724.299 -251.579)" fill="#f5d166"/>
      </g>
      <g id="Gruppe_580" data-name="Gruppe 580" transform="translate(98.289 0)">
        <path id="Pfad_1048" data-name="Pfad 1048" d="M648.484,455.987a5.593,5.593,0,0,1,1.258-8.483l-7.273-34.63,9.64,3.706,5.58,33.084a5.623,5.623,0,0,1-9.205,6.323Z" transform="translate(-568.341 -303.408)" fill="#ffb8b8"/>
        <path id="Pfad_1049" data-name="Pfad 1049" d="M336.976,561.934h7.934l3.775-30.6h-11.71Z" transform="translate(-260.042 -299.827)" fill="#ffb6b6"/>
        <path id="Pfad_1050" data-name="Pfad 1050" d="M644.142,729.906h2.233l8.719-3.546,4.673,3.545h0a9.959,9.959,0,0,1,9.958,9.957v.324H644.143Z" transform="translate(-569.232 -470.39)"/>
        <path id="Pfad_1051" data-name="Pfad 1051" d="M183.573,543.523l7.1,3.539,17.03-25.706-10.481-5.224Z" transform="translate(-178.331 -291.733)" fill="#ffb6b6"/>
        <path id="Pfad_1052" data-name="Pfad 1052" d="M488.438,710.524l2,1,9.385.716,2.6,5.258h0a9.959,9.959,0,0,1,4.47,13.354l-.144.29-22.9-11.412Z" transform="translate(-483.852 -461.955)"/>
        <path id="Pfad_1053" data-name="Pfad 1053" d="M575.9,442.078l-50.449,1.316.877,24.566s-.877,6.581.877,8.335,2.632,1.755,1.754,4.825-3.145,32.411-3.145,32.411-20.705,36.611-19.828,37.488,1.755,0,.877,2.194-1.755,1.316-.877,2.193a32.308,32.308,0,0,1,2.194,2.632h14.3s.8-4.387.8-4.825.878-3.071.878-3.51S549.136,522.8,549.136,522.8l5.264-43.868,12.722,42.991s0,37.727.878,38.6.877.439.438,2.193-2.193,1.316-.877,2.632,1.755-.877,1.316,1.316l-.439,2.193,16.854.188s1.755-3.7.877-5.014-.825-.957.246-3.11,1.509-2.593,1.07-3.031-.438-2.772-.438-2.772-6.36-87.052-6.36-88.368c-.033-.677-1.062,1.055-2.965-1.3l1.684-1.765v-6.257Z" transform="translate(-495.447 -318.964)"/>
        <path id="Pfad_1055" data-name="Pfad 1055" d="M268.367,115.052l25.27,51.1-4.944,62.022-32.29-2.95-5.79-102.712Z" transform="translate(-214.04 -78.093)" fill="#d1ccc5"/>
        <path id="Pfad_1056" data-name="Pfad 1056" d="M647.875,376.116l-14.766-1.35,9.532,1.35-19.464-83.583,2.218-6.148a9,9,0,0,1,6.736-5.761h0a8.964,8.964,0,0,1,10.51,7.17l2.652,14.323,3.762,48.418Z" transform="translate(-558.065 -232.878)" fill="#d1ccc5"/>
        <path id="Pfad_1057" data-name="Pfad 1057" d="M593.763,265.823l2.978-7.125,9.217.162,9.611,13.595,10.088,42.422s3.623,30.989,0,32.625-15.9-.384-15.9-.384Z" transform="translate(-542.397 -221.285)" fill="#9f7042"/>
        <path id="Pfad_1058" data-name="Pfad 1058" d="M619.857,259.044s19.854,11.477,20.631,17.468,3.377,79.316,3.377,79.316l-7.021-4.537-1.919-26.725-8.568-54.715Z" transform="translate(-556.296 -221.47)" fill="#d1ccc5"/>
        <ellipse id="Ellipse_290" data-name="Ellipse 290" cx="13.531" cy="13.531" rx="13.531" ry="13.531" transform="translate(45.343 7.174)" fill="#ffb8b8"/>
        <path id="Pfad_1059" data-name="Pfad 1059" d="M575.222,190.457a7.447,7.447,0,0,1,7.135-3.477,9.743,9.743,0,0,1,16.325-5.683,3.03,3.03,0,0,1,2.963-.3,6.251,6.251,0,0,1,2.407,1.932,14.021,14.021,0,0,1,1.962,14.263c.338-1.228-.893-2.383-2.137-2.659s-2.547-.015-3.809-.194c-1.616-.23-3.069-1.167-4.688-1.378a10.673,10.673,0,0,0-4.055.521,10.994,10.994,0,0,1-4.053.544c-1.363-.162-3.117,5-3.094,8.638,0,.689-.138,1.574-.811,1.72-.829.18-1.31-.965-2.1-1.277a1.461,1.461,0,0,0-1.792.953,2.381,2.381,0,0,0,.455,2.132,7.038,7.038,0,0,0,1.706,1.48l-.325.27a1.935,1.935,0,0,1-2.442.3,5.27,5.27,0,0,1-1.753-2,23.488,23.488,0,0,1-3.216-7.706A11.224,11.224,0,0,1,575.222,190.457Z" transform="translate(-531.697 -178.643)" fill="#9f7042"/>
        <path id="Pfad_1060" data-name="Pfad 1060" d="M513,384.2l27.033-29a3.031,3.031,0,0,1,4.278-.15l21.9,20.416a3.03,3.03,0,0,1,.15,4.278l-27.033,29a3.03,3.03,0,0,1-4.278.15l-21.9-20.416A3.03,3.03,0,0,1,513,384.2Z" transform="translate(-498.944 -272.174)" fill="#646464"/>
        <path id="Pfad_1061" data-name="Pfad 1061" d="M531.131,380.68l17.379-18.646a2.838,2.838,0,0,1,4.006-.141l18.825,17.546a2.838,2.838,0,0,1,.141,4.006l-24.056,25.809a2.838,2.838,0,0,1-4.007.141l-11.661-10.87A12.641,12.641,0,0,1,531.131,380.68Z" transform="translate(-507.233 -275.848)" fill="#fff"/>
        <path id="Pfad_1062" data-name="Pfad 1062" d="M567.475,379.268a2.773,2.773,0,0,1,3.915-.138L584.449,391.3a2.77,2.77,0,1,1-3.777,4.053l-13.058-12.172A2.773,2.773,0,0,1,567.475,379.268Z" transform="translate(-527.999 -285.039)" fill="#646464"/>
        <path id="Pfad_1063" data-name="Pfad 1063" d="M554.9,392.758a2.773,2.773,0,0,1,3.915-.138l13.058,12.172a2.77,2.77,0,1,1-3.777,4.053L555.04,396.673A2.773,2.773,0,0,1,554.9,392.758Z" transform="translate(-521.302 -292.225)" fill="#646464"/>
        <path id="Pfad_1064" data-name="Pfad 1064" d="M542.329,406.247a2.773,2.773,0,0,1,3.915-.138L559.3,418.281a2.77,2.77,0,1,1-3.778,4.053l-13.058-12.172A2.773,2.773,0,0,1,542.329,406.247Z" transform="translate(-514.605 -299.41)" fill="#646464"/>
        <path id="Pfad_1066" data-name="Pfad 1066" d="M557.6,461.255a5.593,5.593,0,0,1,1.258-8.482l-7.273-34.63,9.64,3.706,5.58,33.084a5.623,5.623,0,0,1-9.2,6.323Z" transform="translate(-519.93 -306.215)" fill="#ffb8b8"/>
        <path id="Pfad_1067" data-name="Pfad 1067" d="M546.876,370.152l-3.923-25.277-1.474-48.545,1.1-14.55a8.964,8.964,0,0,1,16.994-3.257l2.866,5.874-1.023,82.824Z" transform="translate(-514.548 -229.164)" fill="#d1ccc5"/>
        <path id="Pfad_1069" data-name="Pfad 1069" d="M587.154,233.677a.935.935,0,1,1,1.561.744L590.286,237a.467.467,0,0,1-.8.486l-1.766-2.9a.932.932,0,0,1-.567-.909Z" transform="translate(-538.876 -207.487)" fill="#fff"/>
        <rect id="Rechteck_915" data-name="Rechteck 915" width="0.467" height="1.402" rx="0.234" transform="translate(49.903 27.944) rotate(153.236)" fill="#2f2e41"/>
        <path id="Pfad_1071" data-name="Pfad 1071" d="M75.709,141.236l5.436,31.643,12.525-9.327v-6.809l-4.961-15.649Z" transform="translate(-8.43 -15.711)"/>
      </g>
      <g id="Gruppe_581" data-name="Gruppe 581" transform="translate(18.667 5.502)">
        <path id="Pfad_1076" data-name="Pfad 1076" d="M817.167,598.782h7.782l3.7-30.018H817.165Z" transform="translate(-786.387 -342.031)" fill="#ffb8b8"/>
        <path id="Pfad_1077" data-name="Pfad 1077" d="M935.558,749.441h15.327a9.768,9.768,0,0,1,9.767,9.766v.318H935.559Z" transform="translate(-906.764 -495.231)"/>
        <path id="Pfad_1078" data-name="Pfad 1078" d="M781.694,551.375l5.743,5.252,22.991-19.652-8.476-7.751Z" transform="translate(-770.297 -324.094)" fill="#ffb8b8"/>
        <path id="Pfad_1079" data-name="Pfad 1079" d="M898.525,694.271l11.31,10.343h0a9.768,9.768,0,0,1,.616,13.8l-.214.234-18.518-16.935Z" transform="translate(-886.878 -470.204)"/>
        <path id="Pfad_1080" data-name="Pfad 1080" d="M817.122,424.362l-2.206,44.114,5.515,47.975-16.543,2.206L793.411,458,790.1,416.642Z" transform="translate(-774.111 -273.024)" fill="#d1ccc5"/>
        <path id="Pfad_1081" data-name="Pfad 1081" d="M965.063,513.121s6.617,43.563-7.169,57.9-32.534,39.7-32.534,39.7l-13.234-16.543,33.637-35.843-6.617-24.263-27.02-12.683,4.411-30.328,39.7-.551Z" transform="translate(-896.134 -377.775)" fill="#d1ccc5"/>
        <ellipse id="Ellipse_294" data-name="Ellipse 294" cx="13.505" cy="13.505" rx="13.505" ry="13.505" transform="translate(25.059 7.425)" fill="#ffb8b8"/>
        <path id="Pfad_1082" data-name="Pfad 1082" d="M830.286,227.224l2.069,3.134,5.515,15.44L833.458,305.9l-25.917.552-3.308-68.929,6.931-8.663Z" transform="translate(-780.52 -187.1)" fill="#646464"/>
        <path id="Pfad_1083" data-name="Pfad 1083" d="M896.092,379.038l-4.411-.551s-1.1.551-1.654,4.411-7.169,38.049-7.169,38.049l8.823,41.908,9.926-13.234-6.066-23.16,6.066-23.16Z" transform="translate(-882.858 -326.957)" fill="#9f7042"/>
        <path id="Pfad_1084" data-name="Pfad 1084" d="M882.505,248.1h3.308l8.272,44.665-7.72,34.74-7.72-12.683,2.206-13.786-1.1-12.131-3.86-7.169Z" transform="translate(-813.025 -196.569)" fill="#9f7042"/>
        <path id="Pfad_1085" data-name="Pfad 1085" d="M948.168,305.105l-2.455-.614s-1.842-10.436-6.139-9.208-15.347,2.455-15.347-2.455,10.436-9.208,16.574-8.594,13.979,2.65,15.961,11.663c3.177,14.448-6.555,18.1-6.555,18.1l.162-.526a8.193,8.193,0,0,0-2.2-8.364Z" transform="translate(-901.624 -284.175)"/>
        <path id="Pfad_1086" data-name="Pfad 1086" d="M900.015,368.643l17.646-7.169,4.136-3.033L934.2,413.309l8.271-24.814-2.481-31.707,22.884,11.856-7.72,37.5-1.1,14.337,3.309,11.58s11.58,8.271,7.72,17.094-8.271,9.374-8.271,9.374-18.749-17.646-19.851-22.057-2.757-12.131-2.757-12.131-9.374,35.291-20.4,34.74-11.029-12.131-11.029-12.131l2.757-12.131,4.411-12.683-2.206-20.954Z" transform="translate(-890.641 -317.114)" fill="#9f7042"/>
      </g>
      <g id="Gruppe_568" data-name="Gruppe 568" transform="translate(0 24.608)">
        <ellipse id="Ellipse_253" data-name="Ellipse 253" cx="15.935" cy="3.502" rx="15.935" ry="3.502" transform="translate(0 245.294)" fill="#d1ccc5"/>
        <path id="Pfad_919" data-name="Pfad 919" d="M339.707,87.744h0c-9.707,0-16.774,6.591-19.156,16L317.6,117.863h2.1l4.553-11.557-.958,11.557h2.359l1.751-5.954-.369,5.954H355.42v-14.4A15.713,15.713,0,0,0,339.707,87.744Z" transform="translate(-230.47 -87.744)"/>
        <path id="Pfad_920" data-name="Pfad 920" d="M168.2,344.39l6.654,32.158,36.422.536-9.106-33.766Z" transform="translate(-77.216 -238.955)" fill="#3f3d56"/>
        <path id="Pfad_921" data-name="Pfad 921" d="M168.2,344.39l6.654,32.158,36.422.536-9.106-33.766Z" transform="translate(-77.216 -238.955)" opacity="0.1"/>
        <path id="Pfad_922" data-name="Pfad 922" d="M318.71,317.244s-14.359,19.962-13.658,28.017,9.806,139.384,9.806,139.384L336.22,485.7l-6.3-94.557,5.253-25.565,12.958,119.072,26.266.7L350.929,330.9l-4.553-13.658Z" transform="translate(-222.302 -236.871)" fill="#646464"/>
        <path id="Pfad_923" data-name="Pfad 923" d="M339.253,143.244s4.553,8.405-1.4,14.008-8.755,20.663-8.755,20.663l33.62-2.451-2.8-18.911s-7.354-4.553-5.6-12.608Z" transform="translate(-237.943 -123.808)" fill="#a0616a"/>
        <path id="Pfad_924" data-name="Pfad 924" d="M339.253,143.244s4.553,8.405-1.4,14.008-8.755,20.663-8.755,20.663l33.62-2.451-2.8-18.911s-7.354-4.553-5.6-12.608Z" transform="translate(-237.943 -123.808)" opacity="0.1"/>
        <path id="Pfad_925" data-name="Pfad 925" d="M339.5,207.244s2.1,6.3,11.207,5.6a31.247,31.247,0,0,0,15.409-5.6v40.975L338.1,247.168V222.3Z" transform="translate(-243.791 -165.394)" fill="#e0aa0b"/>
        <path id="Pfad_926" data-name="Pfad 926" d="M319.348,173.7l-2.677,1.941-16.11,7.7,5.6,29.068,3.852,6.3v7.7l-9.456,13.308a144.432,144.432,0,0,0-3.5,28.717c-.35,16.11,3.852,11.907,5.954,11.557s6.654-1.4,6.654-1.4l-7.354-34.321,12.257-17.861,2.1-7s-.7-16.46-3.5-23.114C313.169,196.306,318.522,178.766,319.348,173.7Z" transform="translate(-217.111 -143.599)"/>
        <path id="Pfad_927" data-name="Pfad 927" d="M391.942,164.244l6.413,6.3,12.608,3.852-5.954,32.92-3.5,7,.7,7s13.124,14.075,15.059,42.025c1.017,14.679-1.085,13.979-1.085,13.979l-25.882-.32-4.2-58.135,8.055-43.776Z" transform="translate(-274.981 -137.453)"/>
        <path id="Pfad_928" data-name="Pfad 928" d="M462.381,404.244s3.5,15.059-3.5,16.81-4.553-16.81-4.553-16.81Z" transform="translate(-319.045 -293.402)" fill="#a0616a"/>
        <path id="Pfad_929" data-name="Pfad 929" d="M291.636,359.613s13.486,7.562,10.059,13.917-15.487-7.966-15.487-7.966Z" transform="translate(-210.074 -264.401)" fill="#a0616a"/>
        <path id="Pfad_930" data-name="Pfad 930" d="M440.8,193.945l5.253-.7s3.152,4.2,3.5,7.354,5.954,56.384,5.954,56.384l5.6,10.156s-.35,1.751-3.152,1.751h-2.8l-1.051,4.2s-2.1-8.055-10.156-3.852L440.8,268.19l2.1-3.852s-2.1-18.561-2.1-27.317-.7-18.211-.7-18.211Z" transform="translate(-310.069 -156.297)"/>
        <ellipse id="Ellipse_254" data-name="Ellipse 254" cx="4.98" cy="1.867" rx="4.98" ry="1.867" transform="translate(100.378 246.435)"/>
        <ellipse id="Ellipse_255" data-name="Ellipse 255" cx="4.98" cy="1.867" rx="4.98" ry="1.867" transform="translate(133.992 246.435)"/>
        <path id="Pfad_931" data-name="Pfad 931" d="M288.04,200.244l-3.852.35-8.755,33.971s-3.5,22.414-2.8,23.464,0,2.8-.7,3.5,2.8,10.506,6.3,10.156,4.9-1.4,4.9-1.4-3.152-9.105,4.9-12.257l2.1-7-2.1-11.557,2.8-16.11Z" transform="translate(-200.738 -160.846)"/>
        <ellipse id="Ellipse_256" data-name="Ellipse 256" cx="0.525" cy="1.751" rx="0.525" ry="1.751" transform="translate(120.397 14.359)" fill="#a0616a"/>
        <ellipse id="Ellipse_257" data-name="Ellipse 257" cx="0.525" cy="1.751" rx="0.525" ry="1.751" transform="translate(96.583 14.359)" fill="#a0616a"/>
        <ellipse id="Ellipse_258" data-name="Ellipse 258" cx="11.557" cy="11.557" rx="11.557" ry="11.557" transform="translate(97.458 3.677)" fill="#a0616a"/>
        <path id="Pfad_932" data-name="Pfad 932" d="M192.849,57.023l-.3,2.8h8l1.051-2.1-.221,2.1h9.677l-6.654-10.506-14.709.35-3.5,10.156h5.253Z" transform="translate(-88.912 -47.917)"/>
        <path id="Pfad_933" data-name="Pfad 933" d="M223.7,716.814c2.349,8.682,10.393,14.059,10.393,14.059s4.237-8.7,1.888-17.381-10.393-14.059-10.393-14.059S221.349,708.132,223.7,716.814Z" transform="translate(-208.984 -482.06)" fill="#646464"/>
        <path id="Pfad_934" data-name="Pfad 934" d="M204.984,731.116c6.445,6.274,7.232,15.918,7.232,15.918s-9.662-.527-16.106-6.8-7.232-15.918-7.232-15.918S198.539,724.843,204.984,731.116Z" transform="translate(-186.819 -498.228)" fill="#f5d166"/>
      </g>
    </g>
    <g id="Icon_feather-sun" data-name="Icon feather-sun" transform="translate(80.229 33.769)">
      <path id="Pfad_1089" data-name="Pfad 1089" d="M36.435,23.467A12.967,12.967,0,1,1,23.467,10.5,12.967,12.967,0,0,1,36.435,23.467Z" transform="translate(5.061 5.061)" fill="none" stroke="#f5d166" stroke-linecap="round" stroke-linejoin="round" stroke-width="5"/>
      <path id="Pfad_1090" data-name="Pfad 1090" d="M18,1.5V6.687" transform="translate(10.528 -1.5)" fill="none" stroke="#f5d166" stroke-linecap="round" stroke-linejoin="round" stroke-width="5"/>
      <path id="Pfad_1091" data-name="Pfad 1091" d="M18,31.5v5.187" transform="translate(10.528 20.37)" fill="none" stroke="#f5d166" stroke-linecap="round" stroke-linejoin="round" stroke-width="5"/>
      <path id="Pfad_1092" data-name="Pfad 1092" d="M6.33,6.33l3.683,3.683" transform="translate(2.021 2.021)" fill="none" stroke="#f5d166" stroke-linecap="round" stroke-linejoin="round" stroke-width="5"/>
      <path id="Pfad_1093" data-name="Pfad 1093" d="M27.54,27.54l3.683,3.683" transform="translate(17.483 17.483)" fill="none" stroke="#f5d166" stroke-linecap="round" stroke-linejoin="round" stroke-width="5"/>
      <path id="Pfad_1094" data-name="Pfad 1094" d="M1.5,18H6.687" transform="translate(-1.5 10.528)" fill="none" stroke="#f5d166" stroke-linecap="round" stroke-linejoin="round" stroke-width="5"/>
      <path id="Pfad_1095" data-name="Pfad 1095" d="M31.5,18h5.187" transform="translate(20.37 10.528)" fill="none" stroke="#f5d166" stroke-linecap="round" stroke-linejoin="round" stroke-width="5"/>
      <path id="Pfad_1096" data-name="Pfad 1096" d="M6.33,31.223l3.683-3.683" transform="translate(2.021 17.483)" fill="none" stroke="#f5d166" stroke-linecap="round" stroke-linejoin="round" stroke-width="5"/>
      <path id="Pfad_1097" data-name="Pfad 1097" d="M27.54,10.013,31.223,6.33" transform="translate(17.483 2.021)" fill="none" stroke="#f5d166" stroke-linecap="round" stroke-linejoin="round" stroke-width="5"/>
    </g>
  </g>
</svg>
