<svg xmlns="http://www.w3.org/2000/svg" width="396.43" height="318.797" viewBox="0 0 396.43 318.797">
  <g id="Gruppe_326" data-name="Gruppe 326" transform="translate(0.001)">
    <path id="Pfad_259" data-name="Pfad 259" d="M471.894,518.525h-7.338l-3.491-28.3h10.83Z" transform="translate(-195.845 -208.229)" fill="#ffb6b6"/>
    <path id="Pfad_260" data-name="Pfad 260" d="M678.534,687.129l-7.835-3.187-.224-.092-4.326,3.279a9.211,9.211,0,0,0-9.209,9.208v.3H680.6v-9.509Z" transform="translate(-402.682 -379.23)" fill="#2f2e41"/>
    <path id="Pfad_261" data-name="Pfad 261" d="M578.673,504.134l-6.567,3.273-15.751-23.774,9.693-4.831Z" transform="translate(-236.321 -203.379)" fill="#ffb6b6"/>
    <path id="Pfad_262" data-name="Pfad 262" d="M797.82,671.95l-1.68.834-.173.086-8.421.65-.253.017-2.41,4.861a9.2,9.2,0,0,0-4.13,12.35l.132.265,21.174-10.55Z" transform="translate(-454.86 -374.175)" fill="#2f2e41"/>
    <path id="Pfad_263" data-name="Pfad 263" d="M679.66,429.25l40.463,1.416.282-.41s3.451,8.053,3.451,14.956c0,2.3-1.6,17.306-.785,20.146.1.353-.593,1.219-.366,2.863.148,1.067.963.246,1.151,1.726.134,1.062-1.3,1.648-1.151,2.876.164,1.342,2.138,5.688,2.316,7.181,1.892,15.891,4.411,38.913,4.411,38.913s10.116,27.1,12.256,27.536c3.592.739,6.017,7.27,4.027,8.629-.948.647-13.2,5-13.2,5-.673.122-2.779-.934-1.437-3.432.247-.46-1.226.71-1.471.16-.26-.585.251-2.915-.047-3.564-2.677-5.835-6.788-13.92-10.683-18.073a39.462,39.462,0,0,1-10.4-22.3L699.54,463.33l-3.062,13.893-2.534,2.5.7,5.838-.12,5.667-6.328,23.585s-.949,44.045.575,45.443c.826.758,4.328,10.088-2.3,10.929l-12.044-.929s-1.623-3.42-.811-4.637.763-.885-.227-2.877-.584-5.367-.584-5.367a397.606,397.606,0,0,1-1.864-47.74c.6-26.175,4.263-56.245,4.263-56.857a4.047,4.047,0,0,0-.337-1.825V449.3l1.554-5.854Z" transform="translate(-408.588 -271.085)" fill="#2f2e41"/>
    <circle id="Ellipse_134" data-name="Ellipse 134" cx="15.98" cy="15.98" r="15.98" transform="translate(312.032 131.153)" fill="#f5d166"/>
    <path id="Pfad_264" data-name="Pfad 264" d="M776.834,412.247a1.777,1.777,0,0,1-1.422-.711l-4.359-5.813a1.777,1.777,0,1,1,2.844-2.133l2.852,3.8,7.326-10.988a1.778,1.778,0,1,1,2.958,1.972l-8.719,13.079a1.778,1.778,0,0,1-1.43.791Z" transform="translate(-451.002 -256.797)" fill="#fff"/>
    <path id="Pfad_265" data-name="Pfad 265" d="M785.65,414.666a4.595,4.595,0,0,0-4.206-5.653l-8.188-27.9-5.539,6.428,8.813,26.121a4.62,4.62,0,0,0,9.121,1Z" transform="translate(-449.736 -250.639)" fill="#ffb8b8"/>
    <path id="Pfad_266" data-name="Pfad 266" d="M758.017,366.214l-1.064-3.9,1.219-2.33-.092-.27-.368-1.047-1.91-1.53.685-1.95-2.416-6.863-.592-1.191L739.61,319.287l-3.325-6.678-.771-1.208-2.4-3.762-3.279-5.137a7.334,7.334,0,0,0-4.648-3.239,7.436,7.436,0,0,0-.932-.144l-.224-.017a7.4,7.4,0,0,0-1.674.1h-.012a7.176,7.176,0,0,0-2.727,1.081,7.33,7.33,0,0,0-1.714,1.542,7.423,7.423,0,0,0-1.639,4.918l.1,2.807.1,2.554,4.866,8.8.316.575.006.017,14.973,27.094,4.516,8.168.685,1.242,3.037,2.013-.811,2.025.236,3.152,2.583,1.95,3.745,3.8.15.311,1.15-.581.109-.058.259-.075,3.561-1.076,2.163-.65.069-.023.593-.15Z" transform="translate(-427.88 -215.797)" fill="#9f7042"/>
    <path id="Pfad_267" data-name="Pfad 267" d="M864.372,633.464a8.781,8.781,0,0,0-9.376-3l-.368.109-3.3,12.891c-.495-1.921-1.553-6.259-2.22-10.5l-.058-.351-.328.144a44.777,44.777,0,0,0-9.658,5.821,46.32,46.32,0,0,0-17.32,34.882l-.006.247-.006.155.437-.155,9.382-3.354a28.007,28.007,0,0,0,22.584-8.421c3.791-4,6.391-9.141,8.9-14.116.736-1.45,1.49-2.945,2.261-4.383A8.926,8.926,0,0,0,864.372,633.464Z" transform="translate(-472.679 -356.404)" fill="#d1ccc5"/>
    <path id="Pfad_268" data-name="Pfad 268" d="M261.535,76.915h-1.15V32.6H343.6v1.15H261.535Z" transform="translate(-110.603 -13.846)" fill="#3f3d56"/>
    <circle id="Ellipse_135" data-name="Ellipse 135" cx="15.98" cy="15.98" r="15.98" transform="translate(229.774 0)" fill="#e0aa0b"/>
    <path id="Pfad_269" data-name="Pfad 269" d="M633.834,184.247a1.777,1.777,0,0,1-1.422-.711l-4.36-5.813a1.778,1.778,0,1,1,2.844-2.133l2.852,3.8,7.326-10.988a1.778,1.778,0,1,1,2.958,1.972l-8.719,13.079a1.778,1.778,0,0,1-1.43.791Z" transform="translate(-390.26 -159.95)" fill="#fff"/>
    <path id="Pfad_270" data-name="Pfad 270" d="M163.535,296.685h-1.15V341H245.6v-1.15H163.535Z" transform="translate(-68.976 -126.022)" fill="#3f3d56"/>
    <circle id="Ellipse_136" data-name="Ellipse 136" cx="15.98" cy="15.98" r="15.98" transform="translate(173.401 199.031)" fill="#646464"/>
    <path id="Pfad_271" data-name="Pfad 271" d="M535.834,530.247a1.777,1.777,0,0,1-1.422-.711l-4.36-5.813a1.778,1.778,0,1,1,2.844-2.133l2.852,3.8,7.326-10.988a1.778,1.778,0,1,1,2.958,1.972l-8.719,13.079a1.778,1.778,0,0,1-1.43.791Z" transform="translate(-348.633 -306.919)" fill="#fff"/>
    <path id="Pfad_272" data-name="Pfad 272" d="M728.247,379.688a10.419,10.419,0,0,1-.575,3.561l-.086-.017c-10.217,1.767-19.33,2.056-23.546-4.215-5.5-7-13.066-6.925-21.506-3.85l-1-1.081-1.7-1.835,1.565-1.772-1.565-3.417,1.306-4.216,1.668-.3-.449-3.63-.7-2.123,2.059-2.261,1.749-5.643-1.26-11.81a78.67,78.67,0,0,1,9.56-46.72l4.78-4.291,1.985-1.783,2.663-4.97,2.813.328,7.616.88.259.621,1.87,4.51,9.848,10.579-.443,4.464-.2,1.967-.144,1.415-.679,6.811-2.767,27.824-.207,1.478-2.226,16c3.618,3.5,6.817,10.233,8.352,16.388.173.685-.316,1.381-.19,2.048.178.943.955,1.841,1.041,2.721A20.914,20.914,0,0,1,728.247,379.688Z" transform="translate(-412.404 -207.395)" fill="#9f7042"/>
    <circle id="Ellipse_137" data-name="Ellipse 137" cx="13.228" cy="13.228" r="13.228" transform="translate(283.11 43.677)" fill="#ffb6b6"/>
    <path id="Pfad_273" data-name="Pfad 273" d="M736.43,236.048a6.821,6.821,0,0,0-5.48-4.776,8.923,8.923,0,0,0-13.08-8.918,2.775,2.775,0,0,0-2.549-.969,5.721,5.721,0,0,0-2.589,1.134,12.84,12.84,0,0,0-5.136,12.144c-.006-1.166.511,1.09,1.992,1.29a9.773,9.773,0,0,1,3.461,1.428,10.069,10.069,0,0,0,3.454,1.448c1.243.182,1.564,5.166.676,8.375-.168.608-.254,1.425.307,1.714.69.357,1.388-.541,2.161-.628A1.337,1.337,0,0,1,721,249.561a2.181,2.181,0,0,1-.91,1.777,6.443,6.443,0,0,1-1.861.9l.223.317a1.772,1.772,0,0,0,2.087.851c.885,1.067,10-1.9,10.445-3.843a21.517,21.517,0,0,0,4.682-6.047A10.279,10.279,0,0,0,736.43,236.048Z" transform="translate(-424.146 -182.752)" fill="#2f2e41"/>
    <path id="Pfad_274" data-name="Pfad 274" d="M752.674,301.32a3.845,3.845,0,0,1-3.146,3.014,6.806,6.806,0,0,1-2.341.04,15.966,15.966,0,0,1-2.243-.5q-1.363-.388-2.7-.874a42.764,42.764,0,0,1-7.317-3.423,43.277,43.277,0,0,1-5.039-3.44q-1.243-.984-2.41-2.054l.972.46-2.606-3.5q-1.26-1.691-2.514-3.382c-.052-.069-.092-.115-.109-.138v-.006c-.385-.512-.765-1.024-1.145-1.536-1.145-1.536-2.272-3.791-.955-5.177a2.469,2.469,0,0,1,2.146-.65,3.416,3.416,0,0,1,1.179.38,8.32,8.32,0,0,1,2.5,2.525,4.379,4.379,0,0,1,4.216-1.576c.086.006.167.017.247.029,1.639.282,2.347-.6,3.768.265.662.4,1.064,2.473,1.726,2.876.374.23,1.76.575,2.14.811.748.46.558,2.18,1.312,2.64.558.339,2.054-.575,2.612-.236.587.362,1.4,2.755,1.99,3.112,1.168.719,2.105-.592,3.273.121,1.5.926,3.1,1.956,3.733,3.6.558,1.45-.161,3.434-1.547,3.848a2.569,2.569,0,0,1,2.255,2.773Z" transform="translate(-429.692 -207.736)" fill="#9f7042"/>
    <path id="Pfad_275" data-name="Pfad 275" d="M744.22,308.457l-.144,1.415A19.539,19.539,0,0,1,739.3,308.8a10.087,10.087,0,0,1-5.022-3.733c-.782-1.173-1.6-2.341-2.416-3.469-1.357-1.887-2.7-3.647-3.82-5.079-1.363-1.731-2.387-2.985-2.738-3.4-.052-.069-.092-.115-.109-.138l-.017-.017.017.012c6.835,8.651,13.291,13.639,19.219,13.518C744.416,306.49,745.112,308.779,744.22,308.457Z" transform="translate(-431.668 -213.193)" opacity="0.2"/>
    <path id="Pfad_276" data-name="Pfad 276" d="M649.436,196.894a4.6,4.6,0,0,0,4.1,5.733l7.647,28.051,5.663-6.32-8.306-26.286a4.62,4.62,0,0,0-9.1-1.178Z" transform="translate(-399.432 -170.905)" fill="#ffb8b8"/>
    <path id="Pfad_277" data-name="Pfad 277" d="M696.57,277.832l-.052-2.554-4.82-9.14-.178-.334-.012-.017-3.7-7.006-17.848-33.839-1.917-.7.1-2.749-.1-3-2.3-1.544-.982-1.861-1.392.4h-.006l-.04.012-6.086,1.708h-.006l-1.266.713-1.15,3.451L654.562,223l.252,2.968,2.876.575-.953,3.043,2.891,8.755c3.618,15.3,8.56,28.509,17.09,36.05l.7,1.15,5.551,9.083a7.366,7.366,0,0,0,7.415,3.446h.006a7.3,7.3,0,0,0,2.75-1.024,7.188,7.188,0,0,0,1.99-1.824,7.411,7.411,0,0,0,1.49-4.573Z" transform="translate(-401.671 -180.113)" fill="#9f7042"/>
    <path id="Pfad_278" data-name="Pfad 278" d="M786.966,707.177l-156.32.177a.685.685,0,1,1,0-1.37l156.32-.177a.685.685,0,0,1,0,1.37Z" transform="translate(-391.222 -388.557)" fill="#d1ccc5"/>
    <path id="Pfad_279" data-name="Pfad 279" d="M263.036,267.091a33.811,33.811,0,0,1,9.232-23.255l-20.377-28.046a9.937,9.937,0,0,0-14.993-1.264,72.751,72.751,0,0,0-21.968,52.32,74.084,74.084,0,0,0,.821,11,10,10,0,0,0,4.635,7.037,9.894,9.894,0,0,0,8.273.994l35.184-11.432A34.024,34.024,0,0,1,263.036,267.091Z" transform="translate(-214.931 -178.673)" fill="#d1ccc5"/>
    <path id="Pfad_280" data-name="Pfad 280" d="M269.726,327.319,233.147,339.2a9.927,9.927,0,0,0-5.863,13.809,73.334,73.334,0,0,0,54.567,40.05,9.943,9.943,0,0,0,11.456-9.823V349.075A34,34,0,0,1,269.726,327.319Z" transform="translate(-219.749 -227.788)" fill="#d1ccc5"/>
    <path id="Pfad_281" data-name="Pfad 281" d="M438.577,350.249a11.082,11.082,0,0,0-6.791-6.239l-39.894-12.962a33.965,33.965,0,0,1-27.076,20.416V393.03a11.07,11.07,0,0,0,12.753,10.936,81.636,81.636,0,0,0,60.744-44.583A10.981,10.981,0,0,0,438.577,350.249Z" transform="translate(-278.597 -229.372)" fill="#646464"/>
    <path id="Pfad_282" data-name="Pfad 282" d="M443.349,196.354a11.062,11.062,0,0,0-16.69,1.407L399.384,235.3a33.83,33.83,0,0,1,9.879,23.935c0,.827-.04,1.643-.1,2.455l43.355,14.087a11.082,11.082,0,0,0,14.369-8.939A82.456,82.456,0,0,0,467.8,254.6,80.986,80.986,0,0,0,443.349,196.354Z" transform="translate(-293.281 -170.817)" fill="#e0aa0b"/>
    <path id="Pfad_283" data-name="Pfad 283" d="M326.55,218.61a33.77,33.77,0,0,1,16.663,4.375l16.647-22.913a9.973,9.973,0,0,0,1.631-8.2,9.776,9.776,0,0,0-5.057-6.445,73.415,73.415,0,0,0-66.37-.1,10.03,10.03,0,0,0-5.231,6.6,9.886,9.886,0,0,0,1.616,8.141l18.885,25.993A33.786,33.786,0,0,1,326.55,218.61Z" transform="translate(-244.505 -164.13)" fill="#fff"/>
  </g>
</svg>
