<svg id="Gruppe_398" data-name="Gruppe 398" xmlns="http://www.w3.org/2000/svg" width="371.982" height="279.177" viewBox="0 0 371.982 279.177">
  <circle id="Ellipse_153" data-name="Ellipse 153" cx="14" cy="14" r="14" transform="translate(244.448)" fill="#f5d166"/>
  <g id="Gruppe_386" data-name="Gruppe 386" transform="translate(279.272 114.072)">
    <g id="Gruppe_384" data-name="Gruppe 384" transform="translate(0.791 133.358)">
      <path id="Pfad_324" data-name="Pfad 324" d="M625.267,550.094l-5.042.1-2.811-19.831,7.441-.154Z" transform="translate(-609.354 -530.214)" fill="#ffb6b6"/>
      <path id="Pfad_325" data-name="Pfad 325" d="M600.143,578.226a2.258,2.258,0,0,0,2.3,2.208l10.024-.208,1.651-3.607.749,3.556,3.783-.076-1.326-12.721-1.318-.049-5.377-.214-1.735-.065.075,3.608-7.892,5.7A2.254,2.254,0,0,0,600.143,578.226Z" transform="translate(-600.142 -549.859)" fill="#2f2e41"/>
    </g>
    <g id="Gruppe_385" data-name="Gruppe 385" transform="translate(34.722 133.358)">
      <path id="Pfad_326" data-name="Pfad 326" d="M697.978,550.094l-5.042.1-2.811-19.831,7.441-.154Z" transform="translate(-682.065 -530.214)" fill="#ffb6b6"/>
      <path id="Pfad_327" data-name="Pfad 327" d="M672.854,578.226a2.257,2.257,0,0,0,2.3,2.208l10.024-.208,1.651-3.607.749,3.556,3.783-.076-1.326-12.721-1.318-.049-5.377-.214-1.735-.065.075,3.608-7.891,5.7a2.254,2.254,0,0,0-.934,1.874Z" transform="translate(-672.854 -549.859)" fill="#2f2e41"/>
    </g>
    <path id="Pfad_328" data-name="Pfad 328" d="M620.233,245.215,648,244.443l-1.542,2.314,3.513,3.47s12.682,17.351,8.826,33.16-1.685,109.271-1.685,109.271L634.5,390.194l2.506-94.275L618.5,331.393,623.88,388.9l-19.263-.056-6.169-62.079Z" transform="translate(-598.448 -244.443)" fill="#646464"/>
  </g>
  <path id="Pfad_333" data-name="Pfad 333" d="M10.589,27.941A10.589,10.589,0,0,0,0,38.529V217.872H.933V101.524a72.65,72.65,0,0,1,72.65-72.65l185.583-.17-.17-.764Z" transform="translate(0 -14.902)" fill="#9f7042"/>
  <ellipse id="Ellipse_154" data-name="Ellipse 154" cx="3.946" cy="4.034" rx="3.946" ry="4.034" transform="translate(55.649 34.769)" fill="#646464"/>
  <ellipse id="Ellipse_155" data-name="Ellipse 155" cx="3.946" cy="4.034" rx="3.946" ry="4.034" transform="translate(69.282 34.769)" fill="#646464"/>
  <ellipse id="Ellipse_156" data-name="Ellipse 156" cx="3.946" cy="4.034" rx="3.946" ry="4.034" transform="translate(82.915 34.769)" fill="#646464"/>
  <g id="Gruppe_390" data-name="Gruppe 390" transform="translate(145.049 86.332)">
    <path id="Pfad_334" data-name="Pfad 334" d="M321.412,185a10.589,10.589,0,0,0-10.589,10.589v76.677h.933V258.583a72.65,72.65,0,0,1,72.65-72.65l67.518-.17-.17-.764Z" transform="translate(-310.824 -185)" fill="#d1ccc5"/>
    <g id="Gruppe_389" data-name="Gruppe 389" transform="translate(48.861 47.587)">
      <path id="Pfad_335" data-name="Pfad 335" d="M416.461,286.973a.934.934,0,0,0-.933.933v14.466a.933.933,0,1,0,1.867,0V287.906A.934.934,0,0,0,416.461,286.973Z" transform="translate(-415.527 -286.973)" fill="#d1ccc5"/>
      <g id="Gruppe_388" data-name="Gruppe 388" transform="translate(4.264 2.403)">
        <ellipse id="Ellipse_157" data-name="Ellipse 157" cx="5.816" cy="5.694" rx="5.816" ry="5.694" transform="translate(0 0.15)" fill="#d1ccc5"/>
        <path id="Pfad_336" data-name="Pfad 336" d="M499.036,296.017H467.73a1.948,1.948,0,1,1,0-3.9h31.306a1.948,1.948,0,0,1,0,3.9Z" transform="translate(-446.595 -292.121)" fill="#d1ccc5"/>
        <path id="Pfad_337" data-name="Pfad 337" d="M523.467,310.144H467.73a1.948,1.948,0,1,1,0-3.9h55.737a1.948,1.948,0,1,1,0,3.9Z" transform="translate(-446.595 -299.656)" fill="#d1ccc5"/>
      </g>
    </g>
    <ellipse id="Ellipse_158" data-name="Ellipse 158" cx="3.946" cy="4.034" rx="3.946" ry="4.034" transform="translate(48.731 14.703)" fill="#d1ccc5"/>
    <ellipse id="Ellipse_159" data-name="Ellipse 159" cx="3.946" cy="4.034" rx="3.946" ry="4.034" transform="translate(62.364 14.703)" fill="#d1ccc5"/>
    <ellipse id="Ellipse_160" data-name="Ellipse 160" cx="3.946" cy="4.034" rx="3.946" ry="4.034" transform="translate(75.997 14.703)" fill="#d1ccc5"/>
  </g>
  <path id="Pfad_338" data-name="Pfad 338" d="M89.287,169.406a.934.934,0,0,0-.933.933v14.466a.933.933,0,1,0,1.867,0V170.339A.934.934,0,0,0,89.287,169.406Z" transform="translate(-47.123 -90.351)" fill="#646464"/>
  <g id="Gruppe_391" data-name="Gruppe 391" transform="translate(45.496 81.458)">
    <ellipse id="Ellipse_161" data-name="Ellipse 161" cx="5.816" cy="5.694" rx="5.816" ry="5.694" transform="translate(0 0.15)" fill="#f5d166"/>
    <path id="Pfad_339" data-name="Pfad 339" d="M171.863,178.45H140.557a1.948,1.948,0,0,1,0-3.9h31.306a1.948,1.948,0,1,1,0,3.9Z" transform="translate(-119.421 -174.554)" fill="#d1ccc5"/>
    <path id="Pfad_340" data-name="Pfad 340" d="M196.294,192.577H140.557a1.948,1.948,0,1,1,0-3.9h55.737a1.948,1.948,0,1,1,0,3.9Z" transform="translate(-119.421 -182.089)" fill="#d1ccc5"/>
  </g>
  <path id="Pfad_341" data-name="Pfad 341" d="M89.287,255.406a.934.934,0,0,0-.933.933v14.466a.933.933,0,1,0,1.867,0V256.339A.934.934,0,0,0,89.287,255.406Z" transform="translate(-47.123 -136.218)" fill="#646464"/>
  <g id="Gruppe_392" data-name="Gruppe 392" transform="translate(45.496 121.59)">
    <ellipse id="Ellipse_162" data-name="Ellipse 162" cx="5.816" cy="5.694" rx="5.816" ry="5.694" transform="translate(0 0.15)" fill="#f5d166"/>
    <path id="Pfad_342" data-name="Pfad 342" d="M171.863,264.45H140.557a1.948,1.948,0,0,1,0-3.9h31.306a1.948,1.948,0,1,1,0,3.9Z" transform="translate(-119.421 -260.554)" fill="#d1ccc5"/>
    <path id="Pfad_343" data-name="Pfad 343" d="M196.294,278.577H140.557a1.948,1.948,0,1,1,0-3.9h55.737a1.948,1.948,0,1,1,0,3.9Z" transform="translate(-119.421 -268.089)" fill="#d1ccc5"/>
  </g>
  <g id="Gruppe_394" data-name="Gruppe 394" transform="translate(41.231 159.32)">
    <path id="Pfad_344" data-name="Pfad 344" d="M89.287,341.406a.934.934,0,0,0-.933.933v14.466a.933.933,0,1,0,1.867,0V342.339A.934.934,0,0,0,89.287,341.406Z" transform="translate(-88.354 -341.406)" fill="#646464"/>
    <g id="Gruppe_393" data-name="Gruppe 393" transform="translate(4.264 2.403)">
      <ellipse id="Ellipse_163" data-name="Ellipse 163" cx="5.816" cy="5.694" rx="5.816" ry="5.694" transform="translate(0 0.15)" fill="#f5d166"/>
      <path id="Pfad_345" data-name="Pfad 345" d="M171.863,350.45H140.557a1.948,1.948,0,0,1,0-3.9h31.306a1.948,1.948,0,0,1,0,3.9Z" transform="translate(-119.421 -346.554)" fill="#d1ccc5"/>
      <path id="Pfad_346" data-name="Pfad 346" d="M196.294,364.577H140.557a1.948,1.948,0,0,1,0-3.9h55.737a1.948,1.948,0,0,1,0,3.9Z" transform="translate(-119.421 -354.089)" fill="#d1ccc5"/>
    </g>
  </g>
  <path id="Pfad_347" data-name="Pfad 347" d="M677.733,183.341c-.577,4.4-30.5-6.011-34.066-7.933-6.678-3.589.309.092.309.092l-.776-22.025-.809-13.124s-.453-3.486-1.4-7.933c-.215-1-.443-2.156-.588-3.383-.411-3.542-.1-7.658,3.388-10.15l12.156-18.125,5.987-.35,5.213,7.91L673,117.2a42.972,42.972,0,0,1,2.193,25.69l-3.663,10.271a2.5,2.5,0,0,0,1.148,2.711c3.265,1.974-3.344,7.4.7,14.126,0,0-.378,3.089,1.423,3.36s3.176,8.132,2.933,9.983Z" transform="translate(-341.477 -53.553)" fill="#e0aa0b"/>
  <g id="Gruppe_395" data-name="Gruppe 395" transform="translate(274.748 60.678)">
    <path id="Pfad_348" data-name="Pfad 348" d="M592.137,286.858l8.878-12.155,7.651,4.1-9.843,12.517a5.039,5.039,0,1,1-6.685-4.465Z" transform="translate(-588.754 -207.188)" fill="#ffb6b6"/>
    <path id="Pfad_349" data-name="Pfad 349" d="M636.807,133.021a16.988,16.988,0,0,0-7.007-2.945c-3.562-.621-5.56,4.5-6.345,9.5a29.246,29.246,0,0,0-.343,6.28l-.21,1.463-.123,7.572-.29,17.507-8.917,13.2-3.733,8.867-7.629,9.752c.149.143.377.352.657.615a59.014,59.014,0,0,0,6.333,5.257,2.649,2.649,0,0,0,1.448.593c.088-.019,5.46-5.193,5.725-5.483,1.782-1.94,2.133-4.543,7.52-12.109,4.907-6.886,9.692-13.733,11.421-16.211l.032-.044,7.767-25.618.706-2.322A17.075,17.075,0,0,0,636.807,133.021Z" transform="translate(-595.93 -130.025)" fill="#e0aa0b"/>
  </g>
  <path id="Pfad_350" data-name="Pfad 350" d="M666.457,137.247l-.042-.018c-.12.01-.239.017-.355.018Z" transform="translate(-355.236 -73.19)" fill="#2f2e41"/>
  <circle id="Ellipse_164" data-name="Ellipse 164" cx="13.574" cy="13.574" r="13.574" transform="translate(301.13 16.792)" fill="#ffb6b6"/>
  <path id="Pfad_351" data-name="Pfad 351" d="M634.739,42.709c-.916-6.581,1.755-8.594,5.936-9.19,8.271-4.3,10.165-3.218,12.788-2.751l.964-.207c2.957-.636,4.03-.365,6.66.629A15.205,15.205,0,0,1,670.68,44.5c.277,4.077-1,4.712,1.363,8.023a4.721,4.721,0,0,1-2.854,7.358L666.1,64.55a21.786,21.786,0,0,1-2.034-3.2,10.869,10.869,0,0,0-.158,3.667,21.869,21.869,0,0,1-9.992,2.15A3.945,3.945,0,0,1,652.9,64.6a18.3,18.3,0,0,0-.481,2.893c-2.24-1.442-4.091-1.019-5.569,1.2-3.734-3.094-4.026-10.185.412-11.961,3.755-1.5-2.168-12.021-6.206-12.236-.026,0-1.1,4.066-1.14,3.989-.57-1.14-.309-1.764-.991-3.013a10.3,10.3,0,0,0-.21,3.061,17.042,17.042,0,0,1-2.92-.927,5.322,5.322,0,0,1-1.053-4.9Z" transform="translate(-338.413 -16.116)" fill="#2f2e41"/>
  <path id="Pfad_352" data-name="Pfad 352" d="M742.023,536.418a1.059,1.059,0,0,0,.767-1.836l-.072-.288.029-.069a2.844,2.844,0,0,1,5.246.019c.858,2.066,1.95,4.136,2.219,6.321a8.413,8.413,0,0,1-.148,2.893,33.729,33.729,0,0,0,3.068-14.009,32.557,32.557,0,0,0-.2-3.632q-.167-1.483-.464-2.945a34.123,34.123,0,0,0-6.767-14.462,9.08,9.08,0,0,1-3.777-3.918,6.927,6.927,0,0,1-.63-1.893,8.548,8.548,0,0,0,.555-2.948c.256-.389.715-.582.995-.961,1.392-1.887,3.309-1.557,4.31,1.007,2.138,1.079,2.159,2.869.847,4.59-.835,1.1-.949,2.577-1.682,3.75.076.1.154.19.229.286A34.344,34.344,0,0,1,750.131,514a14.277,14.277,0,0,1,.852-6.631,23.918,23.918,0,0,1,3.692-5.327,2.93,2.93,0,0,1,5.219,1.439q0,.038.008.075-.3.169-.587.359a1.436,1.436,0,0,0,.579,2.614l.029,0a14.3,14.3,0,0,1-.377,2.137c1.727,6.681-2,9.114-7.327,9.223-.118.06-.232.121-.35.178a34.115,34.115,0,0,1,1.29,4.657,34.467,34.467,0,0,1,.6,4.223,33.241,33.241,0,0,1-.024,5.368l.009-.063a8.786,8.786,0,0,1,3-5.073c2.308-1.9,5.569-2.594,8.058-4.118a1.649,1.649,0,0,1,2.525,1.6l-.01.067a9.634,9.634,0,0,0-1.082.521q-.3.169-.587.359a1.436,1.436,0,0,0,.579,2.614l.029,0,.06.009a14.3,14.3,0,0,1-2.631,4.12c-1.08,5.832-5.719,6.385-10.682,4.687h0a35.039,35.039,0,0,1-2.354,6.872h-8.409c-.03-.093-.057-.19-.084-.283a9.558,9.558,0,0,0,2.327-.139c-.624-.766-1.248-1.537-1.872-2.3a.541.541,0,0,1-.039-.045c-.316-.392-.636-.781-.952-1.172h0a13.994,13.994,0,0,1,.41-3.565h0Z" transform="translate(-395.361 -265.33)" fill="#f2f2f2"/>
  <path id="Pfad_353" data-name="Pfad 353" d="M541.306,596.42a.554.554,0,0,0,.555.555h118.2a.555.555,0,1,0,0-1.111h-118.2A.554.554,0,0,0,541.306,596.42Z" transform="translate(-288.7 -317.798)" fill="#d1ccc5"/>
  <g id="Gruppe_397" data-name="Gruppe 397" transform="translate(174.156 44.239)">
    <path id="Pfad_354" data-name="Pfad 354" d="M392.251,116.227H376.514a1.774,1.774,0,0,1-1.772-1.772,26.645,26.645,0,0,1,0-17.884,1.774,1.774,0,0,1,1.772-1.772h15.736a1.774,1.774,0,0,1,1.772,1.772v17.884A1.774,1.774,0,0,1,392.251,116.227Z" transform="translate(-373.197 -94.799)" fill="#d1ccc5"/>
    <path id="Pfad_355" data-name="Pfad 355" d="M382.255,95.93a4.616,4.616,0,0,0-4.616,4.616v14.133a1.623,1.623,0,0,0,1.623,1.623h8.7a7.9,7.9,0,0,0,7.9-7.9V97.554a1.623,1.623,0,0,0-1.623-1.623Z" transform="translate(-375.566 -95.403)" fill="#fff"/>
    <g id="Gruppe_396" data-name="Gruppe 396" transform="translate(3.192 5.051)">
      <path id="Pfad_356" data-name="Pfad 356" d="M396.214,106.3h-7.368a.337.337,0,1,1,0-.674h7.368a.337.337,0,0,1,0,.674Z" transform="translate(-384.556 -105.624)" fill="#e6e6e6"/>
      <path id="Pfad_357" data-name="Pfad 357" d="M396.214,121.69h-7.368a.337.337,0,1,1,0-.674h7.368a.337.337,0,0,1,0,.674Z" transform="translate(-384.556 -113.833)" fill="#e6e6e6"/>
      <path id="Pfad_358" data-name="Pfad 358" d="M395.649,114H380.374a.337.337,0,1,1,0-.674h15.275a.337.337,0,0,1,0,.674Z" transform="translate(-380.037 -109.731)" fill="#e6e6e6"/>
    </g>
    <path id="Pfad_359" data-name="Pfad 359" d="M406.208,127.949h-6.374a.337.337,0,1,1,0-.674h6.374a.337.337,0,0,1,0,.674Z" transform="translate(-387.224 -112.12)" fill="#e6e6e6"/>
  </g>
  <g id="Gruppe_387" data-name="Gruppe 387" transform="translate(252.519 54.767)">
    <path id="Pfad_331" data-name="Pfad 331" d="M548.528,175.96l14.952-1.724,2.176,8.4-15.873,1.26a5.039,5.039,0,1,1-1.255-7.94Z" transform="translate(-541.119 -147.694)" fill="#ffb6b6"/>
    <path id="Pfad_332" data-name="Pfad 332" d="M635.426,126.241l-5.852-8.881a25.659,25.659,0,0,0-2.7,2.445l-1.213.835-3.92,3.5-11.1,9.907-3.691,3.3-4.121.723-9.1,1.6-13.774,3.706-10.143.657c0,.205,0,.513,0,.9a58.7,58.7,0,0,0,.434,8.223,2.608,2.608,0,0,0,.546,1.47c.075.051,7.842-2.374,8.234-2.379,3.159,0,8.44.862,19.094-.524,6.328-.831,11.9-1.587,14.243-1.909l.051-.009,1.694-.821,18.6-9.007,5.614-2.721A42.768,42.768,0,0,0,635.426,126.241Z" transform="translate(-556.423 -117.36)" fill="#e0aa0b"/>
  </g>
</svg>
