<svg id="Gruppe_327" data-name="Gruppe 327" xmlns="http://www.w3.org/2000/svg" width="348.821" height="277.988" viewBox="0 0 348.821 277.988">
  <path id="Pfad_284" data-name="Pfad 284" d="M493,75.2l-.22.037c-1.815.3-12.79,1.994-23.854-2.221-4.687-1.786-3.088-2.231-13.528-8.438-12.239-7.278-15.38-7.227-16.291-10.62-1.82-6.776,7.9-17.429,14.33-16.727,1.693.185,3.507,1.194,6.328.51a7.434,7.434,0,0,0,4.655-3.054c1.18-2,.181-3.448.655-5.091,1.245-4.313,11.627-6.465,20.729-4.944,5.235.875,9.307,3.262,17.237,8,13.8,8.25,20.7,12.375,22.255,18.694,1.47,5.99-2.058,8.571.508,14.983,2.389,5.97,6.185,5.572,7.491,10.4,2.1,7.772-5.7,16.3-8.948,19.855-3.563,3.9-6.97,6.034-11.493,8.872-5.677,3.563-8.516,5.344-11.929,5.163-6.188-.329-24.574.79-24.814-4.33-.09-1.919-22.39-.348-11.409-21.008,1.347-2.534,27.731.173,28.079-1.283" transform="translate(-259.924 -14.313)" fill="#2f2e41"/>
  <path id="Pfad_285" data-name="Pfad 285" d="M546.262,181.755l18.965,28.289-54.44,11.009,3.468-35.417Z" transform="translate(-302.512 -107.644)" fill="#ffb6b6"/>
  <path id="Pfad_286" data-name="Pfad 286" d="M546.262,181.755l18.965,28.289-54.44,11.009,3.468-35.417Z" transform="translate(-302.512 -107.644)" opacity="0.1"/>
  <path id="Pfad_287" data-name="Pfad 287" d="M461.7,229.579l58.716-2.447,26.1,14.271-1.223,91.745,27.319,51.785-137.821-26.1,10.6-39.144L440.5,237.327Z" transform="translate(-257.501 -134.519)" fill="#e0aa0b"/>
  <path id="Pfad_288" data-name="Pfad 288" d="M1.581,579.471a10.062,10.062,0,0,1-.592-9.766L23.337,522.75a10.164,10.164,0,0,1,9.134-5.769H314.74A10.087,10.087,0,0,1,323.7,522.4l23.954,45.661a10.116,10.116,0,0,1-8.918,14.816L10.163,584.169h-.041a10.061,10.061,0,0,1-8.541-4.7Z" transform="translate(0 -306.18)" fill="#f4f1ed"/>
  <path id="Pfad_289" data-name="Pfad 289" d="M1.581,579.471a10.062,10.062,0,0,1-.592-9.766L23.337,522.75a10.164,10.164,0,0,1,9.134-5.769H314.74A10.087,10.087,0,0,1,323.7,522.4l23.954,45.661a10.116,10.116,0,0,1-8.918,14.816L10.163,584.169h-.041a10.061,10.061,0,0,1-8.541-4.7Zm30.89-61.428a9.1,9.1,0,0,0-8.176,5.163L1.948,570.162a9.054,9.054,0,0,0,8.174,12.945h.037l328.571-1.293a9.055,9.055,0,0,0,7.982-13.26l-23.954-45.662a9.029,9.029,0,0,0-8.018-4.848H32.471Z" transform="translate(0 -306.18)" fill="#3f3d56"/>
  <path id="Pfad_290" data-name="Pfad 290" d="M533.01,592.434l-116.485-8.009a3.866,3.866,0,0,1-1.724-7.173L440.559,561.8a3.841,3.841,0,0,1,2.165-.547l100.758,4.58a3.866,3.866,0,0,1,3.239,5.676L536.689,590.39a3.871,3.871,0,0,1-3.414,2.053C533.187,592.443,533.1,592.439,533.01,592.434Z" transform="translate(-244.549 -332.396)" fill="#3f3d56"/>
  <path id="Pfad_291" data-name="Pfad 291" d="M419.287,583.792l116.006,7.951,9.174-19.776-99.47-3.9Z" transform="translate(-248.321 -336.435)" fill="#fff"/>
  <circle id="Ellipse_138" data-name="Ellipse 138" cx="34.86" cy="34.86" r="34.86" transform="translate(193.191 13.921)" fill="#ffb6b6"/>
  <path id="Pfad_292" data-name="Pfad 292" d="M508.221,51.037l-.22.037c-1.815.3-12.79,1.994-23.854-2.221-4.687-1.786-3.088-2.231-13.528-8.438-12.239-7.278-15.38-7.227-16.291-10.62-1.82-6.776,7.9-17.429,14.33-16.727,1.693.185,3.507,1.194,6.328.51a7.434,7.434,0,0,0,4.655-3.054c1.18-2,.181-3.448.655-5.091,1.245-4.313,11.627-6.465,20.729-4.944,5.235.875,9.307,3.262,17.237,8,13.8,8.25,20.7,12.375,22.255,18.694,1.47,5.99-2.058,8.571.508,14.983,2.389,5.97,6.185,5.572,7.491,10.4,2.1,7.772-5.7,16.3-8.948,19.855-3.562,3.9-6.97,6.034-11.493,8.872-5.677,3.563-8.516,5.344-11.929,5.163-6.188-.329-12.342-5.936-12.582-11.056-.09-1.919.711-2.494,2.692-9.091.825-2.748,1.4-5.017,1.746-6.473" transform="translate(-268.942 0)" fill="#2f2e41"/>
  <path id="Pfad_293" data-name="Pfad 293" d="M565.864,580.333a4.465,4.465,0,0,1,4.073,4.275,6.2,6.2,0,0,1-3.33,5.417,12.972,12.972,0,0,1-7.461,1.246c-2.24-.2-4.676-.892-6.117-2.741a5.242,5.242,0,0,1-.627-5.673,4.038,4.038,0,0,1,5.016-1.532,4.838,4.838,0,0,1,3.147,4.563,7.008,7.008,0,0,1-3.169,5.68,12.209,12.209,0,0,1-6.914,1.8,19.609,19.609,0,0,1-7.58-1.565,16.525,16.525,0,0,1-6.082-4.178,6.543,6.543,0,0,1-1.567-6.426,4.253,4.253,0,0,1,4.39-2.835,5.441,5.441,0,0,1,4.448,2.869,5.951,5.951,0,0,1-.655,5.843,7.47,7.47,0,0,1-5.78,3.2,11.437,11.437,0,0,1-7.005-2.085c-1.9-1.267-3.564-2.888-5.6-3.942a6.863,6.863,0,0,0-3.156-.828,21.922,21.922,0,0,0-4.146.735,6.969,6.969,0,0,1-3.514-.011,5.06,5.06,0,0,1-2.523-1.739,2.91,2.91,0,0,1-.46-2.724c.26-.737,1.443-.42,1.18.325-.607,1.719,1.475,2.982,2.933,3.14a10.113,10.113,0,0,0,3.314-.449,13.584,13.584,0,0,1,3.4-.5c4.073.1,6.766,3.582,10.05,5.471,3.453,1.986,8.509,2.124,10.623-1.822a4.342,4.342,0,0,0-.128-4.678,4.29,4.29,0,0,0-3.855-1.567,3.316,3.316,0,0,0-2.6,3.647c.079,2.059,1.514,3.732,3.045,4.966a18.23,18.23,0,0,0,12.285,3.9,9.732,9.732,0,0,0,5.807-2.009,5.484,5.484,0,0,0,1.979-4.922,3.635,3.635,0,0,0-3.223-2.948,2.679,2.679,0,0,0-3,2.646,4.581,4.581,0,0,0,2.605,4.23,11.591,11.591,0,0,0,5.981.967,8.267,8.267,0,0,0,5.811-2.283,3.935,3.935,0,0,0,.579-5.012,2.867,2.867,0,0,0-2.17-1.233c-.785-.031-.789-1.254,0-1.223h0Z" transform="translate(-302.692 -342.527)" fill="#f5d166"/>
  <path id="Pfad_294" data-name="Pfad 294" d="M508.671,476.575l.624-3.856L543.9,406.573a2.243,2.243,0,1,1,3.974,2.079l-34.592,66.116-2.828,2.74a1.062,1.062,0,0,1-1.785-.934Z" transform="translate(-301.25 -240.079)" fill="#3f3d56"/>
  <path id="Pfad_295" data-name="Pfad 295" d="M537.4,396.592a24.879,24.879,0,0,1,10.708,4.839l.176.038.036-.176,37.718,5.908L583.3,357.033l28.586-15.656-6.757,84.8A10.031,10.031,0,0,1,592.66,433.2l-48.013-13.81.12-.591-.168-.045a24.882,24.882,0,0,1-11.751.294c-9.744-1.972-16.625-8.6-15.369-14.8S527.651,394.618,537.4,396.592Z" transform="translate(-306.387 -202.179)" fill="#ffb6b6"/>
  <path id="Pfad_296" data-name="Pfad 296" d="M629.787,271.1,662,262.133s16.922,12.436,18.961,25.892c.242,1.6.915,76.146.2,78.085-5.269,14.361-34.251-8.563-34.251-8.563L629.787,271.1Z" transform="translate(-372.989 -155.247)" fill="#e0aa0b"/>
  <path id="Pfad_297" data-name="Pfad 297" d="M166.792,554.683l-3.339-2.862h0A3.593,3.593,0,0,0,161.7,551L87.3,538.6a4,4,0,0,1-1.4-7.38L112.441,515.3a3.984,3.984,0,0,1,2.941-.472l94.343,21.315a4,4,0,0,1,.247,7.743l-39.446,11.6a3.99,3.99,0,0,1-3.734-.8Z" transform="translate(-49.717 -304.844)" fill="#646464"/>
  <path id="Pfad_298" data-name="Pfad 298" d="M167.866,324.631a24.88,24.88,0,0,1,9.568,6.821l.166.071.069-.165,35.861,13.1,38.289-62,21.167,13.119-44.4,71.192a10.031,10.031,0,0,1-13.6,4.472L170.564,348.4l.232-.556-.156-.077a24.882,24.882,0,0,1-11.585-1.987c-9.178-3.821-14.646-11.654-12.213-17.494s11.844-7.476,21.024-3.653Z" transform="translate(-86.624 -167.286)" fill="#ffb6b6"/>
  <path id="Pfad_299" data-name="Pfad 299" d="M386.258,273.124,369.322,247.8s-20.153,3.989-28.455,14.773c-1.038,1.348-36.683,53.044-36.913,55.3-1.608,15.793,39.36,23.192,39.36,23.192Z" transform="translate(-179.989 -146.758)" fill="#e0aa0b"/>
  <path id="Pfad_300" data-name="Pfad 300" d="M121.124,476.829,35.83,465.04a7.283,7.283,0,0,1-6-5.211l-19.59-68.565a7.28,7.28,0,0,1,7.555-9.258l85.934,6.584a7.278,7.278,0,0,1,6.495,5.447l18.95,73.77a7.277,7.277,0,0,1-8.047,9.022Z" transform="translate(-5.892 -226.228)" fill="#646464"/>
  <path id="Pfad_301" data-name="Pfad 301" d="M109.645,236.077c.5.548,2.308-.01,5.906-1.15,2.735-.866,3.156-1.182,3.417-1.408.915-.795,1.154-1.63,2.06-5.322,1.626-6.626,1.676-7.284,2.511-8.69.287-.484,1.014-1.639.837-1.782s-.968,1.056-2.421,1.511c-1.416.443-2.053-.267-3.262-.086-1.563.234-2.492,1.718-3.949,4.12-1.29,2.128-1.453,2.983-3.262,7.211-.513,1.2-.925,2.124-1.242,2.857q-5.328,4.973-10.567,10.063l.186-.284c1.546-2.374,1.757-3.647,1.734-4.6-.036-1.545-.774-2.722-2.249-5.013a36.391,36.391,0,0,0-4.464-5.494c-2.162-2.317-3.243-3.476-3.674-3.4-3.075.544-3.9,21.483-.028,25.228a6.806,6.806,0,0,0-1.318,1.194c-3.312-3.677-8.986-7.786-15.271-8.292a10.584,10.584,0,0,0-6.678,1.322c-3.073,1.93-4.9,5.794-3.983,6.884.856,1.017,3.328-1.295,8.172-1.167a18.692,18.692,0,0,1,7.588,2.043c3.288,1.527,4.491,3.029,6.916,4.057a10.568,10.568,0,0,0-2.6,3.2l-.587.607A20.331,20.331,0,0,0,75.142,257a10.584,10.584,0,0,0-6.679,1.322,10,10,0,0,0-4.053,5.094c-.314.063-.6.135-.871.213-.939-2.122-3.733-4.36-6.332-5.488-4.473-1.941-10.283-1.427-10.9.419a.988.988,0,0,0-.034.175q.735-5.934,1.988-11.784a2.726,2.726,0,0,0,.111.342c1.1,2.773,4.088,5.435,8.154,6.816,3.192,1.084,4.529.522,4.868.365a3.611,3.611,0,0,0,2.069-1.947c.637-2.217-3.262-8.77-5.72-6.572-7.9,7.062-8.984,1.344-9.347.381q1.007-4.624,2.312-9.2c.015.019.028.037.043.056,1.726,2.093,5.048,3.568,8.951,3.633,3.064.051,4.064-.806,4.315-1.037a3.283,3.283,0,0,0,1.25-2.26c-.065-2.1-3.794-3.8-6.777-4.1a11.561,11.561,0,0,0-7.177,1.635q1.024-3.424,2.2-6.818a10.044,10.044,0,0,0,7.64-.539c2.3-1.029,2.75-2.017,2.856-2.276a2.7,2.7,0,0,0,.144-2.121c-.779-1.54-4.153-1.514-6.481-.7a10.045,10.045,0,0,0-2.651,1.442q2.082-5.563,4.529-11.046l-1.631-.408a146.039,146.039,0,0,0-5.449,14.181,12.985,12.985,0,0,0-1.318-4.111c-1.879-3.569-5.893-6.247-7.251-5.378a1.307,1.307,0,0,0-.489.794c-.832,2.712-.205,6.459,1.986,9.9,1.72,2.7,3.045,3.082,3.39,3.167a3.836,3.836,0,0,0,2.341-.017q-.933,3.2-1.721,6.42a12.479,12.479,0,0,0-3.189-4.389c-3.032-2.661-7.738-3.726-8.7-2.429a1.308,1.308,0,0,0-.173.916c.193,2.83,2.119,6.105,5.4,8.536,2.573,1.908,3.946,1.789,4.3,1.745a4.882,4.882,0,0,0,1.441-.362q-.843,3.917-1.477,7.871c-.849-2.948-3.733-6.626-6.454-5.456-4.83,2.076-10.507-1.113-11.132.282a1.471,1.471,0,0,0,.128,1.143c1.251,3.267,4.707,6.433,9.452,8.114,3.724,1.319,5.3.682,5.7.5a5.635,5.635,0,0,0,1.793-1.163q-.7,5.079-1.082,10.208c-1.007-2.2-3.843-4.515-6.5-5.709-4.658-2.095-10.749-1.636-11.426.289a1.656,1.656,0,0,0,.131,1.173c1.284,3.353,4.831,6.6,9.7,8.328,3.822,1.354,5.44.7,5.851.516a5.433,5.433,0,0,0,2.037-1.418q-.13,2.37-.2,4.749c-.012.452-.019.9-.028,1.355a1.338,1.338,0,0,0-.135.274,1.685,1.685,0,0,0,.111,1.167c0,.287-.005.574-.007.86a24.857,24.857,0,0,1-3.091-3.589c-1.1-1.493-2.151-.4-2.824.874a3.018,3.018,0,0,0-2.853.65c-5.307,4.958-11.26,2.328-11.344,3.806a1.7,1.7,0,0,0,.492,1.134c2.317,2.96,6.867,5.12,12.271,5.347,4.242.179,5.658-.974,6.013-1.284a8.092,8.092,0,0,0,.707-.675c.243.194.479.37.716.531q.14,4.257.508,8.5c-.2.018-.394.051-.537.066-2.055.209-2.747-2.563-5.851-3.575-1.031-.336-3.016-.7-4.063,0a7.3,7.3,0,0,1-2.438,1.138,9.642,9.642,0,0,0-3.25,1.95c-1.5,1.215-2.248,1.822-2.6,2.925a3.218,3.218,0,0,0,0,2.275c.2.45.663,1.118,2.438,1.788a11.354,11.354,0,0,0,7.8.325c.835-.281.2-.18,3.413-1.788,2.53-1.265,4.009-1.869,4.225-3.088.076-.428,0-.951.325-1.138a.738.738,0,0,1,.618.025q.319,3.412.8,6.812H43.537a9.983,9.983,0,0,0-9,5.583L23.712,325.107a10.093,10.093,0,0,0-1.045,4.46v56.165A10.054,10.054,0,0,0,32.71,395.775H57.982a10.054,10.054,0,0,0,10.043-10.043V334.015a10,10,0,0,0-.694-3.669l-10.318-26.29a9.974,9.974,0,0,0-7.2-6.142q1.559-1.848,3.129-3.69a21.085,21.085,0,0,0,4.336,1.528c4.133.972,5.741.105,6.147-.133.388-.227,2.072-1.151,2.358-2.692a2.56,2.56,0,0,0,.04-.5c4.233,3.441,6.442,5.138,8.055,4.572,1.387-.486,2.179-2.08,2.632-3.51.474.066.976.133,1.511.2,5.8.774,8.72,1.133,9.837-.24,1.547-1.9.079-5.565-.326-6.575a12.135,12.135,0,0,0-3.073-4.344,14.788,14.788,0,0,0-9.1-4.464,10.191,10.191,0,0,0-3,.184,12.967,12.967,0,0,0-1.092-.9,10.211,10.211,0,0,0-2.293-1.277q1.838-2.014,3.689-4.015c.2.089.381.175.552.254,4.045,1.879,4.934,3.719,8.824,4.687,1.765.439,3.763.937,4.258.189.879-1.329-2.851-6.8-8.615-10.495q.583-.617,1.168-1.232c.527.221.992.437,1.387.62,4.045,1.879,4.934,3.719,8.824,4.687,1.765.439,3.763.937,4.258.189.784-1.186-2.1-5.667-6.826-9.247a15.372,15.372,0,0,1,5.248-.81,18.693,18.693,0,0,1,7.588,2.043c4.045,1.879,4.934,3.719,8.824,4.687,1.765.439,3.763.937,4.258.189,1.306-1.975-7.567-13.1-18.181-13.958A14.442,14.442,0,0,0,92,253.85c-.092-.153-.193-.311-.3-.471,3.591.115,10.6-.911,16.574,3.28a47.686,47.686,0,0,0,10.661,6.387c1.789.746,2.688,1.114,2.936.807.887-1.1-6.486-10.128-16.859-14.576-4.113-1.764-6.654-1.931-8.461-1.663.279-.318.55-.645.811-.974q6.059-5.942,12.256-11.748c-.2.618-.193.946.025,1.186Zm-51.833,49.3c-4.562-1.477-10.086-.683-11.527,1q-.3-2.234-.525-4.475c2.078,1.161,4.247,1.472,8.361,2.021,1.752.234,3.238.429,4.494.551a10.186,10.186,0,0,0,.558,1.263c.024.046.05.089.075.134l-.036.042C58.743,285.709,58.273,285.53,57.812,285.381ZM45.691,265.372a2.74,2.74,0,0,0,.033-1.365q.213-2.575.529-5.135a2.1,2.1,0,0,0,.19.806c1.268,3.185,4.7,6.243,9.366,7.829a15.378,15.378,0,0,0,2.263.6,7.581,7.581,0,0,0-.644,1.42c-1.592-1.279-3.642-2.21-5.968-1.223-.633.269-1.009,1.251-1.335,2.426-2.149.037-3.944.485-4.8,1.244,0-.316,0-.632.011-.949q.072-2.709.263-5.4A2.4,2.4,0,0,0,45.691,265.372Zm-.359,9.289c.093.19.194.378.3.566q-.143-.106-.294-.228C45.335,274.887,45.334,274.774,45.332,274.661ZM49,297.775q-.375-.049-.757-.071c-.588-2.92-1.131-5.838-1.586-8.762a14.753,14.753,0,0,0,5.632,4.951q-1.654,1.936-3.288,3.881Zm19.255-21.961a32.025,32.025,0,0,0-5.908-1.032,14.654,14.654,0,0,0-1.788-2.017c-.264-.256-.67-.762-1.2-1.355a15.833,15.833,0,0,1,12.618.347Q70.111,273.777,68.256,275.814Zm8.817-9.5a23.215,23.215,0,0,0-4.932-2.271c.17,0,.336-.007.512,0a16.576,16.576,0,0,1,5.494,1.14Q77.609,265.745,77.073,266.311Z" transform="translate(-13.425 -125.916)" fill="#d1ccc5"/>
</svg>
