<svg xmlns="http://www.w3.org/2000/svg" width="496.078" height="223.269" viewBox="0 0 496.078 223.269">
  <g id="Gruppe_180" data-name="Gruppe 180" transform="translate(0 0.015)" style="mix-blend-mode: multiply;isolation: isolate">
    <path id="Path_461" data-name="Path 461" d="M201.6,598.314a11.856,11.856,0,0,0,11.448-2.017c4.01-3.366,5.269-8.91,6.29-14.045l3.025-15.186-6.334,4.362c-4.555,3.137-9.213,6.374-12.368,10.917s-4.531,10.746-2,15.662" transform="translate(-160.784 -394.377)" fill="#d1ccc5"/>
    <path id="Path_462" data-name="Path 462" d="M202.87,634.392c-.641-4.67-1.3-9.4-.851-14.12a22.207,22.207,0,0,1,4.282-11.643,19.368,19.368,0,0,1,4.97-4.5c.5-.313.954.474.46.786a18.414,18.414,0,0,0-7.284,8.788,29.481,29.481,0,0,0-1.565,12.714c.165,2.591.515,5.164.869,7.736a.469.469,0,0,1-.318.56.458.458,0,0,1-.56-.318Z" transform="translate(-161.511 -412.07)" fill="#f4f1ed"/>
    <path id="Path_438" data-name="Path 438" d="M1006.537,585.05a12.631,12.631,0,0,1-12.2-2.148c-4.272-3.586-5.612-9.492-6.7-14.962l-3.224-16.179,6.749,4.647c4.854,3.342,9.816,6.791,13.177,11.631s4.826,11.448,2.127,16.686" transform="translate(-535.85 -387.055)" fill="#d1ccc5"/>
    <path id="Path_439" data-name="Path 439" d="M1013.8,618.418c.849-6.189,1.723-12.457,1.126-18.712a29.433,29.433,0,0,0-5.674-15.43,25.671,25.671,0,0,0-6.586-5.968c-.658-.415-1.264.628-.609,1.042A24.4,24.4,0,0,1,1011.709,591c2.1,5.345,2.439,11.171,2.077,16.849-.219,3.433-.684,6.845-1.151,10.251a.625.625,0,0,0,.421.742.607.607,0,0,0,.742-.422Z" transform="translate(-544.154 -399.709)" fill="#f4f1ed"/>
    <path id="Path_442" data-name="Path 442" d="M987.608,627.02a9.3,9.3,0,0,1-8.1,4.183c-4.1-.195-7.521-3.057-10.6-5.775l-9.1-8.038,6.025-.288c4.333-.208,8.778-.4,12.9.935s7.933,4.552,8.687,8.824" transform="translate(-524.078 -418.241)" fill="#d1ccc5"/>
    <path id="Path_443" data-name="Path 443" d="M1006.429,644.983c-4.09-7.236-8.833-15.278-17.308-17.848a19.314,19.314,0,0,0-7.28-.752c-.773.067-.58,1.258.191,1.192a17.943,17.943,0,0,1,11.618,3.074,30.2,30.2,0,0,1,7.985,8.617c1.322,2.014,2.507,4.113,3.691,6.209C1005.706,646.144,1006.812,645.661,1006.429,644.983Z" transform="translate(-534.384 -422.716)" fill="#f4f1ed"/>
    <path id="Pfad_167" data-name="Pfad 167" d="M618.905,454.085h-205V410.268h205Z" transform="translate(-262.939 -319.37)" fill="#fff"/>
    <circle id="Ellipse_75" data-name="Ellipse 75" cx="11.131" cy="11.131" r="11.131" transform="translate(166.396 101.675)" fill="#f5d166"/>
    <path id="Pfad_168" data-name="Pfad 168" d="M512.406,438.042a1.855,1.855,0,0,0,0,3.71H647.854a1.855,1.855,0,0,0,0-3.71Z" transform="translate(-309.172 -332.656)" fill="#e0aa0b"/>
    <path id="Pfad_169" data-name="Pfad 169" d="M512.4,459.38a1.855,1.855,0,0,0-.008,3.71h85.632a1.855,1.855,0,0,0,0-3.71Z" transform="translate(-309.169 -342.864)" fill="#e0aa0b"/>
    <path id="Pfad_170" data-name="Pfad 170" d="M618.905,454.085h-205V410.268h205Zm-201.874-3.13H615.776V413.4H417.031Z" transform="translate(-262.939 -319.37)" fill="#ccc"/>
    <path id="Pfad_171" data-name="Pfad 171" d="M917.367,459.706a4.233,4.233,0,0,1,3.371-5.546l2.32-9.39,6.05.018L925.645,458a4.255,4.255,0,0,1-8.278,1.7Z" transform="translate(-503.67 -335.875)" fill="#e0aa0b"/>
    <path id="Pfad_172" data-name="Pfad 172" d="M928.657,406.115l-9.266-.642,4.488-26.743-2.856-29.447,9.367-3.84,6.246,32.7-.017.06Z" transform="translate(-504.746 -288.36)" fill="#d1ccc5"/>
    <path id="Pfad_173" data-name="Pfad 173" d="M799.807,444.3a4.232,4.232,0,0,1,4.9-4.253l5.075-8.233,5.756,1.864L808.21,445.2a4.255,4.255,0,0,1-8.4-.9Z" transform="translate(-447.541 -329.675)" fill="#e0aa0b"/>
    <path id="Pfad_174" data-name="Pfad 174" d="M723.416,399.669h-4.929l-2.345-19.012h7.275Z" transform="translate(-342.575 -182.099)" fill="#e0aa0b"/>
    <path id="Pfad_175" data-name="Pfad 175" d="M842.421,656.406H826.528v-.2a6.186,6.186,0,0,1,6.186-6.186h9.708Z" transform="translate(-460.323 -434.058)"/>
    <path id="Pfad_176" data-name="Pfad 176" d="M789.336,399.669h-4.929l-2.345-19.012h7.275Z" transform="translate(-374.109 -182.099)" fill="#e0aa0b"/>
    <path id="Pfad_177" data-name="Pfad 177" d="M908.341,656.406H892.448v-.2a6.186,6.186,0,0,1,6.186-6.186h9.708Z" transform="translate(-491.857 -434.058)"/>
    <circle id="Ellipse_76" data-name="Ellipse 76" cx="11.71" cy="11.71" r="11.71" transform="translate(398.83 15.619)" fill="#e0aa0b"/>
    <path id="Pfad_178" data-name="Pfad 178" d="M894.237,273.764a7.633,7.633,0,0,1-7.19-13.385c3.117-2.086,7.771-1.4,10.793,1.024a10.543,10.543,0,0,1,12.189,2.529,11.571,11.571,0,0,1,1.11,12.663,13.766,13.766,0,0,0,.807,12.888c-.915-.037-2.928-.207-5.446-.424-.729-.063-1.044-2.2-1.843-2.273-.7-.061-1.887,1.951-2.626,1.889-5.47-.462-11.594-.932-14.37-.84A150.41,150.41,0,0,1,894.237,273.764Z" transform="translate(-487.652 -247.078)" fill="#2f2e41"/>
    <path id="Pfad_179" data-name="Pfad 179" d="M885.006,446.55s3.806,3.924,1.482,24.184l-1.605,43.021-2.841,38.094-9.139-.608-8.027-87.678-11.238,32.084-6.051,53.042-8.768-.608-1.5-52.747,3.844-40.764Z" transform="translate(-465.486 -336.726)" fill="#646464"/>
    <path id="Pfad_180" data-name="Pfad 180" d="M850.188,395.039a25.031,25.031,0,0,1-6.7-.605l-.217-.068.038-.224c.031-.184,3.173-18.5,7.483-28.115l3.031-39a5.142,5.142,0,0,1,4.344-4.7l.04.258-.04-.258,7.71-1.21,4.716-4.153,11.3.625,1,4.779c1.351.378,10.268,3.11,11.151,9.654l.011.082-.038.073-16.336,31.426c1.38,1.362,12.29,12.569,13.03,26.9l.018.345-.336-.077c-.031-.006-3.523-.67-21.881,2.434A112,112,0,0,1,850.188,395.039Z" transform="translate(-468.334 -274.74)" fill="#d1ccc5"/>
    <path id="Pfad_181" data-name="Pfad 181" d="M815.7,395.531l-6.659-5.128,14.861-29.734,13.823-29.142a2.209,2.209,0,0,1,4.125.36l3.421,12.412-10.7,27.836Z" transform="translate(-451.961 -281.1)" fill="#d1ccc5"/>
    <path id="Pfad_182" data-name="Pfad 182" d="M891.766,663.043H693.022a.522.522,0,0,1,0-1.043H891.766a.522.522,0,0,1,0,1.043Z" transform="translate(-396.21 -439.789)" fill="#d1ccc5"/>
    <path id="Pfad_183" data-name="Pfad 183" d="M485.01,100.168H456.842V72h14.084v1.043H457.885V99.125h26.082V86.084h1.043Z" transform="translate(-218.536 -34.449)" fill="#3f3d56"/>
    <path id="Pfad_184" data-name="Pfad 184" d="M476.554,91.848l-6.843-7.857,1.18-1.028,5.676,6.518L492.147,72l1.168,1.041Z" transform="translate(-224.692 -34.45)" fill="#6095ad"/>
    <path id="Pfad_185" data-name="Pfad 185" d="M300.2,299.465l.659-3.293s9.687-3.293,10.771,3.293Z" transform="translate(-208.549 -264.398)" fill="#e6e6e6"/>
    <path id="Pfad_186" data-name="Pfad 186" d="M211.341,392.359h6.35l3.021-24.5H211.34Z" transform="translate(-101.097 -175.979)" fill="#9f7042"/>
    <path id="Pfad_187" data-name="Pfad 187" d="M332.736,646.847h12.507a7.971,7.971,0,0,1,7.97,7.97v.259H332.737Z" transform="translate(-224.112 -432.541)"/>
    <path id="Pfad_188" data-name="Pfad 188" d="M152.653,392.359H159l3.021-24.5h-9.373Z" transform="translate(-73.023 -175.979)" fill="#9f7042"/>
    <path id="Pfad_189" data-name="Pfad 189" d="M274.048,646.847h12.507a7.971,7.971,0,0,1,7.97,7.97v.259H274.049Z" transform="translate(-196.038 -432.541)"/>
    <path id="Pfad_190" data-name="Pfad 190" d="M147.156,93.149l-7.245-.659-4.61,21.733.658,19.758,7.245,26.343,9.879-5.927-5.269-27Z" transform="translate(-64.723 -44.251)" fill="#646464"/>
    <path id="Pfad_191" data-name="Pfad 191" d="M148.912,215.7l1.622,13.83,1.523,32.271-3.5,48.089,12.513-.671,6.133-50.052,3.746-23.05,5.269,26.343,3.293,49.393,12.842-1.029V262.281l.329-35.39-4.61-13.83Z" transform="translate(-71.064 -101.928)"/>
    <path id="Pfad_192" data-name="Pfad 192" d="M297.672,301.188s-4.61-6.586-13.172-1.976l-3.951,5.269-12.513,9.22,2.634,30.953-3.293,38.856,46.759-.659L306.233,344v-41.49Z" transform="translate(-192.847 -265.462)" fill="#646464"/>
    <path id="Pfad_193" data-name="Pfad 193" d="M148.883,113.446l-3.776,45.15,4.764-24.47Z" transform="translate(-69.414 -54.276)" opacity="0.25"/>
    <path id="Pfad_194" data-name="Pfad 194" d="M411.81,409.661a4.857,4.857,0,0,1-6.364-3.869l-10.776-2.663.021-6.943,15.164,3.974a4.884,4.884,0,0,1,1.955,9.5Z" transform="translate(-253.739 -312.634)" fill="#9f7042"/>
    <rect id="Rechteck_418" data-name="Rechteck 418" width="10.537" height="4.61" transform="matrix(0.172, -0.985, 0.985, 0.172, 144.991, 93.851)" fill="#e6e6e6"/>
    <circle id="Ellipse_77" data-name="Ellipse 77" cx="13.225" cy="13.225" r="13.225" transform="translate(84.271 1.669)" fill="#9f7042"/>
    <path id="Pfad_195" data-name="Pfad 195" d="M298.121,262.56a13.415,13.415,0,0,1-8.777-25.213,15.687,15.687,0,0,1,7.407-1.329c3.955.208,7.8,1.67,11.759,1.562l.574.922,2.163-.525.463,1.717.57-.02a3.279,3.279,0,0,1-2.775,4.588,12.815,12.815,0,0,1-2.492-.543,2.51,2.51,0,0,0-2.39.5c-.747.818-.422,2.1-.266,3.192s-.233,2.575-1.341,2.61c-.566.018-1.1-.387-1.66-.281a1.347,1.347,0,0,0-.88,1.558,6.2,6.2,0,0,0,.775,1.808,7.285,7.285,0,0,1-2.89,9.293" transform="translate(-199.637 -236)" fill="#2f2e41"/>
    <path id="Pfad_196" data-name="Pfad 196" d="M331.095,309.566l3.143-2.545s6.344-.441,6.229,6.284l10.151,31.753,19.474,6.9-2.624,13.558-27.553-10.5-13.995-23.2Z" transform="translate(-220.852 -269.979)" fill="#646464"/>
    <path id="Pfad_197" data-name="Pfad 197" d="M323.766,663.043H125.022a.522.522,0,1,1,0-1.043H323.766a.522.522,0,1,1,0,1.043Z" transform="translate(-124.5 -439.789)" fill="#d1ccc5"/>
  </g>
</svg>
