<svg id="Gruppe_409" data-name="Gruppe 409" xmlns="http://www.w3.org/2000/svg" width="308.116" height="318.482" viewBox="0 0 308.116 318.482">
  <g id="Gruppe_402" data-name="Gruppe 402" transform="translate(150.496 280.844)">
    <path id="Pfad_392" data-name="Pfad 392" d="M220.213,437.483h8.207l3.9-31.655H220.212Z" transform="translate(-218.315 -405.827)" fill="#ffb6b6"/>
    <path id="Pfad_393" data-name="Pfad 393" d="M247.487,447.181h0a7.046,7.046,0,0,1,.39,2.32h0a2.785,2.785,0,0,1-2.785,2.785H219.676a1.9,1.9,0,0,1-1.9-1.9v-1.058s-1.257-3.18,1.331-7.1c0,0,3.217,3.069,8.025-1.738l1.418-2.568,10.262,7.5,5.688.7c1.244.153,2.348-.024,2.988,1.054Z" transform="translate(-217.471 -415.711)" fill="#2f2e41"/>
  </g>
  <g id="Gruppe_403" data-name="Gruppe 403" transform="translate(119.355 280.844)">
    <path id="Pfad_394" data-name="Pfad 394" d="M175.213,437.483h8.207l3.9-31.655H175.212Z" transform="translate(-173.315 -405.827)" fill="#ffb6b6"/>
    <path id="Pfad_395" data-name="Pfad 395" d="M202.487,447.181h0a7.046,7.046,0,0,1,.39,2.32h0a2.785,2.785,0,0,1-2.785,2.785H174.676a1.9,1.9,0,0,1-1.9-1.9v-1.058s-1.257-3.18,1.331-7.1c0,0,3.217,3.069,8.025-1.738l1.418-2.568,10.262,7.5,5.688.7c1.244.153,2.348-.024,2.988,1.054Z" transform="translate(-172.471 -415.711)" fill="#2f2e41"/>
  </g>
  <path id="Pfad_396" data-name="Pfad 396" d="M161.861,205.856l-10.38,23.529L164.629,358.1l16.263,1.038L187.466,245.3l6.228,114.185,19.377-2.076,4.6-144.953Z" transform="translate(-46.652 -63.398)" fill="#646464"/>
  <path id="Pfad_397" data-name="Pfad 397" d="M204.483,68.662l-20.829-3.806-4.207,4.207L158.049,78l3.46,67.127s-6.92,4.61-3.46,10.955,2.768,13.958,2.768,13.958h58.575l-2.52-38.062,6.92-48.442-16.17-7.656-3.139-7.223h0Z" transform="translate(-48.376 -19.974)" fill="#e0aa0b"/>
  <circle id="Ellipse_166" data-name="Ellipse 166" cx="18.293" cy="18.293" r="18.293" transform="translate(128.707 6.333)" fill="#ffb6b6"/>
  <path id="Pfad_398" data-name="Pfad 398" d="M189.559,40.864c-2.191.2-5.769-5.41-5.609-10.839.1-3.493-2.93-4.179-3.155-8.684-.131-2.625,3.9-3.443,4.177-5.548a12.451,12.451,0,0,1,3.27-6.693c2.652-2.693,4.524-1.818,7.642-4.939,1.878-1.879,1.4-2.394,2.661-3.228,3.649-2.406,10.207.2,14.128,3.714,1.357,1.215,6.415-.113,8.625,3.319,2.6,4.044,2,12.29.882,13.378-.678.661-2.227-.954-6.425-1.991-3.886-.96-.22,3.787-4.713,2.99-5.313-.942-6.353-2.558-8.343-1.589a6.794,6.794,0,0,0-3.27,6.693c.237,1.238.923,1.928.536,2.558-.707,1.149-1.517.022-2.424,1.175-1.054,1.341,1.565,4.783,1.072,5.115-.1.067-.4.058-3.228-2.661-1.129-1.086-1.46-1.753-1.681-1.65-.358.166-2.7,2.349-1.806,4.073,1.393,2.683-.39,2.767,0,4.573.4,1.864-.947.108-2.34.233h0Z" transform="translate(-55.679 0)" fill="#2f2e41"/>
  <path id="b" d="M218.423,180.81c-5.393,2.815-8.313,7.88-6.521,11.312s7.616,3.931,13.011,1.115a15.225,15.225,0,0,0,5.473-4.665l22.7-12.216-5.96-10.531-21.747,13.161a15.227,15.227,0,0,0-6.958,1.824Z" transform="translate(-65.097 -51.069)" fill="#ffb6b6"/>
  <path id="Pfad_399" data-name="Pfad 399" d="M244.227,92.516s6.228-4.152,10.38,6.92c3.276,8.735,9.351,34.484,11.77,44.965a7.8,7.8,0,0,1-2.421,7.586l-2.774,2.466-13.495,10.034-9.2-13.389,11.175-6.737-12.744-27.646,7.31-24.2h0Z" transform="translate(-72.964 -28.257)" fill="#e0aa0b"/>
  <path id="Pfad_400" data-name="Pfad 400" d="M247.839,168.614V154.422a1.486,1.486,0,0,1,1.484-1.484h6.867a1.486,1.486,0,0,1,1.484,1.484v14.191a1.486,1.486,0,0,1-1.484,1.484h-6.867a1.486,1.486,0,0,1-1.484-1.484Z" transform="translate(-76.327 -47.101)" fill="#6c63ff"/>
  <g id="Gruppe_404" data-name="Gruppe 404" transform="translate(217.325 57.992)">
    <circle id="Ellipse_167" data-name="Ellipse 167" cx="20.341" cy="20.341" r="20.341" transform="translate(31.984)" fill="#9f7042"/>
    <path id="Pfad_401" data-name="Pfad 401" d="M346.277,237.706l-22.985.317-9.215-102.751a9.408,9.408,0,0,1,2.21-6.918l22.6-26.4A9.31,9.31,0,0,1,351.4,100.4l28.308,20.057a9.316,9.316,0,0,1,3.926,7.019L404.3,196.9l-2.771,23.151.027.032,3.275,16.82-58.554.808Z" transform="translate(-314.041 -88.378)" fill="#e6e6e6"/>
    <path id="Pfad_402" data-name="Pfad 402" d="M353.5,134.484l-.37-4.769a2.293,2.293,0,0,1,2.106-2.46l6.7-.52a2.292,2.292,0,0,1,2.46,2.106l.37,4.769a2.292,2.292,0,0,1-2.106,2.46l-6.7.52A2.293,2.293,0,0,1,353.5,134.484Z" transform="translate(-326.076 -97.021)" fill="#f5d166"/>
    <path id="Pfad_403" data-name="Pfad 403" d="M336.739,183.723l-1.369-17.645a2.292,2.292,0,0,1,2.106-2.46l9.92-.77a2.292,2.292,0,0,1,2.46,2.106l1.369,17.645a2.292,2.292,0,0,1-2.106,2.46l-9.92.77a2.292,2.292,0,0,1-2.46-2.106Z" transform="translate(-320.607 -108.143)" fill="#646464"/>
    <path id="Pfad_404" data-name="Pfad 404" d="M372.51,240.576a2.3,2.3,0,0,1-2.373-2.044l-1.825-17.016a2.29,2.29,0,0,1,2.694-2.5l.512.095a2.293,2.293,0,0,1,1.866,2.074l1.313,16.921a2.29,2.29,0,0,1-2.1,2.46l-.083.005Z" transform="translate(-330.75 -125.432)" fill="#646464"/>
    <path id="Pfad_405" data-name="Pfad 405" d="M343.431,239.738l-1.373-17.7a2.277,2.277,0,0,1,2.05-2.455l9-.919a2.306,2.306,0,0,1,2.51,2.035l1.91,17.876a2.29,2.29,0,0,1-2.1,2.526l-9.535.74a2.292,2.292,0,0,1-2.46-2.106Z" transform="translate(-322.667 -125.332)" fill="#646464"/>
    <path id="Pfad_406" data-name="Pfad 406" d="M421.959,258.043,430,270.057l1.908,14.065,5.655-.079-3.23-16.589-12.837-15.2h0A5.946,5.946,0,0,0,421.959,258.043Z" transform="translate(-346.967 -135.68)" fill="#d1ccc5"/>
    <rect id="Rechteck_614" data-name="Rechteck 614" width="23.006" height="0.323" transform="translate(61.491 146.508) rotate(-5.221)" fill="#3f3d56"/>
    <rect id="Rechteck_615" data-name="Rechteck 615" width="21.812" height="0.323" transform="translate(61.057 143.541) rotate(-4.885)" fill="#3f3d56"/>
    <rect id="Rechteck_616" data-name="Rechteck 616" width="20.867" height="0.323" transform="translate(60.666 140.887) rotate(-5.557)" fill="#3f3d56"/>
    <rect id="Rechteck_617" data-name="Rechteck 617" width="20.047" height="0.323" transform="translate(60.643 138.244) rotate(-6.339)" fill="#3f3d56"/>
    <rect id="Rechteck_618" data-name="Rechteck 618" width="19.262" height="0.323" transform="translate(60.262 135.698) rotate(-6.451)" fill="#3f3d56"/>
    <rect id="Rechteck_619" data-name="Rechteck 619" width="18.749" height="0.323" transform="translate(59.248 132.823) rotate(-4.437)" fill="#3f3d56"/>
    <rect id="Rechteck_620" data-name="Rechteck 620" width="18.223" height="0.323" transform="translate(58.65 130.812) rotate(-5.109)" fill="#3f3d56"/>
    <rect id="Rechteck_621" data-name="Rechteck 621" width="17.666" height="0.323" transform="translate(58.099 128.962) rotate(-6.339)" fill="#3f3d56"/>
    <rect id="Rechteck_622" data-name="Rechteck 622" width="17.438" height="0.323" transform="translate(57.483 126.473) rotate(-5.445)" fill="#3f3d56"/>
    <rect id="Rechteck_623" data-name="Rechteck 623" width="16.702" height="0.323" transform="translate(56.774 124.502) rotate(-6.228)" fill="#3f3d56"/>
    <rect id="Rechteck_624" data-name="Rechteck 624" width="16.548" height="0.323" transform="translate(56.101 122.217) rotate(-4.997)" fill="#3f3d56"/>
    <path id="Pfad_407" data-name="Pfad 407" d="M391.846,239.555l-1.694-21.83a2.293,2.293,0,0,1,2.106-2.46l10.563-.82a2.292,2.292,0,0,1,2.46,2.106l1.694,21.83a2.292,2.292,0,0,1-2.106,2.46l-10.563.82A2.292,2.292,0,0,1,391.846,239.555Z" transform="translate(-337.479 -124.033)" fill="#f5d166"/>
    <path id="Pfad_408" data-name="Pfad 408" d="M351.689,291.026l-18.792.26-.151,0-1.123-14.472a3.333,3.333,0,0,1,3.061-3.577l18.47-1.433a3.333,3.333,0,0,1,3.577,3.062l1.216,15.673-.161.012Z" transform="translate(-319.452 -141.698)" fill="#d1ccc5"/>
    <path id="Pfad_409" data-name="Pfad 409" d="M389.444,184.734l-1.294-16.679a2.292,2.292,0,0,1,2.106-2.46l3.482-.27a2.292,2.292,0,0,1,2.46,2.106l1.294,16.679a2.292,2.292,0,0,1-2.106,2.46l-3.482.27a2.292,2.292,0,0,1-2.46-2.106Z" transform="translate(-336.862 -108.905)" fill="#646464"/>
    <path id="Pfad_410" data-name="Pfad 410" d="M398.559,284.658l-2.065-14.089-3.946-13.295-1.092-3.639h0a2.429,2.429,0,0,0-3.616,2.417l.2,1.572,3.946,13.295,2.065,14.089" transform="translate(-336.762 -136.004)" fill="#d1ccc5"/>
  </g>
  <g id="Gruppe_405" data-name="Gruppe 405" transform="translate(15.571 70.875)">
    <path id="Pfad_411" data-name="Pfad 411" d="M54.737,241.459l-22.985.317L22.537,139.025a9.408,9.408,0,0,1,2.21-6.918l22.6-26.4a9.31,9.31,0,0,1,12.514-1.55l28.308,20.057a9.315,9.315,0,0,1,3.926,7.019l20.664,69.42L109.989,223.8l.027.032,3.275,16.82-58.554.808Z" transform="translate(-22.501 -102.416)" fill="#e6e6e6"/>
    <path id="Pfad_412" data-name="Pfad 412" d="M61.959,138.236l-.37-4.769a2.292,2.292,0,0,1,2.106-2.46l6.7-.52a2.292,2.292,0,0,1,2.46,2.106l.37,4.769a2.292,2.292,0,0,1-2.106,2.46l-6.7.52a2.292,2.292,0,0,1-2.46-2.106Z" transform="translate(-34.537 -111.059)" fill="#f5d166"/>
    <path id="Pfad_413" data-name="Pfad 413" d="M45.2,187.476,43.83,169.831a2.293,2.293,0,0,1,2.106-2.46l9.92-.77a2.292,2.292,0,0,1,2.46,2.106l1.369,17.645a2.292,2.292,0,0,1-2.106,2.46l-9.92.77a2.292,2.292,0,0,1-2.46-2.106Z" transform="translate(-29.067 -122.181)" fill="#646464"/>
    <path id="Pfad_414" data-name="Pfad 414" d="M80.97,244.328a2.3,2.3,0,0,1-2.373-2.044l-1.825-17.016a2.29,2.29,0,0,1,2.694-2.5l.512.1a2.293,2.293,0,0,1,1.866,2.074l1.313,16.921a2.29,2.29,0,0,1-2.1,2.46l-.083.005Z" transform="translate(-39.21 -139.471)" fill="#646464"/>
    <path id="Pfad_415" data-name="Pfad 415" d="M51.891,243.49l-1.373-17.7a2.277,2.277,0,0,1,2.05-2.455l9-.919a2.306,2.306,0,0,1,2.51,2.035l1.91,17.876a2.29,2.29,0,0,1-2.1,2.526l-9.535.74a2.292,2.292,0,0,1-2.46-2.106Z" transform="translate(-31.127 -139.371)" fill="#646464"/>
    <path id="Pfad_416" data-name="Pfad 416" d="M130.419,261.795l8.041,12.014,1.908,14.065,5.654-.079-3.23-16.589-12.837-15.2h0A5.946,5.946,0,0,0,130.419,261.795Z" transform="translate(-55.427 -149.719)" fill="#d1ccc5"/>
    <rect id="Rechteck_625" data-name="Rechteck 625" width="23.006" height="0.323" transform="translate(61.491 136.222) rotate(-5.221)" fill="#3f3d56"/>
    <rect id="Rechteck_626" data-name="Rechteck 626" width="21.812" height="0.323" transform="translate(61.057 133.255) rotate(-4.885)" fill="#3f3d56"/>
    <rect id="Rechteck_627" data-name="Rechteck 627" width="20.867" height="0.323" transform="translate(60.666 130.601) rotate(-5.557)" fill="#3f3d56"/>
    <rect id="Rechteck_628" data-name="Rechteck 628" width="20.047" height="0.323" transform="translate(60.642 127.958) rotate(-6.339)" fill="#3f3d56"/>
    <rect id="Rechteck_629" data-name="Rechteck 629" width="19.262" height="0.323" transform="translate(60.261 125.413) rotate(-6.451)" fill="#3f3d56"/>
    <rect id="Rechteck_630" data-name="Rechteck 630" width="18.749" height="0.323" transform="translate(59.248 122.536) rotate(-4.437)" fill="#3f3d56"/>
    <rect id="Rechteck_631" data-name="Rechteck 631" width="18.223" height="0.323" transform="translate(58.649 120.525) rotate(-5.109)" fill="#3f3d56"/>
    <rect id="Rechteck_632" data-name="Rechteck 632" width="17.666" height="0.323" transform="translate(58.098 118.677) rotate(-6.339)" fill="#3f3d56"/>
    <rect id="Rechteck_633" data-name="Rechteck 633" width="17.438" height="0.323" transform="translate(57.482 116.188) rotate(-5.445)" fill="#3f3d56"/>
    <rect id="Rechteck_634" data-name="Rechteck 634" width="16.702" height="0.323" transform="translate(56.774 114.216) rotate(-6.228)" fill="#3f3d56"/>
    <rect id="Rechteck_635" data-name="Rechteck 635" width="16.548" height="0.323" transform="translate(56.101 111.932) rotate(-4.997)" fill="#3f3d56"/>
    <path id="Pfad_417" data-name="Pfad 417" d="M100.306,243.307l-1.694-21.83a2.292,2.292,0,0,1,2.106-2.46l10.563-.82a2.292,2.292,0,0,1,2.46,2.106l1.694,21.83a2.292,2.292,0,0,1-2.106,2.46l-10.563.82A2.292,2.292,0,0,1,100.306,243.307Z" transform="translate(-45.939 -138.071)" fill="#f5d166"/>
    <path id="Pfad_418" data-name="Pfad 418" d="M60.149,294.779l-18.792.26-.151,0-1.123-14.472a3.333,3.333,0,0,1,3.061-3.577l18.47-1.433a3.333,3.333,0,0,1,3.577,3.062l1.216,15.673-.161.012-6.1.473Z" transform="translate(-27.912 -155.736)" fill="#d1ccc5"/>
    <path id="Pfad_419" data-name="Pfad 419" d="M97.9,188.486,96.61,171.806a2.292,2.292,0,0,1,2.106-2.46l3.482-.27a2.292,2.292,0,0,1,2.46,2.106l1.294,16.679a2.292,2.292,0,0,1-2.106,2.46l-3.482.27a2.292,2.292,0,0,1-2.46-2.106Z" transform="translate(-45.322 -122.943)" fill="#646464"/>
    <path id="Pfad_420" data-name="Pfad 420" d="M107.019,288.411l-2.065-14.089-3.946-13.295-1.092-3.639h0A2.429,2.429,0,0,0,96.3,259.8l.2,1.572,3.946,13.295,2.065,14.089" transform="translate(-45.222 -150.042)" fill="#d1ccc5"/>
  </g>
  <path id="Pfad_421" data-name="Pfad 421" d="M229.877,239.253l-22.985.317-9.215-102.751a9.408,9.408,0,0,1,2.21-6.918l22.6-26.4A9.31,9.31,0,0,1,235,101.946L263.31,122c2.309,1.636,14.733,10.922,14.919,13.746l-5.9,70.69,12.8,15.155.027.032,3.275,16.82-58.554.808h0Z" transform="translate(-60.868 -30.862)" fill="#e6e6e6"/>
  <path id="Pfad_422" data-name="Pfad 422" d="M237.1,136.03l-.37-4.769a2.293,2.293,0,0,1,2.106-2.46l6.7-.52a2.292,2.292,0,0,1,2.46,2.106l.37,4.769a2.292,2.292,0,0,1-2.106,2.46l-6.7.52A2.293,2.293,0,0,1,237.1,136.03Z" transform="translate(-72.903 -39.505)" fill="#f5d166"/>
  <path id="Pfad_423" data-name="Pfad 423" d="M220.339,185.27l-1.369-17.645a2.292,2.292,0,0,1,2.106-2.46l9.919-.77a2.292,2.292,0,0,1,2.46,2.106l1.369,17.645a2.292,2.292,0,0,1-2.106,2.46l-9.919.77A2.293,2.293,0,0,1,220.339,185.27Z" transform="translate(-67.434 -50.627)" fill="#646464"/>
  <path id="Pfad_424" data-name="Pfad 424" d="M253,221.519a1.949,1.949,0,0,0-.619,1.653l1.825,17.016a1.972,1.972,0,0,0,2.038,1.755,1.967,1.967,0,0,0,1.878-2.117L256.805,222.9a1.969,1.969,0,0,0-1.6-1.782l-.512-.095a1.989,1.989,0,0,0-.517-.028,1.95,1.95,0,0,0-1.178.519Z" transform="translate(-77.721 -68.06)" fill="#646464"/>
  <path id="Pfad_425" data-name="Pfad 425" d="M213.005,244.807a2.272,2.272,0,0,1-.825-1.588L210.868,226.3a2.293,2.293,0,0,1,1.523-2.337l.491-.173a2.29,2.29,0,0,1,3.047,2.05l.822,17.094a2.3,2.3,0,0,1-2.029,2.385l-.083.008A2.272,2.272,0,0,1,213.005,244.807Z" transform="translate(-64.939 -68.88)" fill="#646464"/>
  <path id="Pfad_426" data-name="Pfad 426" d="M305.559,259.589,313.6,271.6l1.908,14.065,5.654-.079L317.932,269l-12.837-15.2h0A5.946,5.946,0,0,0,305.559,259.589Z" transform="translate(-93.794 -78.164)" fill="#d1ccc5"/>
  <rect id="Rechteck_636" data-name="Rechteck 636" width="23.006" height="0.323" transform="translate(198.264 205.57) rotate(-5.221)" fill="#3f3d56"/>
  <rect id="Rechteck_637" data-name="Rechteck 637" width="21.812" height="0.323" transform="translate(197.83 202.603) rotate(-4.885)" fill="#3f3d56"/>
  <rect id="Rechteck_638" data-name="Rechteck 638" width="20.867" height="0.323" transform="translate(197.439 199.949) rotate(-5.557)" fill="#3f3d56"/>
  <rect id="Rechteck_639" data-name="Rechteck 639" width="20.047" height="0.323" transform="translate(197.416 197.306) rotate(-6.339)" fill="#3f3d56"/>
  <rect id="Rechteck_640" data-name="Rechteck 640" width="19.262" height="0.323" transform="translate(197.034 194.76) rotate(-6.451)" fill="#3f3d56"/>
  <rect id="Rechteck_641" data-name="Rechteck 641" width="18.749" height="0.323" transform="translate(196.021 191.885) rotate(-4.437)" fill="#3f3d56"/>
  <rect id="Rechteck_642" data-name="Rechteck 642" width="18.223" height="0.323" transform="translate(195.422 189.873) rotate(-5.109)" fill="#3f3d56"/>
  <rect id="Rechteck_643" data-name="Rechteck 643" width="17.666" height="0.323" transform="translate(194.872 188.025) rotate(-6.339)" fill="#3f3d56"/>
  <rect id="Rechteck_644" data-name="Rechteck 644" width="17.438" height="0.323" transform="translate(194.256 185.536) rotate(-5.445)" fill="#3f3d56"/>
  <rect id="Rechteck_645" data-name="Rechteck 645" width="16.702" height="0.323" transform="translate(193.547 183.564) rotate(-6.228)" fill="#3f3d56"/>
  <rect id="Rechteck_646" data-name="Rechteck 646" width="16.548" height="0.323" transform="translate(192.874 181.28) rotate(-4.997)" fill="#3f3d56"/>
  <path id="Pfad_427" data-name="Pfad 427" d="M275.446,241.1l-1.694-21.83a2.293,2.293,0,0,1,2.106-2.46l10.563-.82a2.292,2.292,0,0,1,2.46,2.106l1.694,21.83a2.292,2.292,0,0,1-2.106,2.46l-10.563.82A2.292,2.292,0,0,1,275.446,241.1Z" transform="translate(-84.306 -66.517)" fill="#f5d166"/>
  <path id="Pfad_428" data-name="Pfad 428" d="M235.289,292.573l-18.791.26-.151,0-1.123-14.472a3.333,3.333,0,0,1,3.062-3.577l18.47-1.433a3.333,3.333,0,0,1,3.577,3.062l1.216,15.673-.161.013-6.1.473Z" transform="translate(-66.279 -84.182)" fill="#d1ccc5"/>
  <path id="Pfad_429" data-name="Pfad 429" d="M273.044,186.28,271.75,169.6a2.292,2.292,0,0,1,2.106-2.46l3.482-.27a2.292,2.292,0,0,1,2.46,2.106l1.294,16.679a2.292,2.292,0,0,1-2.106,2.46l-3.482.27a2.292,2.292,0,0,1-2.46-2.106Z" transform="translate(-83.689 -51.389)" fill="#646464"/>
  <path id="Pfad_430" data-name="Pfad 430" d="M282.159,286.2l-2.065-14.089-3.946-13.295-1.092-3.639h0a2.429,2.429,0,0,0-3.616,2.417l.2,1.572,3.946,13.295,2.065,14.089" transform="translate(-83.589 -78.488)" fill="#d1ccc5"/>
  <path id="c" d="M189.747,174.742c5.918,1.413,11.443-.5,12.341-4.262s-3.17-7.963-9.09-9.375a15.226,15.226,0,0,0-7.19-.068l-25.148-5.669-2.409,11.858,25.048,4.329a15.226,15.226,0,0,0,6.449,3.187Z" transform="translate(-48.737 -47.849)" fill="#ffb6b6"/>
  <path id="Pfad_432" data-name="Pfad 432" d="M153.874,87.316l-4.152-3.46s-8.3,4.152-9.688,7.612-9.688,36.678-9.688,36.678-1.629,18.2,2.645,20.521,31.264.932,31.264.932l2.076-13.841-11.072-4.152Z" transform="translate(-40.049 -25.825)" fill="#e0aa0b"/>
  <g id="Gruppe_408" data-name="Gruppe 408" transform="translate(0 224.08)">
    <g id="Gruppe_407" data-name="Gruppe 407" transform="translate(206.675)">
      <path id="Pfad_433" data-name="Pfad 433" d="M383.656,363.372c-.584-.985-3.112.07-3.577-.824s1.885-2.248,3.227-5.349c.242-.559,1.767-4.083.638-5.171-2.14-2.061-11.93,6.445-15.357,3.661-.752-.611-1.277-1.83-3.553-3.81-.905-.788-1.453-1.143-1.983-1.011-.752.188-.811,1.194-1.618,3.172-1.209,2.967-1.924,2.788-2.628,5.155-.523,1.757-.4,2.779-1.019,2.978-.871.282-1.672-1.582-2.776-1.415-1.126.17-1.807,2.34-2.022,3.965-.4,3.049.716,5.061,1.337,7.177.674,2.3,1.075,5.8-.483,10.746l-15.416,43.436c3.4-8.913,13.258-33.346,17.4-42.425,1.2-2.621,2.515-5.28,5.225-6.329,2.609-1.01,6.193-.407,10.761-1.508.534-.129,2.014-.505,2.2-1.376.154-.72-.717-1.122-.583-1.8.179-.9,1.892-.916,4-1.959a12.454,12.454,0,0,0,3.2-2.364c.24-.227,3.8-3.641,3.025-4.953Z" transform="translate(-310.901 -332.129)" fill="#d1ccc5"/>
      <path id="Pfad_434" data-name="Pfad 434" d="M310.753,400.462c-.652,0-.864,1.547-1.437,1.518s-.559-1.574-1.694-3.127c-.2-.28-1.494-2.045-2.354-1.8-1.629.455-.279,7.715-2.634,8.593a26.065,26.065,0,0,0-2.9.645c-.648.217-.98.383-1.068.681-.125.423.352.743,1.09,1.709,1.107,1.449.813,1.749,1.772,2.777.712.764,1.247,1,1.168,1.359-.113.509-1.259.364-1.5.954s.627,1.562,1.363,2.136a8.666,8.666,0,0,0,3.908,1.415,10.262,10.262,0,0,1,5.135,3.337l16.871,20.1c-3.393-4.242-12.541-16.128-15.8-20.781-.942-1.343-1.865-2.758-1.6-4.391.257-1.572,1.587-3.157,2.365-5.717.091-.3.333-1.134-.04-1.477-.309-.283-.757.028-1.05-.232-.392-.349.1-1.193.192-2.527a7.091,7.091,0,0,0-.236-2.254c-.042-.183-.69-2.917-1.558-2.914Z" transform="translate(-298.651 -346.353)" fill="#d1ccc5"/>
      <path id="Pfad_435" data-name="Pfad 435" d="M334.764,399.423l-.393-3.507.18-.266a6.489,6.489,0,0,0,1.259-3.57c0-.181-.008-.362-.016-.547a5.486,5.486,0,0,1,.4-2.7c.266-.591,1.013-1.959,2.136-1.79a1.272,1.272,0,0,1,.7.344l.08-.125a3.858,3.858,0,0,1,.893-.982,4.507,4.507,0,0,0,.749-.757c.146-.181.259-.34.355-.474a1.647,1.647,0,0,1,1.339-.879,1.758,1.758,0,0,1,1.337,1.016,8.453,8.453,0,0,1,.776,1.534,2.648,2.648,0,0,0,.131.3c.23.339,2.1.022,2.808-.093,1.584-.264,2.955-.493,3.52.506.4.715.1,1.66-.92,2.884a5.725,5.725,0,0,1-.96.9,1.174,1.174,0,0,1,.564.737h0c.213.85-.517,1.7-2.171,2.535a5.838,5.838,0,0,1-1.738.62,6.829,6.829,0,0,1-.975.086,1.155,1.155,0,0,1-.143.52,1.735,1.735,0,0,1-1.806.727,14.154,14.154,0,0,1-2.556-.412,6.2,6.2,0,0,0-1.614-.24c-.8.064-1.412.7-2.134,1.531l-1.8,2.105Z" transform="translate(-309.652 -342.393)" fill="#d1ccc5"/>
      <path id="Pfad_436" data-name="Pfad 436" d="M330.126,370.217l-3.293,1.27-.3-.106a6.489,6.489,0,0,0-3.773-.312c-.175.045-.349.1-.525.154a5.487,5.487,0,0,1-2.714.3c-.639-.107-2.152-.483-2.273-1.612a1.272,1.272,0,0,1,.154-.769l-.141-.045a3.859,3.859,0,0,1-1.177-.615,4.512,4.512,0,0,0-.922-.532c-.212-.095-.4-.164-.549-.223a1.647,1.647,0,0,1-1.19-1.072,1.758,1.758,0,0,1,.644-1.551,8.453,8.453,0,0,1,1.287-1.14,2.653,2.653,0,0,0,.258-.2c.269-.309-.512-2.039-.8-2.692-.657-1.465-1.226-2.734-.4-3.533.589-.573,1.579-.522,3.023.159a5.727,5.727,0,0,1,1.112.7,1.174,1.174,0,0,1,.57-.732h0c.768-.422,1.778.069,3,1.457a5.839,5.839,0,0,1,1.04,1.524,6.834,6.834,0,0,1,.331.921,1.154,1.154,0,0,1,.539.007c.59.146.989.666,1.161,1.563a14.159,14.159,0,0,1,.25,2.577,6.2,6.2,0,0,0,.177,1.622c.265.755,1.038,1.188,2.022,1.676l2.493,1.208Z" transform="translate(-303.191 -334.069)" fill="#d1ccc5"/>
      <path id="Pfad_437" data-name="Pfad 437" d="M334.764,354.316l-.393-3.507.18-.266a6.489,6.489,0,0,0,1.259-3.57c0-.181-.008-.362-.016-.547a5.486,5.486,0,0,1,.4-2.7c.266-.591,1.013-1.959,2.136-1.79a1.272,1.272,0,0,1,.7.344l.08-.125a3.86,3.86,0,0,1,.893-.982,4.509,4.509,0,0,0,.749-.757c.146-.181.259-.34.355-.474a1.647,1.647,0,0,1,1.339-.879,1.758,1.758,0,0,1,1.337,1.016,8.454,8.454,0,0,1,.776,1.534,2.647,2.647,0,0,0,.131.3c.23.339,2.1.022,2.808-.093,1.584-.264,2.955-.493,3.52.506.4.715.1,1.66-.92,2.884a5.726,5.726,0,0,1-.96.9,1.174,1.174,0,0,1,.564.737h0c.213.85-.517,1.7-2.171,2.535a5.838,5.838,0,0,1-1.738.62,6.832,6.832,0,0,1-.975.086,1.155,1.155,0,0,1-.143.52,1.735,1.735,0,0,1-1.806.727,14.163,14.163,0,0,1-2.556-.412,6.2,6.2,0,0,0-1.614-.24c-.8.064-1.412.7-2.134,1.531l-1.8,2.105Z" transform="translate(-309.652 -328.501)" fill="#d1ccc5"/>
      <path id="Pfad_438" data-name="Pfad 438" d="M335.673,422.585l-.735-.461-.178-.848.178.848-.857.1c-.014-.08-.06-.263-.13-.549a122.643,122.643,0,0,1-2.528-13.857,141.276,141.276,0,0,1-1.146-16.034c-.08-5.4.176-9.492.381-12.779.155-2.479.343-4.84.528-7.14a133.521,133.521,0,0,0,.61-18.373,17.023,17.023,0,0,0-1.981-7.6,16.133,16.133,0,0,0-4.143-4.86l1.081-1.358a17.9,17.9,0,0,1,4.584,5.385,18.644,18.644,0,0,1,2.192,8.339,134.817,134.817,0,0,1-.614,18.6c-.183,2.291-.371,4.642-.525,7.111-.2,3.257-.456,7.311-.378,12.644a139.54,139.54,0,0,0,1.13,15.838,120.714,120.714,0,0,0,2.495,13.667c.2.825.244,1,.037,1.324Z" transform="translate(-306.973 -328.69)" fill="#d1ccc5"/>
      <path id="Pfad_439" data-name="Pfad 439" d="M318.118,338.9c-.071,0-.143,0-.216-.007a5.544,5.544,0,0,1-4.065-2.627,12.125,12.125,0,0,1-1.45-3.455,21.658,21.658,0,0,1-.8-3.582,3.515,3.515,0,0,1,.095-2.237,2.646,2.646,0,0,1,1.222-1.116.981.981,0,0,1,.068-.511c.3-.723,1.081-.628,1.506-.583a4.26,4.26,0,0,0,.773.047,2.179,2.179,0,0,0,1.071-.361,4.822,4.822,0,0,1,1.45-.571,5.171,5.171,0,0,1,2.728.217c1.876.625,2.8,2.083,3.871,3.771a13.243,13.243,0,0,1,1.429,3.262,3.879,3.879,0,0,1,.195,2.164c-.213.828-.717,1.3-2,2.349a23.246,23.246,0,0,1-2.583,1.978,6.516,6.516,0,0,1-3.3,1.26Z" transform="translate(-302.601 -323.802)" fill="#d1ccc5"/>
    </g>
    <path id="Pfad_440" data-name="Pfad 440" d="M296.216,458.085h0a.581.581,0,0,1-.581.581H.581A.581.581,0,0,1,0,458.085H0a.581.581,0,0,1,.581-.581H295.635A.581.581,0,0,1,296.216,458.085Z" transform="translate(0 -364.978)" fill="#d1ccc5"/>
  </g>
</svg>
