<svg id="Gruppe_383" data-name="Gruppe 383" xmlns="http://www.w3.org/2000/svg" width="516.979" height="257.637" viewBox="0 0 516.979 257.637">
  <circle id="Ellipse_151" data-name="Ellipse 151" cx="25.412" cy="25.412" r="25.412" transform="translate(115.74 159.892)" fill="#d1ccc5"/>
  <path id="Pfad_307" data-name="Pfad 307" d="M355.812,519.474a25.414,25.414,0,0,0,42.344,26.9,25.414,25.414,0,1,1-42.344-26.9Z" transform="translate(-233.423 -351.144)" fill="#646464" opacity="0.2" style="mix-blend-mode: normal;isolation: isolate"/>
  <path id="Pfad_308" data-name="Pfad 308" d="M247.3,325.819h.069l1.257,72.048h-2.653Z" transform="translate(-106.081 -140.515)" fill="#3f3d56"/>
  <circle id="Ellipse_152" data-name="Ellipse 152" cx="51.236" cy="51.236" r="51.236" transform="translate(38.5 60.855)" fill="#9f7042"/>
  <path id="Pfad_309" data-name="Pfad 309" d="M226.919,360.416a51.24,51.24,0,0,0,85.374,54.226,51.24,51.24,0,1,1-85.374-54.226Z" transform="translate(-175.014 -282.547)" opacity="0.2" style="mix-blend-mode: normal;isolation: isolate"/>
  <path id="Pfad_310" data-name="Pfad 310" d="M156,197.087h.141l2.534,145.262h-5.349Z" transform="translate(-66.125 -84.997)" fill="#3f3d56"/>
  <rect id="Rechteck_606" data-name="Rechteck 606" width="234.843" height="69.617" transform="translate(192.692 182.165)" fill="#d1ccc5"/>
  <rect id="Rechteck_607" data-name="Rechteck 607" width="27.383" height="55.23" transform="translate(296.422 196.553)" fill="#646464"/>
  <rect id="Rechteck_608" data-name="Rechteck 608" width="207.46" height="64.048" transform="translate(206.384 100.017)" fill="#d1ccc5"/>
  <path id="Pfad_311" data-name="Pfad 311" d="M719.342,327.462H469.817a2.089,2.089,0,0,1-1.447-3.594l68.2-65.55V229.766a2.091,2.091,0,0,1,2.089-2.089h13.459a2.091,2.091,0,0,1,2.088,2.089v11.6l5.151-4.951a46.28,46.28,0,0,1,63.016-1.048l98.37,88.453a2.089,2.089,0,0,1-1.4,3.642Z" transform="translate(-284.466 -223.5)" fill="#646464"/>
  <path id="Pfad_312" data-name="Pfad 312" d="M449.146,204.421h0a13.227,13.227,0,0,1,13.227,13.227v17.868H435.919V217.648A13.227,13.227,0,0,1,449.146,204.421Z" transform="translate(-187.997 -88.16)" fill="#fff"/>
  <path id="Pfad_313" data-name="Pfad 313" d="M535.24,204.829h0a13.227,13.227,0,0,1,13.227,13.227v17.868H522.012V218.056A13.227,13.227,0,0,1,535.24,204.829Z" transform="translate(-225.126 -88.336)" fill="#fff"/>
  <path id="Pfad_314" data-name="Pfad 314" d="M621.333,205.237h0a13.227,13.227,0,0,1,13.227,13.227v17.868H608.106V218.464a13.227,13.227,0,0,1,13.227-13.227Z" transform="translate(-262.255 -88.512)" fill="#fff"/>
  <path id="Pfad_315" data-name="Pfad 315" d="M655.607,344.373h0A13.227,13.227,0,0,1,668.834,357.6v17.868H642.38V357.6A13.227,13.227,0,0,1,655.607,344.373Z" transform="translate(-277.036 -148.516)" fill="#fff"/>
  <path id="Pfad_316" data-name="Pfad 316" d="M425.481,344.373h0A13.227,13.227,0,0,1,438.708,357.6v17.868H412.254V357.6A13.227,13.227,0,0,1,425.481,344.373Z" transform="translate(-177.791 -148.516)" fill="#fff"/>
  <path id="Pfad_317" data-name="Pfad 317" d="M726.606,530.809l-44.054-19.493a1.856,1.856,0,0,0-.751-.159H471.848a1.856,1.856,0,0,0-.7.137L423.2,530.787a1.856,1.856,0,0,0,.7,3.576h12.441v64.048h-1.392v6.5H714.806v-6.5h-2.321V534.364h13.369a1.856,1.856,0,0,0,.751-3.554Zm-17.833,67.6H440.05V534.364H708.773Z" transform="translate(-264.762 -347.557)" fill="#646464"/>
  <rect id="Rechteck_609" data-name="Rechteck 609" width="33.88" height="5.569" transform="translate(243.745 144.804)" fill="#646464"/>
  <rect id="Rechteck_610" data-name="Rechteck 610" width="33.88" height="5.569" transform="translate(293.405 144.804)" fill="#cacaca"/>
  <rect id="Rechteck_611" data-name="Rechteck 611" width="33.88" height="5.569" transform="translate(343.066 144.804)" fill="#cacaca"/>
  <rect id="Rechteck_612" data-name="Rechteck 612" width="33.88" height="5.569" transform="translate(361.63 225.096)" fill="#646464"/>
  <rect id="Rechteck_613" data-name="Rechteck 613" width="33.88" height="5.569" transform="translate(230.286 225.096)" fill="#646464"/>
  <path id="Pfad_318" data-name="Pfad 318" d="M661.911,675.637H146.069a.569.569,0,0,1,0-1.137H661.911a.569.569,0,0,1,0,1.137Z" transform="translate(-145.5 -418.001)" fill="#646464"/>
  <path id="Pfad_319" data-name="Pfad 319" d="M732.17,391.207c0,.364-.006.734-.011,1.1-.006.438-.017.87-.034,1.308-.017.381-.034.756-.057,1.132-.068,1.257-.176,2.508-.324,3.765-.034.318-.074.631-.119.95-.034.245-.068.495-.108.745-.04.279-.08.557-.125.836q-.136.887-.307,1.774c-.057.3-.114.591-.176.887-.12.586-.25,1.177-.387,1.763-.011.046-.023.1-.034.142-.068.29-.136.574-.211.864-.023.085-.04.165-.068.25-.051.216-.108.432-.165.648-.08.3-.159.6-.245.9-.137.466-.273.927-.415,1.393a1.454,1.454,0,0,0-.046.148c-.273.882-.563,1.752-.882,2.616-.165.455-.341.916-.517,1.371s-.358.91-.546,1.359-.37.876-.557,1.308c-.046.1-.091.2-.142.307-.2.449-.4.887-.614,1.325-.006.006-.006.017-.011.023-.165.353-.341.705-.518,1.052a.043.043,0,0,1-.011.028c-.17.341-.347.683-.529,1.018l-.29.552-.034.063c-.364.677-.739,1.348-1.137,2.013-.085.148-.171.3-.256.438s-.176.3-.267.438q-.085.154-.188.307c-.12.193-.239.392-.364.586-.023.04-.051.08-.074.119-.216.336-.432.665-.648,1-.267.4-.54.8-.819,1.2l-6.177,9.885-.267-.222-.074-.068h-.006l-.245-.2-.671-.569c-.2.2-.4.4-.609.591-.08.08-.165.154-.245.233-.062.057-.119.114-.182.171a59.557,59.557,0,0,1-39.8,16.92h-.017a65.005,65.005,0,0,1-32.435-7.655c-.222-.114-.438-.228-.654-.358-1.3-.705-2.565-1.45-3.811-2.247-.006-.006-.011-.006-.017-.011q-2.167-1.536-4.231-3.276a62.519,62.519,0,0,1-22.141-51.067c.017-.381.04-.756.068-1.137q.137-2.065.421-4.112c.051-.381.108-.762.165-1.137H731.59q.358,2.61.495,5.249C732.141,389.017,732.17,390.109,732.17,391.207Z" transform="translate(-345.507 -292.144)" fill="#d1ccc5"/>
  <path id="Pfad_320" data-name="Pfad 320" d="M731.706,342.986a61.476,61.476,0,0,0-121.584,0c-.057.375-.114.756-.165,1.137q-.281,2.047-.421,4.112H732.2Q732.065,345.6,731.706,342.986Z" transform="translate(-345.623 -252.46)" fill="#e0aa0b"/>
  <path id="Pfad_321" data-name="Pfad 321" d="M697.747,462.527H662.521V434.349c.65-12.878,11.657-13.918,22-13.227a13.226,13.226,0,0,1,13.227,13.228Z" transform="translate(-368.474 -308.658)" fill="#f5d166"/>
  <path id="Pfad_322" data-name="Pfad 322" d="M639.551,385.814v.006c0,.006.006.006.011.006ZM625.384,342.5c-.023.142-.051.284-.074.427.023-.142.051-.284.08-.427Zm-.705,5.249c-.017.216-.034.432-.046.648q.017-.324.051-.648a.84.84,0,0,1,.006-.119c-.006.04-.006.08-.011.119Zm14.872,38.065c0,.006.006.006.011.006l-.011-.011ZM625.384,342.5c-.023.142-.051.284-.074.427.023-.142.051-.284.08-.427Zm-.751,5.9q.017-.324.051-.648a.839.839,0,0,1,.006-.119c-.006.04-.006.08-.011.119C624.662,347.97,624.645,348.187,624.634,348.4Zm175.7,104.624a3.857,3.857,0,0,0-.353-.33l-.006-.006-28.164-23.767-.728-.614-2.77-2.338-.694-.586-3.947-3.333-1.081-.91-2.235-1.888-1.143-.967-10.783-9.094-6.182-5.215-.83-.7-18.216-15.373c.279-.4.552-.8.819-1.2.216-.336.432-.665.648-1,.023-.04.051-.08.074-.12.125-.193.245-.392.364-.586q.1-.154.188-.307c.091-.142.182-.29.267-.438s.17-.29.256-.438c.4-.665.773-1.337,1.137-2.013l.034-.063.29-.552c.182-.336.358-.677.529-1.018a.043.043,0,0,0,.011-.028c.176-.347.353-.7.518-1.052.006-.006.006-.017.011-.023.21-.438.415-.876.614-1.325.051-.1.1-.2.142-.307.188-.432.375-.87.557-1.308s.37-.9.546-1.359.353-.916.517-1.371q.469-1.305.882-2.616a1.454,1.454,0,0,1,.046-.148c.142-.466.279-.927.415-1.393.085-.3.165-.6.245-.9.057-.216.114-.432.165-.648.028-.085.045-.165.068-.25.074-.29.142-.574.211-.864.011-.046.023-.1.034-.142.136-.586.267-1.177.387-1.763.063-.3.119-.591.176-.887.108-.591.216-1.183.307-1.774.046-.279.085-.557.125-.836.04-.25.074-.5.108-.745.046-.318.085-.631.119-.95.148-1.257.256-2.508.324-3.765.023-.375.04-.751.057-1.132.017-.438.029-.87.034-1.308.006-.364.011-.734.011-1.1,0-1.1-.029-2.19-.085-3.287q-.137-2.636-.495-5.249A62.59,62.59,0,0,0,610.006,342.5c-.057.375-.114.756-.165,1.137q-.281,2.047-.421,4.112c-.028.381-.051.756-.068,1.137a62.519,62.519,0,0,0,22.141,51.067q2.065,1.74,4.231,3.276c.006.006.011.006.017.011.484.341.967.677,1.456,1.007.779.512,1.564,1.012,2.354,1.49.063.034.125.074.188.108.682.409,1.371.8,2.059,1.183h.006a61.5,61.5,0,0,0,7.957,3.663,62.779,62.779,0,0,0,25.155,3.947h.017a62.425,62.425,0,0,0,28.386-8.4c1.257-.728,2.5-1.507,3.708-2.337.3-.2.608-.415.9-.626.364-.256.728-.523,1.092-.791.006,0,.006-.006.011-.006a.822.822,0,0,1,.085-.063c.245-.188.495-.375.734-.557.063-.046.125-.091.188-.142a.275.275,0,0,0,.046-.04c.142-.1.279-.216.421-.324s.279-.222.421-.335a.543.543,0,0,0,.068-.051c.159-.131.319-.256.478-.387s.324-.267.478-.4.313-.262.472-.4c.136-.114.279-.233.415-.358.045-.034.085-.074.131-.114a.408.408,0,0,1,.057-.046c.188-.159.37-.324.552-.489.046-.04.085-.08.131-.119.279-.25.557-.5.83-.762l.193-.176c.063-.057.12-.114.182-.171.08-.08.165-.154.245-.233.2-.193.4-.392.609-.591l.671.569.245.2h.006l.074.068.267.222,3.97,3.356.085.074.068.051.449.381.9.762.9.756.131.108,4.18,3.526.58.489,4.032,3.4L753.2,428.31l.728.614,28.568,24.1,7.325,6.182,2.724,2.3a5.763,5.763,0,0,0,8.127-.682,5.6,5.6,0,0,0,.961-1.615A5.739,5.739,0,0,0,800.338,453.027ZM635.593,321.189A46.89,46.89,0,0,1,717.463,342.5c.074.381.142.756.2,1.137.233,1.359.4,2.736.506,4.112.028.381.057.756.074,1.137.051.853.074,1.712.074,2.565a46.68,46.68,0,0,1-2.537,15.208v.006a46.639,46.639,0,0,1-8.514,15c-.08.091-.159.188-.245.279-.751.887-1.541,1.74-2.355,2.554-.006.006-.011.017-.017.023-.279.279-.563.563-.848.825-.58.563-1.172,1.1-1.774,1.609q-1.356,1.186-2.781,2.224c-.319.233-.637.461-.961.688s-.643.444-.967.66c-.648.432-1.308.847-1.974,1.24-.33.2-.671.392-1.007.58s-.677.375-1.018.552-.682.358-1.029.529c-.688.347-1.382.671-2.087.973q-.529.239-1.058.444c-.222.091-.438.182-.66.262a2.14,2.14,0,0,1-.267.1q-.179.077-.358.137a1.035,1.035,0,0,1-.119.046c-.245.1-.483.182-.734.267-.358.131-.717.25-1.081.364s-.722.233-1.086.336-.734.216-1.1.313-.734.2-1.1.284c-.392.1-.785.193-1.183.279-.347.08-.688.148-1.035.21-.324.068-.654.125-.978.182-.455.08-.91.154-1.371.216-.25.04-.495.074-.745.1-.108.017-.21.028-.313.04-.319.046-.637.08-.95.108-.085.006-.165.017-.245.023-.347.034-.7.063-1.047.091-.745.051-1.484.085-2.229.1-.375.006-.756.011-1.132.011s-.751-.006-1.126-.017c0,0,0,.006-.006,0s-.006.006-.011,0l-.006,0-.006,0a.1.1,0,0,1-.057,0c-.267,0-.535-.011-.8-.028-.193-.006-.392-.011-.592-.028q-.4-.017-.8-.051c-.085,0-.171-.011-.256-.017a.847.847,0,0,1-.119-.011c-.273-.023-.552-.046-.825-.074-.136-.011-.279-.023-.415-.04-.415-.046-.83-.1-1.24-.154-.466-.057-.933-.125-1.393-.211-.216-.028-.427-.068-.637-.108q-.418-.068-.836-.154c-.29-.057-.58-.114-.87-.182-.233-.051-.472-.1-.705-.159-.114-.023-.228-.051-.336-.08-.6-.142-1.189-.3-1.774-.466-.37-.1-.739-.21-1.1-.324-.5-.154-1-.318-1.49-.495-.193-.063-.381-.131-.575-.2s-.381-.137-.574-.21c-.176-.063-.353-.131-.523-.2-.284-.108-.563-.222-.842-.335-.574-.233-1.137-.478-1.7-.739-.319-.154-.637-.3-.95-.455q-1.851-.9-3.646-1.991c-.3-.176-.591-.364-.887-.552-.37-.228-.728-.466-1.086-.705-.2-.137-.392-.267-.586-.4-.358-.25-.711-.506-1.058-.762-.182-.131-.364-.267-.54-.4-.631-.478-1.251-.978-1.86-1.49-.29-.245-.58-.495-.864-.751-.12-.1-.239-.211-.358-.319-.136-.125-.273-.245-.4-.375l-.011-.011c-.2-.176-.4-.364-.591-.552-.3-.284-.6-.574-.881-.87s-.58-.591-.859-.887-.557-.6-.825-.9-.54-.608-.8-.921c-.256-.3-.506-.6-.745-.9q-.87-1.075-1.661-2.19c-.245-.341-.478-.683-.705-1.029-.245-.353-.478-.711-.7-1.069s-.455-.722-.671-1.092a.123.123,0,0,0-.023-.034c-.427-.722-.836-1.45-1.217-2.19s-.762-1.509-1.109-2.275c-.176-.381-.347-.768-.506-1.154-.33-.779-.637-1.558-.921-2.349-.142-.381-.273-.762-.4-1.149a.282.282,0,0,0-.023-.074c-.262-.785-.5-1.575-.711-2.372-.006-.011-.006-.023-.011-.034-.108-.392-.21-.785-.3-1.183-.091-.347-.171-.694-.245-1.046-.085-.392-.171-.785-.245-1.183-.04-.2-.08-.41-.114-.614-.034-.171-.063-.347-.091-.518s-.057-.347-.085-.523q-.086-.52-.154-1.041c-.057-.41-.1-.819-.148-1.234-.051-.495-.1-.99-.136-1.49-.028-.336-.046-.677-.062-1.018-.017-.313-.034-.626-.04-.938a.079.079,0,0,1,0-.051.008.008,0,0,1,0-.006.008.008,0,0,1,0-.006c-.006-.006-.006-.006,0-.011a.008.008,0,0,1,0-.011c-.006-.125-.011-.25-.011-.375q-.017-.555-.017-1.109c0-.336.006-.665.011-1q.017-.7.051-1.4c0-.1.011-.2.017-.3s.011-.2.017-.3q.017-.324.051-.648a.84.84,0,0,1,.006-.119c.017-.245.04-.489.063-.734.046-.489.1-.984.165-1.473.034-.245.063-.489.1-.734.023-.171.051-.347.08-.523s.051-.353.085-.529c.04-.233.08-.472.125-.711.023-.142.051-.284.08-.427q.162-.853.358-1.706c.131-.574.279-1.143.438-1.712s.324-1.149.506-1.723c.085-.29.176-.574.279-.859.188-.574.387-1.143.609-1.706.1-.279.21-.563.33-.842.228-.563.466-1.126.711-1.678.125-.279.25-.557.387-.836.256-.552.523-1.1.813-1.644s.58-1.092.887-1.627.625-1.069.961-1.6c.154-.262.324-.529.5-.785.341-.523.7-1.046,1.064-1.558C633.967,323.2,634.757,322.178,635.593,321.189Zm-10.914,26.566c-.017.216-.034.432-.046.648q.017-.324.051-.648a.839.839,0,0,1,.006-.119C624.685,347.675,624.685,347.714,624.679,347.754Zm.705-5.249c-.023.142-.051.284-.074.427.023-.142.051-.284.08-.427Zm14.167,43.309v.006c0,.006.006.006.011.006Z" transform="translate(-345.507 -251.979)" fill="#9f7042"/>
  <path id="Pfad_323" data-name="Pfad 323" d="M649.009,413.577a46.9,46.9,0,0,1-7.957-63.039q-1.345,1.354-2.6,2.837a46.892,46.892,0,0,0,71.677,60.481q1.252-1.484,2.359-3.04A46.9,46.9,0,0,1,649.009,413.577Z" transform="translate(-353.326 -278.287)" opacity="0.3" style="mix-blend-mode: normal;isolation: isolate"/>
</svg>
