<svg id="Gruppe_410" data-name="Gruppe 410" xmlns="http://www.w3.org/2000/svg" width="328.406" height="298.322" viewBox="0 0 328.406 298.322">
  <path id="uuid-f8ba9176-caa4-4aaa-aa33-5402b823e72a" d="M265.151,103.231c3.656-3.721,8.539-4.85,10.907-2.523s1.322,7.229-2.336,10.951a13.055,13.055,0,0,1-5.193,3.324l-15.69,15.569-7.149-7.519,16.227-14.55A13.055,13.055,0,0,1,265.151,103.231Z" transform="translate(-107.301 -43.454)" fill="#ffb6b6"/>
  <path id="Pfad_221" data-name="Pfad 221" d="M175.084,82.487l16.451,36.5,26.27-14.22,9.4,4.99s-21.475,35.9-36.179,31.815-40.814-41.145-36.109-52.582,20.166-6.5,20.166-6.5Z" transform="translate(-67.414 -35.562)" fill="#646464"/>
  <g id="Gruppe_318" data-name="Gruppe 318" transform="translate(179.986 54.586)">
    <path id="uuid-070545a9-7559-45f6-9b62-076b2f028fa8" d="M323.483,110.427c-3.819-3.553-5.081-8.4-2.819-10.834s7.19-1.519,11.01,2.036a13.055,13.055,0,0,1,3.464,5.1l15.991,15.26-7.321,7.351-14.987-15.824A13.056,13.056,0,0,1,323.483,110.427Z" transform="translate(-319.541 -97.487)" fill="#f5d166"/>
    <path id="Pfad_222" data-name="Pfad 222" d="M412.724,112.2l-30.866,32.862s-6.931,6.858-18.335-3.032-24.082-26.117-24.082-26.117l7.113-7.741,12.6,11.24s7.48,3.01,8,4.957-.934,2.753,1.4,2.129,2.383-2.016,2.529.1-1.281,4.579,1.419,2.189,3.505-.936,3.505-.936l19.728-26.132s12.747-10.08,16.412-1.044.575,11.53.575,11.53Z" transform="translate(-328.232 -96.91)" fill="#f5d166"/>
  </g>
  <g id="Gruppe_319" data-name="Gruppe 319" transform="translate(97.681 243.882)">
    <path id="Pfad_223" data-name="Pfad 223" d="M178.345,479.248h12l5.706-46.268h-17.7Z" transform="translate(-175.57 -432.979)" fill="#ffb6b6"/>
    <path id="Pfad_224" data-name="Pfad 224" d="M217.292,504.147h0a10.3,10.3,0,0,1,.571,3.391h0a4.071,4.071,0,0,1-4.071,4.071H176.644a2.777,2.777,0,0,1-2.777-2.777v-1.547s-1.838-4.648,1.946-10.378c0,0,4.7,4.486,11.729-2.54l2.072-3.754,15,10.969,8.314,1.023c1.819.224,3.431-.035,4.367,1.541h0Z" transform="translate(-173.42 -458.15)" fill="#2f2e41"/>
  </g>
  <rect id="Rechteck_533" data-name="Rechteck 533" width="29.727" height="43.925" transform="translate(268.435 76.636) rotate(180)" fill="#2f2e41"/>
  <path id="Pfad_225" data-name="Pfad 225" d="M450.8,102.524l-1.041-12.581H435.92l-3.069,13.329Z" transform="translate(-189.041 -39.281)" fill="#a0616a"/>
  <path id="Pfad_226" data-name="Pfad 226" d="M450.8,102.524l-1.041-12.581H435.92l-3.069,13.329Z" transform="translate(-189.041 -39.281)" opacity="0.1"/>
  <path id="Pfad_227" data-name="Pfad 227" d="M178.5,70.1l.243-16.179L168.767,47.7,157.919,60.973Z" transform="translate(-68.968 -20.833)" fill="#ffb6b6"/>
  <path id="Pfad_228" data-name="Pfad 228" d="M186.914,70.1l.646-15.776L177.179,47.7l3.527,19.523Z" transform="translate(-77.38 -20.833)" opacity="0.1"/>
  <circle id="Ellipse_132" data-name="Ellipse 132" cx="15.131" cy="15.131" r="15.131" transform="translate(236.489 24.403)" fill="#a0616a"/>
  <path id="Pfad_229" data-name="Pfad 229" d="M439.941,38s0-6.212,5.768-4.881,7.543,3.549,7.543,3.549,2.218,3.549,5.768,3.993,6.655,10.648,6.212,12.867-2.662,7.986.444,10.648,7.543,6.655,6.212,10.648-5.324,14.2-5.324,14.2S477.7,90.649,476.79,97.6a22.354,22.354,0,0,0-12.446-4.142c-7.1,0-6.212-12.879-6.212-12.879s-.444-7.974-1.775-10.193.444-14.642-6.212-21.3S439.941,38,439.941,38Z" transform="translate(-192.137 -14.381)" fill="#2f2e41"/>
  <path id="Pfad_230" data-name="Pfad 230" d="M416.634,39.563s-8.43,1.775-11.536,10.2-1.537,10-1.537,10-.687,5.076-4.455,6.856-.663,9.323-.663,9.323-.887,7.543-12.867,10.2S400.6,109.227,400.6,109.227s-1.941-9.635,10.482-10.079-2.433-23.2-2.433-23.2L407.316,61.3s2.662-16.86,10.648-19.079-1.331-2.662-1.331-2.662Z" transform="translate(-167.056 -17.278)" fill="#2f2e41"/>
  <circle id="Ellipse_133" data-name="Ellipse 133" cx="17.744" cy="17.744" r="17.744" transform="translate(91.821 2.635)" fill="#ffb6b6"/>
  <path id="Pfad_231" data-name="Pfad 231" d="M204.142,256.589,187.613,369.068H166.875l2.758-64.206,1.451-33.76-4.209-16.069a71.768,71.768,0,0,1-3.536-7.9c-1.822-4.886-3.261-10.744-1.125-13.522.786-1.024,2.83-1.782,5.608-2.346a58.03,58.03,0,0,1,5.805-.826c12.264-1.213,29.708-.456,29.708-.456l.443,14.634.246,8.172Z" transform="translate(-70.379 -100.339)" fill="#2f2e41"/>
  <g id="Gruppe_320" data-name="Gruppe 320" transform="translate(27.688 231.472)">
    <path id="Pfad_232" data-name="Pfad 232" d="M57.094,451.705l10.567,5.676,26.925-38.058-15.6-8.378Z" transform="translate(-52.623 -410.946)" fill="#ffb6b6"/>
    <path id="Pfad_233" data-name="Pfad 233" d="M89.959,497.248h0a10.3,10.3,0,0,1-1.1,3.257h0a4.071,4.071,0,0,1-5.513,1.66L50.62,484.583a2.777,2.777,0,0,1-1.132-3.761l.732-1.362s.581-4.964,6.626-8.221c0,0,2.019,6.177,11.534,3.313l3.6-2.326L80,488.987l6.839,4.836c1.5,1.058,3.039,1.593,3.118,3.424h0Z" transform="translate(-49.156 -437.278)" fill="#2f2e41"/>
  </g>
  <path id="Pfad_234" data-name="Pfad 234" d="M163.738,253l-8.773,17.589-25.62,34.485L87.168,361.854,68.9,352.041l50.071-84.307,3.9-16.15s0-1.746.177-4.237c.347-4.931,1.387-12.788,4.483-15.868a4.617,4.617,0,0,1,1.371-.972c.931-.419,2.479-.318,4.435.145,8.168,1.951,23.411,10.333,30.152,14.179l.246,8.172Z" transform="translate(-30.092 -100.555)" fill="#2f2e41"/>
  <g id="Gruppe_321" data-name="Gruppe 321" transform="translate(224.808 251.78)">
    <path id="Pfad_235" data-name="Pfad 235" d="M450.92,486.783H440.607L435.7,447h15.222Z" transform="translate(-415.094 -447)" fill="#a0616a"/>
    <path id="Pfad_236" data-name="Pfad 236" d="M399.607,508.191h0a8.855,8.855,0,0,0-.491,2.915h0a3.5,3.5,0,0,0,3.5,3.5h31.94a2.388,2.388,0,0,0,2.388-2.388v-1.33s1.58-4-1.673-8.923c0,0-4.043,3.857-10.085-2.184l-1.782-3.227-12.9,9.432-7.148.88c-1.564.192-2.95-.03-3.755,1.325Z" transform="translate(-399.116 -468.642)" fill="#2f2e41"/>
  </g>
  <g id="Gruppe_322" data-name="Gruppe 322" transform="translate(268.501 242.633)">
    <path id="Pfad_237" data-name="Pfad 237" d="M512.18,467.537l-9.534,3.933-19.71-34.9,14.072-5.805Z" transform="translate(-479.415 -430.762)" fill="#a0616a"/>
    <path id="Pfad_238" data-name="Pfad 238" d="M476.7,504.218h0a8.856,8.856,0,0,0,.659,2.882h0a3.5,3.5,0,0,0,4.571,1.9l29.526-12.184a2.388,2.388,0,0,0,1.3-3.118l-.507-1.229s-.064-4.3-4.95-7.61c0,0-2.266,5.108-10.155,1.828l-2.878-2.3-8.323,13.638-6.272,3.54c-1.372.774-2.739,1.1-2.966,2.657Z" transform="translate(-476.686 -454.18)" fill="#2f2e41"/>
  </g>
  <path id="Pfad_239" data-name="Pfad 239" d="M442.227,255.748l-4.209,16.069,1.121,26.076L441,341.2l.052,1.222.21,4.87.968,22.488H421.489l-9.232-62.823-7.3-49.656.766-25.286.04-1.322s37.09-1.613,41.121,3.628-4.66,21.423-4.66,21.423Z" transform="translate(-176.86 -100.651)" fill="#2f2e41"/>
  <path id="Pfad_240" data-name="Pfad 240" d="M471.081,353.94l-3.515,1.818-13,6.729-1.9.984-11.4-15.852-29-40.335-7.3-49.656.766-25.286c3.282-1.044,5.906-1.471,7.237-.851,5.991,2.8,5.7,21.169,5.7,21.169l3.648,16.207,16.823,29.349,31.941,55.723Z" transform="translate(-176.86 -100.975)" fill="#2f2e41"/>
  <g id="Gruppe_323" data-name="Gruppe 323" transform="translate(161.152 225.703)">
    <path id="Pfad_241" data-name="Pfad 241" d="M355.615,448.2c-.267-.817-2.289-.457-2.484-1.187s1.747-1.338,3.236-3.389c.268-.37,1.96-2.7,1.311-3.681-1.23-1.858-9.786,2.77-11.839.173a34.317,34.317,0,0,0-1.979-3.369c-.534-.724-.877-1.074-1.286-1.064-.581.015-.789.742-1.7,2.058-1.369,1.974-1.864,1.727-2.766,3.344-.67,1.2-.749,1.968-1.232,2.014-.683.064-.966-1.431-1.8-1.489-.852-.059-1.7,1.418-2.128,2.573-.793,2.166-.3,3.822-.193,5.472a13.52,13.52,0,0,1-2.108,7.787l-18.377,29.28c3.947-5.969,15.15-22.246,19.664-28.216,1.3-1.724,2.7-3.454,4.859-3.78,2.075-.313,4.6.713,8.124.653.412-.007,1.557-.041,1.836-.648.23-.5-.342-.938-.133-1.41.279-.633,1.535-.361,3.246-.782a9.342,9.342,0,0,0,2.731-1.207c.213-.127,3.378-2.045,3.023-3.132Z" transform="translate(-297.53 -415.982)" fill="#d1ccc5"/>
    <path id="Pfad_242" data-name="Pfad 242" d="M296.055,467.413c-.478-.1-.885.992-1.3.876s-.153-1.244-.73-2.566c-.1-.238-.76-1.741-1.428-1.706-1.267.067-1.464,5.6-3.331,5.861a19.531,19.531,0,0,0-2.225,0c-.51.053-.78.12-.893.324-.16.289.136.6.519,1.429.574,1.242.31,1.413.843,2.322.4.675.75.936.633,1.186-.166.354-.981.061-1.251.454s.2,1.246.649,1.786a6.5,6.5,0,0,0,2.63,1.674,7.7,7.7,0,0,1,3.214,3.281l9.068,17.468c-1.791-3.659-6.547-13.854-8.175-17.792a4.592,4.592,0,0,1-.453-3.475c.445-1.109,1.677-2.052,2.665-3.8.115-.2.429-.776.212-1.088-.18-.258-.559-.1-.731-.341-.23-.32.265-.857.553-1.818a5.317,5.317,0,0,0,.2-1.689c0-.141-.029-2.248-.665-2.387Z" transform="translate(-286.104 -428.355)" fill="#d1ccc5"/>
    <path id="Pfad_243" data-name="Pfad 243" d="M319.832,469.906l.285-2.632.175-.165a4.867,4.867,0,0,0,1.5-2.408c.03-.133.054-.267.078-.4a4.115,4.115,0,0,1,.732-1.912c.291-.389,1.061-1.269,1.856-.962a.953.953,0,0,1,.46.367l.079-.079a2.894,2.894,0,0,1,.814-.573,3.385,3.385,0,0,0,.672-.432c.136-.109.245-.207.337-.289a1.235,1.235,0,0,1,1.124-.425,1.319,1.319,0,0,1,.813.962,6.337,6.337,0,0,1,.318,1.25,2,2,0,0,0,.047.242c.113.286,1.536.359,2.071.39,1.2.065,2.244.122,2.494.945.18.589-.195,1.232-1.145,1.961a4.3,4.3,0,0,1-.849.5.88.88,0,0,1,.293.631h0c.017.657-.657,1.161-2,1.5a4.376,4.376,0,0,1-1.374.17,5.115,5.115,0,0,1-.728-.1.865.865,0,0,1-.19.357,1.3,1.3,0,0,1-1.441.237,10.621,10.621,0,0,1-1.8-.719,4.652,4.652,0,0,0-1.142-.44,2.658,2.658,0,0,0-1.812.772l-1.662,1.247h0Z" transform="translate(-300.834 -426.586)" fill="#d1ccc5"/>
    <path id="Pfad_244" data-name="Pfad 244" d="M319.223,441.7l-2.618.392-.2-.127a4.867,4.867,0,0,0-2.711-.845c-.136,0-.271.016-.41.027a4.115,4.115,0,0,1-2.036-.223c-.45-.183-1.5-.7-1.4-1.551a.954.954,0,0,1,.238-.538l-.1-.056a2.9,2.9,0,0,1-.761-.642,3.383,3.383,0,0,0-.588-.54c-.14-.1-.262-.185-.365-.253a1.235,1.235,0,0,1-.7-.979,1.319,1.319,0,0,1,.725-1.03,6.34,6.34,0,0,1,1.128-.625,1.986,1.986,0,0,0,.222-.107c.247-.182-.042-1.577-.148-2.1-.242-1.18-.451-2.2.282-2.652.524-.323,1.241-.124,2.187.61a4.3,4.3,0,0,1,.7.695.881.881,0,0,1,.537-.443h0c.631-.184,1.29.341,1.96,1.557a4.376,4.376,0,0,1,.513,1.286,5.128,5.128,0,0,1,.092.728.865.865,0,0,1,.394.093,1.3,1.3,0,0,1,.595,1.334,10.624,10.624,0,0,1-.237,1.927,4.65,4.65,0,0,0-.135,1.216c.07.6.566,1.039,1.207,1.557l1.628,1.291h0Z" transform="translate(-295.482 -413.366)" fill="#d1ccc5"/>
    <path id="Pfad_245" data-name="Pfad 245" d="M328.881,429.338l.285-2.632.175-.165a4.867,4.867,0,0,0,1.5-2.408c.03-.133.054-.267.078-.4a4.116,4.116,0,0,1,.732-1.912c.291-.389,1.061-1.269,1.856-.962a.954.954,0,0,1,.46.367l.079-.079a2.894,2.894,0,0,1,.814-.573,3.385,3.385,0,0,0,.672-.432c.136-.109.245-.207.337-.289a1.235,1.235,0,0,1,1.124-.425,1.318,1.318,0,0,1,.813.962,6.34,6.34,0,0,1,.318,1.25,1.982,1.982,0,0,0,.047.242c.113.286,1.536.359,2.071.39,1.2.065,2.244.122,2.494.945.18.589-.195,1.232-1.145,1.961a4.292,4.292,0,0,1-.849.5.881.881,0,0,1,.293.631h0c.017.657-.657,1.161-2,1.5a4.378,4.378,0,0,1-1.374.17,5.119,5.119,0,0,1-.728-.1.865.865,0,0,1-.19.357,1.3,1.3,0,0,1-1.441.237,10.624,10.624,0,0,1-1.8-.719,4.651,4.651,0,0,0-1.142-.44,2.658,2.658,0,0,0-1.812.772l-1.662,1.247h0Z" transform="translate(-304.786 -408.869)" fill="#d1ccc5"/>
    <path id="Pfad_246" data-name="Pfad 246" d="M312.933,478.375l-.463-.457.008-.65-.008.65-.643-.068c0-.06,0-.2-.006-.423a92,92,0,0,1,.411-10.556,105.962,105.962,0,0,1,1.779-11.925c.824-3.968,1.679-6.92,2.366-9.293.518-1.79,1.041-3.487,1.552-5.141a100.148,100.148,0,0,0,3.446-13.35,12.768,12.768,0,0,0-.209-5.885,12.1,12.1,0,0,0-2.239-4.235l1.013-.818a13.42,13.42,0,0,1,2.476,4.691,13.983,13.983,0,0,1,.243,6.462,101.116,101.116,0,0,1-3.487,13.517c-.508,1.647-1.029,3.338-1.545,5.12-.681,2.351-1.528,5.277-2.341,9.194a104.675,104.675,0,0,0-1.758,11.779,90.525,90.525,0,0,0-.405,10.412c.013.637.016.77-.189.976h0Z" transform="translate(-297.327 -407.483)" fill="#d1ccc5"/>
    <path id="Pfad_247" data-name="Pfad 247" d="M316.992,411.762c-.052-.012-.1-.025-.157-.04a4.159,4.159,0,0,1-2.547-2.587,9.094,9.094,0,0,1-.5-2.766,16.241,16.241,0,0,1,0-2.752c.076-.945.178-1.324.435-1.622a1.985,1.985,0,0,1,1.077-.617.735.735,0,0,1,.133-.363c.334-.481.894-.283,1.2-.18a3.192,3.192,0,0,0,.558.161,1.634,1.634,0,0,0,.843-.089,3.617,3.617,0,0,1,1.155-.181,3.878,3.878,0,0,1,1.962.6c1.271.764,1.71,1.982,2.218,3.393a9.934,9.934,0,0,1,.514,2.621,2.908,2.908,0,0,1-.211,1.616c-.291.571-.738.836-1.845,1.394a17.443,17.443,0,0,1-2.214,1.026,4.887,4.887,0,0,1-2.621.384h0Z" transform="translate(-298.171 -400.705)" fill="#d1ccc5"/>
  </g>
  <path id="Pfad_248" data-name="Pfad 248" d="M328.406,528.422h0a.473.473,0,0,1-.473.473H0v-.946H327.933A.473.473,0,0,1,328.406,528.422Z" transform="translate(0 -230.574)" fill="#d1ccc5"/>
  <path id="Pfad_249" data-name="Pfad 249" d="M151.965,65.185l20.157,9.676s21.367,63.294,21.367,66.52,6.047,5.241,2.419,8.869,6.753,6.7,1.159,9.6-40.49,18.751-44.37,17.322c-10.7-3.943.454-18.431.454-18.431s-8.039-6.474-6.83-9.7-7.257-64.907-7.257-64.907Z" transform="translate(-60.734 -28.469)" fill="#646464"/>
  <path id="Pfad_250" data-name="Pfad 250" d="M177.388,24.629l2.282,4.564s2.282-8.216,5.934-10.042,4.108-4.564,4.108-4.564,4.564,5.934,7.76,4.564,4.564-2.282.913-7.76-2.739-2.739-2.739-2.739-3.2-4.564-2.739-3.2-2.739-3.652-2.739-2.282-2.282-2.739-2.282-1.369S178.3-1.388,179.67.438s-8.216-3.652-12.78,3.652S156,10.042,158.248,14.6s1.339,16.879,1.339,16.879h6.295s6.485-12.324,11.506-6.847Z" transform="translate(-68.907 0)" fill="#2f2e41"/>
  <path id="Pfad_251" data-name="Pfad 251" d="M419.866,108.36l.369-.1,18.176-5.137,14.513,19.754-9.676,41.121,3.628,16.529s-29.43-7.66-41.121-1.209c0,0-.806-3.676,0-5.466s2.016-9.241.806-12.571,2.419-19.053,2.419-19.053-1.209-10.482,4.031-15.723S419.866,108.36,419.866,108.36Z" transform="translate(-177.051 -45.036)" fill="#f5d166"/>
  <path id="Pfad_252" data-name="Pfad 252" d="M343.413,176.315l-63.867-31.74a2.586,2.586,0,0,1-.825-.646l-9.965-11.745a2.6,2.6,0,0,1-.364-2.8l18.686-39.2a2.6,2.6,0,0,1,3.817-1.025l45.041,30.9a2.6,2.6,0,0,1,1.028,2.862l-9.145,31.824a2.209,2.209,0,0,0,.793,2.364L346.7,170.667a2.613,2.613,0,0,1,.8,3.169l-.572,1.24a2.595,2.595,0,0,1-3.517,1.239Z" transform="translate(-117.105 -38.738)" fill="#e0aa0b"/>
  <path id="Pfad_253" data-name="Pfad 253" d="M345.349,170.625,327.57,155.834a1.422,1.422,0,0,1-.431-1.536l10.131-29.644a1.817,1.817,0,0,0-.689-2.08l-42.21-28.9a1.813,1.813,0,0,0-2.649.693L273.927,130.5a1.78,1.78,0,0,0,.048,1.689,1.117,1.117,0,0,0,.133.206l8.95,11.812a1.868,1.868,0,0,0,.653.536l59.69,28.9a1.811,1.811,0,0,0,2.072-.351c.04-.044.081-.085.121-.133a1.81,1.81,0,0,0-.246-2.54Z" transform="translate(-119.55 -40.773)" fill="#f4f1ed"/>
  <path id="Pfad_254" data-name="Pfad 254" d="M286.193,132.455a.4.4,0,0,0,.36-.222l14.469-28.745a.4.4,0,0,0-.72-.363L285.834,131.87a.4.4,0,0,0,.36.584Z" transform="translate(-124.815 -44.941)" fill="#e0aa0b"/>
  <path id="Pfad_255" data-name="Pfad 255" d="M299.792,141.044a.4.4,0,0,0,.36-.222l14.469-28.745a.4.4,0,1,0-.72-.363l-14.469,28.745a.4.4,0,0,0,.36.584Z" transform="translate(-130.754 -48.692)" fill="#e0aa0b"/>
  <path id="Pfad_256" data-name="Pfad 256" d="M311.244,148.2a.4.4,0,0,0,.36-.222l14.469-28.745a.4.4,0,1,0-.72-.363l-14.469,28.745a.4.4,0,0,0,.36.584Z" transform="translate(-135.755 -51.818)" fill="#e0aa0b"/>
  <path id="uuid-03f01c0a-1974-4ec8-8b69-52a915a70377" d="M250.369,163.742c5-1.478,9.82-.095,10.76,3.089s-2.353,6.962-7.358,8.44a13.055,13.055,0,0,1-6.154.385l-21.276,5.995-2.6-10.044,21.25-4.843A13.056,13.056,0,0,1,250.369,163.742Z" transform="translate(-97.716 -71.253)" fill="#ffb6b6"/>
  <path id="Pfad_257" data-name="Pfad 257" d="M184.056,95.794l-3.335,39.893,29.869.321,5.8,8.926s-36.2,20.962-47.074,10.251-15.708-55.785-6.043-63.5S184.056,95.794,184.056,95.794Z" transform="translate(-69.034 -38.901)" fill="#646464"/>
  <g id="Gruppe_324" data-name="Gruppe 324" transform="translate(203.892 70.929)">
    <path id="uuid-7eb47ac4-3db4-4d62-bd0a-b38893e38622" d="M370.959,219.555c-5.2-.392-9.216-3.393-8.966-6.7s4.669-5.675,9.872-5.283a13.055,13.055,0,0,1,5.89,1.822l22.019,1.938-1.13,10.313-21.587-3.006a13.055,13.055,0,0,1-6.1.918Z" transform="translate(-361.982 -161.563)" fill="#f5d166"/>
    <path id="Pfad_258" data-name="Pfad 258" d="M449.652,135.469l-3.6,44.94s-1.133,9.685-16.216,9.078-35.117-5.368-35.117-5.368l.724-10.488,16.859.916s7.722-2.318,9.345-1.122.989,2.734,2.425.787.6-3.062,2.035-1.5,1.858,4.377,2.475.824,2.154-2.92,2.154-2.92l-.9-32.73S433.5,122.05,442,126.821s7.647,8.648,7.647,8.648Z" transform="translate(-376.28 -125.925)" fill="#f5d166"/>
  </g>
</svg>
