<svg id="Gruppe_170" data-name="Gruppe 170" xmlns="http://www.w3.org/2000/svg" width="456.122" height="212.908" viewBox="0 0 456.122 212.908">
  <path id="Pfad_141" data-name="Pfad 141" d="M781.294,448.6H597.6c-5,0-9.062-4.5-9.062-10.025V301.97a5.628,5.628,0,0,1,2.993-5.088l69.417-42.023a27.6,27.6,0,0,1,24.491-.025l101.909,42.043a5.629,5.629,0,0,1,3.011,5.1v136.6C790.355,444.1,786.29,448.6,781.294,448.6Z" transform="translate(-365.718 -236.104)" fill="#f4f1ed"/>
  <path id="Pfad_142" data-name="Pfad 142" d="M754.259,518.315H596.514c-4.308,0-7.814-3.174-7.814-7.076V415.75a3.968,3.968,0,0,1,2.6-3.626l73.449-29.381a28.6,28.6,0,0,1,21.013-.01l73.7,29.393a3.968,3.968,0,0,1,2.608,3.627v95.486C762.073,515.141,758.568,518.315,754.259,518.315Z" transform="translate(-365.808 -305.965)" fill="#9f7042"/>
  <circle id="Ellipse_68" data-name="Ellipse 68" cx="23.114" cy="23.114" r="23.114" transform="translate(113.509 65.844)" fill="#f5d166"/>
  <ellipse id="Ellipse_69" data-name="Ellipse 69" cx="29.275" cy="36.643" rx="29.275" ry="36.643" transform="translate(117.011 99.825)" fill="#f4f1ed"/>
  <path id="Pfad_143" data-name="Pfad 143" d="M318.174,282.238h.081l1.448,83h-3.056Z" transform="translate(-171.808 -153.138)" fill="#ccc"/>
  <path id="Pfad_144" data-name="Pfad 144" d="M426.174,619.176h0a.724.724,0,0,1-.3.978l-4.2,2.211L421,621.083l4.2-2.211a.724.724,0,0,1,.978.3Z" transform="translate(-274.815 -435.129)" fill="#ccc"/>
  <ellipse id="Ellipse_70" data-name="Ellipse 70" cx="29.275" cy="36.643" rx="29.275" ry="36.643" transform="translate(32.847 99.825)" fill="#f4f1ed"/>
  <path id="Pfad_145" data-name="Pfad 145" d="M240.579,555.828h0a.724.724,0,0,0-.978-.3l-2.931,1.543-1-57.56h-.08l-1.528,83h3.056l-.415-23.818,3.577-1.883a.724.724,0,0,0,.3-.978Z" transform="translate(-173.384 -370.408)" fill="#ccc"/>
  <path id="Pfad_146" data-name="Pfad 146" d="M285.051,331c20.487,0,37.138,38.6,37.138,64.245s-16.608,46.431-37.094,46.431S248,420.888,248,395.245,264.564,331,285.051,331Z" transform="translate(-180.949 -278.978)" fill="#e0aa0b"/>
  <path id="Pfad_147" data-name="Pfad 147" d="M333.349,522.4a.917.917,0,0,0-1.239-.384l-3.714,1.955-1.272-72.935h-.1l-1.936,105.168h3.872l-.526-30.18,4.533-2.386A.917.917,0,0,0,333.349,522.4Z" transform="translate(-222.775 -344.111)"/>
  <path id="Pfad_148" data-name="Pfad 148" d="M656.609,520.573V510.7a4.857,4.857,0,0,0-4.857-4.857H626.831a4.857,4.857,0,0,0-4.857,4.857v9.876Z" transform="translate(-383.862 -373.844)" fill="#fff"/>
  <path id="Pfad_149" data-name="Pfad 149" d="M621.974,541.439v15.3a4.857,4.857,0,0,0,4.857,4.857h24.922a4.857,4.857,0,0,0,4.857-4.857v-15.3Z" transform="translate(-383.862 -393.16)" fill="#fff"/>
  <path id="Pfad_150" data-name="Pfad 150" d="M743.757,418.4l-74.822-27.428a20.464,20.464,0,0,0-14.087,0L580.027,418.4A10.435,10.435,0,0,1,566,408.6h0a10.435,10.435,0,0,1,6.844-9.8l82.005-30.061a20.464,20.464,0,0,1,14.087,0L750.94,398.8a10.435,10.435,0,0,1,6.844,9.8h0a10.435,10.435,0,0,1-14.027,9.8Z" transform="translate(-353.491 -298.779)"/>
  <path id="Pfad_151" data-name="Pfad 151" d="M768.835,606.072h-20a8.014,8.014,0,0,1-8-8V549.639a8.014,8.014,0,0,1,8-8h20a8.014,8.014,0,0,1,8,8v48.429A8.014,8.014,0,0,1,768.835,606.072Zm-20-63.066a6.64,6.64,0,0,0-6.633,6.633v48.429a6.64,6.64,0,0,0,6.633,6.633h20a6.64,6.64,0,0,0,6.633-6.633V549.639a6.64,6.64,0,0,0-6.633-6.633Z" transform="translate(-448.353 -393.265)"/>
  <path id="Pfad_152" data-name="Pfad 152" d="M772.1,300.816a14.471,14.471,0,0,0-28.828,0Z" transform="translate(-449.675 -255.448)" fill="#fff"/>
  <path id="Pfad_153" data-name="Pfad 153" d="M743.151,319.842a14.469,14.469,0,1,0,28.938,0Z" transform="translate(-449.611 -272.924)" fill="#fff"/>
  <path id="Pfad_154" data-name="Pfad 154" d="M767.342,344.458h-24.3a4.364,4.364,0,1,1,0-8.728h24.3a4.364,4.364,0,1,1,0,8.728Z" transform="translate(-447.186 -281.544)" fill="#d1ccc5"/>
  <path id="Pfad_155" data-name="Pfad 155" d="M617.9,574.713a3.907,3.907,0,0,0,0,7.814h34.118a3.907,3.907,0,0,0,0-7.814Z" transform="translate(-379.534 -411.214)" fill="#d1ccc5"/>
  <path id="Pfad_156" data-name="Pfad 156" d="M854.216,541.439v15.3a4.857,4.857,0,0,0,4.857,4.857h24.922a4.857,4.857,0,0,0,4.857-4.857v-15.3Z" transform="translate(-509.873 -393.16)" fill="#fff"/>
  <path id="Pfad_157" data-name="Pfad 157" d="M888.85,520.573V510.7a4.857,4.857,0,0,0-4.857-4.857H859.072a4.857,4.857,0,0,0-4.857,4.857v9.876Z" transform="translate(-509.873 -373.844)" fill="#fff"/>
  <circle id="Ellipse_71" data-name="Ellipse 71" cx="2.843" cy="2.843" r="2.843" transform="translate(319.53 176.452)"/>
  <path id="Pfad_158" data-name="Pfad 158" d="M482.7,374.918,471.5,357.5l.518-.333,10.627,16.53,8.659-16.507.545.286Z" transform="translate(-255.831 -193.792)" fill="#3f3d56"/>
  <path id="Pfad_159" data-name="Pfad 159" d="M562.352,555.372H535.711v-.462a5.7,5.7,0,0,0-5.7-5.7h0a5.7,5.7,0,0,0-5.7,5.7v.462H521.7a5.7,5.7,0,0,0,0,11.4h2.618v43.059c11.353-.227-.082.23,11.4,0V566.768h26.641a5.7,5.7,0,0,0,0-11.4Z" transform="translate(-326.362 -397.377)"/>
  <circle id="Ellipse_72" data-name="Ellipse 72" cx="2.156" cy="2.156" r="2.156" transform="translate(201.342 161.383)" fill="#fff"/>
  <path id="Pfad_160" data-name="Pfad 160" d="M590.309,617.339H565.675a4.394,4.394,0,0,1-4.389-4.389v-8a4.394,4.394,0,0,1,4.389-4.389h24.635a4.394,4.394,0,0,1,4.389,4.389v8a4.394,4.394,0,0,1-4.389,4.389Z" transform="translate(-350.933 -425.237)" fill="#d1ccc5"/>
  <rect id="Rechteck_412" data-name="Rechteck 412" width="19.095" height="3.388" rx="1.694" transform="translate(217.357 181.71)" fill="#a3c4d3"/>
  <path id="Pfad_161" data-name="Pfad 161" d="M557.181,681.891H101.766a.354.354,0,1,1,0-.707H557.181a.354.354,0,0,1,0,.707Z" transform="translate(-101.412 -468.983)" fill="#ccc"/>
  <path id="Pfad_162" data-name="Pfad 162" d="M883.157,582.441H849.039a4.364,4.364,0,0,1,0-8.728h34.118a4.364,4.364,0,0,1,0,8.728Z" transform="translate(-504.696 -410.671)" fill="#d1ccc5"/>
  <path id="Pfad_163" data-name="Pfad 163" d="M897.692,287.693s-8.274-.587-25.158-1.372C852.408,251.1,787,242.611,787,217.27h80.4a30.33,30.33,0,0,1,30.33,30.33Z" transform="translate(-473.401 -217.27)" fill="#d1ccc5"/>
  <path id="Pfad_164" data-name="Pfad 164" d="M875.741,237.514a.687.687,0,0,0-.686.686v22.907a.687.687,0,0,0,.686.686H890.01a.687.687,0,0,0,.686-.686V238.2a.687.687,0,0,0-.686-.686Z" transform="translate(-521.18 -228.254)" fill="#f4f1ed"/>
  <path id="Pfad_165" data-name="Pfad 165" d="M752.341,285.846l-74.822-45.1a20.464,20.464,0,0,0-14.087,0l-74.822,45.1a10.435,10.435,0,0,1-14.027-9.8h0a10.435,10.435,0,0,1,6.844-9.8l82-47.73a20.464,20.464,0,0,1,14.087,0l82.005,47.73a10.435,10.435,0,0,1,6.844,9.8h0a10.435,10.435,0,0,1-14.027,9.8Z" transform="translate(-358.149 -217.27)" fill="#d1ccc5"/>
</svg>
