<svg xmlns="http://www.w3.org/2000/svg" xmlns:xlink="http://www.w3.org/1999/xlink" width="415.862" height="263.719" viewBox="0 0 415.862 263.719">
  <defs>
    <linearGradient id="linear-gradient" x1="119.783" y1="1170.587" x2="119.783" y2="1171.613" gradientUnits="objectBoundingBox">
      <stop offset="0" stop-color="gray" stop-opacity="0.251"/>
      <stop offset="0.54" stop-color="gray" stop-opacity="0.122"/>
      <stop offset="1" stop-color="gray" stop-opacity="0.102"/>
    </linearGradient>
  </defs>
  <g id="Gruppe_165" data-name="Gruppe 165" style="mix-blend-mode: multiply;isolation: isolate">
    <path id="Pfad_94" data-name="Pfad 94" d="M818.975,505.335h-5.832L810.367,460h8.608Z" transform="translate(-435.495 -247.206)" fill="#f5d166"/>
    <path id="Pfad_95" data-name="Pfad 95" d="M799.135,554.4h11.248v7.082h-18.33A7.082,7.082,0,0,1,799.135,554.4Z" transform="translate(-425.653 -297.937)"/>
    <path id="Pfad_96" data-name="Pfad 96" d="M858.933,493.866l-5.358,2.3-23-42.7,7.909-3.4Z" transform="translate(-446.356 -241.869)" fill="#f5d166"/>
    <path id="Pfad_97" data-name="Pfad 97" d="M7.082,0H18.33V7.082H0A7.082,7.082,0,0,1,7.082,0Z" transform="translate(396.226 257.213) rotate(-23.256)"/>
    <path id="Pfad_98" data-name="Pfad 98" d="M737.881,224.95H636.834a3.015,3.015,0,0,1-3.011-3.012V167.972a3.015,3.015,0,0,1,3.012-3.012H737.881a3.015,3.015,0,0,1,3.012,3.012v53.967A3.015,3.015,0,0,1,737.881,224.95Z" transform="translate(-410.245 -164.96)" fill="#d1ccc5"/>
    <circle id="Ellipse_59" data-name="Ellipse 59" cx="11.111" cy="11.111" r="11.111" transform="translate(232.736 15.543)" fill="#fff"/>
    <path id="Pfad_99" data-name="Pfad 99" d="M777.627,197.125H732.262a1.7,1.7,0,1,1,0-3.4h45.365a1.7,1.7,0,1,1,0,3.4Z" transform="translate(-462.234 -180.419)" fill="#fff"/>
    <path id="Pfad_100" data-name="Pfad 100" d="M753.878,213.913H732.262a1.7,1.7,0,1,1,0-3.4h21.616a1.7,1.7,0,1,1,0,3.4Z" transform="translate(-462.234 -189.442)" fill="#fff"/>
    <path id="Pfad_101" data-name="Pfad 101" d="M769.1,230.694h-36.84a1.7,1.7,0,0,1,0-3.4H769.1a1.7,1.7,0,0,1,0,3.4Z" transform="translate(-462.234 -198.46)" fill="#fff"/>
    <path id="Pfad_102" data-name="Pfad 102" d="M777.627,247.475H732.262a1.7,1.7,0,1,1,0-3.4h45.365a1.7,1.7,0,1,1,0,3.4Z" transform="translate(-462.234 -207.478)" fill="#fff"/>
    <path id="Pfad_103" data-name="Pfad 103" d="M816.881,274.534h-7.511a3.12,3.12,0,0,1,0-6.239h7.511a3.12,3.12,0,0,1,0,6.239Z" transform="translate(-502.908 -220.493)" fill="#fff"/>
    <path id="Pfad_104" data-name="Pfad 104" d="M449.477,256.847H378.924a2.105,2.105,0,0,1-2.1-2.1V217.063a2.105,2.105,0,0,1,2.1-2.1h70.553a2.105,2.105,0,0,1,2.1,2.1v37.681A2.105,2.105,0,0,1,449.477,256.847Z" transform="translate(-272.131 -191.83)" fill="#f4f1ed"/>
    <circle id="Ellipse_60" data-name="Ellipse 60" cx="7.758" cy="7.758" r="7.758" transform="translate(111.085 33.982)" fill="#fff"/>
    <path id="Pfad_105" data-name="Pfad 105" d="M477.229,237.418H445.554a1.186,1.186,0,0,1,0-2.372h31.675a1.186,1.186,0,0,1,0,2.372Z" transform="translate(-308.431 -202.624)" fill="#fff"/>
    <path id="Pfad_106" data-name="Pfad 106" d="M460.647,249.14H445.554a1.186,1.186,0,0,1,0-2.372h15.093a1.186,1.186,0,0,1,0,2.372Z" transform="translate(-308.431 -208.924)" fill="#fff"/>
    <path id="Pfad_107" data-name="Pfad 107" d="M471.277,260.857H445.554a1.186,1.186,0,0,1,0-2.372h25.723a1.186,1.186,0,0,1,0,2.372Z" transform="translate(-308.431 -215.221)" fill="#fff"/>
    <path id="Pfad_108" data-name="Pfad 108" d="M477.229,272.574H445.554a1.186,1.186,0,0,1,0-2.372h31.675a1.186,1.186,0,1,1,0,2.372Z" transform="translate(-308.431 -221.517)" fill="#fff"/>
    <path id="Pfad_109" data-name="Pfad 109" d="M504.637,291.467h-5.245a2.178,2.178,0,0,1,0-4.356h5.245a2.178,2.178,0,0,1,0,4.356Z" transform="translate(-336.831 -230.605)" fill="#fff"/>
    <path id="Pfad_110" data-name="Pfad 110" d="M636.942,340.648H505.009a3.937,3.937,0,0,1-3.932-3.932V266.254a3.937,3.937,0,0,1,3.932-3.932H636.942a3.937,3.937,0,0,1,3.932,3.932v70.462A3.937,3.937,0,0,1,636.942,340.648Z" transform="translate(-338.907 -217.283)" fill="#f5d166"/>
    <circle id="Ellipse_61" data-name="Ellipse 61" cx="14.507" cy="14.507" r="14.507" transform="translate(174.128 65.333)" fill="#fff"/>
    <path id="Pfad_111" data-name="Pfad 111" d="M688.836,304.318H629.606a2.218,2.218,0,1,1,0-4.436h59.231a2.218,2.218,0,0,1,0,4.436Z" transform="translate(-406.787 -237.468)" fill="#fff"/>
    <path id="Pfad_112" data-name="Pfad 112" d="M657.829,326.238H629.606a2.218,2.218,0,1,1,0-4.436h28.223a2.218,2.218,0,1,1,0,4.436Z" transform="translate(-406.787 -249.248)" fill="#fff"/>
    <path id="Pfad_113" data-name="Pfad 113" d="M677.706,348.148h-48.1a2.218,2.218,0,1,1,0-4.436h48.1a2.218,2.218,0,1,1,0,4.436Z" transform="translate(-406.787 -261.022)" fill="#fff"/>
    <path id="Pfad_114" data-name="Pfad 114" d="M688.836,370.058H629.606a2.218,2.218,0,1,1,0-4.436h59.231a2.218,2.218,0,0,1,0,4.436Z" transform="translate(-406.787 -272.797)" fill="#fff"/>
    <path id="Pfad_115" data-name="Pfad 115" d="M740.088,405.388h-9.807a4.073,4.073,0,0,1,0-8.146h9.807a4.073,4.073,0,0,1,0,8.146Z" transform="translate(-459.893 -289.79)" fill="#fff"/>
    <path id="Pfad_116" data-name="Pfad 116" d="M981.646,545.415s-11.56-58.944-13.383-63.912c-1-2.715-1.665-4.691-1.665-4.691l-33.973,1.943-.277,2.748-4.58,68.936s1.619-4.381,3.072-5.186,1.3,5.176,1.3,5.176" transform="translate(-568.213 -332.551)"/>
    <path id="Pfad_117" data-name="Pfad 117" d="M933.608,431.418h29.735a10.3,10.3,0,0,1,1.193-7.882,17.408,17.408,0,0,1,3.113-4.041l.2-.183,10.389-2.3.559-.122s.083-18.876-6.6-21.467a40.849,40.849,0,0,1-10.24-5.719,1.837,1.837,0,0,0-1.075-.394l-14.585-.534a1.86,1.86,0,0,0-1.236.415c-2.411,1.939-10.079,5.831-14.2,7.867a3.139,3.139,0,0,0-1.489,4.072c1.646,3.78,4.444,10.1,4.738,10.1C934.533,411.23,933.608,431.418,933.608,431.418Z" transform="translate(-568.935 -285.238)" fill="#646464"/>
    <path id="Pfad_118" data-name="Pfad 118" d="M964.654,406.23l13.974,36.136s-9.448,2.178-18.56-8.959l-3.289-7.178-7.409-27.357Z" transform="translate(-579.822 -290.666)" fill="#f6f8fb"/>
    <circle id="Ellipse_62" data-name="Ellipse 62" cx="18.966" cy="18.966" r="18.966" transform="translate(369.575 58.287)"/>
    <path id="Pfad_119" data-name="Pfad 119" d="M963.438,462.028a3.872,3.872,0,0,0,4.466,1.178l10.161,3.976,3.385-7.654L970,458.049a3.87,3.87,0,1,0-6.564,3.978Z" transform="translate(-586.927 -321.228)" fill="#f5d166"/>
    <circle id="Ellipse_63" data-name="Ellipse 63" cx="12.138" cy="12.138" r="12.138" transform="translate(373.528 76.516)" fill="#f5d166"/>
    <path id="Pfad_120" data-name="Pfad 120" d="M986.2,324.691a41.915,41.915,0,0,1-21.068,5.09c-2.814-.073-5.915-.585-7.7-2.764-2.011-2.459-1.508-6.3.432-8.816s4.975-3.933,8-4.895a17.419,17.419,0,0,1,8.871-.86,11.046,11.046,0,0,1,8,14.675" transform="translate(-583.465 -244.077)"/>
    <circle id="Ellipse_64" data-name="Ellipse 64" cx="10.64" cy="10.64" r="10.64" transform="translate(391.317 53.198)"/>
    <path id="Pfad_121" data-name="Pfad 121" d="M1004.382,438.706l4.095,5.016.835,13.614s1.075,6.932-6.85,5.263-18.124-4.916-18.124-4.916,5.427-7.867,3.005-10.12l11.36,3.676s1.92-.419.416-2.089a9.392,9.392,0,0,1-1.77-4.679Z" transform="translate(-598.614 -312.073)" fill="#646464"/>
    <path id="Pfad_122" data-name="Pfad 122" d="M964.69,450.394a3.872,3.872,0,0,1-4.391-1.433l-10.693-2.172,1.309-8.267,10.42,4.969a3.87,3.87,0,1,1,3.355,6.9Z" transform="translate(-579.949 -311.973)" fill="#f5d166"/>
    <path id="Pfad_123" data-name="Pfad 123" d="M930.273,412.807a9.392,9.392,0,0,1-4.025,2.97c-2.17.586-.784,1.98-.784,1.98L937,420.833c-3.257.579-2.966,10.132-2.966,10.132s-10.329-2.806-17.892-5.7-2.9-8.137-2.9-8.137l8.087-10.983,6.161-1.992Z" transform="translate(-559.644 -293.502)" fill="#646464"/>
    <path id="Pfad_124" data-name="Pfad 124" d="M36.427,513.461l5.566,2.392L53.87,495.521l-8.215-3.531Z" transform="translate(-19.576 -264.398)" fill="#9f7042"/>
    <path id="Pfad_125" data-name="Pfad 125" d="M0,0H19.042V7.357H7.082A7.082,7.082,0,0,1,0,.275Z" transform="translate(30.929 261.237) rotate(-156.744)"/>
    <path id="Pfad_126" data-name="Pfad 126" d="M119.429,526.064h6.059l2.883-23.369h-8.942Z" transform="translate(-64.182 -270.151)" fill="#9f7042"/>
    <path id="Pfad_127" data-name="Pfad 127" d="M0,0H19.042V7.357H7.082A7.082,7.082,0,0,1,0,.275V0Z" transform="translate(72.991 261.54) rotate(180)"/>
    <g id="Gruppe_164" data-name="Gruppe 164" transform="translate(18.364 77.613)" opacity="0.1">
      <path id="Pfad_128" data-name="Pfad 128" d="M190.208,332.744l.342.074A.463.463,0,0,0,190.208,332.744Z" transform="translate(-190.208 -332.737)" fill="url(#linear-gradient)"/>
    </g>
    <path id="Pfad_129" data-name="Pfad 129" d="M232.135,574.052,218.2,574.6c-3.4-2.287-13.965-56.322-13.965-56.322.072.418-1.322,53.631-1.322,53.631H187.919l-7.366-82.98,8.13,3.274s37.23-3.019,38.965-.871C228.013,492.038,232.135,574.052,232.135,574.052Z" transform="translate(-166.655 -339.065)"/>
    <circle id="Ellipse_65" data-name="Ellipse 65" cx="12.138" cy="12.138" r="12.138" transform="translate(21.956 66.801)" fill="#9f7042"/>
    <path id="Pfad_130" data-name="Pfad 130" d="M266.956,522.4a4.022,4.022,0,0,1-.053-4.8l-1.426-11.245,8.57-1.467-1.417,11.908a4.02,4.02,0,1,1-5.674,5.6Z" transform="translate(-212.294 -347.638)" fill="#9f7042"/>
    <path id="Pfad_131" data-name="Pfad 131" d="M228.187,318l.268.058A.372.372,0,0,0,228.187,318Z" transform="translate(-192.255 -247.202)" fill="#e1e7ef"/>
    <path id="Pfad_132" data-name="Pfad 132" d="M200.741,310.624a28.892,28.892,0,0,0,8.031.948,10.281,10.281,0,0,0,7.2-3.239c1.753-2.06,2.237-5.3.682-7.508-1.85-2.631-5.559-2.947-8.775-3.013l-10.133-.21c-2-.042-4.1-.061-5.876.87-3.081,1.617-4.144,5.544-4.082,9.022a23.075,23.075,0,0,0,8.479,17.313c1.371,1.1,3.629,1.943,4.674.527.456-.618-3.994-7.725-4.007-8.492-.075-4.461,4.307-2.644,4.232-7.1" transform="translate(-170.545 -236.234)"/>
    <path id="Pfad_133" data-name="Pfad 133" d="M182.852,428.058c11.55,9.033,24.3,13.586,38.732,11.851-6.1-21.4-7.9-42.641-2.023-63.59l-12.14-5.492-16.476-.867-9.918,2.917a6.632,6.632,0,0,0-4.757,6.493C176.62,397.235,178.262,413.955,182.852,428.058Z" transform="translate(-164.353 -275.128)" fill="#d1ccc5"/>
    <path id="Pfad_134" data-name="Pfad 134" d="M263.521,446.344l7.515.867-1.76-55.805a12.989,12.989,0,0,0-7.987-11.581l-2.682-1.118.723,26.159Z" transform="translate(-208.603 -279.829)" fill="#d1ccc5"/>
    <path id="Pfad_135" data-name="Pfad 135" d="M180.644,494.841a4.022,4.022,0,0,1-1.947-4.385l-5.76-9.763,7.29-4.739,3.411,11.5a4.02,4.02,0,1,1-2.994,7.39Z" transform="translate(-162.563 -332.09)" fill="#9f7042"/>
    <path id="Pfad_136" data-name="Pfad 136" d="M165.541,436.74l7.036-5.19-7.614-22.559,2.746-33.1h0c-5.965,1.875-12.37,6.911-13.425,13.074l-3.773,22.045Z" transform="translate(-150.511 -278.318)" fill="#d1ccc5"/>
    <path id="Pfad_137" data-name="Pfad 137" d="M35.327,270.993l-3.1,12.387,7.028,17.578L33.9,284.333Z" transform="translate(-17.321 -145.633)" opacity="0.251"/>
    <path id="Pfad_138" data-name="Pfad 138" d="M103.31,284.875l2.391,26.544-4.048-26.359Z" transform="translate(-54.629 -153.093)" opacity="0.251"/>
  </g>
</svg>
